<?xml version="1.0" encoding="utf-8"?>
<COLLADA xmlns="http://www.collada.org/2005/11/COLLADASchema" version="1.4.1">
  <asset>
    <contributor>
      <authoring_tool>Fusion URDF/XACRO Exporter</authoring_tool>
    </contributor>
    <created>2026-08-21T07:34:06Z</created>
    <modified>2026-08-21T07:34:06Z</modified>
    <unit name="meter" meter="1.0"/>
    <up_axis>Z_UP</up_axis>
  </asset>
  <library_effects>
    <effect id="Steel_-_Satin-effect">
      <profile_COMMON>
        <technique sid="common">
          <lambert>
            <emission><color>0 0 0 1</color></emission>
            <ambient><color>0.0000 0.0000 0.0000 1</color></ambient>
            <diffuse><color>0.6275 0.6275 0.6275 1</color></diffuse>
            <reflective><color>0 0 0 1</color></reflective>
            <transparent opaque="A_ONE"><color>1 1 1 1</color></transparent>
            <transparency><float>1</float></transparency>
          </lambert>
        </technique>
      </profile_COMMON>
    </effect>
  </library_effects>
  <library_materials>
    <material id="Steel_-_Satin" name="Steel_-_Satin">
      <instance_effect url="#Steel_-_Satin-effect"/>
    </material>
  </library_materials>
  <library_geometries>
    <geometry id="mat_1st_encoder-mesh" name="1st_encoder">
      <mesh>
        <source id="mat_1st_encoder-mesh-positions">
          <float_array id="mat_1st_encoder-mesh-positions-array" count="564">0.016000 -0.060000 0.186217 0.018251 -0.060000 0.187280 0.020432 -0.060000 0.188481 0.022534 -0.060000 0.189815 0.024549 -0.060000 0.191277 0.026470 -0.060000 0.192861 0.028288 -0.060000 0.194561 0.029998 -0.060000 0.196371 0.031592 -0.060000 0.198283 0.033065 -0.060000 0.200290 0.034410 -0.060000 0.202385 0.035622 -0.060000 0.204560 0.036698 -0.060000 0.206805 0.037632 -0.060000 0.209113 0.038421 -0.060000 0.211474 0.039062 -0.060000 0.213880 0.039552 -0.060000 0.216320 0.039890 -0.060000 0.218787 0.040075 -0.060000 0.221270 0.040105 -0.060000 0.223759 0.039981 -0.060000 0.226245 0.039703 -0.060000 0.228719 0.039271 -0.060000 0.231171 0.038689 -0.060000 0.233592 0.037957 -0.060000 0.235971 0.037079 -0.060000 0.238301 0.036059 -0.060000 0.240572 0.034899 -0.060000 0.242775 0.033605 -0.060000 0.244902 0.032182 -0.060000 0.246944 0.030634 -0.060000 0.248895 0.028969 -0.060000 0.250745 0.027192 -0.060000 0.252489 0.025310 -0.060000 0.254119 0.023331 -0.060000 0.255629 0.021262 -0.060000 0.257014 0.019111 -0.060000 0.258267 0.016886 -0.060000 0.259385 0.014597 -0.060000 0.260362 0.012251 -0.060000 0.261196 0.009858 -0.060000 0.261882 0.007427 -0.060000 0.262419 0.004967 -0.060000 0.262804 0.002488 -0.060000 0.263035 0.000000 -0.060000 0.263112 -0.002488 -0.060000 0.263035 -0.004967 -0.060000 0.262804 -0.007427 -0.060000 0.262419 -0.009858 -0.060000 0.261882 -0.012251 -0.060000 0.261196 -0.014597 -0.060000 0.260362 -0.016886 -0.060000 0.259385 -0.019111 -0.060000 0.258267 -0.021262 -0.060000 0.257014 -0.023331 -0.060000 0.255629 -0.025310 -0.060000 0.254119 -0.027192 -0.060000 0.252489 -0.028969 -0.060000 0.250745 -0.030634 -0.060000 0.248895 -0.032182 -0.060000 0.246944 -0.033605 -0.060000 0.244902 -0.034899 -0.060000 0.242775 -0.036059 -0.060000 0.240572 -0.037079 -0.060000 0.238301 -0.037957 -0.060000 0.235971 -0.038689 -0.060000 0.233592 -0.039271 -0.060000 0.231171 -0.039703 -0.060000 0.228719 -0.039981 -0.060000 0.226245 -0.040105 -0.060000 0.223759 -0.040075 -0.060000 0.221270 -0.039890 -0.060000 0.218787 -0.039552 -0.060000 0.216320 -0.039062 -0.060000 0.213880 -0.038421 -0.060000 0.211474 -0.037632 -0.060000 0.209113 -0.036698 -0.060000 0.206805 -0.035622 -0.060000 0.204560 -0.034410 -0.060000 0.202385 -0.033065 -0.060000 0.200290 -0.031592 -0.060000 0.198283 -0.029998 -0.060000 0.196371 -0.028288 -0.060000 0.194561 -0.026470 -0.060000 0.192861 -0.024549 -0.060000 0.191277 -0.022534 -0.060000 0.189815 -0.020432 -0.060000 0.188481 -0.018251 -0.060000 0.187280 -0.016000 -0.060000 0.186217 -0.016000 -0.070000 0.186217 -0.018251 -0.070000 0.187280 -0.020432 -0.070000 0.188481 -0.022534 -0.070000 0.189815 -0.024549 -0.070000 0.191277 -0.026470 -0.070000 0.192861 -0.028288 -0.070000 0.194561 -0.029998 -0.070000 0.196371 -0.031592 -0.070000 0.198283 -0.033065 -0.070000 0.200290 -0.034410 -0.070000 0.202385 -0.035622 -0.070000 0.204560 -0.036698 -0.070000 0.206805 -0.037632 -0.070000 0.209113 -0.038421 -0.070000 0.211474 -0.039062 -0.070000 0.213880 -0.039552 -0.070000 0.216320 -0.039890 -0.070000 0.218787 -0.040075 -0.070000 0.221270 -0.040105 -0.070000 0.223759 -0.039981 -0.070000 0.226245 -0.039703 -0.070000 0.228719 -0.039271 -0.070000 0.231171 -0.038689 -0.070000 0.233592 -0.037957 -0.070000 0.235971 -0.037079 -0.070000 0.238301 -0.036059 -0.070000 0.240572 -0.034899 -0.070000 0.242775 -0.033605 -0.070000 0.244902 -0.032182 -0.070000 0.246944 -0.030634 -0.070000 0.248895 -0.028969 -0.070000 0.250745 -0.027192 -0.070000 0.252489 -0.025310 -0.070000 0.254119 -0.023331 -0.070000 0.255629 -0.021262 -0.070000 0.257014 -0.019111 -0.070000 0.258267 -0.016886 -0.070000 0.259385 -0.014597 -0.070000 0.260362 -0.012251 -0.070000 0.261196 -0.009858 -0.070000 0.261882 -0.007427 -0.070000 0.262419 -0.004967 -0.070000 0.262804 -0.002488 -0.070000 0.263035 0.000000 -0.070000 0.263112 0.002488 -0.070000 0.263035 0.004967 -0.070000 0.262804 0.007427 -0.070000 0.262419 0.009858 -0.070000 0.261882 0.012251 -0.070000 0.261196 0.014597 -0.070000 0.260362 0.016886 -0.070000 0.259385 0.019111 -0.070000 0.258267 0.021262 -0.070000 0.257014 0.023331 -0.070000 0.255629 0.025310 -0.070000 0.254119 0.027192 -0.070000 0.252489 0.028969 -0.070000 0.250745 0.030634 -0.070000 0.248895 0.032182 -0.070000 0.246944 0.033605 -0.070000 0.244902 0.034899 -0.070000 0.242775 0.036059 -0.070000 0.240572 0.037079 -0.070000 0.238301 0.037957 -0.070000 0.235971 0.038689 -0.070000 0.233592 0.039271 -0.070000 0.231171 0.039703 -0.070000 0.228719 0.039981 -0.070000 0.226245 0.040105 -0.070000 0.223759 0.040075 -0.070000 0.221270 0.039890 -0.070000 0.218787 0.039552 -0.070000 0.216320 0.039062 -0.070000 0.213880 0.038421 -0.070000 0.211474 0.037632 -0.070000 0.209113 0.036698 -0.070000 0.206805 0.035622 -0.070000 0.204560 0.034410 -0.070000 0.202385 0.033065 -0.070000 0.200290 0.031592 -0.070000 0.198283 0.029998 -0.070000 0.196371 0.028288 -0.070000 0.194561 0.026470 -0.070000 0.192861 0.024549 -0.070000 0.191277 0.022534 -0.070000 0.189815 0.020432 -0.070000 0.188481 0.018251 -0.070000 0.187280 0.016000 -0.070000 0.186217 0.016000 -0.070000 0.170000 -0.016000 -0.070000 0.170000 0.016000 -0.060000 0.180000 -0.016000 -0.060000 0.180000 -0.016000 -0.050000 0.180000 -0.016000 -0.050000 0.170000 -0.016000 -0.060000 0.170000 0.016000 -0.050000 0.180000 0.016000 -0.050000 0.170000 0.016000 -0.060000 0.170000</float_array>
          <technique_common>
            <accessor source="#mat_1st_encoder-mesh-positions-array" count="188" stride="3">
              <param name="X" type="float"/>
              <param name="Y" type="float"/>
              <param name="Z" type="float"/>
            </accessor>
          </technique_common>
        </source>
        <source id="mat_1st_encoder-mesh-normals">
          <float_array id="mat_1st_encoder-mesh-normals-array" count="1164">0.398880 -0.000000 -0.917003 0.398880 -0.000000 -0.917003 0.454998 -0.000000 -0.890493 0.454998 -0.000000 -0.890493 0.509363 -0.000000 -0.860552 0.509363 -0.000000 -0.860552 0.561767 -0.000000 -0.827296 0.561767 -0.000000 -0.827296 0.612006 -0.000000 -0.790853 0.612006 -0.000000 -0.790853 0.659888 -0.000000 -0.751364 0.659888 -0.000000 -0.751364 0.705228 -0.000000 -0.708981 0.705228 -0.000000 -0.708981 0.747851 -0.000000 -0.663866 0.747851 -0.000000 -0.663866 0.787594 -0.000000 -0.616195 0.787594 -0.000000 -0.616195 0.824303 -0.000000 -0.566149 0.824303 -0.000000 -0.566149 0.857836 -0.000000 -0.513923 0.857836 -0.000000 -0.513923 0.888065 -0.000000 -0.459717 0.888065 -0.000000 -0.459717 0.914873 -0.000000 -0.403741 0.914873 -0.000000 -0.403741 0.938157 -0.000000 -0.346209 0.938157 -0.000000 -0.346209 0.957828 -0.000000 -0.287343 0.957828 -0.000000 -0.287343 0.973808 -0.000000 -0.227371 0.973808 -0.000000 -0.227371 0.986038 -0.000000 -0.166523 0.986038 -0.000000 -0.166523 0.994469 -0.000000 -0.105033 0.994469 -0.000000 -0.105033 0.999069 -0.000000 -0.043139 0.999069 -0.000000 -0.043139 0.999821 0.000000 0.018921 0.999821 0.000000 0.018921 0.996721 0.000000 0.080909 0.996721 0.000000 0.080909 0.989783 0.000000 0.142585 0.989783 0.000000 0.142585 0.979031 0.000000 0.203711 0.979031 0.000000 0.203711 0.964508 0.000000 0.264053 0.964508 0.000000 0.264053 0.946270 0.000000 0.323378 0.946270 0.000000 0.323378 0.924386 0.000000 0.381457 0.924386 0.000000 0.381457 0.898942 0.000000 0.438067 0.898942 0.000000 0.438067 0.870035 0.000000 0.492989 0.870035 0.000000 0.492989 0.837777 0.000000 0.546012 0.837777 0.000000 0.546012 0.802292 0.000000 0.596932 0.802292 0.000000 0.596932 0.763716 0.000000 0.645553 0.763716 0.000000 0.645553 0.722198 0.000000 0.691687 0.722198 0.000000 0.691687 0.677898 0.000000 0.735156 0.677898 0.000000 0.735156 0.630987 0.000000 0.775794 0.630987 0.000000 0.775794 0.581645 0.000000 0.813443 0.581645 0.000000 0.813443 0.530063 0.000000 0.847958 0.530063 0.000000 0.847958 0.476439 0.000000 0.879208 0.476439 0.000000 0.879208 0.420979 0.000000 0.907070 0.420979 0.000000 0.907070 0.363898 0.000000 0.931439 0.363898 0.000000 0.931439 0.305416 0.000000 0.952219 0.305416 0.000000 0.952219 0.245756 0.000000 0.969332 0.245756 0.000000 0.969332 0.185150 0.000000 0.982710 0.185150 0.000000 0.982710 0.123831 0.000000 0.992303 0.123831 0.000000 0.992303 0.062035 0.000000 0.998074 0.062035 0.000000 0.998074 0.000000 0.000000 1.000000 0.000000 0.000000 1.000000 -0.062035 -0.000000 0.998074 -0.062035 -0.000000 0.998074 -0.123831 -0.000000 0.992303 -0.123831 -0.000000 0.992303 -0.185150 -0.000000 0.982710 -0.185150 -0.000000 0.982710 -0.245756 -0.000000 0.969332 -0.245756 -0.000000 0.969332 -0.305416 -0.000000 0.952219 -0.305416 -0.000000 0.952219 -0.363898 -0.000000 0.931439 -0.363898 -0.000000 0.931439 -0.420979 -0.000000 0.907070 -0.420979 -0.000000 0.907070 -0.476439 -0.000000 0.879208 -0.476439 -0.000000 0.879208 -0.530063 -0.000000 0.847958 -0.530063 -0.000000 0.847958 -0.581645 -0.000000 0.813443 -0.581645 -0.000000 0.813443 -0.630987 -0.000000 0.775794 -0.630987 -0.000000 0.775794 -0.677898 -0.000000 0.735156 -0.677898 -0.000000 0.735156 -0.722198 -0.000000 0.691687 -0.722198 -0.000000 0.691687 -0.763716 -0.000000 0.645553 -0.763716 -0.000000 0.645553 -0.802292 -0.000000 0.596932 -0.802292 -0.000000 0.596932 -0.837777 -0.000000 0.546012 -0.837777 -0.000000 0.546012 -0.870035 -0.000000 0.492989 -0.870035 -0.000000 0.492989 -0.898942 -0.000000 0.438067 -0.898942 -0.000000 0.438067 -0.924386 -0.000000 0.381457 -0.924386 -0.000000 0.381457 -0.946270 -0.000000 0.323378 -0.946270 -0.000000 0.323378 -0.964508 -0.000000 0.264053 -0.964508 -0.000000 0.264053 -0.979031 -0.000000 0.203711 -0.979031 -0.000000 0.203711 -0.989783 -0.000000 0.142585 -0.989783 -0.000000 0.142585 -0.996721 -0.000000 0.080909 -0.996721 -0.000000 0.080909 -0.999821 -0.000000 0.018921 -0.999821 -0.000000 0.018921 -0.999069 -0.000000 -0.043139 -0.999069 -0.000000 -0.043139 -0.994469 -0.000000 -0.105033 -0.994469 -0.000000 -0.105033 -0.986038 -0.000000 -0.166523 -0.986038 -0.000000 -0.166523 -0.973808 -0.000000 -0.227371 -0.973808 -0.000000 -0.227371 -0.957828 -0.000000 -0.287343 -0.957828 -0.000000 -0.287343 -0.938157 -0.000000 -0.346209 -0.938157 -0.000000 -0.346209 -0.914873 -0.000000 -0.403741 -0.914873 -0.000000 -0.403741 -0.888065 -0.000000 -0.459717 -0.888065 -0.000000 -0.459717 -0.857836 -0.000000 -0.513923 -0.857836 -0.000000 -0.513923 -0.824303 -0.000000 -0.566149 -0.824303 -0.000000 -0.566149 -0.787594 -0.000000 -0.616195 -0.787594 -0.000000 -0.616195 -0.747851 -0.000000 -0.663866 -0.747851 -0.000000 -0.663866 -0.705228 -0.000000 -0.708981 -0.705228 -0.000000 -0.708981 -0.659888 -0.000000 -0.751364 -0.659888 -0.000000 -0.751364 -0.612006 -0.000000 -0.790853 -0.612006 -0.000000 -0.790853 -0.561767 -0.000000 -0.827296 -0.561767 -0.000000 -0.827296 -0.509363 -0.000000 -0.860552 -0.509363 -0.000000 -0.860552 -0.454998 -0.000000 -0.890493 -0.454998 -0.000000 -0.890493 -0.398880 -0.000000 -0.917003 -0.398880 -0.000000 -0.917003 0.000000 -1.000000 0.000000 0.000000 -1.000000 0.000000 0.000000 -1.000000 0.000000 0.000000 -1.000000 0.000000 0.000000 -1.000000 0.000000 0.000000 -1.000000 0.000000 0.000000 -1.000000 0.000000 0.000000 -1.000000 0.000000 0.000000 -1.000000 0.000000 0.000000 -1.000000 0.000000 0.000000 -1.000000 0.000000 0.000000 -1.000000 0.000000 0.000000 -1.000000 0.000000 0.000000 -1.000000 0.000000 0.000000 -1.000000 0.000000 0.000000 -1.000000 0.000000 0.000000 -1.000000 0.000000 0.000000 -1.000000 0.000000 0.000000 -1.000000 0.000000 0.000000 -1.000000 0.000000 0.000000 -1.000000 0.000000 0.000000 -1.000000 0.000000 0.000000 -1.000000 0.000000 0.000000 -1.000000 0.000000 0.000000 -1.000000 0.000000 0.000000 -1.000000 0.000000 0.000000 -1.000000 0.000000 0.000000 -1.000000 0.000000 0.000000 -1.000000 0.000000 0.000000 -1.000000 0.000000 0.000000 -1.000000 0.000000 0.000000 -1.000000 0.000000 0.000000 -1.000000 0.000000 0.000000 -1.000000 0.000000 0.000000 -1.000000 0.000000 0.000000 -1.000000 0.000000 0.000000 -1.000000 0.000000 0.000000 -1.000000 0.000000 0.000000 -1.000000 0.000000 0.000000 -1.000000 0.000000 0.000000 -1.000000 0.000000 0.000000 -1.000000 0.000000 0.000000 -1.000000 0.000000 0.000000 -1.000000 0.000000 0.000000 -1.000000 0.000000 0.000000 -1.000000 0.000000 0.000000 -1.000000 0.000000 0.000000 -1.000000 0.000000 0.000000 -1.000000 0.000000 0.000000 -1.000000 0.000000 0.000000 -1.000000 0.000000 0.000000 -1.000000 0.000000 0.000000 -1.000000 0.000000 0.000000 -1.000000 0.000000 0.000000 -1.000000 0.000000 0.000000 -1.000000 0.000000 0.000000 -1.000000 0.000000 0.000000 -1.000000 0.000000 0.000000 -1.000000 0.000000 0.000000 -1.000000 0.000000 0.000000 -1.000000 0.000000 0.000000 -1.000000 0.000000 0.000000 -1.000000 0.000000 0.000000 -1.000000 0.000000 0.000000 -1.000000 0.000000 0.000000 -1.000000 0.000000 0.000000 -1.000000 0.000000 0.000000 -1.000000 0.000000 0.000000 -1.000000 0.000000 0.000000 -1.000000 0.000000 0.000000 -1.000000 0.000000 0.000000 -1.000000 0.000000 0.000000 -1.000000 0.000000 0.000000 -1.000000 0.000000 0.000000 -1.000000 0.000000 0.000000 -1.000000 0.000000 0.000000 -1.000000 0.000000 0.000000 -1.000000 0.000000 0.000000 -1.000000 0.000000 0.000000 -1.000000 0.000000 0.000000 -1.000000 0.000000 0.000000 -1.000000 0.000000 0.000000 -1.000000 0.000000 0.000000 -1.000000 0.000000 0.000000 -1.000000 0.000000 0.000000 -1.000000 0.000000 0.000000 -1.000000 0.000000 0.000000 -1.000000 0.000000 0.000000 -1.000000 0.000000 0.000000 -1.000000 0.000000 0.000000 -1.000000 0.000000 -0.000000 1.000000 -0.000000 -0.000000 1.000000 -0.000000 -0.000000 1.000000 -0.000000 -0.000000 1.000000 -0.000000 -0.000000 1.000000 -0.000000 -0.000000 1.000000 -0.000000 -0.000000 1.000000 -0.000000 -0.000000 1.000000 -0.000000 -0.000000 1.000000 -0.000000 -0.000000 1.000000 -0.000000 -0.000000 1.000000 -0.000000 -0.000000 1.000000 -0.000000 -0.000000 1.000000 -0.000000 -0.000000 1.000000 -0.000000 -0.000000 1.000000 -0.000000 -0.000000 1.000000 -0.000000 -0.000000 1.000000 -0.000000 -0.000000 1.000000 -0.000000 -0.000000 1.000000 -0.000000 -0.000000 1.000000 -0.000000 -0.000000 1.000000 -0.000000 -0.000000 1.000000 -0.000000 -0.000000 1.000000 -0.000000 -0.000000 1.000000 -0.000000 -0.000000 1.000000 -0.000000 -0.000000 1.000000 -0.000000 -0.000000 1.000000 -0.000000 -0.000000 1.000000 -0.000000 -0.000000 1.000000 -0.000000 -0.000000 1.000000 -0.000000 -0.000000 1.000000 -0.000000 -0.000000 1.000000 -0.000000 -0.000000 1.000000 -0.000000 -0.000000 1.000000 -0.000000 -0.000000 1.000000 -0.000000 -0.000000 1.000000 -0.000000 -0.000000 1.000000 -0.000000 -0.000000 1.000000 -0.000000 -0.000000 1.000000 -0.000000 -0.000000 1.000000 -0.000000 -0.000000 1.000000 -0.000000 -0.000000 1.000000 -0.000000 -0.000000 1.000000 -0.000000 -0.000000 1.000000 -0.000000 -0.000000 1.000000 -0.000000 -0.000000 1.000000 -0.000000 -0.000000 1.000000 -0.000000 -0.000000 1.000000 -0.000000 -0.000000 1.000000 -0.000000 -0.000000 1.000000 -0.000000 -0.000000 1.000000 -0.000000 -0.000000 1.000000 -0.000000 -0.000000 1.000000 -0.000000 -0.000000 1.000000 -0.000000 -0.000000 1.000000 -0.000000 -0.000000 1.000000 -0.000000 -0.000000 1.000000 -0.000000 -0.000000 1.000000 -0.000000 -0.000000 1.000000 -0.000000 -0.000000 1.000000 -0.000000 -0.000000 1.000000 -0.000000 -0.000000 1.000000 -0.000000 -0.000000 1.000000 -0.000000 -0.000000 1.000000 -0.000000 -0.000000 1.000000 -0.000000 -0.000000 1.000000 -0.000000 -0.000000 1.000000 -0.000000 -0.000000 1.000000 -0.000000 -0.000000 1.000000 -0.000000 -0.000000 1.000000 -0.000000 -0.000000 1.000000 -0.000000 -0.000000 1.000000 -0.000000 -0.000000 1.000000 -0.000000 -0.000000 1.000000 -0.000000 -0.000000 1.000000 -0.000000 -0.000000 1.000000 -0.000000 -0.000000 1.000000 -0.000000 -0.000000 1.000000 -0.000000 -0.000000 1.000000 -0.000000 -0.000000 1.000000 -0.000000 -0.000000 1.000000 -0.000000 -0.000000 1.000000 -0.000000 -0.000000 1.000000 -0.000000 -0.000000 1.000000 -0.000000 -0.000000 1.000000 -0.000000 -0.000000 1.000000 -0.000000 -0.000000 1.000000 -0.000000 -0.000000 1.000000 -0.000000 -0.000000 1.000000 -0.000000 -0.000000 1.000000 -0.000000 -0.000000 1.000000 -0.000000 -1.000000 0.000000 0.000000 -1.000000 0.000000 0.000000 -1.000000 0.000000 0.000000 -1.000000 0.000000 0.000000 -1.000000 0.000000 0.000000 -1.000000 0.000000 0.000000 -1.000000 0.000000 0.000000 -0.000000 0.000000 1.000000 -0.000000 0.000000 1.000000 -0.000000 0.000000 1.000000 -0.000000 0.000000 1.000000 1.000000 0.000000 0.000000 1.000000 0.000000 0.000000 1.000000 0.000000 0.000000 1.000000 0.000000 0.000000 1.000000 0.000000 0.000000 1.000000 0.000000 0.000000 1.000000 0.000000 0.000000 -0.000000 -0.000000 -1.000000 -0.000000 -0.000000 -1.000000 -0.000000 -0.000000 -1.000000 -0.000000 -0.000000 -1.000000 -0.000000 -0.000000 -1.000000 -0.000000 -0.000000 -1.000000 -0.000000 1.000000 -0.000000 -0.000000 1.000000 -0.000000 -0.000000 1.000000 -0.000000 -0.000000 1.000000 -0.000000</float_array>
          <technique_common>
            <accessor source="#mat_1st_encoder-mesh-normals-array" count="388" stride="3">
              <param name="X" type="float"/>
              <param name="Y" type="float"/>
              <param name="Z" type="float"/>
            </accessor>
          </technique_common>
        </source>
        <vertices id="mat_1st_encoder-mesh-vertices">
          <input semantic="POSITION" source="#mat_1st_encoder-mesh-positions"/>
        </vertices>
        <triangles material="Steel_-_Satin" count="372">
          <input semantic="VERTEX" source="#mat_1st_encoder-mesh-vertices" offset="0"/>
          <input semantic="NORMAL" source="#mat_1st_encoder-mesh-normals" offset="1"/>
          <p>177 0 0 1 176 2 176 2 0 1 1 3 176 2 1 3 2 4 176 2 2 4 175 5 175 5 2 4 3 6 175 5 3 6 174 7 174 7 3 6 4 8 174 7 4 8 173 9 173 9 4 8 5 10 173 9 5 10 172 11 172 11 5 10 6 12 172 11 6 12 171 13 171 13 6 12 7 14 171 13 7 14 170 15 170 15 7 14 8 16 170 15 8 16 169 17 169 17 8 16 9 18 169 17 9 18 168 19 168 19 9 18 10 20 168 19 10 20 167 21 167 21 10 20 11 22 167 21 11 22 166 23 166 23 11 22 12 24 166 23 12 24 165 25 165 25 12 24 13 26 165 25 13 26 164 27 164 27 13 26 14 28 164 27 14 28 163 29 163 29 14 28 15 30 163 29 15 30 162 31 162 31 15 30 16 32 162 31 16 32 161 33 161 33 16 32 17 34 161 33 17 34 160 35 160 35 17 34 18 36 160 35 18 36 159 37 159 37 18 36 19 38 159 37 19 38 158 39 158 39 19 38 20 40 158 39 20 40 157 41 157 41 20 40 21 42 157 41 21 42 156 43 156 43 21 42 22 44 156 43 22 44 155 45 155 45 22 44 23 46 155 45 23 46 154 47 154 47 23 46 24 48 154 47 24 48 153 49 153 49 24 48 25 50 153 49 25 50 152 51 152 51 25 50 26 52 152 51 26 52 151 53 151 53 26 52 27 54 151 53 27 54 150 55 150 55 27 54 28 56 150 55 28 56 149 57 149 57 28 56 29 58 149 57 29 58 148 59 148 59 29 58 30 60 148 59 30 60 147 61 147 61 30 60 31 62 147 61 31 62 146 63 146 63 31 62 32 64 146 63 32 64 145 65 145 65 32 64 33 66 145 65 33 66 144 67 144 67 33 66 34 68 144 67 34 68 143 69 143 69 34 68 35 70 143 69 35 70 142 71 142 71 35 70 36 72 142 71 36 72 141 73 141 73 36 72 37 74 141 73 37 74 140 75 140 75 37 74 38 76 140 75 38 76 139 77 139 77 38 76 39 78 139 77 39 78 138 79 138 79 39 78 40 80 138 79 40 80 137 81 137 81 40 80 41 82 137 81 41 82 136 83 136 83 41 82 42 84 136 83 42 84 135 85 135 85 42 84 43 86 135 85 43 86 134 87 134 87 43 86 44 88 134 87 44 88 133 89 133 89 44 88 45 90 133 89 45 90 132 91 132 91 45 90 46 92 132 91 46 92 131 93 131 93 46 92 47 94 131 93 47 94 130 95 130 95 47 94 48 96 130 95 48 96 129 97 129 97 48 96 49 98 129 97 49 98 128 99 128 99 49 98 50 100 128 99 50 100 127 101 127 101 50 100 51 102 127 101 51 102 126 103 126 103 51 102 52 104 126 103 52 104 125 105 125 105 52 104 53 106 125 105 53 106 124 107 124 107 53 106 54 108 124 107 54 108 123 109 123 109 54 108 55 110 123 109 55 110 122 111 122 111 55 110 56 112 122 111 56 112 121 113 121 113 56 112 57 114 121 113 57 114 120 115 120 115 57 114 58 116 120 115 58 116 119 117 119 117 58 116 59 118 119 117 59 118 118 119 118 119 59 118 60 120 118 119 60 120 117 121 117 121 60 120 61 122 117 121 61 122 116 123 116 123 61 122 62 124 116 123 62 124 115 125 115 125 62 124 63 126 115 125 63 126 114 127 114 127 63 126 64 128 114 127 64 128 113 129 113 129 64 128 65 130 113 129 65 130 112 131 112 131 65 130 66 132 112 131 66 132 111 133 111 133 66 132 67 134 111 133 67 134 110 135 110 135 67 134 68 136 110 135 68 136 109 137 109 137 68 136 69 138 109 137 69 138 108 139 108 139 69 138 70 140 108 139 70 140 107 141 107 141 70 140 71 142 107 141 71 142 106 143 106 143 71 142 72 144 106 143 72 144 105 145 105 145 72 144 73 146 105 145 73 146 104 147 104 147 73 146 74 148 104 147 74 148 103 149 103 149 74 148 75 150 103 149 75 150 102 151 102 151 75 150 76 152 102 151 76 152 101 153 101 153 76 152 77 154 101 153 77 154 100 155 100 155 77 154 78 156 100 155 78 156 99 157 99 157 78 156 79 158 99 157 79 158 98 159 98 159 79 158 80 160 98 159 80 160 97 161 97 161 80 160 81 162 97 161 81 162 96 163 96 163 81 162 82 164 96 163 82 164 95 165 95 165 82 164 83 166 95 165 83 166 94 167 94 167 83 166 84 168 94 167 84 168 93 169 93 169 84 168 85 170 93 169 85 170 92 171 92 171 85 170 86 172 92 171 86 172 91 173 91 173 86 172 87 174 91 173 87 174 90 175 90 175 87 174 89 176 89 176 87 174 88 177 179 178 178 179 89 180 89 180 178 179 177 181 89 180 177 181 90 182 90 182 177 181 176 183 90 182 176 183 91 184 91 184 176 183 175 185 91 184 175 185 92 186 92 186 175 185 174 187 92 186 174 187 93 188 93 188 174 187 173 189 93 188 173 189 94 190 94 190 173 189 172 191 94 190 172 191 95 192 95 192 172 191 171 193 95 192 171 193 96 194 96 194 171 193 170 195 96 194 170 195 97 196 97 196 170 195 169 197 97 196 169 197 98 198 98 198 169 197 168 199 98 198 168 199 99 200 99 200 168 199 167 201 99 200 167 201 100 202 100 202 167 201 166 203 100 202 166 203 101 204 101 204 166 203 165 205 101 204 165 205 102 206 102 206 165 205 164 207 102 206 164 207 103 208 103 208 164 207 163 209 103 208 163 209 104 210 104 210 163 209 162 211 104 210 162 211 105 212 105 212 162 211 161 213 105 212 161 213 106 214 106 214 161 213 160 215 106 214 160 215 107 216 107 216 160 215 159 217 107 216 159 217 108 218 108 218 159 217 158 219 108 218 158 219 109 220 109 220 158 219 157 221 109 220 157 221 110 222 110 222 157 221 156 223 110 222 156 223 111 224 111 224 156 223 155 225 111 224 155 225 112 226 112 226 155 225 154 227 112 226 154 227 113 228 113 228 154 227 153 229 113 228 153 229 114 230 114 230 153 229 115 231 115 231 153 229 116 232 116 232 153 229 117 233 117 233 153 229 118 234 118 234 153 229 119 235 119 235 153 229 120 236 120 236 153 229 121 237 121 237 153 229 122 238 122 238 153 229 123 239 123 239 153 229 124 240 124 240 153 229 125 241 125 241 153 229 126 242 126 242 153 229 127 243 127 243 153 229 128 244 128 244 153 229 129 245 129 245 153 229 130 246 130 246 153 229 131 247 131 247 153 229 132 248 132 248 153 229 133 249 133 249 153 229 134 250 134 250 153 229 135 251 135 251 153 229 136 252 136 252 153 229 137 253 137 253 153 229 138 254 138 254 153 229 139 255 139 255 153 229 140 256 140 256 153 229 141 257 141 257 153 229 142 258 142 258 153 229 143 259 143 259 153 229 144 260 144 260 153 229 145 261 145 261 153 229 146 262 146 262 153 229 147 263 147 263 153 229 148 264 148 264 153 229 149 265 149 265 153 229 150 266 150 266 153 229 151 267 151 267 153 229 152 268 180 269 181 270 0 271 0 271 181 270 88 272 0 271 88 272 1 273 1 273 88 272 87 274 1 273 87 274 2 275 2 275 87 274 86 276 2 275 86 276 3 277 3 277 86 276 85 278 3 277 85 278 4 279 4 279 85 278 84 280 4 279 84 280 5 281 5 281 84 280 83 282 5 281 83 282 6 283 6 283 83 282 82 284 6 283 82 284 7 285 7 285 82 284 81 286 7 285 81 286 8 287 8 287 81 286 80 288 8 287 80 288 9 289 9 289 80 288 79 290 9 289 79 290 10 291 10 291 79 290 78 292 10 291 78 292 11 293 11 293 78 292 77 294 11 293 77 294 12 295 12 295 77 294 76 296 12 295 76 296 13 297 13 297 76 296 75 298 13 297 75 298 14 299 14 299 75 298 74 300 14 299 74 300 15 301 15 301 74 300 73 302 15 301 73 302 16 303 16 303 73 302 72 304 16 303 72 304 17 305 17 305 72 304 71 306 17 305 71 306 18 307 18 307 71 306 70 308 18 307 70 308 19 309 19 309 70 308 69 310 19 309 69 310 20 311 20 311 69 310 68 312 20 311 68 312 21 313 21 313 68 312 67 314 21 313 67 314 22 315 22 315 67 314 66 316 22 315 66 316 23 317 23 317 66 316 65 318 23 317 65 318 24 319 24 319 65 318 64 320 24 319 64 320 25 321 25 321 64 320 26 322 26 322 64 320 27 323 27 323 64 320 28 324 28 324 64 320 29 325 29 325 64 320 30 326 30 326 64 320 31 327 31 327 64 320 32 328 32 328 64 320 33 329 33 329 64 320 34 330 34 330 64 320 35 331 35 331 64 320 36 332 36 332 64 320 37 333 37 333 64 320 38 334 38 334 64 320 39 335 39 335 64 320 40 336 40 336 64 320 41 337 41 337 64 320 42 338 42 338 64 320 43 339 43 339 64 320 44 340 44 340 64 320 45 341 45 341 64 320 46 342 46 342 64 320 47 343 47 343 64 320 48 344 48 344 64 320 49 345 49 345 64 320 50 346 50 346 64 320 51 347 51 347 64 320 52 348 52 348 64 320 53 349 53 349 64 320 54 350 54 350 64 320 55 351 55 351 64 320 56 352 56 352 64 320 57 353 57 353 64 320 58 354 58 354 64 320 59 355 59 355 64 320 60 356 60 356 64 320 61 357 61 357 64 320 62 358 62 358 64 320 63 359 182 360 183 361 181 362 181 362 183 361 184 363 181 362 184 363 179 364 179 364 89 365 181 362 181 362 89 365 88 366 185 367 182 368 180 369 180 369 182 368 181 370 186 371 185 372 187 373 187 373 185 372 180 374 187 373 180 374 178 375 178 375 180 374 177 376 177 376 180 374 0 377 183 378 186 379 184 380 184 380 186 379 187 381 184 380 187 381 179 382 179 382 187 381 178 383 186 384 183 385 185 386 185 386 183 385 182 387</p>
        </triangles>
      </mesh>
    </geometry>
  </library_geometries>
  <library_visual_scenes>
    <visual_scene id="Scene" name="Scene">
      <node id="mat_1st_encoder-node" name="1st_encoder" type="NODE">
        <instance_geometry url="#mat_1st_encoder-mesh">
          <bind_material>
            <technique_common>
              <instance_material symbol="Steel_-_Satin" target="#Steel_-_Satin"/>
            </technique_common>
          </bind_material>
        </instance_geometry>
      </node>
    </visual_scene>
  </library_visual_scenes>
  <scene>
    <instance_visual_scene url="#Scene"/>
  </scene>
</COLLADA>
