<?xml version="1.0" encoding="utf-8"?>
<COLLADA xmlns="http://www.collada.org/2005/11/COLLADASchema" version="1.4.1">
  <asset>
    <contributor>
      <authoring_tool>Fusion URDF/XACRO Exporter</authoring_tool>
    </contributor>
    <created>2026-08-21T07:34:05Z</created>
    <modified>2026-08-21T07:34:05Z</modified>
    <unit name="meter" meter="1.0"/>
    <up_axis>Z_UP</up_axis>
  </asset>
  <library_effects>
    <effect id="Default-effect">
      <profile_COMMON>
        <technique sid="common">
          <lambert>
            <emission><color>0 0 0 1</color></emission>
            <ambient><color>0.0000 0.0000 0.0000 1</color></ambient>
            <diffuse><color>0.7490 0.7490 0.7490 1</color></diffuse>
            <reflective><color>0 0 0 1</color></reflective>
            <transparent opaque="A_ONE"><color>1 1 1 1</color></transparent>
            <transparency><float>1</float></transparency>
          </lambert>
        </technique>
      </profile_COMMON>
    </effect>
  </library_effects>
  <library_materials>
    <material id="Default" name="Default">
      <instance_effect url="#Default-effect"/>
    </material>
  </library_materials>
  <library_geometries>
    <geometry id="mat_2nd_link-mesh" name="2nd_link">
      <mesh>
        <source id="mat_2nd_link-mesh-positions">
          <float_array id="mat_2nd_link-mesh-positions-array" count="1560">-0.035000 0.000000 -0.002000 -0.034889 -0.002781 -0.002000 -0.034558 -0.005544 -0.002000 -0.034008 -0.008272 -0.002000 -0.033244 -0.010948 -0.002000 -0.032269 -0.013554 -0.002000 -0.031090 -0.016075 -0.002000 -0.029714 -0.018495 -0.002000 -0.028151 -0.020797 -0.002000 -0.026410 -0.022968 -0.002000 -0.024501 -0.024994 -0.002000 -0.022438 -0.026861 -0.002000 -0.020233 -0.028559 -0.002000 -0.017900 -0.030076 -0.002000 -0.015454 -0.031403 -0.002000 -0.012910 -0.032532 -0.002000 -0.010285 -0.033455 -0.002000 -0.007594 -0.034166 -0.002000 -0.004856 -0.034662 -0.002000 -0.002087 -0.034938 -0.002000 0.000696 -0.034993 -0.002000 0.003474 -0.034827 -0.002000 0.006230 -0.034441 -0.002000 0.008947 -0.033837 -0.002000 0.011607 -0.033019 -0.002000 0.014193 -0.031993 -0.002000 0.016690 -0.030764 -0.002000 0.019082 -0.029341 -0.002000 0.021353 -0.027732 -0.002000 0.023488 -0.025948 -0.002000 0.025476 -0.024000 -0.002000 0.027302 -0.021900 -0.002000 0.028956 -0.019661 -0.002000 0.030426 -0.017299 -0.002000 0.031704 -0.014827 -0.002000 0.032782 -0.012261 -0.002000 0.033653 -0.009618 -0.002000 0.034310 -0.006913 -0.002000 0.034751 -0.004166 -0.002000 0.034972 -0.001391 -0.002000 0.034972 0.001391 -0.002000 0.034751 0.004166 -0.002000 0.034310 0.006913 -0.002000 0.033653 0.009618 -0.002000 0.032782 0.012261 -0.002000 0.031704 0.014827 -0.002000 0.030426 0.017299 -0.002000 0.028956 0.019661 -0.002000 0.027302 0.021900 -0.002000 0.025476 0.024000 -0.002000 0.023488 0.025948 -0.002000 0.021353 0.027732 -0.002000 0.019082 0.029341 -0.002000 0.016690 0.030764 -0.002000 0.014193 0.031993 -0.002000 0.011607 0.033019 -0.002000 0.008947 0.033837 -0.002000 0.006230 0.034441 -0.002000 0.003474 0.034827 -0.002000 0.000696 0.034993 -0.002000 -0.002087 0.034938 -0.002000 -0.004856 0.034662 -0.002000 -0.007594 0.034166 -0.002000 -0.010285 0.033455 -0.002000 -0.012910 0.032532 -0.002000 -0.015454 0.031403 -0.002000 -0.017900 0.030076 -0.002000 -0.020233 0.028559 -0.002000 -0.022438 0.026861 -0.002000 -0.024501 0.024994 -0.002000 -0.026410 0.022968 -0.002000 -0.028151 0.020797 -0.002000 -0.029714 0.018495 -0.002000 -0.031090 0.016075 -0.002000 -0.032269 0.013554 -0.002000 -0.033244 0.010948 -0.002000 -0.034008 0.008272 -0.002000 -0.034558 0.005544 -0.002000 -0.034889 0.002781 -0.002000 -0.035000 0.000000 0.000000 -0.034889 0.002781 0.000000 -0.034558 0.005544 0.000000 -0.034008 0.008272 0.000000 -0.033244 0.010948 0.000000 -0.032269 0.013554 0.000000 -0.031090 0.016075 0.000000 -0.029714 0.018495 0.000000 -0.028151 0.020797 0.000000 -0.026410 0.022968 0.000000 -0.024501 0.024994 0.000000 -0.022438 0.026861 0.000000 -0.020233 0.028559 0.000000 -0.017900 0.030076 0.000000 -0.015454 0.031403 0.000000 -0.012910 0.032532 0.000000 -0.010285 0.033455 0.000000 -0.007594 0.034166 0.000000 -0.004856 0.034662 0.000000 -0.002087 0.034938 0.000000 0.000696 0.034993 0.000000 0.003474 0.034827 0.000000 0.006230 0.034441 0.000000 0.008947 0.033837 0.000000 0.011607 0.033019 0.000000 0.014193 0.031993 0.000000 0.016690 0.030764 0.000000 0.019082 0.029341 0.000000 0.021353 0.027732 0.000000 0.023488 0.025948 0.000000 0.025476 0.024000 0.000000 0.027302 0.021900 0.000000 0.028956 0.019661 0.000000 0.030426 0.017299 0.000000 0.031704 0.014827 0.000000 0.032782 0.012261 0.000000 0.033653 0.009618 0.000000 0.034310 0.006913 0.000000 0.034751 0.004166 0.000000 0.034972 0.001391 0.000000 0.034972 -0.001391 0.000000 0.034751 -0.004166 0.000000 0.034310 -0.006913 0.000000 0.033653 -0.009618 0.000000 0.032782 -0.012261 0.000000 0.031704 -0.014827 0.000000 0.030426 -0.017299 0.000000 0.028956 -0.019661 0.000000 0.027302 -0.021900 0.000000 0.025476 -0.024000 0.000000 0.023488 -0.025948 0.000000 0.021353 -0.027732 0.000000 0.019082 -0.029341 0.000000 0.016690 -0.030764 0.000000 0.014193 -0.031993 0.000000 0.011607 -0.033019 0.000000 0.008947 -0.033837 0.000000 0.006230 -0.034441 0.000000 0.003474 -0.034827 0.000000 0.000696 -0.034993 0.000000 -0.002087 -0.034938 0.000000 -0.004856 -0.034662 0.000000 -0.007594 -0.034166 0.000000 -0.010285 -0.033455 0.000000 -0.012910 -0.032532 0.000000 -0.015454 -0.031403 0.000000 -0.017900 -0.030076 0.000000 -0.020233 -0.028559 0.000000 -0.022438 -0.026861 0.000000 -0.024501 -0.024994 0.000000 -0.026410 -0.022968 0.000000 -0.028151 -0.020797 0.000000 -0.029714 -0.018495 0.000000 -0.031090 -0.016075 0.000000 -0.032269 -0.013554 0.000000 -0.033244 -0.010948 0.000000 -0.034008 -0.008272 0.000000 -0.034558 -0.005544 0.000000 -0.034889 -0.002781 0.000000 -0.047000 -0.050000 0.061000 -0.047000 -0.050000 0.000000 0.047000 -0.050000 0.000000 0.047000 -0.050000 0.061000 0.046890 -0.050000 0.064207 0.046562 -0.050000 0.067400 0.046017 -0.050000 0.070562 0.045257 -0.050000 0.073680 0.044286 -0.050000 0.076739 0.043109 -0.050000 0.079725 0.041731 -0.050000 0.082623 0.040158 -0.050000 0.085420 0.038398 -0.050000 0.088104 0.036458 -0.050000 0.090661 0.034349 -0.050000 0.093080 0.032080 -0.050000 0.095349 0.029661 -0.050000 0.097458 0.027104 -0.050000 0.099398 0.024420 -0.050000 0.101158 0.021623 -0.050000 0.102731 0.018725 -0.050000 0.104109 0.015739 -0.050000 0.105286 0.012680 -0.050000 0.106257 0.009562 -0.050000 0.107017 0.006400 -0.050000 0.107562 0.003207 -0.050000 0.107890 0.000000 -0.050000 0.108000 -0.003207 -0.050000 0.107890 -0.006400 -0.050000 0.107562 -0.009562 -0.050000 0.107017 -0.012680 -0.050000 0.106257 -0.015739 -0.050000 0.105286 -0.018725 -0.050000 0.104109 -0.021623 -0.050000 0.102731 -0.024420 -0.050000 0.101158 -0.027104 -0.050000 0.099398 -0.029661 -0.050000 0.097458 -0.032080 -0.050000 0.095349 -0.034349 -0.050000 0.093080 -0.036458 -0.050000 0.090661 -0.038398 -0.050000 0.088104 -0.040158 -0.050000 0.085420 -0.041731 -0.050000 0.082623 -0.043109 -0.050000 0.079725 -0.044286 -0.050000 0.076739 -0.045257 -0.050000 0.073680 -0.046017 -0.050000 0.070562 -0.046562 -0.050000 0.067400 -0.046890 -0.050000 0.064207 -0.030000 -0.050000 0.061000 -0.029889 -0.050000 0.063579 -0.029557 -0.050000 0.066139 -0.029005 -0.050000 0.068661 -0.028240 -0.050000 0.071126 -0.027265 -0.050000 0.073516 -0.026088 -0.050000 0.075813 -0.024718 -0.050000 0.078001 -0.023165 -0.050000 0.080063 -0.021440 -0.050000 0.081984 -0.019557 -0.050000 0.083749 -0.017529 -0.050000 0.085346 -0.015371 -0.050000 0.086763 -0.013100 -0.050000 0.087989 -0.010731 -0.050000 0.089015 -0.008283 -0.050000 0.089834 -0.005774 -0.050000 0.090439 -0.003221 -0.050000 0.090827 -0.000645 -0.050000 0.090993 0.001935 -0.050000 0.090938 0.004502 -0.050000 0.090660 0.007035 -0.050000 0.090164 0.009516 -0.050000 0.089451 0.011926 -0.050000 0.088528 0.014249 -0.050000 0.087400 0.016465 -0.050000 0.086078 0.018560 -0.050000 0.084570 0.020518 -0.050000 0.082887 0.022323 -0.050000 0.081042 0.023963 -0.050000 0.079049 0.025426 -0.050000 0.076922 0.026701 -0.050000 0.074677 0.027778 -0.050000 0.072331 0.028649 -0.050000 0.069901 0.029308 -0.050000 0.067406 0.029750 -0.050000 0.064862 0.029972 -0.050000 0.062291 0.029972 -0.050000 0.059709 0.029750 -0.050000 0.057138 0.029308 -0.050000 0.054594 0.028649 -0.050000 0.052099 0.027778 -0.050000 0.049669 0.026701 -0.050000 0.047323 0.025426 -0.050000 0.045078 0.023963 -0.050000 0.042951 0.022323 -0.050000 0.040958 0.020518 -0.050000 0.039113 0.018560 -0.050000 0.037431 0.016465 -0.050000 0.035922 0.014249 -0.050000 0.034600 0.011926 -0.050000 0.033472 0.009516 -0.050000 0.032549 0.007035 -0.050000 0.031836 0.004502 -0.050000 0.031340 0.001935 -0.050000 0.031062 -0.000645 -0.050000 0.031007 -0.003221 -0.050000 0.031173 -0.005774 -0.050000 0.031561 -0.008283 -0.050000 0.032166 -0.010731 -0.050000 0.032985 -0.013100 -0.050000 0.034011 -0.015371 -0.050000 0.035237 -0.017529 -0.050000 0.036654 -0.019557 -0.050000 0.038251 -0.021440 -0.050000 0.040016 -0.023165 -0.050000 0.041937 -0.024718 -0.050000 0.043999 -0.026088 -0.050000 0.046187 -0.027265 -0.050000 0.048484 -0.028240 -0.050000 0.050874 -0.029005 -0.050000 0.053339 -0.029557 -0.050000 0.055861 -0.029889 -0.050000 0.058421 -0.030000 0.050000 0.061000 -0.029889 0.050000 0.063579 -0.029557 0.050000 0.066139 -0.029005 0.050000 0.068661 -0.028240 0.050000 0.071126 -0.027265 0.050000 0.073516 -0.026088 0.050000 0.075813 -0.024718 0.050000 0.078001 -0.023165 0.050000 0.080063 -0.021440 0.050000 0.081984 -0.019557 0.050000 0.083749 -0.017529 0.050000 0.085346 -0.015371 0.050000 0.086763 -0.013100 0.050000 0.087989 -0.010731 0.050000 0.089015 -0.008283 0.050000 0.089834 -0.005774 0.050000 0.090439 -0.003221 0.050000 0.090827 -0.000645 0.050000 0.090993 0.001935 0.050000 0.090938 0.004502 0.050000 0.090660 0.007035 0.050000 0.090164 0.009516 0.050000 0.089451 0.011926 0.050000 0.088528 0.014249 0.050000 0.087400 0.016465 0.050000 0.086078 0.018560 0.050000 0.084570 0.020518 0.050000 0.082887 0.022323 0.050000 0.081042 0.023963 0.050000 0.079049 0.025426 0.050000 0.076922 0.026701 0.050000 0.074677 0.027778 0.050000 0.072331 0.028649 0.050000 0.069901 0.029308 0.050000 0.067406 0.029750 0.050000 0.064862 0.029972 0.050000 0.062291 0.029972 0.050000 0.059709 0.029750 0.050000 0.057138 0.029308 0.050000 0.054594 0.028649 0.050000 0.052099 0.027778 0.050000 0.049669 0.026701 0.050000 0.047323 0.025426 0.050000 0.045078 0.023963 0.050000 0.042951 0.022323 0.050000 0.040958 0.020518 0.050000 0.039113 0.018560 0.050000 0.037431 0.016465 0.050000 0.035922 0.014249 0.050000 0.034600 0.011926 0.050000 0.033472 0.009516 0.050000 0.032549 0.007035 0.050000 0.031836 0.004502 0.050000 0.031340 0.001935 0.050000 0.031062 -0.000645 0.050000 0.031007 -0.003221 0.050000 0.031173 -0.005774 0.050000 0.031561 -0.008283 0.050000 0.032166 -0.010731 0.050000 0.032985 -0.013100 0.050000 0.034011 -0.015371 0.050000 0.035237 -0.017529 0.050000 0.036654 -0.019557 0.050000 0.038251 -0.021440 0.050000 0.040016 -0.023165 0.050000 0.041937 -0.024718 0.050000 0.043999 -0.026088 0.050000 0.046187 -0.027265 0.050000 0.048484 -0.028240 0.050000 0.050874 -0.029005 0.050000 0.053339 -0.029557 0.050000 0.055861 -0.029889 0.050000 0.058421 -0.030000 0.000000 0.061000 -0.029889 0.000000 0.058421 -0.029557 0.000000 0.055861 -0.029005 0.000000 0.053339 -0.028240 0.000000 0.050874 -0.027265 0.000000 0.048484 -0.026088 0.000000 0.046187 -0.024718 0.000000 0.043999 -0.023165 0.000000 0.041937 -0.021440 0.000000 0.040016 -0.019557 0.000000 0.038251 -0.017529 0.000000 0.036654 -0.015371 0.000000 0.035237 -0.013100 0.000000 0.034011 -0.010731 0.000000 0.032985 -0.008283 0.000000 0.032166 -0.005774 0.000000 0.031561 -0.003221 0.000000 0.031173 -0.000645 0.000000 0.031007 0.001935 0.000000 0.031062 0.004502 0.000000 0.031340 0.007035 0.000000 0.031836 0.009516 0.000000 0.032549 0.011926 0.000000 0.033472 0.014249 0.000000 0.034600 0.016465 0.000000 0.035922 0.018560 0.000000 0.037431 0.020518 0.000000 0.039113 0.022323 0.000000 0.040958 0.023963 0.000000 0.042951 0.025426 0.000000 0.045078 0.026701 0.000000 0.047323 0.027778 0.000000 0.049669 0.028649 0.000000 0.052099 0.029308 0.000000 0.054594 0.029750 0.000000 0.057138 0.029972 0.000000 0.059709 0.029972 0.000000 0.062291 0.029750 0.000000 0.064862 0.029308 0.000000 0.067406 0.028649 0.000000 0.069901 0.027778 0.000000 0.072331 0.026701 0.000000 0.074677 0.025426 0.000000 0.076922 0.023963 0.000000 0.079049 0.022323 0.000000 0.081042 0.020518 0.000000 0.082887 0.018560 0.000000 0.084570 0.016465 0.000000 0.086078 0.014249 0.000000 0.087400 0.011926 0.000000 0.088528 0.009516 0.000000 0.089451 0.007035 0.000000 0.090164 0.004502 0.000000 0.090660 0.001935 0.000000 0.090938 -0.000645 0.000000 0.090993 -0.003221 0.000000 0.090827 -0.005774 0.000000 0.090439 -0.008283 0.000000 0.089834 -0.010731 0.000000 0.089015 -0.013100 0.000000 0.087989 -0.015371 0.000000 0.086763 -0.017529 0.000000 0.085346 -0.019557 0.000000 0.083749 -0.021440 0.000000 0.081984 -0.023165 0.000000 0.080063 -0.024718 0.000000 0.078001 -0.026088 0.000000 0.075813 -0.027265 0.000000 0.073516 -0.028240 0.000000 0.071126 -0.029005 0.000000 0.068661 -0.029557 0.000000 0.066139 -0.029889 0.000000 0.063579 -0.047000 0.050000 0.000000 0.047000 0.050000 0.000000 0.047000 0.050000 0.061000 0.046890 0.050000 0.064207 0.046562 0.050000 0.067400 0.046017 0.050000 0.070562 0.045257 0.050000 0.073680 0.044286 0.050000 0.076739 0.043109 0.050000 0.079725 0.041731 0.050000 0.082623 0.040158 0.050000 0.085420 0.038398 0.050000 0.088104 0.036458 0.050000 0.090661 0.034349 0.050000 0.093080 0.032080 0.050000 0.095349 0.029661 0.050000 0.097458 0.027104 0.050000 0.099398 0.024420 0.050000 0.101158 0.021623 0.050000 0.102731 0.018725 0.050000 0.104109 0.015739 0.050000 0.105286 0.012680 0.050000 0.106257 0.009562 0.050000 0.107017 0.006400 0.050000 0.107562 0.003207 0.050000 0.107890 -0.000000 0.050000 0.108000 -0.003207 0.050000 0.107890 -0.006400 0.050000 0.107562 -0.009562 0.050000 0.107017 -0.012680 0.050000 0.106257 -0.015739 0.050000 0.105286 -0.018725 0.050000 0.104109 -0.021623 0.050000 0.102731 -0.024420 0.050000 0.101158 -0.027104 0.050000 0.099398 -0.029661 0.050000 0.097458 -0.032080 0.050000 0.095349 -0.034349 0.050000 0.093080 -0.036458 0.050000 0.090661 -0.038398 0.050000 0.088104 -0.040158 0.050000 0.085420 -0.041731 0.050000 0.082623 -0.043109 0.050000 0.079725 -0.044286 0.050000 0.076739 -0.045257 0.050000 0.073680 -0.046017 0.050000 0.070562 -0.046562 0.050000 0.067400 -0.046890 0.050000 0.064207 -0.047000 0.050000 0.061000 0.046890 0.000000 0.064207 0.046562 0.000000 0.067400 0.046017 0.000000 0.070562 0.045257 0.000000 0.073680 0.044286 0.000000 0.076739 0.043109 0.000000 0.079725 0.041731 0.000000 0.082623 0.040158 0.000000 0.085420 0.038398 0.000000 0.088104 0.036458 0.000000 0.090661 0.034349 0.000000 0.093080 0.032080 0.000000 0.095349 0.029661 0.000000 0.097458 0.027104 0.000000 0.099398 0.024420 0.000000 0.101158 0.021623 0.000000 0.102731 0.018725 0.000000 0.104109 0.015739 0.000000 0.105286 0.012680 0.000000 0.106257 0.009562 0.000000 0.107017 0.006400 0.000000 0.107562 0.003207 0.000000 0.107890 0.000000 0.000000 0.108000 -0.003207 0.000000 0.107890 -0.006400 0.000000 0.107562 -0.009562 0.000000 0.107017 -0.012680 0.000000 0.106257 -0.015739 0.000000 0.105286 -0.018725 0.000000 0.104109 -0.021623 0.000000 0.102731 -0.024420 0.000000 0.101158 -0.027104 0.000000 0.099398 -0.029661 0.000000 0.097458 -0.032080 0.000000 0.095349 -0.034349 0.000000 0.093080 -0.036458 0.000000 0.090661 -0.038398 0.000000 0.088104 -0.040158 0.000000 0.085420 -0.041731 0.000000 0.082623 -0.043109 0.000000 0.079725 -0.044286 0.000000 0.076739 -0.045257 0.000000 0.073680 -0.046017 0.000000 0.070562 -0.046562 0.000000 0.067400 -0.046890 0.000000 0.064207</float_array>
          <technique_common>
            <accessor source="#mat_2nd_link-mesh-positions-array" count="520" stride="3">
              <param name="X" type="float"/>
              <param name="Y" type="float"/>
              <param name="Z" type="float"/>
            </accessor>
          </technique_common>
        </source>
        <source id="mat_2nd_link-mesh-normals">
          <float_array id="mat_2nd_link-mesh-normals-array" count="2778">-0.996839 -0.079450 -0.000000 -1.000000 0.000000 -0.000000 -1.000000 0.000000 -0.000000 -0.996839 0.079450 -0.000000 -0.996839 0.079450 -0.000000 -0.987375 0.158398 -0.000000 -0.987375 0.158398 -0.000000 -0.971669 0.236344 -0.000000 -0.971669 0.236344 -0.000000 -0.949820 0.312797 -0.000000 -0.949820 0.312797 -0.000000 -0.921966 0.387271 -0.000000 -0.921966 0.387271 -0.000000 -0.888283 0.459297 -0.000000 -0.888283 0.459297 -0.000000 -0.848983 0.528420 -0.000000 -0.848983 0.528420 -0.000000 -0.804317 0.594201 -0.000000 -0.804317 0.594201 -0.000000 -0.754565 0.656226 -0.000000 -0.754565 0.656226 -0.000000 -0.700042 0.714102 -0.000000 -0.700042 0.714102 -0.000000 -0.641094 0.767463 -0.000000 -0.641094 0.767463 -0.000000 -0.578092 0.815972 -0.000000 -0.578092 0.815972 -0.000000 -0.511435 0.859322 -0.000000 -0.511435 0.859322 -0.000000 -0.441545 0.897239 -0.000000 -0.441545 0.897239 -0.000000 -0.368864 0.929483 -0.000000 -0.368864 0.929483 -0.000000 -0.293850 0.955851 -0.000000 -0.293850 0.955851 -0.000000 -0.216979 0.976176 -0.000000 -0.216979 0.976176 -0.000000 -0.138736 0.990329 -0.000000 -0.138736 0.990329 -0.000000 -0.059615 0.998221 -0.000000 -0.059615 0.998221 -0.000000 0.019882 0.999802 0.000000 0.019882 0.999802 0.000000 0.099254 0.995062 0.000000 0.099254 0.995062 0.000000 0.177998 0.984031 0.000000 0.177998 0.984031 0.000000 0.255617 0.966778 0.000000 0.255617 0.966778 0.000000 0.331619 0.943413 0.000000 0.331619 0.943413 0.000000 0.405525 0.914084 0.000000 0.405525 0.914084 0.000000 0.476868 0.878975 0.000000 0.476868 0.878975 0.000000 0.545195 0.838309 0.000000 0.545195 0.838309 0.000000 0.610075 0.792344 0.000000 0.610075 0.792344 0.000000 0.671098 0.741368 0.000000 0.671098 0.741368 0.000000 0.727879 0.685706 0.000000 0.727879 0.685706 0.000000 0.780057 0.625708 0.000000 0.780057 0.625708 0.000000 0.827304 0.561754 0.000000 0.827304 0.561754 0.000000 0.869320 0.494249 0.000000 0.869320 0.494249 0.000000 0.905840 0.423619 0.000000 0.905840 0.423619 0.000000 0.936633 0.350311 0.000000 0.936633 0.350311 0.000000 0.961505 0.274788 0.000000 0.961505 0.274788 0.000000 0.980297 0.197527 0.000000 0.980297 0.197527 0.000000 0.992892 0.119018 0.000000 0.992892 0.119018 0.000000 0.999209 0.039757 0.000000 0.999209 0.039757 0.000000 0.999209 -0.039757 -0.000000 0.999209 -0.039757 -0.000000 0.992892 -0.119018 -0.000000 0.992892 -0.119018 -0.000000 0.980297 -0.197527 -0.000000 0.980297 -0.197527 -0.000000 0.961505 -0.274788 -0.000000 0.961505 -0.274788 -0.000000 0.936633 -0.350311 -0.000000 0.936633 -0.350311 -0.000000 0.905840 -0.423619 -0.000000 0.905840 -0.423619 -0.000000 0.869320 -0.494249 -0.000000 0.869320 -0.494249 -0.000000 0.827304 -0.561754 -0.000000 0.827304 -0.561754 -0.000000 0.780057 -0.625708 -0.000000 0.780057 -0.625708 -0.000000 0.727879 -0.685706 -0.000000 0.727879 -0.685706 -0.000000 0.671098 -0.741368 -0.000000 0.671098 -0.741368 -0.000000 0.610075 -0.792344 -0.000000 0.610075 -0.792344 -0.000000 0.545195 -0.838309 -0.000000 0.545195 -0.838309 -0.000000 0.476868 -0.878975 -0.000000 0.476868 -0.878975 -0.000000 0.405525 -0.914084 -0.000000 0.405525 -0.914084 -0.000000 0.331619 -0.943413 -0.000000 0.331619 -0.943413 -0.000000 0.255617 -0.966778 -0.000000 0.255617 -0.966778 -0.000000 0.177998 -0.984031 -0.000000 0.177998 -0.984031 -0.000000 0.099254 -0.995062 -0.000000 0.099254 -0.995062 -0.000000 0.019882 -0.999802 -0.000000 0.019882 -0.999802 -0.000000 -0.059615 -0.998221 -0.000000 -0.059615 -0.998221 -0.000000 -0.138736 -0.990329 -0.000000 -0.138736 -0.990329 -0.000000 -0.216979 -0.976176 -0.000000 -0.216979 -0.976176 -0.000000 -0.293850 -0.955851 -0.000000 -0.293850 -0.955851 -0.000000 -0.368864 -0.929483 -0.000000 -0.368864 -0.929483 -0.000000 -0.441545 -0.897239 -0.000000 -0.441545 -0.897239 -0.000000 -0.511435 -0.859322 -0.000000 -0.511435 -0.859322 -0.000000 -0.578092 -0.815972 -0.000000 -0.578092 -0.815972 -0.000000 -0.641094 -0.767463 -0.000000 -0.641094 -0.767463 -0.000000 -0.700042 -0.714102 -0.000000 -0.700042 -0.714102 -0.000000 -0.754565 -0.656226 -0.000000 -0.754565 -0.656226 -0.000000 -0.804317 -0.594201 -0.000000 -0.804317 -0.594201 -0.000000 -0.848983 -0.528420 -0.000000 -0.848983 -0.528420 -0.000000 -0.888283 -0.459297 -0.000000 -0.888283 -0.459297 -0.000000 -0.921966 -0.387271 -0.000000 -0.921966 -0.387271 -0.000000 -0.949820 -0.312797 -0.000000 -0.949820 -0.312797 -0.000000 -0.971669 -0.236344 -0.000000 -0.971669 -0.236344 -0.000000 -0.987375 -0.158398 -0.000000 -0.987375 -0.158398 -0.000000 -0.996839 -0.079450 -0.000000 0.000000 0.000000 -1.000000 0.000000 0.000000 -1.000000 0.000000 0.000000 -1.000000 0.000000 0.000000 -1.000000 0.000000 0.000000 -1.000000 0.000000 0.000000 -1.000000 0.000000 0.000000 -1.000000 0.000000 0.000000 -1.000000 0.000000 0.000000 -1.000000 0.000000 0.000000 -1.000000 0.000000 0.000000 -1.000000 0.000000 0.000000 -1.000000 0.000000 0.000000 -1.000000 0.000000 0.000000 -1.000000 0.000000 0.000000 -1.000000 0.000000 0.000000 -1.000000 0.000000 0.000000 -1.000000 0.000000 0.000000 -1.000000 0.000000 0.000000 -1.000000 0.000000 0.000000 -1.000000 0.000000 0.000000 -1.000000 0.000000 0.000000 -1.000000 0.000000 0.000000 -1.000000 0.000000 0.000000 -1.000000 0.000000 0.000000 -1.000000 0.000000 0.000000 -1.000000 0.000000 0.000000 -1.000000 0.000000 0.000000 -1.000000 0.000000 0.000000 -1.000000 0.000000 0.000000 -1.000000 0.000000 0.000000 -1.000000 0.000000 0.000000 -1.000000 0.000000 0.000000 -1.000000 0.000000 0.000000 -1.000000 0.000000 0.000000 -1.000000 0.000000 0.000000 -1.000000 0.000000 0.000000 -1.000000 0.000000 0.000000 -1.000000 0.000000 0.000000 -1.000000 0.000000 0.000000 -1.000000 0.000000 0.000000 -1.000000 0.000000 0.000000 -1.000000 0.000000 0.000000 -1.000000 0.000000 0.000000 -1.000000 0.000000 0.000000 -1.000000 0.000000 0.000000 -1.000000 0.000000 0.000000 -1.000000 0.000000 0.000000 -1.000000 0.000000 0.000000 -1.000000 0.000000 0.000000 -1.000000 0.000000 0.000000 -1.000000 0.000000 0.000000 -1.000000 0.000000 0.000000 -1.000000 0.000000 0.000000 -1.000000 0.000000 0.000000 -1.000000 0.000000 0.000000 -1.000000 0.000000 0.000000 -1.000000 0.000000 0.000000 -1.000000 0.000000 0.000000 -1.000000 0.000000 0.000000 -1.000000 0.000000 0.000000 -1.000000 0.000000 0.000000 -1.000000 0.000000 0.000000 -1.000000 0.000000 0.000000 -1.000000 0.000000 0.000000 -1.000000 0.000000 0.000000 -1.000000 0.000000 0.000000 -1.000000 0.000000 0.000000 -1.000000 0.000000 0.000000 -1.000000 0.000000 0.000000 -1.000000 0.000000 0.000000 -1.000000 0.000000 0.000000 -1.000000 0.000000 0.000000 -1.000000 0.000000 0.000000 -1.000000 0.000000 0.000000 -1.000000 0.000000 0.000000 -1.000000 0.000000 0.000000 -1.000000 0.000000 0.000000 -1.000000 0.000000 0.000000 -1.000000 -0.000000 -1.000000 -0.000000 -0.000000 -1.000000 -0.000000 -0.000000 -1.000000 -0.000000 -0.000000 -1.000000 -0.000000 -0.000000 -1.000000 -0.000000 -0.000000 -1.000000 -0.000000 -0.000000 -1.000000 -0.000000 -0.000000 -1.000000 -0.000000 -0.000000 -1.000000 -0.000000 -0.000000 -1.000000 -0.000000 -0.000000 -1.000000 -0.000000 -0.000000 -1.000000 -0.000000 -0.000000 -1.000000 -0.000000 -0.000000 -1.000000 -0.000000 -0.000000 -1.000000 -0.000000 -0.000000 -1.000000 -0.000000 -0.000000 -1.000000 -0.000000 -0.000000 -1.000000 -0.000000 -0.000000 -1.000000 -0.000000 -0.000000 -1.000000 -0.000000 -0.000000 -1.000000 -0.000000 -0.000000 -1.000000 -0.000000 -0.000000 -1.000000 -0.000000 -0.000000 -1.000000 -0.000000 -0.000000 -1.000000 -0.000000 -0.000000 -1.000000 -0.000000 -0.000000 -1.000000 -0.000000 -0.000000 -1.000000 -0.000000 -0.000000 -1.000000 -0.000000 -0.000000 -1.000000 -0.000000 -0.000000 -1.000000 -0.000000 -0.000000 -1.000000 -0.000000 -0.000000 -1.000000 -0.000000 -0.000000 -1.000000 -0.000000 -0.000000 -1.000000 -0.000000 -0.000000 -1.000000 -0.000000 -0.000000 -1.000000 -0.000000 -0.000000 -1.000000 -0.000000 -0.000000 -1.000000 -0.000000 -0.000000 -1.000000 -0.000000 -0.000000 -1.000000 -0.000000 -0.000000 -1.000000 -0.000000 -0.000000 -1.000000 -0.000000 -0.000000 -1.000000 -0.000000 -0.000000 -1.000000 -0.000000 -0.000000 -1.000000 -0.000000 -0.000000 -1.000000 -0.000000 -0.000000 -1.000000 -0.000000 -0.000000 -1.000000 -0.000000 -0.000000 -1.000000 -0.000000 -0.000000 -1.000000 -0.000000 -0.000000 -1.000000 -0.000000 -0.000000 -1.000000 -0.000000 -0.000000 -1.000000 -0.000000 -0.000000 -1.000000 -0.000000 -0.000000 -1.000000 -0.000000 -0.000000 -1.000000 -0.000000 -0.000000 -1.000000 -0.000000 -0.000000 -1.000000 -0.000000 -0.000000 -1.000000 -0.000000 -0.000000 -1.000000 -0.000000 -0.000000 -1.000000 -0.000000 -0.000000 -1.000000 -0.000000 -0.000000 -1.000000 -0.000000 -0.000000 -1.000000 -0.000000 -0.000000 -1.000000 -0.000000 -0.000000 -1.000000 -0.000000 -0.000000 -1.000000 -0.000000 -0.000000 -1.000000 -0.000000 -0.000000 -1.000000 -0.000000 -0.000000 -1.000000 -0.000000 -0.000000 -1.000000 -0.000000 -0.000000 -1.000000 -0.000000 -0.000000 -1.000000 -0.000000 -0.000000 -1.000000 -0.000000 -0.000000 -1.000000 -0.000000 -0.000000 -1.000000 -0.000000 -0.000000 -1.000000 -0.000000 -0.000000 -1.000000 -0.000000 -0.000000 -1.000000 -0.000000 -0.000000 -1.000000 -0.000000 -0.000000 -1.000000 -0.000000 -0.000000 -1.000000 -0.000000 -0.000000 -1.000000 -0.000000 -0.000000 -1.000000 -0.000000 -0.000000 -1.000000 -0.000000 -0.000000 -1.000000 -0.000000 -0.000000 -1.000000 -0.000000 -0.000000 -1.000000 -0.000000 -0.000000 -1.000000 -0.000000 -0.000000 -1.000000 -0.000000 -0.000000 -1.000000 -0.000000 -0.000000 -1.000000 -0.000000 -0.000000 -1.000000 -0.000000 -0.000000 -1.000000 -0.000000 -0.000000 -1.000000 -0.000000 -0.000000 -1.000000 -0.000000 -0.000000 -1.000000 -0.000000 -0.000000 -1.000000 -0.000000 -0.000000 -1.000000 -0.000000 -0.000000 -1.000000 -0.000000 -0.000000 -1.000000 -0.000000 -0.000000 -1.000000 -0.000000 -0.000000 -1.000000 -0.000000 -0.000000 -1.000000 -0.000000 -0.000000 -1.000000 -0.000000 -0.000000 -1.000000 -0.000000 -0.000000 -1.000000 -0.000000 -0.000000 -1.000000 -0.000000 -0.000000 -1.000000 -0.000000 -0.000000 -1.000000 -0.000000 -0.000000 -1.000000 -0.000000 -0.000000 -1.000000 -0.000000 -0.000000 -1.000000 -0.000000 -0.000000 -1.000000 -0.000000 -0.000000 -1.000000 -0.000000 -0.000000 -1.000000 -0.000000 -0.000000 -1.000000 -0.000000 -0.000000 -1.000000 -0.000000 -0.000000 -1.000000 -0.000000 -0.000000 -1.000000 -0.000000 -0.000000 -1.000000 -0.000000 0.996298 -0.000000 0.085965 0.996298 -0.000000 0.085965 1.000000 -0.000000 0.000000 1.000000 -0.000000 0.000000 0.996298 0.000000 -0.085965 0.996298 0.000000 -0.085965 0.985220 0.000000 -0.171293 0.985220 0.000000 -0.171293 0.966848 0.000000 -0.255353 0.966848 0.000000 -0.255353 0.941317 0.000000 -0.337523 0.941317 0.000000 -0.337523 0.908818 0.000000 -0.417194 0.908818 0.000000 -0.417194 0.869589 0.000000 -0.493776 0.869589 0.000000 -0.493776 0.823923 0.000000 -0.566702 0.823923 0.000000 -0.566702 0.772157 0.000000 -0.635432 0.772157 0.000000 -0.635432 0.714673 0.000000 -0.699458 0.714673 0.000000 -0.699458 0.651899 0.000000 -0.758306 0.651899 0.000000 -0.758306 0.584298 0.000000 -0.811539 0.584298 0.000000 -0.811539 0.512371 0.000000 -0.858764 0.512371 0.000000 -0.858764 0.436651 0.000000 -0.899631 0.436651 0.000000 -0.899631 0.357698 0.000000 -0.933837 0.357698 0.000000 -0.933837 0.276097 0.000000 -0.961130 0.276097 0.000000 -0.961130 0.192452 0.000000 -0.981306 0.192452 0.000000 -0.981306 0.107381 0.000000 -0.994218 0.107381 0.000000 -0.994218 0.021516 0.000000 -0.999769 0.021516 0.000000 -0.999769 -0.064508 0.000000 -0.997917 -0.064508 0.000000 -0.997917 -0.150055 0.000000 -0.988678 -0.150055 0.000000 -0.988678 -0.234491 0.000000 -0.972118 -0.234491 0.000000 -0.972118 -0.317191 0.000000 -0.948362 -0.317191 0.000000 -0.948362 -0.397543 0.000000 -0.917584 -0.397543 0.000000 -0.917584 -0.474951 0.000000 -0.880012 -0.474951 0.000000 -0.880012 -0.548843 0.000000 -0.835925 -0.548843 0.000000 -0.835925 -0.618671 0.000000 -0.785650 -0.618671 0.000000 -0.785650 -0.683919 0.000000 -0.729558 -0.683919 0.000000 -0.729558 -0.744104 0.000000 -0.668064 -0.744104 0.000000 -0.668064 -0.798779 0.000000 -0.601624 -0.798779 0.000000 -0.601624 -0.847541 0.000000 -0.530730 -0.847541 0.000000 -0.530730 -0.890028 0.000000 -0.455907 -0.890028 0.000000 -0.455907 -0.925925 0.000000 -0.377708 -0.925925 0.000000 -0.377708 -0.954967 0.000000 -0.296713 -0.954967 0.000000 -0.296713 -0.976938 0.000000 -0.213521 -0.976938 0.000000 -0.213521 -0.991677 0.000000 -0.128748 -0.991677 0.000000 -0.128748 -0.999074 0.000000 -0.043022 -0.999074 0.000000 -0.043022 -0.999074 0.000000 0.043022 -0.999074 0.000000 0.043022 -0.991677 0.000000 0.128748 -0.991677 0.000000 0.128748 -0.976938 0.000000 0.213521 -0.976938 0.000000 0.213521 -0.954967 0.000000 0.296713 -0.954967 0.000000 0.296713 -0.925925 0.000000 0.377708 -0.925925 0.000000 0.377708 -0.890028 0.000000 0.455907 -0.890028 0.000000 0.455907 -0.847541 0.000000 0.530730 -0.847541 0.000000 0.530730 -0.798779 0.000000 0.601624 -0.798779 0.000000 0.601624 -0.744104 0.000000 0.668064 -0.744104 0.000000 0.668064 -0.683919 0.000000 0.729558 -0.683919 0.000000 0.729558 -0.618671 0.000000 0.785650 -0.618671 0.000000 0.785650 -0.548843 0.000000 0.835925 -0.548843 0.000000 0.835925 -0.474951 0.000000 0.880012 -0.474951 0.000000 0.880012 -0.397543 0.000000 0.917584 -0.397543 0.000000 0.917584 -0.317191 0.000000 0.948362 -0.317191 0.000000 0.948362 -0.234491 0.000000 0.972118 -0.234491 0.000000 0.972118 -0.150055 0.000000 0.988678 -0.150055 0.000000 0.988678 -0.064508 0.000000 0.997917 -0.064508 0.000000 0.997917 0.021516 -0.000000 0.999769 0.021516 -0.000000 0.999769 0.107381 -0.000000 0.994218 0.107381 -0.000000 0.994218 0.192452 -0.000000 0.981306 0.192452 -0.000000 0.981306 0.276097 -0.000000 0.961130 0.276097 -0.000000 0.961130 0.357698 -0.000000 0.933837 0.357698 -0.000000 0.933837 0.436651 -0.000000 0.899631 0.436651 -0.000000 0.899631 0.512371 -0.000000 0.858764 0.512371 -0.000000 0.858764 0.584298 -0.000000 0.811539 0.584298 -0.000000 0.811539 0.651899 -0.000000 0.758306 0.651899 -0.000000 0.758306 0.714673 -0.000000 0.699458 0.714673 -0.000000 0.699458 0.772157 -0.000000 0.635432 0.772157 -0.000000 0.635432 0.823923 -0.000000 0.566702 0.823923 -0.000000 0.566702 0.869589 -0.000000 0.493776 0.869589 -0.000000 0.493776 0.908818 -0.000000 0.417194 0.908818 -0.000000 0.417194 0.941317 -0.000000 0.337523 0.941317 -0.000000 0.337523 0.966848 -0.000000 0.255353 0.966848 -0.000000 0.255353 0.985220 -0.000000 0.171293 0.985220 -0.000000 0.171293 0.996298 0.000000 -0.085965 1.000000 0.000000 -0.000000 0.996298 -0.000000 0.085965 0.985220 -0.000000 0.171293 0.966848 -0.000000 0.255353 0.941317 -0.000000 0.337523 0.908818 -0.000000 0.417194 0.869589 -0.000000 0.493776 0.823923 -0.000000 0.566702 0.772157 -0.000000 0.635432 0.714673 -0.000000 0.699458 0.651899 -0.000000 0.758306 0.584298 -0.000000 0.811539 0.512371 -0.000000 0.858764 0.436651 -0.000000 0.899631 0.357698 -0.000000 0.933837 0.276097 -0.000000 0.961130 0.192452 -0.000000 0.981306 0.107381 -0.000000 0.994218 0.021516 -0.000000 0.999769 -0.064508 0.000000 0.997917 -0.150055 0.000000 0.988678 -0.234491 0.000000 0.972118 -0.317191 0.000000 0.948362 -0.397543 0.000000 0.917584 -0.474951 0.000000 0.880012 -0.548843 0.000000 0.835925 -0.618671 0.000000 0.785650 -0.683919 0.000000 0.729558 -0.744104 0.000000 0.668064 -0.798779 0.000000 0.601624 -0.847541 0.000000 0.530730 -0.890028 0.000000 0.455907 -0.925925 0.000000 0.377708 -0.954967 0.000000 0.296713 -0.976938 0.000000 0.213521 -0.991677 0.000000 0.128748 -0.999074 0.000000 0.043022 -0.999074 0.000000 -0.043022 -0.991677 0.000000 -0.128748 -0.976938 0.000000 -0.213521 -0.954967 0.000000 -0.296713 -0.925925 0.000000 -0.377708 -0.890028 0.000000 -0.455907 -0.847541 0.000000 -0.530730 -0.798779 0.000000 -0.601624 -0.744104 0.000000 -0.668064 -0.683919 0.000000 -0.729558 -0.618671 0.000000 -0.785650 -0.548843 0.000000 -0.835925 -0.474951 0.000000 -0.880012 -0.397543 0.000000 -0.917584 -0.317191 0.000000 -0.948362 -0.234491 0.000000 -0.972118 -0.150055 0.000000 -0.988678 -0.064508 0.000000 -0.997917 0.021516 0.000000 -0.999769 0.107381 0.000000 -0.994218 0.192452 0.000000 -0.981306 0.276097 0.000000 -0.961130 0.357698 0.000000 -0.933837 0.436651 0.000000 -0.899631 0.512371 0.000000 -0.858764 0.584298 0.000000 -0.811539 0.651899 0.000000 -0.758306 0.714673 0.000000 -0.699458 0.772157 0.000000 -0.635432 0.823923 0.000000 -0.566702 0.869589 0.000000 -0.493776 0.908818 0.000000 -0.417194 0.941317 0.000000 -0.337523 0.966848 0.000000 -0.255353 0.985220 0.000000 -0.171293 0.000000 0.000000 -1.000000 0.000000 0.000000 -1.000000 0.000000 0.000000 -1.000000 0.000000 0.000000 -1.000000 0.000000 0.000000 -1.000000 0.000000 0.000000 -1.000000 0.000000 0.000000 -1.000000 0.000000 0.000000 -1.000000 0.000000 0.000000 -1.000000 0.000000 0.000000 -1.000000 0.000000 0.000000 -1.000000 0.000000 0.000000 -1.000000 0.000000 0.000000 -1.000000 0.000000 0.000000 -1.000000 0.000000 0.000000 -1.000000 0.000000 0.000000 -1.000000 0.000000 0.000000 -1.000000 0.000000 0.000000 -1.000000 0.000000 0.000000 -1.000000 0.000000 0.000000 -1.000000 0.000000 0.000000 -1.000000 0.000000 0.000000 -1.000000 0.000000 0.000000 -1.000000 0.000000 0.000000 -1.000000 0.000000 0.000000 -1.000000 0.000000 0.000000 -1.000000 0.000000 0.000000 -1.000000 0.000000 0.000000 -1.000000 0.000000 0.000000 -1.000000 0.000000 0.000000 -1.000000 0.000000 0.000000 -1.000000 0.000000 0.000000 -1.000000 0.000000 0.000000 -1.000000 0.000000 0.000000 -1.000000 0.000000 0.000000 -1.000000 0.000000 0.000000 -1.000000 0.000000 0.000000 -1.000000 0.000000 0.000000 -1.000000 0.000000 0.000000 -1.000000 0.000000 0.000000 -1.000000 0.000000 0.000000 -1.000000 0.000000 0.000000 -1.000000 0.000000 0.000000 -1.000000 0.000000 0.000000 -1.000000 0.000000 0.000000 -1.000000 0.000000 0.000000 -1.000000 0.000000 0.000000 -1.000000 0.000000 0.000000 -1.000000 0.000000 0.000000 -1.000000 0.000000 0.000000 -1.000000 0.000000 0.000000 -1.000000 0.000000 0.000000 -1.000000 0.000000 0.000000 -1.000000 0.000000 0.000000 -1.000000 0.000000 0.000000 -1.000000 0.000000 0.000000 -1.000000 0.000000 0.000000 -1.000000 0.000000 0.000000 -1.000000 0.000000 0.000000 -1.000000 0.000000 0.000000 -1.000000 0.000000 0.000000 -1.000000 0.000000 0.000000 -1.000000 0.000000 0.000000 -1.000000 0.000000 0.000000 -1.000000 0.000000 0.000000 -1.000000 0.000000 0.000000 -1.000000 0.000000 0.000000 -1.000000 0.000000 0.000000 -1.000000 0.000000 0.000000 -1.000000 0.000000 0.000000 -1.000000 0.000000 0.000000 -1.000000 0.000000 0.000000 -1.000000 0.000000 0.000000 -1.000000 0.000000 0.000000 -1.000000 0.000000 0.000000 -1.000000 0.000000 0.000000 -1.000000 0.000000 0.000000 -1.000000 0.000000 0.000000 -1.000000 0.000000 0.000000 -1.000000 0.000000 0.000000 -1.000000 0.000000 0.000000 -1.000000 0.000000 0.000000 -1.000000 0.000000 0.000000 -1.000000 1.000000 0.000000 -0.000000 1.000000 0.000000 -0.000000 1.000000 0.000000 -0.000000 1.000000 0.000000 -0.000000 0.997669 -0.000000 0.068242 0.997669 -0.000000 0.068242 0.997669 -0.000000 0.068242 0.990686 -0.000000 0.136167 0.990686 -0.000000 0.136167 0.979084 -0.000000 0.203456 0.979084 -0.000000 0.203456 0.962917 -0.000000 0.269797 0.962917 -0.000000 0.269797 0.942261 -0.000000 0.334880 0.942261 -0.000000 0.334880 0.917211 -0.000000 0.398401 0.917211 -0.000000 0.398401 0.887885 -0.000000 0.460065 0.887885 -0.000000 0.460065 0.854419 -0.000000 0.519584 0.854419 -0.000000 0.519584 0.816970 -0.000000 0.576680 0.816970 -0.000000 0.576680 0.775711 -0.000000 0.631088 0.775711 -0.000000 0.631088 0.730836 -0.000000 0.682553 0.730836 -0.000000 0.682553 0.682553 -0.000000 0.730836 0.682553 -0.000000 0.730836 0.631088 -0.000000 0.775711 0.631088 -0.000000 0.775711 0.576680 -0.000000 0.816970 0.576680 -0.000000 0.816970 0.519584 -0.000000 0.854419 0.519584 -0.000000 0.854419 0.460065 -0.000000 0.887885 0.460065 -0.000000 0.887885 0.398401 -0.000000 0.917211 0.398401 -0.000000 0.917211 0.334880 -0.000000 0.942261 0.334880 -0.000000 0.942261 0.269797 -0.000000 0.962917 0.269797 -0.000000 0.962917 0.203456 -0.000000 0.979084 0.203456 -0.000000 0.979084 0.136167 -0.000000 0.990686 0.136167 -0.000000 0.990686 0.068242 -0.000000 0.997669 0.068242 -0.000000 0.997669 0.000000 -0.000000 1.000000 0.000000 -0.000000 1.000000 -0.068242 -0.000000 0.997669 -0.068242 -0.000000 0.997669 -0.136167 -0.000000 0.990686 -0.136167 -0.000000 0.990686 -0.203456 -0.000000 0.979084 -0.203456 -0.000000 0.979084 -0.269797 -0.000000 0.962917 -0.269797 -0.000000 0.962917 -0.334880 -0.000000 0.942261 -0.334880 -0.000000 0.942261 -0.398401 -0.000000 0.917211 -0.398401 -0.000000 0.917211 -0.460065 -0.000000 0.887885 -0.460065 -0.000000 0.887885 -0.519584 -0.000000 0.854419 -0.519584 -0.000000 0.854419 -0.576680 -0.000000 0.816970 -0.576680 -0.000000 0.816970 -0.631088 -0.000000 0.775711 -0.631088 -0.000000 0.775711 -0.682553 -0.000000 0.730836 -0.682553 -0.000000 0.730836 -0.730836 -0.000000 0.682553 -0.730836 -0.000000 0.682553 -0.775711 -0.000000 0.631088 -0.775711 -0.000000 0.631088 -0.816970 -0.000000 0.576680 -0.816970 -0.000000 0.576680 -0.854419 -0.000000 0.519584 -0.854419 -0.000000 0.519584 -0.887885 -0.000000 0.460065 -0.887885 -0.000000 0.460065 -0.917211 -0.000000 0.398401 -0.917211 -0.000000 0.398401 -0.942261 -0.000000 0.334880 -0.942261 -0.000000 0.334880 -0.962917 -0.000000 0.269797 -0.962917 -0.000000 0.269797 -0.979084 -0.000000 0.203456 -0.979084 -0.000000 0.203456 -0.990686 -0.000000 0.136167 -0.990686 -0.000000 0.136167 -0.997669 -0.000000 0.068242 -0.997669 -0.000000 0.068242 -1.000000 -0.000000 0.000000 -1.000000 -0.000000 0.000000 -0.997669 -0.000000 0.068242 -0.990686 -0.000000 0.136167 -0.979084 -0.000000 0.203456 -0.962917 -0.000000 0.269797 -0.942261 -0.000000 0.334880 -0.917211 -0.000000 0.398401 -0.887885 -0.000000 0.460065 -0.854419 -0.000000 0.519584 -0.816970 -0.000000 0.576680 -0.775711 -0.000000 0.631088 -0.730836 -0.000000 0.682553 -0.682553 -0.000000 0.730836 -0.631088 -0.000000 0.775711 -0.576680 -0.000000 0.816970 -0.519584 -0.000000 0.854419 -0.460065 -0.000000 0.887885 -0.398401 -0.000000 0.917211 -0.334880 -0.000000 0.942261 -0.269797 -0.000000 0.962917 -0.203456 -0.000000 0.979084 -0.136167 -0.000000 0.990686 -0.068242 -0.000000 0.997669 0.000000 -0.000000 1.000000 0.068242 -0.000000 0.997669 0.136167 -0.000000 0.990686 0.203456 -0.000000 0.979084 0.269797 -0.000000 0.962917 0.334880 -0.000000 0.942261 0.398401 -0.000000 0.917211 0.460065 -0.000000 0.887885 0.519584 -0.000000 0.854419 0.576680 -0.000000 0.816970 0.631088 -0.000000 0.775711 0.682553 -0.000000 0.730836 0.730836 -0.000000 0.682553 0.775711 -0.000000 0.631088 0.816970 -0.000000 0.576680 0.854419 -0.000000 0.519584 0.887885 -0.000000 0.460065 0.917211 -0.000000 0.398401 0.942261 -0.000000 0.334880 0.962917 -0.000000 0.269797 0.979084 -0.000000 0.203456 0.990686 -0.000000 0.136167 -1.000000 0.000000 -0.000000 -1.000000 0.000000 -0.000000 0.000000 1.000000 0.000000 0.000000 1.000000 0.000000 0.000000 1.000000 0.000000 0.000000 1.000000 0.000000 0.000000 1.000000 0.000000 0.000000 1.000000 0.000000 0.000000 1.000000 0.000000 0.000000 1.000000 0.000000 0.000000 1.000000 0.000000 0.000000 1.000000 0.000000 0.000000 1.000000 0.000000 0.000000 1.000000 0.000000 0.000000 1.000000 0.000000 0.000000 1.000000 0.000000 0.000000 1.000000 0.000000 0.000000 1.000000 0.000000 0.000000 1.000000 0.000000 0.000000 1.000000 0.000000 0.000000 1.000000 0.000000 0.000000 1.000000 0.000000 0.000000 1.000000 0.000000 0.000000 1.000000 0.000000 0.000000 1.000000 0.000000 0.000000 1.000000 0.000000 0.000000 1.000000 0.000000 0.000000 1.000000 0.000000 0.000000 1.000000 0.000000 0.000000 1.000000 0.000000 0.000000 1.000000 0.000000 0.000000 1.000000 0.000000 0.000000 1.000000 0.000000 0.000000 1.000000 0.000000 0.000000 1.000000 0.000000 0.000000 1.000000 0.000000 0.000000 1.000000 0.000000 0.000000 1.000000 0.000000 0.000000 1.000000 0.000000 0.000000 1.000000 0.000000 0.000000 1.000000 0.000000 0.000000 1.000000 0.000000 0.000000 1.000000 0.000000 0.000000 1.000000 0.000000 0.000000 1.000000 0.000000 0.000000 1.000000 0.000000 0.000000 1.000000 0.000000 0.000000 1.000000 0.000000 0.000000 1.000000 0.000000 0.000000 1.000000 0.000000 0.000000 1.000000 0.000000 0.000000 1.000000 0.000000 0.000000 1.000000 0.000000 0.000000 1.000000 0.000000 0.000000 1.000000 0.000000 0.000000 1.000000 0.000000 0.000000 1.000000 0.000000 0.000000 1.000000 0.000000 0.000000 1.000000 0.000000 0.000000 1.000000 0.000000 0.000000 1.000000 0.000000 0.000000 1.000000 0.000000 0.000000 1.000000 0.000000 0.000000 1.000000 0.000000 0.000000 1.000000 0.000000 0.000000 1.000000 0.000000 0.000000 1.000000 0.000000 0.000000 1.000000 0.000000 0.000000 1.000000 0.000000 0.000000 1.000000 0.000000 0.000000 1.000000 0.000000 0.000000 1.000000 0.000000 0.000000 1.000000 0.000000 0.000000 1.000000 0.000000 0.000000 1.000000 0.000000 0.000000 1.000000 0.000000 0.000000 1.000000 0.000000 0.000000 1.000000 0.000000 0.000000 1.000000 0.000000 0.000000 1.000000 0.000000 0.000000 1.000000 0.000000 0.000000 1.000000 0.000000 0.000000 1.000000 0.000000 0.000000 1.000000 0.000000 0.000000 1.000000 0.000000 0.000000 1.000000 0.000000 0.000000 1.000000 0.000000 0.000000 1.000000 0.000000 0.000000 1.000000 0.000000 0.000000 1.000000 0.000000 0.000000 1.000000 0.000000 0.000000 1.000000 0.000000 0.000000 1.000000 0.000000 0.000000 1.000000 0.000000 0.000000 1.000000 0.000000 0.000000 1.000000 0.000000 0.000000 1.000000 0.000000 0.000000 1.000000 0.000000 0.000000 1.000000 0.000000 0.000000 1.000000 0.000000 0.000000 1.000000 0.000000 0.000000 1.000000 0.000000 0.000000 1.000000 0.000000 0.000000 1.000000 0.000000 0.000000 1.000000 0.000000 0.000000 1.000000 0.000000 0.000000 1.000000 0.000000 0.000000 1.000000 0.000000 0.000000 1.000000 0.000000 0.000000 1.000000 0.000000 0.000000 1.000000 0.000000 0.000000 1.000000 0.000000 0.000000 1.000000 0.000000 0.000000 1.000000 0.000000 0.000000 1.000000 0.000000 0.000000 1.000000 0.000000 0.000000 1.000000 0.000000 0.000000 1.000000 0.000000 0.000000 1.000000 0.000000 0.000000 1.000000 0.000000 0.000000 1.000000 0.000000 0.000000 1.000000 0.000000 0.000000 1.000000 0.000000 0.000000 1.000000 0.000000</float_array>
          <technique_common>
            <accessor source="#mat_2nd_link-mesh-normals-array" count="926" stride="3">
              <param name="X" type="float"/>
              <param name="Y" type="float"/>
              <param name="Z" type="float"/>
            </accessor>
          </technique_common>
        </source>
        <vertices id="mat_2nd_link-mesh-vertices">
          <input semantic="POSITION" source="#mat_2nd_link-mesh-positions"/>
        </vertices>
        <triangles material="Default" count="1040">
          <input semantic="VERTEX" source="#mat_2nd_link-mesh-vertices" offset="0"/>
          <input semantic="NORMAL" source="#mat_2nd_link-mesh-normals" offset="1"/>
          <p>1 0 79 1 0 2 0 2 79 1 80 3 0 2 80 3 78 4 78 4 80 3 81 5 78 4 81 5 77 6 77 6 81 5 82 7 77 6 82 7 76 8 76 8 82 7 83 9 76 8 83 9 75 10 75 10 83 9 84 11 75 10 84 11 74 12 74 12 84 11 85 13 74 12 85 13 73 14 73 14 85 13 86 15 73 14 86 15 72 16 72 16 86 15 87 17 72 16 87 17 71 18 71 18 87 17 88 19 71 18 88 19 70 20 70 20 88 19 89 21 70 20 89 21 69 22 69 22 89 21 90 23 69 22 90 23 68 24 68 24 90 23 91 25 68 24 91 25 67 26 67 26 91 25 92 27 67 26 92 27 66 28 66 28 92 27 93 29 66 28 93 29 65 30 65 30 93 29 94 31 65 30 94 31 64 32 64 32 94 31 95 33 64 32 95 33 63 34 63 34 95 33 96 35 63 34 96 35 62 36 62 36 96 35 97 37 62 36 97 37 61 38 61 38 97 37 98 39 61 38 98 39 60 40 60 40 98 39 99 41 60 40 99 41 59 42 59 42 99 41 100 43 59 42 100 43 58 44 58 44 100 43 101 45 58 44 101 45 57 46 57 46 101 45 102 47 57 46 102 47 56 48 56 48 102 47 103 49 56 48 103 49 55 50 55 50 103 49 104 51 55 50 104 51 54 52 54 52 104 51 105 53 54 52 105 53 53 54 53 54 105 53 106 55 53 54 106 55 52 56 52 56 106 55 107 57 52 56 107 57 51 58 51 58 107 57 108 59 51 58 108 59 50 60 50 60 108 59 109 61 50 60 109 61 49 62 49 62 109 61 110 63 49 62 110 63 48 64 48 64 110 63 111 65 48 64 111 65 47 66 47 66 111 65 112 67 47 66 112 67 46 68 46 68 112 67 113 69 46 68 113 69 45 70 45 70 113 69 114 71 45 70 114 71 44 72 44 72 114 71 115 73 44 72 115 73 43 74 43 74 115 73 116 75 43 74 116 75 42 76 42 76 116 75 117 77 42 76 117 77 41 78 41 78 117 77 118 79 41 78 118 79 40 80 40 80 118 79 119 81 40 80 119 81 39 82 39 82 119 81 120 83 39 82 120 83 38 84 38 84 120 83 121 85 38 84 121 85 37 86 37 86 121 85 122 87 37 86 122 87 36 88 36 88 122 87 123 89 36 88 123 89 35 90 35 90 123 89 124 91 35 90 124 91 34 92 34 92 124 91 125 93 34 92 125 93 33 94 33 94 125 93 126 95 33 94 126 95 32 96 32 96 126 95 127 97 32 96 127 97 31 98 31 98 127 97 128 99 31 98 128 99 30 100 30 100 128 99 129 101 30 100 129 101 29 102 29 102 129 101 130 103 29 102 130 103 28 104 28 104 130 103 131 105 28 104 131 105 27 106 27 106 131 105 132 107 27 106 132 107 26 108 26 108 132 107 133 109 26 108 133 109 25 110 25 110 133 109 134 111 25 110 134 111 24 112 24 112 134 111 135 113 24 112 135 113 23 114 23 114 135 113 136 115 23 114 136 115 22 116 22 116 136 115 137 117 22 116 137 117 21 118 21 118 137 117 138 119 21 118 138 119 20 120 20 120 138 119 139 121 20 120 139 121 19 122 19 122 139 121 140 123 19 122 140 123 18 124 18 124 140 123 141 125 18 124 141 125 17 126 17 126 141 125 142 127 17 126 142 127 16 128 16 128 142 127 143 129 16 128 143 129 15 130 15 130 143 129 144 131 15 130 144 131 14 132 14 132 144 131 145 133 14 132 145 133 13 134 13 134 145 133 146 135 13 134 146 135 12 136 12 136 146 135 147 137 12 136 147 137 11 138 11 138 147 137 148 139 11 138 148 139 10 140 10 140 148 139 149 141 10 140 149 141 9 142 9 142 149 141 150 143 9 142 150 143 8 144 8 144 150 143 151 145 8 144 151 145 7 146 7 146 151 145 152 147 7 146 152 147 6 148 6 148 152 147 153 149 6 148 153 149 5 150 5 150 153 149 154 151 5 150 154 151 4 152 4 152 154 151 155 153 4 152 155 153 3 154 3 154 155 153 156 155 3 154 156 155 2 156 2 156 156 155 157 157 2 156 157 157 1 0 1 0 157 157 79 1 78 158 40 159 0 160 0 160 40 159 39 161 0 160 39 161 1 162 1 162 39 161 38 163 1 162 38 163 2 164 2 164 38 163 37 165 2 164 37 165 3 166 3 166 37 165 36 167 3 166 36 167 4 168 4 168 36 167 35 169 4 168 35 169 5 170 5 170 35 169 34 171 5 170 34 171 6 172 6 172 34 171 33 173 6 172 33 173 7 174 7 174 33 173 32 175 7 174 32 175 8 176 8 176 32 175 31 177 8 176 31 177 9 178 9 178 31 177 30 179 9 178 30 179 10 180 10 180 30 179 29 181 10 180 29 181 11 182 11 182 29 181 28 183 11 182 28 183 12 184 12 184 28 183 27 185 12 184 27 185 13 186 13 186 27 185 26 187 13 186 26 187 14 188 14 188 26 187 25 189 14 188 25 189 15 190 15 190 25 189 24 191 15 190 24 191 16 192 16 192 24 191 23 193 16 192 23 193 17 194 17 194 23 193 22 195 17 194 22 195 18 196 18 196 22 195 21 197 18 196 21 197 19 198 19 198 21 197 20 199 77 200 63 201 78 158 78 158 63 201 62 202 78 158 62 202 61 203 76 204 75 205 77 200 77 200 75 205 74 206 77 200 74 206 73 207 73 207 72 208 77 200 77 200 72 208 71 209 77 200 71 209 70 210 70 210 69 211 77 200 77 200 69 211 68 212 77 200 68 212 67 213 67 213 66 214 77 200 77 200 66 214 65 215 77 200 65 215 64 216 64 216 63 201 77 200 61 203 60 217 78 158 78 158 60 217 59 218 78 158 59 218 58 219 58 219 57 220 78 158 78 158 57 220 56 221 78 158 56 221 55 222 55 222 54 223 78 158 78 158 54 223 53 224 78 158 53 224 52 225 52 225 51 226 78 158 78 158 51 226 50 227 78 158 50 227 49 228 49 228 48 229 78 158 78 158 48 229 47 230 78 158 47 230 46 231 46 231 45 232 78 158 78 158 45 232 44 233 78 158 44 233 43 234 43 234 42 235 78 158 78 158 42 235 41 236 78 158 41 236 40 159 159 237 274 238 158 239 158 239 274 238 275 240 158 239 275 240 276 241 160 242 262 243 159 237 159 237 262 243 263 244 159 237 263 244 264 245 161 246 249 247 160 242 160 242 249 247 250 248 160 242 250 248 251 249 162 250 243 251 161 246 161 246 243 251 244 252 161 246 244 252 245 253 243 251 162 250 242 254 242 254 162 250 163 255 242 254 163 255 164 256 242 254 164 256 241 257 241 257 164 256 165 258 241 257 165 258 240 259 240 259 165 258 166 260 240 259 166 260 167 261 240 259 167 261 239 262 239 262 167 261 168 263 239 262 168 263 238 264 238 264 168 263 169 265 238 264 169 265 237 266 237 266 169 265 170 267 237 266 170 267 171 268 237 266 171 268 236 269 236 269 171 268 172 270 236 269 172 270 235 271 235 271 172 270 173 272 235 271 173 272 234 273 234 273 173 272 174 274 234 273 174 274 233 275 233 275 174 274 175 276 233 275 175 276 176 277 233 275 176 277 232 278 232 278 176 277 177 279 232 278 177 279 231 280 231 280 177 279 178 281 231 280 178 281 230 282 230 282 178 281 179 283 230 282 179 283 229 284 229 284 179 283 180 285 229 284 180 285 228 286 228 286 180 285 181 287 228 286 181 287 227 288 227 288 181 287 182 289 227 288 182 289 183 290 227 288 183 290 226 291 226 291 183 290 184 292 226 291 184 292 225 293 225 293 184 292 185 294 225 293 185 294 224 295 224 295 185 294 186 296 224 295 186 296 223 297 223 297 186 296 187 298 223 297 187 298 222 299 222 299 187 298 188 300 222 299 188 300 221 301 221 301 188 300 189 302 221 301 189 302 220 303 220 303 189 302 190 304 220 303 190 304 191 305 220 303 191 305 219 306 219 306 191 305 192 307 219 306 192 307 218 308 218 308 192 307 193 309 218 308 193 309 217 310 217 310 193 309 194 311 217 310 194 311 216 312 216 312 194 311 195 313 216 312 195 313 215 314 215 314 195 313 196 315 215 314 196 315 197 316 215 314 197 316 214 317 214 317 197 316 198 318 214 317 198 318 213 319 213 319 198 318 199 320 213 319 199 320 212 321 212 321 199 320 200 322 212 321 200 322 201 323 212 321 201 323 211 324 211 324 201 323 202 325 211 324 202 325 210 326 210 326 202 325 203 327 210 326 203 327 209 328 209 328 203 327 204 329 209 328 204 329 205 330 209 328 205 330 208 331 208 331 205 330 206 332 208 331 206 332 207 333 207 333 206 332 158 239 207 333 158 239 279 334 279 334 158 239 278 335 278 335 158 239 277 336 277 336 158 239 276 241 245 253 246 337 161 246 161 246 246 337 247 338 161 246 247 338 248 339 248 339 249 247 161 246 251 249 252 340 160 242 160 242 252 340 253 341 160 242 253 341 254 342 254 342 255 343 160 242 160 242 255 343 256 344 160 242 256 344 257 345 257 345 258 346 160 242 160 242 258 346 259 347 160 242 259 347 260 348 260 348 261 349 160 242 160 242 261 349 262 243 264 245 265 350 159 237 159 237 265 350 266 351 159 237 266 351 267 352 267 352 268 353 159 237 159 237 268 353 269 354 159 237 269 354 270 355 270 355 271 356 159 237 159 237 271 356 272 357 159 237 272 357 273 358 273 358 274 238 159 237 279 359 354 360 207 361 207 361 354 360 353 362 207 361 353 362 208 363 208 363 353 362 425 364 208 363 425 364 209 365 209 365 425 364 424 366 209 365 424 366 210 367 210 367 424 366 423 368 210 367 423 368 211 369 211 369 423 368 422 370 211 369 422 370 212 371 212 371 422 370 421 372 212 371 421 372 213 373 213 373 421 372 420 374 213 373 420 374 214 375 214 375 420 374 419 376 214 375 419 376 215 377 215 377 419 376 418 378 215 377 418 378 216 379 216 379 418 378 417 380 216 379 417 380 217 381 217 381 417 380 416 382 217 381 416 382 218 383 218 383 416 382 415 384 218 383 415 384 219 385 219 385 415 384 414 386 219 385 414 386 220 387 220 387 414 386 413 388 220 387 413 388 221 389 221 389 413 388 412 390 221 389 412 390 222 391 222 391 412 390 411 392 222 391 411 392 223 393 223 393 411 392 410 394 223 393 410 394 224 395 224 395 410 394 409 396 224 395 409 396 225 397 225 397 409 396 408 398 225 397 408 398 226 399 226 399 408 398 407 400 226 399 407 400 227 401 227 401 407 400 406 402 227 401 406 402 228 403 228 403 406 402 405 404 228 403 405 404 229 405 229 405 405 404 404 406 229 405 404 406 230 407 230 407 404 406 403 408 230 407 403 408 231 409 231 409 403 408 402 410 231 409 402 410 232 411 232 411 402 410 401 412 232 411 401 412 233 413 233 413 401 412 400 414 233 413 400 414 234 415 234 415 400 414 399 416 234 415 399 416 235 417 235 417 399 416 398 418 235 417 398 418 236 419 236 419 398 418 397 420 236 419 397 420 237 421 237 421 397 420 396 422 237 421 396 422 238 423 238 423 396 422 395 424 238 423 395 424 239 425 239 425 395 424 394 426 239 425 394 426 240 427 240 427 394 426 393 428 240 427 393 428 241 429 241 429 393 428 392 430 241 429 392 430 242 431 242 431 392 430 391 432 242 431 391 432 243 433 243 433 391 432 390 434 243 433 390 434 244 435 244 435 390 434 389 436 244 435 389 436 245 437 245 437 389 436 388 438 245 437 388 438 246 439 246 439 388 438 387 440 246 439 387 440 247 441 247 441 387 440 386 442 247 441 386 442 248 443 248 443 386 442 385 444 248 443 385 444 249 445 249 445 385 444 384 446 249 445 384 446 250 447 250 447 384 446 383 448 250 447 383 448 251 449 251 449 383 448 382 450 251 449 382 450 252 451 252 451 382 450 381 452 252 451 381 452 253 453 253 453 381 452 380 454 253 453 380 454 254 455 254 455 380 454 379 456 254 455 379 456 255 457 255 457 379 456 378 458 255 457 378 458 256 459 256 459 378 458 377 460 256 459 377 460 257 461 257 461 377 460 376 462 257 461 376 462 258 463 258 463 376 462 375 464 258 463 375 464 259 465 259 465 375 464 374 466 259 465 374 466 260 467 260 467 374 466 373 468 260 467 373 468 261 469 261 469 373 468 372 470 261 469 372 470 262 471 262 471 372 470 371 472 262 471 371 472 263 473 263 473 371 472 370 474 263 473 370 474 264 475 264 475 370 474 369 476 264 475 369 476 265 477 265 477 369 476 368 478 265 477 368 478 266 479 266 479 368 478 367 480 266 479 367 480 267 481 267 481 367 480 366 482 267 481 366 482 268 483 268 483 366 482 365 484 268 483 365 484 269 485 269 485 365 484 364 486 269 485 364 486 270 487 270 487 364 486 363 488 270 487 363 488 271 489 271 489 363 488 362 490 271 489 362 490 272 491 272 491 362 490 361 492 272 491 361 492 273 493 273 493 361 492 360 494 273 493 360 494 274 495 274 495 360 494 359 496 274 495 359 496 275 497 275 497 359 496 358 498 275 497 358 498 276 499 276 499 358 498 357 500 276 499 357 500 277 501 277 501 357 500 356 502 277 501 356 502 278 503 278 503 356 502 355 504 278 503 355 504 279 359 279 359 355 504 354 360 281 505 425 364 280 506 280 506 425 364 353 362 280 506 353 362 352 507 352 507 353 362 354 360 352 507 354 360 351 508 351 508 354 360 355 504 351 508 355 504 350 509 350 509 355 504 356 502 350 509 356 502 349 510 349 510 356 502 357 500 349 510 357 500 348 511 348 511 357 500 358 498 348 511 358 498 347 512 347 512 358 498 359 496 347 512 359 496 346 513 346 513 359 496 360 494 346 513 360 494 345 514 345 514 360 494 361 492 345 514 361 492 344 515 344 515 361 492 362 490 344 515 362 490 343 516 343 516 362 490 363 488 343 516 363 488 342 517 342 517 363 488 364 486 342 517 364 486 341 518 341 518 364 486 365 484 341 518 365 484 340 519 340 519 365 484 366 482 340 519 366 482 339 520 339 520 366 482 367 480 339 520 367 480 338 521 338 521 367 480 368 478 338 521 368 478 337 522 337 522 368 478 369 476 337 522 369 476 336 523 336 523 369 476 370 474 336 523 370 474 335 524 335 524 370 474 371 472 335 524 371 472 334 525 334 525 371 472 372 470 334 525 372 470 333 526 333 526 372 470 373 468 333 526 373 468 332 527 332 527 373 468 374 466 332 527 374 466 331 528 331 528 374 466 375 464 331 528 375 464 330 529 330 529 375 464 376 462 330 529 376 462 329 530 329 530 376 462 377 460 329 530 377 460 328 531 328 531 377 460 378 458 328 531 378 458 327 532 327 532 378 458 379 456 327 532 379 456 326 533 326 533 379 456 380 454 326 533 380 454 325 534 325 534 380 454 381 452 325 534 381 452 324 535 324 535 381 452 382 450 324 535 382 450 323 536 323 536 382 450 383 448 323 536 383 448 322 537 322 537 383 448 384 446 322 537 384 446 321 538 321 538 384 446 385 444 321 538 385 444 320 539 320 539 385 444 386 442 320 539 386 442 319 540 319 540 386 442 387 440 319 540 387 440 318 541 318 541 387 440 388 438 318 541 388 438 317 542 317 542 388 438 389 436 317 542 389 436 316 543 316 543 389 436 390 434 316 543 390 434 315 544 315 544 390 434 391 432 315 544 391 432 314 545 314 545 391 432 392 430 314 545 392 430 313 546 313 546 392 430 393 428 313 546 393 428 312 547 312 547 393 428 394 426 312 547 394 426 311 548 311 548 394 426 395 424 311 548 395 424 310 549 310 549 395 424 396 422 310 549 396 422 309 550 309 550 396 422 397 420 309 550 397 420 308 551 308 551 397 420 398 418 308 551 398 418 307 552 307 552 398 418 399 416 307 552 399 416 306 553 306 553 399 416 400 414 306 553 400 414 305 554 305 554 400 414 401 412 305 554 401 412 304 555 304 555 401 412 402 410 304 555 402 410 303 556 303 556 402 410 403 408 303 556 403 408 302 557 302 557 403 408 404 406 302 557 404 406 301 558 301 558 404 406 405 404 301 558 405 404 300 559 300 559 405 404 406 402 300 559 406 402 299 560 299 560 406 402 407 400 299 560 407 400 298 561 298 561 407 400 408 398 298 561 408 398 297 562 297 562 408 398 409 396 297 562 409 396 296 563 296 563 409 396 410 394 296 563 410 394 295 564 295 564 410 394 411 392 295 564 411 392 294 565 294 565 411 392 412 390 294 565 412 390 293 566 293 566 412 390 413 388 293 566 413 388 292 567 292 567 413 388 414 386 292 567 414 386 291 568 291 568 414 386 415 384 291 568 415 384 290 569 290 569 415 384 416 382 290 569 416 382 289 570 289 570 416 382 417 380 289 570 417 380 288 571 288 571 417 380 418 378 288 571 418 378 287 572 287 572 418 378 419 376 287 572 419 376 286 573 286 573 419 376 420 374 286 573 420 374 285 574 285 574 420 374 421 372 285 574 421 372 284 575 284 575 421 372 422 370 284 575 422 370 283 576 283 576 422 370 423 368 283 576 423 368 282 577 282 577 423 368 424 366 282 577 424 366 281 505 281 505 424 366 425 364 157 578 159 579 79 580 79 580 159 579 426 581 79 580 426 581 80 582 80 582 426 581 81 583 81 583 426 581 82 584 82 584 426 581 83 585 83 585 426 581 84 586 84 586 426 581 85 587 85 587 426 581 86 588 86 588 426 581 87 589 87 589 426 581 88 590 88 590 426 581 89 591 89 591 426 581 90 592 90 592 426 581 91 593 91 593 426 581 92 594 92 594 426 581 93 595 93 595 426 581 94 596 94 596 426 581 95 597 95 597 426 581 96 598 96 598 426 581 97 599 97 599 426 581 98 600 98 600 426 581 99 601 99 601 426 581 427 602 99 601 427 602 100 603 100 603 427 602 101 604 101 604 427 602 102 605 102 605 427 602 103 606 103 606 427 602 104 607 104 607 427 602 105 608 105 608 427 602 106 609 106 609 427 602 107 610 107 610 427 602 108 611 108 611 427 602 109 612 109 612 427 602 110 613 110 613 427 602 111 614 111 614 427 602 112 615 112 615 427 602 113 616 113 616 427 602 114 617 114 617 427 602 115 618 115 618 427 602 116 619 116 619 427 602 117 620 117 620 427 602 118 621 118 621 427 602 160 622 118 621 160 622 119 623 119 623 160 622 120 624 120 624 160 622 121 625 121 625 160 622 122 626 122 626 160 622 123 627 123 627 160 622 124 628 124 628 160 622 125 629 125 629 160 622 126 630 126 630 160 622 127 631 127 631 160 622 128 632 128 632 160 622 129 633 129 633 160 622 130 634 130 634 160 622 131 635 131 635 160 622 132 636 132 636 160 622 133 637 133 637 160 622 134 638 134 638 160 622 135 639 135 639 160 622 136 640 136 640 160 622 137 641 137 641 160 622 138 642 138 642 160 622 159 579 138 642 159 579 139 643 139 643 159 579 140 644 140 644 159 579 141 645 141 645 159 579 142 646 142 646 159 579 143 647 143 647 159 579 144 648 144 648 159 579 145 649 145 649 159 579 146 650 146 650 159 579 147 651 147 651 159 579 148 652 148 652 159 579 149 653 149 653 159 579 150 654 150 654 159 579 151 655 151 655 159 579 152 656 152 656 159 579 153 657 153 657 159 579 154 658 154 658 159 579 155 659 155 659 159 579 156 660 156 660 159 579 157 578 427 661 428 662 160 663 160 663 428 662 161 664 162 665 161 664 475 666 475 666 161 664 428 662 475 666 428 662 429 667 475 666 429 667 476 668 476 668 429 667 430 669 476 668 430 669 477 670 477 670 430 669 431 671 477 670 431 671 478 672 478 672 431 671 432 673 478 672 432 673 479 674 479 674 432 673 433 675 479 674 433 675 480 676 480 676 433 675 434 677 480 676 434 677 481 678 481 678 434 677 435 679 481 678 435 679 482 680 482 680 435 679 436 681 482 680 436 681 483 682 483 682 436 681 437 683 483 682 437 683 484 684 484 684 437 683 438 685 484 684 438 685 485 686 485 686 438 685 439 687 485 686 439 687 486 688 486 688 439 687 440 689 486 688 440 689 487 690 487 690 440 689 441 691 487 690 441 691 488 692 488 692 441 691 442 693 488 692 442 693 489 694 489 694 442 693 443 695 489 694 443 695 490 696 490 696 443 695 444 697 490 696 444 697 491 698 491 698 444 697 445 699 491 698 445 699 492 700 492 700 445 699 446 701 492 700 446 701 493 702 493 702 446 701 447 703 493 702 447 703 494 704 494 704 447 703 448 705 494 704 448 705 495 706 495 706 448 705 449 707 495 706 449 707 496 708 496 708 449 707 450 709 496 708 450 709 497 710 497 710 450 709 451 711 497 710 451 711 498 712 498 712 451 711 452 713 498 712 452 713 499 714 499 714 452 713 453 715 499 714 453 715 500 716 500 716 453 715 454 717 500 716 454 717 501 718 501 718 454 717 455 719 501 718 455 719 502 720 502 720 455 719 456 721 502 720 456 721 503 722 503 722 456 721 457 723 503 722 457 723 504 724 504 724 457 723 458 725 504 724 458 725 505 726 505 726 458 725 459 727 505 726 459 727 506 728 506 728 459 727 460 729 506 728 460 729 507 730 507 730 460 729 461 731 507 730 461 731 508 732 508 732 461 731 462 733 508 732 462 733 509 734 509 734 462 733 463 735 509 734 463 735 510 736 510 736 463 735 464 737 510 736 464 737 511 738 511 738 464 737 465 739 511 738 465 739 512 740 512 740 465 739 466 741 512 740 466 741 513 742 513 742 466 741 467 743 513 742 467 743 514 744 514 744 467 743 468 745 514 744 468 745 515 746 515 746 468 745 469 747 515 746 469 747 516 748 516 748 469 747 470 749 516 748 470 749 517 750 517 750 470 749 471 751 517 750 471 751 518 752 518 752 471 751 472 753 518 752 472 753 519 754 519 754 472 753 473 755 519 754 473 755 474 756 474 756 158 757 519 754 519 754 158 757 206 758 519 754 206 758 518 752 518 752 206 758 205 759 518 752 205 759 517 750 517 750 205 759 204 760 517 750 204 760 516 748 516 748 204 760 203 761 516 748 203 761 515 746 515 746 203 761 202 762 515 746 202 762 514 744 514 744 202 762 201 763 514 744 201 763 513 742 513 742 201 763 200 764 513 742 200 764 512 740 512 740 200 764 199 765 512 740 199 765 511 738 511 738 199 765 198 766 511 738 198 766 510 736 510 736 198 766 197 767 510 736 197 767 509 734 509 734 197 767 196 768 509 734 196 768 508 732 508 732 196 768 195 769 508 732 195 769 507 730 507 730 195 769 194 770 507 730 194 770 506 728 506 728 194 770 193 771 506 728 193 771 505 726 505 726 193 771 192 772 505 726 192 772 504 724 504 724 192 772 191 773 504 724 191 773 503 722 503 722 191 773 190 774 503 722 190 774 502 720 502 720 190 774 189 775 502 720 189 775 501 718 501 718 189 775 188 776 501 718 188 776 500 716 500 716 188 776 187 777 500 716 187 777 499 714 499 714 187 777 186 778 499 714 186 778 498 712 498 712 186 778 185 779 498 712 185 779 497 710 497 710 185 779 184 780 497 710 184 780 496 708 496 708 184 780 183 781 496 708 183 781 495 706 495 706 183 781 182 782 495 706 182 782 494 704 494 704 182 782 181 783 494 704 181 783 493 702 493 702 181 783 180 784 493 702 180 784 492 700 492 700 180 784 179 785 492 700 179 785 491 698 491 698 179 785 178 786 491 698 178 786 490 696 490 696 178 786 177 787 490 696 177 787 489 694 489 694 177 787 176 788 489 694 176 788 488 692 488 692 176 788 175 789 488 692 175 789 487 690 487 690 175 789 174 790 487 690 174 790 486 688 486 688 174 790 173 791 486 688 173 791 485 686 485 686 173 791 172 792 485 686 172 792 484 684 484 684 172 792 171 793 484 684 171 793 483 682 483 682 171 793 170 794 483 682 170 794 482 680 482 680 170 794 169 795 482 680 169 795 481 678 481 678 169 795 168 796 481 678 168 796 480 676 480 676 168 796 167 797 480 676 167 797 479 674 479 674 167 797 166 798 479 674 166 798 478 672 478 672 166 798 165 799 478 672 165 799 477 670 477 670 165 799 164 800 477 670 164 800 476 668 476 668 164 800 163 801 476 668 163 801 475 666 475 666 163 801 162 665 474 756 426 802 158 757 158 757 426 802 159 803 474 804 347 805 426 806 426 806 347 805 346 807 426 806 346 807 345 808 473 809 280 810 474 804 474 804 280 810 352 811 474 804 352 811 351 812 280 810 473 809 281 813 281 813 473 809 472 814 281 813 472 814 282 815 282 815 472 814 471 816 282 815 471 816 470 817 282 815 470 817 283 818 283 818 470 817 469 819 283 818 469 819 284 820 284 820 469 819 468 821 284 820 468 821 285 822 285 822 468 821 467 823 285 822 467 823 466 824 285 822 466 824 286 825 286 825 466 824 465 826 286 825 465 826 287 827 287 827 465 826 464 828 287 827 464 828 288 829 288 829 464 828 463 830 288 829 463 830 462 831 288 829 462 831 289 832 289 832 462 831 461 833 289 832 461 833 290 834 290 834 461 833 460 835 290 834 460 835 291 836 291 836 460 835 459 837 291 836 459 837 292 838 292 838 459 837 458 839 292 838 458 839 293 840 293 840 458 839 457 841 293 840 457 841 456 842 293 840 456 842 294 843 294 843 456 842 455 844 294 843 455 844 295 845 295 845 455 844 454 846 295 845 454 846 296 847 296 847 454 846 453 848 296 847 453 848 297 849 297 849 453 848 452 850 297 849 452 850 298 851 298 851 452 850 451 852 298 851 451 852 299 853 299 853 451 852 450 854 299 853 450 854 300 855 300 855 450 854 449 856 300 855 449 856 448 857 300 855 448 857 301 858 301 858 448 857 447 859 301 858 447 859 302 860 302 860 447 859 446 861 302 860 446 861 303 862 303 862 446 861 445 863 303 862 445 863 304 864 304 864 445 863 444 865 304 864 444 865 305 866 305 866 444 865 443 867 305 866 443 867 306 868 306 868 443 867 442 869 306 868 442 869 441 870 306 868 441 870 307 871 307 871 441 870 440 872 307 871 440 872 308 873 308 873 440 872 439 874 308 873 439 874 309 875 309 875 439 874 438 876 309 875 438 876 310 877 310 877 438 876 437 878 310 877 437 878 436 879 310 877 436 879 311 880 311 880 436 879 435 881 311 880 435 881 312 882 312 882 435 881 434 883 312 882 434 883 313 884 313 884 434 883 433 885 313 884 433 885 432 886 313 884 432 886 314 887 314 887 432 886 431 888 314 887 431 888 315 889 315 889 431 888 430 890 315 889 430 890 429 891 315 889 429 891 316 892 316 892 429 891 428 893 316 892 428 893 317 894 317 894 428 893 318 895 318 895 428 893 319 896 319 896 428 893 320 897 320 897 428 893 321 898 321 898 428 893 322 899 322 899 428 893 427 900 322 899 427 900 323 901 323 901 427 900 324 902 324 902 427 900 325 903 325 903 427 900 326 904 326 904 427 900 327 905 327 905 427 900 328 906 328 906 427 900 329 907 329 907 427 900 330 908 330 908 427 900 331 909 331 909 427 900 332 910 332 910 427 900 333 911 333 911 427 900 334 912 334 912 427 900 335 913 335 913 427 900 426 806 335 913 426 806 336 914 336 914 426 806 337 915 337 915 426 806 338 916 338 916 426 806 339 917 339 917 426 806 340 918 340 918 426 806 341 919 341 919 426 806 342 920 342 920 426 806 343 921 343 921 426 806 344 922 344 922 426 806 345 808 351 812 350 923 474 804 474 804 350 923 349 924 474 804 349 924 348 925 348 925 347 805 474 804</p>
        </triangles>
      </mesh>
    </geometry>
  </library_geometries>
  <library_visual_scenes>
    <visual_scene id="Scene" name="Scene">
      <node id="mat_2nd_link-node" name="2nd_link" type="NODE">
        <instance_geometry url="#mat_2nd_link-mesh">
          <bind_material>
            <technique_common>
              <instance_material symbol="Default" target="#Default"/>
            </technique_common>
          </bind_material>
        </instance_geometry>
      </node>
    </visual_scene>
  </library_visual_scenes>
  <scene>
    <instance_visual_scene url="#Scene"/>
  </scene>
</COLLADA>
