<?xml version="1.0" encoding="utf-8"?>
<COLLADA xmlns="http://www.collada.org/2005/11/COLLADASchema" version="1.4.1">
  <asset>
    <contributor>
      <authoring_tool>Fusion URDF/XACRO Exporter</authoring_tool>
    </contributor>
    <created>2026-08-21T07:34:06Z</created>
    <modified>2026-08-21T07:34:06Z</modified>
    <unit name="meter" meter="1.0"/>
    <up_axis>Z_UP</up_axis>
  </asset>
  <library_effects>
    <effect id="Steel_-_Satin-effect">
      <profile_COMMON>
        <technique sid="common">
          <lambert>
            <emission><color>0 0 0 1</color></emission>
            <ambient><color>0.0000 0.0000 0.0000 1</color></ambient>
            <diffuse><color>0.6275 0.6275 0.6275 1</color></diffuse>
            <reflective><color>0 0 0 1</color></reflective>
            <transparent opaque="A_ONE"><color>1 1 1 1</color></transparent>
            <transparency><float>1</float></transparency>
          </lambert>
        </technique>
      </profile_COMMON>
    </effect>
  </library_effects>
  <library_materials>
    <material id="Steel_-_Satin" name="Steel_-_Satin">
      <instance_effect url="#Steel_-_Satin-effect"/>
    </material>
  </library_materials>
  <library_geometries>
    <geometry id="mat_2nd_encoder-mesh" name="2nd_encoder">
      <mesh>
        <source id="mat_2nd_encoder-mesh-positions">
          <float_array id="mat_2nd_encoder-mesh-positions-array" count="486">0.016000 -0.155169 0.186312 0.018626 -0.155169 0.187573 0.021154 -0.155169 0.189022 0.023570 -0.155169 0.190651 0.025861 -0.155169 0.192451 0.028014 -0.155169 0.194413 0.030020 -0.155169 0.196527 0.031866 -0.155169 0.198781 0.033543 -0.155169 0.201163 0.035043 -0.155169 0.203661 0.036357 -0.155169 0.206262 0.037478 -0.155169 0.208951 0.038401 -0.155169 0.211714 0.039120 -0.155169 0.214538 0.039632 -0.155169 0.217406 0.039934 -0.155169 0.220304 0.040024 -0.155169 0.223216 0.039903 -0.155169 0.226127 0.039569 -0.155169 0.229021 0.039027 -0.155169 0.231884 0.038277 -0.155169 0.234699 0.037324 -0.155169 0.237453 0.036174 -0.155169 0.240130 0.034832 -0.155169 0.242716 0.033306 -0.155169 0.245197 0.031603 -0.155169 0.247562 0.029732 -0.155169 0.249795 0.027704 -0.155169 0.251887 0.025529 -0.155169 0.253826 0.023219 -0.155169 0.255602 0.020786 -0.155169 0.257204 0.018243 -0.155169 0.258626 0.015603 -0.155169 0.259858 0.012880 -0.155169 0.260896 0.010090 -0.155169 0.261732 0.007245 -0.155169 0.262364 0.004363 -0.155169 0.262787 0.001457 -0.155169 0.262998 -0.001457 -0.155169 0.262998 -0.004363 -0.155169 0.262787 -0.007245 -0.155169 0.262364 -0.010090 -0.155169 0.261732 -0.012880 -0.155169 0.260896 -0.015603 -0.155169 0.259858 -0.018243 -0.155169 0.258626 -0.020786 -0.155169 0.257204 -0.023219 -0.155169 0.255602 -0.025529 -0.155169 0.253826 -0.027704 -0.155169 0.251887 -0.029732 -0.155169 0.249795 -0.031603 -0.155169 0.247562 -0.033306 -0.155169 0.245197 -0.034832 -0.155169 0.242716 -0.036174 -0.155169 0.240130 -0.037324 -0.155169 0.237453 -0.038277 -0.155169 0.234699 -0.039027 -0.155169 0.231884 -0.039569 -0.155169 0.229021 -0.039903 -0.155169 0.226127 -0.040024 -0.155169 0.223216 -0.039934 -0.155169 0.220304 -0.039632 -0.155169 0.217406 -0.039120 -0.155169 0.214538 -0.038401 -0.155169 0.211714 -0.037478 -0.155169 0.208951 -0.036357 -0.155169 0.206262 -0.035043 -0.155169 0.203661 -0.033543 -0.155169 0.201163 -0.031866 -0.155169 0.198781 -0.030020 -0.155169 0.196527 -0.028014 -0.155169 0.194413 -0.025861 -0.155169 0.192451 -0.023570 -0.155169 0.190651 -0.021154 -0.155169 0.189022 -0.018626 -0.155169 0.187573 -0.016000 -0.155169 0.186312 -0.016000 -0.165169 0.186312 -0.018626 -0.165169 0.187573 -0.021154 -0.165169 0.189022 -0.023570 -0.165169 0.190651 -0.025861 -0.165169 0.192451 -0.028014 -0.165169 0.194413 -0.030020 -0.165169 0.196527 -0.031866 -0.165169 0.198781 -0.033543 -0.165169 0.201163 -0.035043 -0.165169 0.203661 -0.036357 -0.165169 0.206262 -0.037478 -0.165169 0.208951 -0.038401 -0.165169 0.211714 -0.039120 -0.165169 0.214538 -0.039632 -0.165169 0.217406 -0.039934 -0.165169 0.220304 -0.040024 -0.165169 0.223216 -0.039903 -0.165169 0.226127 -0.039569 -0.165169 0.229021 -0.039027 -0.165169 0.231884 -0.038277 -0.165169 0.234699 -0.037324 -0.165169 0.237453 -0.036174 -0.165169 0.240130 -0.034832 -0.165169 0.242716 -0.033306 -0.165169 0.245197 -0.031603 -0.165169 0.247562 -0.029732 -0.165169 0.249795 -0.027704 -0.165169 0.251887 -0.025529 -0.165169 0.253826 -0.023219 -0.165169 0.255602 -0.020786 -0.165169 0.257204 -0.018243 -0.165169 0.258626 -0.015603 -0.165169 0.259858 -0.012880 -0.165169 0.260896 -0.010090 -0.165169 0.261732 -0.007245 -0.165169 0.262364 -0.004363 -0.165169 0.262787 -0.001457 -0.165169 0.262998 0.001457 -0.165169 0.262998 0.004363 -0.165169 0.262787 0.007245 -0.165169 0.262364 0.010090 -0.165169 0.261732 0.012880 -0.165169 0.260896 0.015603 -0.165169 0.259858 0.018243 -0.165169 0.258626 0.020786 -0.165169 0.257204 0.023219 -0.165169 0.255602 0.025529 -0.165169 0.253826 0.027704 -0.165169 0.251887 0.029732 -0.165169 0.249795 0.031603 -0.165169 0.247562 0.033306 -0.165169 0.245197 0.034832 -0.165169 0.242716 0.036174 -0.165169 0.240130 0.037324 -0.165169 0.237453 0.038277 -0.165169 0.234699 0.039027 -0.165169 0.231884 0.039569 -0.165169 0.229021 0.039903 -0.165169 0.226127 0.040024 -0.165169 0.223216 0.039934 -0.165169 0.220304 0.039632 -0.165169 0.217406 0.039120 -0.165169 0.214538 0.038401 -0.165169 0.211714 0.037478 -0.165169 0.208951 0.036357 -0.165169 0.206262 0.035043 -0.165169 0.203661 0.033543 -0.165169 0.201163 0.031866 -0.165169 0.198781 0.030020 -0.165169 0.196527 0.028014 -0.165169 0.194413 0.025861 -0.165169 0.192451 0.023570 -0.165169 0.190651 0.021154 -0.165169 0.189022 0.018626 -0.165169 0.187573 0.016000 -0.165169 0.186312 0.016000 -0.165169 0.170000 -0.016000 -0.165169 0.170000 0.016000 -0.155169 0.180000 -0.016000 -0.155169 0.180000 -0.016000 -0.050000 0.170000 0.016000 -0.050000 0.170000 0.016000 -0.155169 0.170000 -0.016000 -0.155169 0.170000 -0.016000 -0.050000 0.180000 0.016000 -0.050000 0.180000</float_array>
          <technique_common>
            <accessor source="#mat_2nd_encoder-mesh-positions-array" count="162" stride="3">
              <param name="X" type="float"/>
              <param name="Y" type="float"/>
              <param name="Z" type="float"/>
            </accessor>
          </technique_common>
        </source>
        <source id="mat_2nd_encoder-mesh-normals">
          <float_array id="mat_2nd_encoder-mesh-normals-array" count="1008">0.399750 -0.000000 -0.916624 0.399750 -0.000000 -0.916624 0.465371 -0.000000 -0.885116 0.465371 -0.000000 -0.885116 0.528526 -0.000000 -0.848917 0.528526 -0.000000 -0.848917 0.588880 -0.000000 -0.808221 0.588880 -0.000000 -0.808221 0.646114 -0.000000 -0.763241 0.646114 -0.000000 -0.763241 0.699924 -0.000000 -0.714218 0.699924 -0.000000 -0.714218 0.750025 -0.000000 -0.661409 0.750025 -0.000000 -0.661409 0.796152 -0.000000 -0.605096 0.796152 -0.000000 -0.605096 0.838061 -0.000000 -0.545577 0.838061 -0.000000 -0.545577 0.875528 -0.000000 -0.483167 0.875528 -0.000000 -0.483167 0.908357 -0.000000 -0.418197 0.908357 -0.000000 -0.418197 0.936372 -0.000000 -0.351010 0.936372 -0.000000 -0.351010 0.959425 -0.000000 -0.281964 0.959425 -0.000000 -0.281964 0.977395 -0.000000 -0.211424 0.977395 -0.000000 -0.211424 0.990185 -0.000000 -0.139763 0.990185 -0.000000 -0.139763 0.997729 -0.000000 -0.067362 0.997729 -0.000000 -0.067362 0.999985 0.000000 0.005397 0.999985 0.000000 0.005397 0.996943 0.000000 0.078126 0.996943 0.000000 0.078126 0.988619 0.000000 0.150442 0.988619 0.000000 0.150442 0.975056 0.000000 0.221960 0.975056 0.000000 0.221960 0.956326 0.000000 0.292303 0.956326 0.000000 0.292303 0.932529 0.000000 0.361096 0.932529 0.000000 0.361096 0.903790 0.000000 0.427976 0.903790 0.000000 0.427976 0.870262 0.000000 0.492588 0.870262 0.000000 0.492588 0.832123 0.000000 0.554591 0.832123 0.000000 0.554591 0.789575 0.000000 0.613654 0.789575 0.000000 0.613654 0.742843 0.000000 0.669466 0.742843 0.000000 0.669466 0.692174 0.000000 0.721730 0.692174 0.000000 0.721730 0.637838 0.000000 0.770170 0.637838 0.000000 0.770170 0.580122 0.000000 0.814529 0.580122 0.000000 0.814529 0.519332 0.000000 0.854572 0.519332 0.000000 0.854572 0.455791 0.000000 0.890087 0.455791 0.000000 0.890087 0.389834 0.000000 0.920885 0.389834 0.000000 0.920885 0.321811 0.000000 0.946804 0.321811 0.000000 0.946804 0.252083 0.000000 0.967706 0.252083 0.000000 0.967706 0.181020 0.000000 0.983479 0.181020 0.000000 0.983479 0.108997 0.000000 0.994042 0.108997 0.000000 0.994042 0.036397 0.000000 0.999337 0.036397 0.000000 0.999337 -0.036397 -0.000000 0.999337 -0.036397 -0.000000 0.999337 -0.108997 -0.000000 0.994042 -0.108997 -0.000000 0.994042 -0.181020 -0.000000 0.983479 -0.181020 -0.000000 0.983479 -0.252083 -0.000000 0.967706 -0.252083 -0.000000 0.967706 -0.321811 -0.000000 0.946804 -0.321811 -0.000000 0.946804 -0.389834 -0.000000 0.920885 -0.389834 -0.000000 0.920885 -0.455791 -0.000000 0.890087 -0.455791 -0.000000 0.890087 -0.519332 -0.000000 0.854572 -0.519332 -0.000000 0.854572 -0.580122 -0.000000 0.814529 -0.580122 -0.000000 0.814529 -0.637838 -0.000000 0.770170 -0.637838 -0.000000 0.770170 -0.692174 -0.000000 0.721730 -0.692174 -0.000000 0.721730 -0.742843 -0.000000 0.669466 -0.742843 -0.000000 0.669466 -0.789575 -0.000000 0.613654 -0.789575 -0.000000 0.613654 -0.832123 -0.000000 0.554591 -0.832123 -0.000000 0.554591 -0.870262 -0.000000 0.492588 -0.870262 -0.000000 0.492588 -0.903790 -0.000000 0.427976 -0.903790 -0.000000 0.427976 -0.932529 -0.000000 0.361096 -0.932529 -0.000000 0.361096 -0.956326 -0.000000 0.292303 -0.956326 -0.000000 0.292303 -0.975056 -0.000000 0.221960 -0.975056 -0.000000 0.221960 -0.988619 -0.000000 0.150442 -0.988619 -0.000000 0.150442 -0.996943 -0.000000 0.078126 -0.996943 -0.000000 0.078126 -0.999985 -0.000000 0.005397 -0.999985 -0.000000 0.005397 -0.997729 -0.000000 -0.067362 -0.997729 -0.000000 -0.067362 -0.990185 -0.000000 -0.139763 -0.990185 -0.000000 -0.139763 -0.977395 -0.000000 -0.211424 -0.977395 -0.000000 -0.211424 -0.959425 -0.000000 -0.281964 -0.959425 -0.000000 -0.281964 -0.936372 -0.000000 -0.351010 -0.936372 -0.000000 -0.351010 -0.908357 -0.000000 -0.418197 -0.908357 -0.000000 -0.418197 -0.875528 -0.000000 -0.483167 -0.875528 -0.000000 -0.483167 -0.838061 -0.000000 -0.545577 -0.838061 -0.000000 -0.545577 -0.796152 -0.000000 -0.605096 -0.796152 -0.000000 -0.605096 -0.750025 -0.000000 -0.661409 -0.750025 -0.000000 -0.661409 -0.699924 -0.000000 -0.714218 -0.699924 -0.000000 -0.714218 -0.646114 -0.000000 -0.763241 -0.646114 -0.000000 -0.763241 -0.588880 -0.000000 -0.808221 -0.588880 -0.000000 -0.808221 -0.528526 -0.000000 -0.848917 -0.528526 -0.000000 -0.848917 -0.465371 -0.000000 -0.885116 -0.465371 -0.000000 -0.885116 -0.399750 -0.000000 -0.916624 -0.399750 -0.000000 -0.916624 0.000000 -1.000000 0.000000 0.000000 -1.000000 0.000000 0.000000 -1.000000 0.000000 0.000000 -1.000000 0.000000 0.000000 -1.000000 0.000000 0.000000 -1.000000 0.000000 0.000000 -1.000000 0.000000 0.000000 -1.000000 0.000000 0.000000 -1.000000 0.000000 0.000000 -1.000000 0.000000 0.000000 -1.000000 0.000000 0.000000 -1.000000 0.000000 0.000000 -1.000000 0.000000 0.000000 -1.000000 0.000000 0.000000 -1.000000 0.000000 0.000000 -1.000000 0.000000 0.000000 -1.000000 0.000000 0.000000 -1.000000 0.000000 0.000000 -1.000000 0.000000 0.000000 -1.000000 0.000000 0.000000 -1.000000 0.000000 0.000000 -1.000000 0.000000 0.000000 -1.000000 0.000000 0.000000 -1.000000 0.000000 0.000000 -1.000000 0.000000 0.000000 -1.000000 0.000000 0.000000 -1.000000 0.000000 0.000000 -1.000000 0.000000 0.000000 -1.000000 0.000000 0.000000 -1.000000 0.000000 0.000000 -1.000000 0.000000 0.000000 -1.000000 0.000000 0.000000 -1.000000 0.000000 0.000000 -1.000000 0.000000 0.000000 -1.000000 0.000000 0.000000 -1.000000 0.000000 0.000000 -1.000000 0.000000 0.000000 -1.000000 0.000000 0.000000 -1.000000 0.000000 0.000000 -1.000000 0.000000 0.000000 -1.000000 0.000000 0.000000 -1.000000 0.000000 0.000000 -1.000000 0.000000 0.000000 -1.000000 0.000000 0.000000 -1.000000 0.000000 0.000000 -1.000000 0.000000 0.000000 -1.000000 0.000000 0.000000 -1.000000 0.000000 0.000000 -1.000000 0.000000 0.000000 -1.000000 0.000000 0.000000 -1.000000 0.000000 0.000000 -1.000000 0.000000 0.000000 -1.000000 0.000000 0.000000 -1.000000 0.000000 0.000000 -1.000000 0.000000 0.000000 -1.000000 0.000000 0.000000 -1.000000 0.000000 0.000000 -1.000000 0.000000 0.000000 -1.000000 0.000000 0.000000 -1.000000 0.000000 0.000000 -1.000000 0.000000 0.000000 -1.000000 0.000000 0.000000 -1.000000 0.000000 0.000000 -1.000000 0.000000 0.000000 -1.000000 0.000000 0.000000 -1.000000 0.000000 0.000000 -1.000000 0.000000 0.000000 -1.000000 0.000000 0.000000 -1.000000 0.000000 0.000000 -1.000000 0.000000 0.000000 -1.000000 0.000000 0.000000 -1.000000 0.000000 0.000000 -1.000000 0.000000 0.000000 -1.000000 0.000000 0.000000 -1.000000 0.000000 0.000000 -1.000000 0.000000 0.000000 -1.000000 0.000000 0.000000 -1.000000 0.000000 -0.000000 1.000000 -0.000000 -0.000000 1.000000 -0.000000 -0.000000 1.000000 -0.000000 -0.000000 1.000000 -0.000000 -0.000000 1.000000 -0.000000 -0.000000 1.000000 -0.000000 -0.000000 1.000000 -0.000000 -0.000000 1.000000 -0.000000 -0.000000 1.000000 -0.000000 -0.000000 1.000000 -0.000000 -0.000000 1.000000 -0.000000 -0.000000 1.000000 -0.000000 -0.000000 1.000000 -0.000000 -0.000000 1.000000 -0.000000 -0.000000 1.000000 -0.000000 -0.000000 1.000000 -0.000000 -0.000000 1.000000 -0.000000 -0.000000 1.000000 -0.000000 -0.000000 1.000000 -0.000000 -0.000000 1.000000 -0.000000 -0.000000 1.000000 -0.000000 -0.000000 1.000000 -0.000000 -0.000000 1.000000 -0.000000 -0.000000 1.000000 -0.000000 -0.000000 1.000000 -0.000000 -0.000000 1.000000 -0.000000 -0.000000 1.000000 -0.000000 -0.000000 1.000000 -0.000000 -0.000000 1.000000 -0.000000 -0.000000 1.000000 -0.000000 -0.000000 1.000000 -0.000000 -0.000000 1.000000 -0.000000 -0.000000 1.000000 -0.000000 -0.000000 1.000000 -0.000000 -0.000000 1.000000 -0.000000 -0.000000 1.000000 -0.000000 -0.000000 1.000000 -0.000000 -0.000000 1.000000 -0.000000 -0.000000 1.000000 -0.000000 -0.000000 1.000000 -0.000000 -0.000000 1.000000 -0.000000 -0.000000 1.000000 -0.000000 -0.000000 1.000000 -0.000000 -0.000000 1.000000 -0.000000 -0.000000 1.000000 -0.000000 -0.000000 1.000000 -0.000000 -0.000000 1.000000 -0.000000 -0.000000 1.000000 -0.000000 -0.000000 1.000000 -0.000000 -0.000000 1.000000 -0.000000 -0.000000 1.000000 -0.000000 -0.000000 1.000000 -0.000000 -0.000000 1.000000 -0.000000 -0.000000 1.000000 -0.000000 -0.000000 1.000000 -0.000000 -0.000000 1.000000 -0.000000 -0.000000 1.000000 -0.000000 -0.000000 1.000000 -0.000000 -0.000000 1.000000 -0.000000 -0.000000 1.000000 -0.000000 -0.000000 1.000000 -0.000000 -0.000000 1.000000 -0.000000 -0.000000 1.000000 -0.000000 -0.000000 1.000000 -0.000000 -0.000000 1.000000 -0.000000 -0.000000 1.000000 -0.000000 -0.000000 1.000000 -0.000000 -0.000000 1.000000 -0.000000 -0.000000 1.000000 -0.000000 -0.000000 1.000000 -0.000000 -0.000000 1.000000 -0.000000 -0.000000 1.000000 -0.000000 -0.000000 1.000000 -0.000000 -0.000000 1.000000 -0.000000 -0.000000 1.000000 -0.000000 -0.000000 1.000000 -0.000000 -0.000000 1.000000 -0.000000 -0.000000 1.000000 -0.000000 0.000000 0.000000 -1.000000 0.000000 0.000000 -1.000000 0.000000 0.000000 -1.000000 0.000000 0.000000 -1.000000 0.000000 0.000000 -1.000000 0.000000 0.000000 -1.000000 -1.000000 -0.000000 -0.000000 -1.000000 -0.000000 -0.000000 -1.000000 -0.000000 -0.000000 -1.000000 -0.000000 -0.000000 -1.000000 -0.000000 -0.000000 -1.000000 -0.000000 -0.000000 -1.000000 -0.000000 -0.000000 0.000000 0.000000 1.000000 0.000000 0.000000 1.000000 0.000000 0.000000 1.000000 0.000000 0.000000 1.000000 1.000000 0.000000 -0.000000 1.000000 0.000000 -0.000000 1.000000 0.000000 -0.000000 1.000000 0.000000 -0.000000 1.000000 0.000000 -0.000000 1.000000 0.000000 -0.000000 1.000000 0.000000 -0.000000 -0.000000 1.000000 -0.000000 -0.000000 1.000000 -0.000000 -0.000000 1.000000 -0.000000 -0.000000 1.000000 -0.000000</float_array>
          <technique_common>
            <accessor source="#mat_2nd_encoder-mesh-normals-array" count="336" stride="3">
              <param name="X" type="float"/>
              <param name="Y" type="float"/>
              <param name="Z" type="float"/>
            </accessor>
          </technique_common>
        </source>
        <vertices id="mat_2nd_encoder-mesh-vertices">
          <input semantic="POSITION" source="#mat_2nd_encoder-mesh-positions"/>
        </vertices>
        <triangles material="Steel_-_Satin" count="320">
          <input semantic="VERTEX" source="#mat_2nd_encoder-mesh-vertices" offset="0"/>
          <input semantic="NORMAL" source="#mat_2nd_encoder-mesh-normals" offset="1"/>
          <p>151 0 0 1 150 2 150 2 0 1 1 3 150 2 1 3 149 4 149 4 1 3 2 5 149 4 2 5 148 6 148 6 2 5 3 7 148 6 3 7 147 8 147 8 3 7 4 9 147 8 4 9 146 10 146 10 4 9 5 11 146 10 5 11 145 12 145 12 5 11 6 13 145 12 6 13 144 14 144 14 6 13 7 15 144 14 7 15 143 16 143 16 7 15 8 17 143 16 8 17 142 18 142 18 8 17 9 19 142 18 9 19 141 20 141 20 9 19 10 21 141 20 10 21 140 22 140 22 10 21 11 23 140 22 11 23 139 24 139 24 11 23 12 25 139 24 12 25 138 26 138 26 12 25 13 27 138 26 13 27 137 28 137 28 13 27 14 29 137 28 14 29 136 30 136 30 14 29 15 31 136 30 15 31 135 32 135 32 15 31 16 33 135 32 16 33 134 34 134 34 16 33 17 35 134 34 17 35 133 36 133 36 17 35 18 37 133 36 18 37 132 38 132 38 18 37 19 39 132 38 19 39 131 40 131 40 19 39 20 41 131 40 20 41 130 42 130 42 20 41 21 43 130 42 21 43 129 44 129 44 21 43 22 45 129 44 22 45 128 46 128 46 22 45 23 47 128 46 23 47 127 48 127 48 23 47 24 49 127 48 24 49 126 50 126 50 24 49 25 51 126 50 25 51 125 52 125 52 25 51 26 53 125 52 26 53 124 54 124 54 26 53 27 55 124 54 27 55 123 56 123 56 27 55 28 57 123 56 28 57 122 58 122 58 28 57 29 59 122 58 29 59 121 60 121 60 29 59 30 61 121 60 30 61 120 62 120 62 30 61 31 63 120 62 31 63 119 64 119 64 31 63 32 65 119 64 32 65 118 66 118 66 32 65 33 67 118 66 33 67 117 68 117 68 33 67 34 69 117 68 34 69 116 70 116 70 34 69 35 71 116 70 35 71 115 72 115 72 35 71 36 73 115 72 36 73 114 74 114 74 36 73 37 75 114 74 37 75 113 76 113 76 37 75 38 77 113 76 38 77 112 78 112 78 38 77 39 79 112 78 39 79 111 80 111 80 39 79 40 81 111 80 40 81 110 82 110 82 40 81 41 83 110 82 41 83 109 84 109 84 41 83 42 85 109 84 42 85 108 86 108 86 42 85 43 87 108 86 43 87 107 88 107 88 43 87 44 89 107 88 44 89 106 90 106 90 44 89 45 91 106 90 45 91 105 92 105 92 45 91 46 93 105 92 46 93 104 94 104 94 46 93 47 95 104 94 47 95 103 96 103 96 47 95 48 97 103 96 48 97 102 98 102 98 48 97 49 99 102 98 49 99 101 100 101 100 49 99 50 101 101 100 50 101 100 102 100 102 50 101 51 103 100 102 51 103 99 104 99 104 51 103 52 105 99 104 52 105 98 106 98 106 52 105 53 107 98 106 53 107 97 108 97 108 53 107 54 109 97 108 54 109 96 110 96 110 54 109 55 111 96 110 55 111 95 112 95 112 55 111 56 113 95 112 56 113 94 114 94 114 56 113 57 115 94 114 57 115 93 116 93 116 57 115 58 117 93 116 58 117 92 118 92 118 58 117 59 119 92 118 59 119 91 120 91 120 59 119 60 121 91 120 60 121 90 122 90 122 60 121 61 123 90 122 61 123 89 124 89 124 61 123 62 125 89 124 62 125 88 126 88 126 62 125 63 127 88 126 63 127 87 128 87 128 63 127 64 129 87 128 64 129 86 130 86 130 64 129 65 131 86 130 65 131 85 132 85 132 65 131 66 133 85 132 66 133 84 134 84 134 66 133 67 135 84 134 67 135 83 136 83 136 67 135 68 137 83 136 68 137 82 138 82 138 68 137 69 139 82 138 69 139 81 140 81 140 69 139 70 141 81 140 70 141 80 142 80 142 70 141 71 143 80 142 71 143 79 144 79 144 71 143 72 145 79 144 72 145 78 146 78 146 72 145 73 147 78 146 73 147 77 148 77 148 73 147 74 149 77 148 74 149 76 150 76 150 74 149 75 151 153 152 152 153 76 154 76 154 152 153 151 155 76 154 151 155 77 156 77 156 151 155 150 157 77 156 150 157 78 158 78 158 150 157 149 159 78 158 149 159 79 160 79 160 149 159 148 161 79 160 148 161 80 162 80 162 148 161 147 163 80 162 147 163 81 164 81 164 147 163 146 165 81 164 146 165 82 166 82 166 146 165 145 167 82 166 145 167 83 168 83 168 145 167 144 169 83 168 144 169 84 170 84 170 144 169 143 171 84 170 143 171 85 172 85 172 143 171 142 173 85 172 142 173 86 174 86 174 142 173 141 175 86 174 141 175 87 176 87 176 141 175 140 177 87 176 140 177 88 178 88 178 140 177 139 179 88 178 139 179 89 180 89 180 139 179 138 181 89 180 138 181 90 182 90 182 138 181 137 183 90 182 137 183 91 184 91 184 137 183 136 185 91 184 136 185 92 186 92 186 136 185 135 187 92 186 135 187 93 188 93 188 135 187 134 189 93 188 134 189 94 190 94 190 134 189 133 191 94 190 133 191 95 192 95 192 133 191 132 193 95 192 132 193 96 194 96 194 132 193 97 195 97 195 132 193 98 196 98 196 132 193 99 197 99 197 132 193 100 198 100 198 132 193 101 199 101 199 132 193 102 200 102 200 132 193 103 201 103 201 132 193 104 202 104 202 132 193 105 203 105 203 132 193 106 204 106 204 132 193 107 205 107 205 132 193 108 206 108 206 132 193 109 207 109 207 132 193 110 208 110 208 132 193 111 209 111 209 132 193 112 210 112 210 132 193 113 211 113 211 132 193 114 212 114 212 132 193 115 213 115 213 132 193 116 214 116 214 132 193 117 215 117 215 132 193 118 216 118 216 132 193 119 217 119 217 132 193 120 218 120 218 132 193 121 219 121 219 132 193 122 220 122 220 132 193 123 221 123 221 132 193 124 222 124 222 132 193 125 223 125 223 132 193 126 224 126 224 132 193 127 225 127 225 132 193 128 226 128 226 132 193 129 227 129 227 132 193 130 228 130 228 132 193 131 229 154 230 155 231 0 232 0 232 155 231 75 233 0 232 75 233 1 234 1 234 75 233 74 235 1 234 74 235 2 236 2 236 74 235 73 237 2 236 73 237 3 238 3 238 73 237 72 239 3 238 72 239 4 240 4 240 72 239 71 241 4 240 71 241 5 242 5 242 71 241 70 243 5 242 70 243 6 244 6 244 70 243 69 245 6 244 69 245 7 246 7 246 69 245 68 247 7 246 68 247 8 248 8 248 68 247 67 249 8 248 67 249 9 250 9 250 67 249 66 251 9 250 66 251 10 252 10 252 66 251 65 253 10 252 65 253 11 254 11 254 65 253 64 255 11 254 64 255 12 256 12 256 64 255 63 257 12 256 63 257 13 258 13 258 63 257 62 259 13 258 62 259 14 260 14 260 62 259 61 261 14 260 61 261 15 262 15 262 61 261 60 263 15 262 60 263 16 264 16 264 60 263 59 265 16 264 59 265 17 266 17 266 59 265 58 267 17 266 58 267 18 268 18 268 58 267 57 269 18 268 57 269 19 270 19 270 57 269 56 271 19 270 56 271 20 272 20 272 56 271 21 273 21 273 56 271 22 274 22 274 56 271 23 275 23 275 56 271 24 276 24 276 56 271 25 277 25 277 56 271 26 278 26 278 56 271 27 279 27 279 56 271 28 280 28 280 56 271 29 281 29 281 56 271 30 282 30 282 56 271 31 283 31 283 56 271 32 284 32 284 56 271 33 285 33 285 56 271 34 286 34 286 56 271 35 287 35 287 56 271 36 288 36 288 56 271 37 289 37 289 56 271 38 290 38 290 56 271 39 291 39 291 56 271 40 292 40 292 56 271 41 293 41 293 56 271 42 294 42 294 56 271 43 295 43 295 56 271 44 296 44 296 56 271 45 297 45 297 56 271 46 298 46 298 56 271 47 299 47 299 56 271 48 300 48 300 56 271 49 301 49 301 56 271 50 302 50 302 56 271 51 303 51 303 56 271 52 304 52 304 56 271 53 305 53 305 56 271 54 306 54 306 56 271 55 307 156 308 157 309 159 310 159 310 157 309 158 311 159 310 158 311 153 312 153 312 158 311 152 313 160 314 156 315 155 316 155 316 156 315 159 317 155 316 159 317 153 318 153 318 76 319 155 316 155 316 76 319 75 320 161 321 160 322 154 323 154 323 160 322 155 324 157 325 161 326 158 327 158 327 161 326 154 328 158 327 154 328 152 329 152 329 154 328 151 330 151 330 154 328 0 331 157 332 156 333 161 334 161 334 156 333 160 335</p>
        </triangles>
      </mesh>
    </geometry>
  </library_geometries>
  <library_visual_scenes>
    <visual_scene id="Scene" name="Scene">
      <node id="mat_2nd_encoder-node" name="2nd_encoder" type="NODE">
        <instance_geometry url="#mat_2nd_encoder-mesh">
          <bind_material>
            <technique_common>
              <instance_material symbol="Steel_-_Satin" target="#Steel_-_Satin"/>
            </technique_common>
          </bind_material>
        </instance_geometry>
      </node>
    </visual_scene>
  </library_visual_scenes>
  <scene>
    <instance_visual_scene url="#Scene"/>
  </scene>
</COLLADA>
