<?xml version="1.0" encoding="utf-8"?>
<COLLADA xmlns="http://www.collada.org/2005/11/COLLADASchema" version="1.4.1">
  <asset>
    <contributor>
      <authoring_tool>Fusion URDF/XACRO Exporter</authoring_tool>
    </contributor>
    <created>2026-08-21T07:34:05Z</created>
    <modified>2026-08-21T07:34:05Z</modified>
    <unit name="meter" meter="1.0"/>
    <up_axis>Z_UP</up_axis>
  </asset>
  <library_effects>
    <effect id="Default-effect">
      <profile_COMMON>
        <technique sid="common">
          <lambert>
            <emission><color>0 0 0 1</color></emission>
            <ambient><color>0.0000 0.0000 0.0000 1</color></ambient>
            <diffuse><color>0.7490 0.7490 0.7490 1</color></diffuse>
            <reflective><color>0 0 0 1</color></reflective>
            <transparent opaque="A_ONE"><color>1 1 1 1</color></transparent>
            <transparency><float>1</float></transparency>
          </lambert>
        </technique>
      </profile_COMMON>
    </effect>
  </library_effects>
  <library_materials>
    <material id="Default" name="Default">
      <instance_effect url="#Default-effect"/>
    </material>
  </library_materials>
  <library_geometries>
    <geometry id="mat_3rd_link-mesh" name="3rd_link">
      <mesh>
        <source id="mat_3rd_link-mesh-positions">
          <float_array id="mat_3rd_link-mesh-positions-array" count="1347">-0.030000 0.105000 0.000000 -0.029841 0.105000 -0.003085 -0.029366 0.105000 -0.006137 -0.028579 0.105000 -0.009123 -0.027490 0.105000 -0.012014 -0.026109 0.105000 -0.014776 -0.024451 0.105000 -0.017383 -0.022534 0.105000 -0.019805 -0.020378 0.105000 -0.022017 -0.018006 0.105000 -0.023995 -0.015444 0.105000 -0.025719 -0.012717 0.105000 -0.027171 -0.009856 0.105000 -0.028335 -0.006891 0.105000 -0.029198 -0.003852 0.105000 -0.029752 -0.000772 0.105000 -0.029990 0.002315 0.105000 -0.029911 0.005378 0.105000 -0.029514 0.008385 0.105000 -0.028805 0.011302 0.105000 -0.027790 0.014099 0.105000 -0.026480 0.016747 0.105000 -0.024890 0.019218 0.105000 -0.023036 0.021485 0.105000 -0.020938 0.023524 0.105000 -0.018618 0.025313 0.105000 -0.016101 0.026835 0.105000 -0.013413 0.028071 0.105000 -0.010583 0.029011 0.105000 -0.007640 0.029643 0.105000 -0.004617 0.029960 0.105000 -0.001544 0.029960 0.105000 0.001544 0.029643 0.105000 0.004617 0.029011 0.105000 0.007640 0.028071 0.105000 0.010583 0.026835 0.105000 0.013413 0.025313 0.105000 0.016101 0.023524 0.105000 0.018618 0.021485 0.105000 0.020938 0.019218 0.105000 0.023036 0.016747 0.105000 0.024890 0.014099 0.105000 0.026480 0.011302 0.105000 0.027790 0.008385 0.105000 0.028805 0.005378 0.105000 0.029514 0.002315 0.105000 0.029911 -0.000772 0.105000 0.029990 -0.003852 0.105000 0.029752 -0.006891 0.105000 0.029198 -0.009856 0.105000 0.028335 -0.012717 0.105000 0.027171 -0.015444 0.105000 0.025719 -0.018006 0.105000 0.023995 -0.020378 0.105000 0.022017 -0.022534 0.105000 0.019805 -0.024451 0.105000 0.017383 -0.026109 0.105000 0.014776 -0.027490 0.105000 0.012014 -0.028579 0.105000 0.009123 -0.029366 0.105000 0.006137 -0.029841 0.105000 0.003085 -0.030000 0.005000 0.000000 -0.029841 0.005000 0.003085 -0.029366 0.005000 0.006137 -0.028579 0.005000 0.009123 -0.027490 0.005000 0.012014 -0.026109 0.005000 0.014776 -0.024451 0.005000 0.017383 -0.022534 0.005000 0.019805 -0.020378 0.005000 0.022017 -0.018006 0.005000 0.023995 -0.015444 0.005000 0.025719 -0.012717 0.005000 0.027171 -0.009856 0.005000 0.028335 -0.006891 0.005000 0.029198 -0.003852 0.005000 0.029752 -0.000772 0.005000 0.029990 0.002315 0.005000 0.029911 0.005378 0.005000 0.029514 0.008385 0.005000 0.028805 0.011302 0.005000 0.027790 0.014099 0.005000 0.026480 0.016747 0.005000 0.024890 0.019218 0.005000 0.023036 0.021485 0.005000 0.020938 0.023524 0.005000 0.018618 0.025313 0.005000 0.016101 0.026835 0.005000 0.013413 0.028071 0.005000 0.010583 0.029011 0.005000 0.007640 0.029643 0.005000 0.004617 0.029960 0.005000 0.001544 0.029960 0.005000 -0.001544 0.029643 0.005000 -0.004617 0.029011 0.005000 -0.007640 0.028071 0.005000 -0.010583 0.026835 0.005000 -0.013413 0.025313 0.005000 -0.016101 0.023524 0.005000 -0.018618 0.021485 0.005000 -0.020938 0.019218 0.005000 -0.023036 0.016747 0.005000 -0.024890 0.014099 0.005000 -0.026480 0.011302 0.005000 -0.027790 0.008385 0.005000 -0.028805 0.005378 0.005000 -0.029514 0.002315 0.005000 -0.029911 -0.000772 0.005000 -0.029990 -0.003852 0.005000 -0.029752 -0.006891 0.005000 -0.029198 -0.009856 0.005000 -0.028335 -0.012717 0.005000 -0.027171 -0.015444 0.005000 -0.025719 -0.018006 0.005000 -0.023995 -0.020378 0.005000 -0.022017 -0.022534 0.005000 -0.019805 -0.024451 0.005000 -0.017383 -0.026109 0.005000 -0.014776 -0.027490 0.005000 -0.012014 -0.028579 0.005000 -0.009123 -0.029366 0.005000 -0.006137 -0.029841 0.005000 -0.003085 -0.029960 0.055000 0.001544 -0.029960 0.055000 -0.001544 -0.029643 0.055000 -0.004617 -0.029011 0.055000 -0.007640 -0.028071 0.055000 -0.010583 -0.026835 0.055000 -0.013413 -0.025313 0.055000 -0.016101 -0.023524 0.055000 -0.018618 -0.021485 0.055000 -0.020938 -0.019218 0.055000 -0.023036 -0.016747 0.055000 -0.024890 -0.014099 0.055000 -0.026480 -0.011302 0.055000 -0.027790 -0.008385 0.055000 -0.028805 -0.005378 0.055000 -0.029514 -0.002315 0.055000 -0.029911 0.000772 0.055000 -0.029990 0.003852 0.055000 -0.029752 0.006891 0.055000 -0.029198 0.009856 0.055000 -0.028335 0.012717 0.055000 -0.027171 0.015444 0.055000 -0.025719 0.018006 0.055000 -0.023995 0.020378 0.055000 -0.022017 0.022534 0.055000 -0.019805 0.024451 0.055000 -0.017383 0.026109 0.055000 -0.014776 0.027490 0.055000 -0.012014 0.028579 0.055000 -0.009123 0.029366 0.055000 -0.006137 0.029841 0.055000 -0.003085 0.030000 0.055000 -0.000000 0.029841 0.055000 0.003085 0.029366 0.055000 0.006137 0.028579 0.055000 0.009123 0.027490 0.055000 0.012014 0.026109 0.055000 0.014776 0.024451 0.055000 0.017383 0.022534 0.055000 0.019805 0.020378 0.055000 0.022017 0.018006 0.055000 0.023995 0.015444 0.055000 0.025719 0.012717 0.055000 0.027171 0.009856 0.055000 0.028335 0.006891 0.055000 0.029198 0.003852 0.055000 0.029752 0.000772 0.055000 0.029990 -0.002315 0.055000 0.029911 -0.005378 0.055000 0.029514 -0.008385 0.055000 0.028805 -0.011302 0.055000 0.027790 -0.014099 0.055000 0.026480 -0.016747 0.055000 0.024890 -0.019218 0.055000 0.023036 -0.021485 0.055000 0.020938 -0.023524 0.055000 0.018618 -0.025313 0.055000 0.016101 -0.026835 0.055000 0.013413 -0.028071 0.055000 0.010583 -0.029011 0.055000 0.007640 -0.029643 0.055000 0.004617 -0.030000 0.005000 0.140000 -0.029841 0.005000 0.143085 -0.029366 0.005000 0.146137 -0.028579 0.005000 0.149123 -0.027490 0.005000 0.152014 -0.026109 0.005000 0.154776 -0.024451 0.005000 0.157383 -0.022534 0.005000 0.159805 -0.020378 0.005000 0.162017 -0.018006 0.005000 0.163995 -0.015444 0.005000 0.165719 -0.012717 0.005000 0.167171 -0.009856 0.005000 0.168335 -0.006891 0.005000 0.169198 -0.003852 0.005000 0.169752 -0.000772 0.005000 0.169990 0.002315 0.005000 0.169911 0.005378 0.005000 0.169514 0.008385 0.005000 0.168804 0.011302 0.005000 0.167790 0.014099 0.005000 0.166480 0.016747 0.005000 0.164890 0.019218 0.005000 0.163036 0.021485 0.005000 0.160938 0.023524 0.005000 0.158618 0.025313 0.005000 0.156101 0.026835 0.005000 0.153413 0.028071 0.005000 0.150583 0.029011 0.005000 0.147640 0.029643 0.005000 0.144617 0.029960 0.005000 0.141544 0.029960 0.005000 0.138456 0.029643 0.005000 0.135383 0.029011 0.005000 0.132360 0.028071 0.005000 0.129417 0.026835 0.005000 0.126587 0.025313 0.005000 0.123899 0.023524 0.005000 0.121382 0.021485 0.005000 0.119062 0.019218 0.005000 0.116964 0.016747 0.005000 0.115110 0.014099 0.005000 0.113520 0.011302 0.005000 0.112210 0.008385 0.005000 0.111196 0.005378 0.005000 0.110486 0.002315 0.005000 0.110089 -0.000772 0.005000 0.110010 -0.003852 0.005000 0.110248 -0.006891 0.005000 0.110802 -0.009856 0.005000 0.111665 -0.012717 0.005000 0.112829 -0.015444 0.005000 0.114281 -0.018006 0.005000 0.116005 -0.020378 0.005000 0.117983 -0.022534 0.005000 0.120195 -0.024451 0.005000 0.122617 -0.026109 0.005000 0.125224 -0.027490 0.005000 0.127986 -0.028579 0.005000 0.130877 -0.029366 0.005000 0.133863 -0.029841 0.005000 0.136915 -0.030000 0.000000 0.140000 -0.029841 0.000000 0.136915 -0.029366 0.000000 0.133863 -0.028579 0.000000 0.130877 -0.027490 0.000000 0.127986 -0.026109 0.000000 0.125224 -0.024451 0.000000 0.122617 -0.022534 0.000000 0.120195 -0.020378 0.000000 0.117983 -0.018006 0.000000 0.116005 -0.015444 0.000000 0.114281 -0.012717 0.000000 0.112829 -0.009856 0.000000 0.111665 -0.006891 0.000000 0.110802 -0.003852 0.000000 0.110248 -0.000772 0.000000 0.110010 0.002315 0.000000 0.110089 0.005378 0.000000 0.110486 0.008385 0.000000 0.111196 0.011302 0.000000 0.112210 0.014099 0.000000 0.113520 0.016747 0.000000 0.115110 0.019218 0.000000 0.116964 0.021485 0.000000 0.119062 0.023524 0.000000 0.121382 0.025313 0.000000 0.123899 0.026835 0.000000 0.126587 0.028071 0.000000 0.129417 0.029011 0.000000 0.132360 0.029643 0.000000 0.135383 0.029960 0.000000 0.138456 0.029960 0.000000 0.141544 0.029643 0.000000 0.144617 0.029011 0.000000 0.147640 0.028071 0.000000 0.150583 0.026835 0.000000 0.153413 0.025313 0.000000 0.156101 0.023524 0.000000 0.158618 0.021485 0.000000 0.160938 0.019218 0.000000 0.163036 0.016747 0.000000 0.164890 0.014099 0.000000 0.166480 0.011302 0.000000 0.167790 0.008385 0.000000 0.168804 0.005378 0.000000 0.169514 0.002315 0.000000 0.169911 -0.000772 0.000000 0.169990 -0.003852 0.000000 0.169752 -0.006891 0.000000 0.169198 -0.009856 0.000000 0.168335 -0.012717 0.000000 0.167171 -0.015444 0.000000 0.165719 -0.018006 0.000000 0.163995 -0.020378 0.000000 0.162017 -0.022534 0.000000 0.159805 -0.024451 0.000000 0.157383 -0.026109 0.000000 0.154776 -0.027490 0.000000 0.152014 -0.028579 0.000000 0.149123 -0.029366 0.000000 0.146137 -0.029841 0.000000 0.143085 0.040000 0.000000 -0.000000 0.039839 0.000000 -0.003586 0.039357 0.000000 -0.007142 0.038559 0.000000 -0.010641 0.037449 0.000000 -0.014055 0.036039 0.000000 -0.017355 0.034338 0.000000 -0.020516 0.032361 0.000000 -0.023511 0.030123 0.000000 -0.026318 0.027643 0.000000 -0.028912 0.024940 0.000000 -0.031273 0.022036 0.000000 -0.033383 0.018955 0.000000 -0.035224 0.015721 0.000000 -0.036781 0.012361 0.000000 -0.038042 0.008901 0.000000 -0.038997 0.005369 0.000000 -0.039638 0.001795 0.000000 -0.039960 -0.001795 0.000000 -0.039960 -0.005369 0.000000 -0.039638 -0.008901 0.000000 -0.038997 -0.012361 0.000000 -0.038042 -0.015721 0.000000 -0.036781 -0.018955 0.000000 -0.035224 -0.022036 0.000000 -0.033383 -0.024940 0.000000 -0.031273 -0.027643 0.000000 -0.028912 -0.030123 0.000000 -0.026318 -0.032361 0.000000 -0.023511 -0.034338 0.000000 -0.020516 -0.036039 0.000000 -0.017355 -0.037449 0.000000 -0.014055 -0.038559 0.000000 -0.010641 -0.039357 0.000000 -0.007142 -0.039839 0.000000 -0.003586 -0.040000 0.000000 -0.000000 -0.040000 0.005000 -0.000000 -0.039839 0.005000 -0.003586 -0.039357 0.005000 -0.007142 -0.038559 0.005000 -0.010641 -0.037449 0.005000 -0.014055 -0.036039 0.005000 -0.017355 -0.034338 0.005000 -0.020516 -0.032361 0.005000 -0.023511 -0.030123 0.005000 -0.026318 -0.027643 0.005000 -0.028912 -0.024940 0.005000 -0.031273 -0.022036 0.005000 -0.033383 -0.018955 0.005000 -0.035224 -0.015721 0.005000 -0.036781 -0.012361 0.005000 -0.038042 -0.008901 0.005000 -0.038997 -0.005369 0.005000 -0.039638 -0.001795 0.005000 -0.039960 0.001795 0.005000 -0.039960 0.005369 0.005000 -0.039638 0.008901 0.005000 -0.038997 0.012361 0.005000 -0.038042 0.015721 0.005000 -0.036781 0.018955 0.005000 -0.035224 0.022036 0.005000 -0.033383 0.024940 0.005000 -0.031273 0.027643 0.005000 -0.028912 0.030123 0.005000 -0.026318 0.032361 0.005000 -0.023511 0.034338 0.005000 -0.020516 0.036039 0.005000 -0.017355 0.037449 0.005000 -0.014055 0.038559 0.005000 -0.010641 0.039357 0.005000 -0.007142 0.039839 0.005000 -0.003586 0.040000 0.005000 -0.000000 0.040000 0.000000 0.140000 0.040000 0.005000 0.140000 -0.040000 0.000000 0.140000 -0.039839 0.000000 0.143586 -0.039357 0.000000 0.147142 -0.038559 0.000000 0.150641 -0.037449 0.000000 0.154055 -0.036039 0.000000 0.157355 -0.034338 0.000000 0.160516 -0.032361 0.000000 0.163511 -0.030123 0.000000 0.166318 -0.027643 0.000000 0.168912 -0.024940 0.000000 0.171273 -0.022036 0.000000 0.173383 -0.018955 0.000000 0.175224 -0.015721 0.000000 0.176781 -0.012361 0.000000 0.178042 -0.008901 0.000000 0.178997 -0.005369 0.000000 0.179638 -0.001795 0.000000 0.179960 0.001795 0.000000 0.179960 0.005369 0.000000 0.179638 0.008901 0.000000 0.178997 0.012361 0.000000 0.178042 0.015721 0.000000 0.176781 0.018955 0.000000 0.175224 0.022036 0.000000 0.173383 0.024940 0.000000 0.171273 0.027643 0.000000 0.168912 0.030123 0.000000 0.166318 0.032361 0.000000 0.163511 0.034338 0.000000 0.160516 0.036039 0.000000 0.157355 0.037449 0.000000 0.154055 0.038559 0.000000 0.150641 0.039357 0.000000 0.147142 0.039839 0.000000 0.143586 0.039839 0.005000 0.143586 0.039357 0.005000 0.147142 0.038559 0.005000 0.150641 0.037449 0.005000 0.154055 0.036039 0.005000 0.157355 0.034338 0.005000 0.160516 0.032361 0.005000 0.163511 0.030123 0.005000 0.166318 0.027643 0.005000 0.168912 0.024940 0.005000 0.171273 0.022036 0.005000 0.173383 0.018955 0.005000 0.175224 0.015721 0.005000 0.176781 0.012361 0.005000 0.178042 0.008901 0.005000 0.178997 0.005369 0.005000 0.179638 0.001795 0.005000 0.179960 -0.001795 0.005000 0.179960 -0.005369 0.005000 0.179638 -0.008901 0.005000 0.178997 -0.012361 0.005000 0.178042 -0.015721 0.005000 0.176781 -0.018955 0.005000 0.175224 -0.022036 0.005000 0.173383 -0.024940 0.005000 0.171273 -0.027643 0.005000 0.168912 -0.030123 0.005000 0.166318 -0.032361 0.005000 0.163511 -0.034338 0.005000 0.160516 -0.036039 0.005000 0.157355 -0.037449 0.005000 0.154055 -0.038559 0.005000 0.150641 -0.039357 0.005000 0.147142 -0.039839 0.005000 0.143586 -0.040000 0.005000 0.140000</float_array>
          <technique_common>
            <accessor source="#mat_3rd_link-mesh-positions-array" count="449" stride="3">
              <param name="X" type="float"/>
              <param name="Y" type="float"/>
              <param name="Z" type="float"/>
            </accessor>
          </technique_common>
        </source>
        <source id="mat_3rd_link-mesh-normals">
          <float_array id="mat_3rd_link-mesh-normals-array" count="2511">-0.994700 0.000000 -0.102821 -0.998674 0.000000 -0.051479 -1.000000 -0.000000 0.000000 -0.998674 -0.000000 0.051479 -0.994700 -0.000000 0.102821 -0.988088 -0.000000 0.153891 -0.978856 -0.000000 0.204552 -0.967028 -0.000000 0.254671 -0.952635 -0.000000 0.304115 -0.935717 -0.000000 0.352752 -0.916317 -0.000000 0.400454 -0.894487 -0.000000 0.447094 -0.870285 -0.000000 0.492548 -0.843776 -0.000000 0.536696 -0.815028 -0.000000 0.579421 -0.784120 -0.000000 0.620609 -0.751132 -0.000000 0.660152 -0.716152 -0.000000 0.697944 -0.679273 -0.000000 0.733885 -0.640593 -0.000000 0.767880 -0.600214 -0.000000 0.799839 -0.558244 -0.000000 0.829677 -0.514793 -0.000000 0.857315 -0.469977 -0.000000 0.882679 -0.423914 -0.000000 0.905702 -0.376728 -0.000000 0.926324 -0.328542 -0.000000 0.944489 -0.279486 -0.000000 0.960150 -0.229688 -0.000000 0.973264 -0.179281 -0.000000 0.983798 -0.128398 -0.000000 0.991723 -0.077175 -0.000000 0.997018 -0.025748 -0.000000 0.999668 0.025748 -0.000000 0.999668 0.077175 -0.000000 0.997018 0.128398 -0.000000 0.991723 0.179281 -0.000000 0.983798 0.229688 -0.000000 0.973264 0.279486 -0.000000 0.960150 0.328542 -0.000000 0.944489 0.376728 -0.000000 0.926324 0.423914 -0.000000 0.905702 0.469977 -0.000000 0.882679 0.514793 -0.000000 0.857315 0.558244 -0.000000 0.829677 0.600214 -0.000000 0.799839 0.640593 -0.000000 0.767880 0.679273 -0.000000 0.733885 0.716152 -0.000000 0.697944 0.751132 -0.000000 0.660152 0.784120 -0.000000 0.620609 0.815028 -0.000000 0.579421 0.843776 -0.000000 0.536696 0.870285 -0.000000 0.492548 0.894487 -0.000000 0.447094 0.916317 -0.000000 0.400454 0.935717 -0.000000 0.352752 0.952635 -0.000000 0.304115 0.967028 -0.000000 0.254671 0.978856 -0.000000 0.204552 0.988088 -0.000000 0.153891 0.994700 -0.000000 0.102821 0.998674 -0.000000 0.051479 1.000000 -0.000000 0.000000 0.998674 -0.000000 -0.051479 0.994700 -0.000000 -0.102821 0.988088 -0.000000 -0.153891 0.978856 -0.000000 -0.204552 0.967028 -0.000000 -0.254671 0.952635 -0.000000 -0.304115 0.935717 -0.000000 -0.352752 0.916317 -0.000000 -0.400454 0.894487 -0.000000 -0.447094 0.870285 -0.000000 -0.492548 0.843776 -0.000000 -0.536696 0.815028 -0.000000 -0.579421 0.784120 -0.000000 -0.620609 0.751132 -0.000000 -0.660152 0.716152 -0.000000 -0.697944 0.679273 -0.000000 -0.733885 0.640593 -0.000000 -0.767880 0.600214 -0.000000 -0.799839 0.558244 -0.000000 -0.829677 0.514793 -0.000000 -0.857315 0.469977 -0.000000 -0.882679 0.423914 -0.000000 -0.905702 0.376728 -0.000000 -0.926324 0.328542 -0.000000 -0.944489 0.279486 -0.000000 -0.960150 0.229688 -0.000000 -0.973264 0.179281 -0.000000 -0.983798 0.128398 -0.000000 -0.991723 0.077175 -0.000000 -0.997018 0.025748 -0.000000 -0.999668 -0.025748 0.000000 -0.999668 -0.077175 0.000000 -0.997018 -0.128398 0.000000 -0.991723 -0.179281 0.000000 -0.983798 -0.229688 0.000000 -0.973264 -0.279486 0.000000 -0.960150 -0.328542 0.000000 -0.944489 -0.376728 0.000000 -0.926324 -0.423914 0.000000 -0.905702 -0.469977 0.000000 -0.882679 -0.514793 0.000000 -0.857315 -0.558244 0.000000 -0.829677 -0.600214 0.000000 -0.799839 -0.640593 0.000000 -0.767880 -0.679273 0.000000 -0.733885 -0.716152 0.000000 -0.697944 -0.751132 0.000000 -0.660152 -0.784120 0.000000 -0.620609 -0.815028 0.000000 -0.579421 -0.843776 0.000000 -0.536696 -0.870285 0.000000 -0.492548 -0.894487 0.000000 -0.447094 -0.916317 0.000000 -0.400454 -0.935717 0.000000 -0.352752 -0.952635 0.000000 -0.304115 -0.967028 0.000000 -0.254671 -0.978856 0.000000 -0.204552 -0.988088 0.000000 -0.153891 -0.994700 -0.000000 0.102821 -1.000000 -0.000000 0.000000 -0.994700 0.000000 -0.102821 -0.978856 0.000000 -0.204552 -0.952635 0.000000 -0.304115 -0.916317 0.000000 -0.400454 -0.870285 0.000000 -0.492548 -0.815028 0.000000 -0.579421 -0.751132 0.000000 -0.660152 -0.679273 0.000000 -0.733885 -0.600214 0.000000 -0.799839 -0.514793 0.000000 -0.857315 -0.423914 0.000000 -0.905702 -0.328542 0.000000 -0.944489 -0.229688 0.000000 -0.973264 -0.128398 0.000000 -0.991723 -0.025748 0.000000 -0.999668 0.077175 -0.000000 -0.997018 0.179281 -0.000000 -0.983798 0.279486 -0.000000 -0.960150 0.376728 -0.000000 -0.926324 0.469977 -0.000000 -0.882679 0.558244 -0.000000 -0.829677 0.640593 -0.000000 -0.767880 0.716152 -0.000000 -0.697944 0.784120 -0.000000 -0.620609 0.843776 -0.000000 -0.536696 0.894487 -0.000000 -0.447094 0.935717 -0.000000 -0.352752 0.967028 -0.000000 -0.254671 0.988088 -0.000000 -0.153891 0.998674 -0.000000 -0.051479 0.998674 -0.000000 0.051479 0.988088 -0.000000 0.153891 0.967028 -0.000000 0.254671 0.935717 -0.000000 0.352752 0.894487 -0.000000 0.447094 0.843776 -0.000000 0.536696 0.784120 -0.000000 0.620609 0.716152 -0.000000 0.697944 0.640593 -0.000000 0.767880 0.558244 -0.000000 0.829677 0.469977 -0.000000 0.882679 0.376728 -0.000000 0.926324 0.279486 -0.000000 0.960150 0.179281 -0.000000 0.983798 0.077175 -0.000000 0.997018 -0.025748 -0.000000 0.999668 -0.128398 -0.000000 0.991723 -0.229688 -0.000000 0.973264 -0.328542 -0.000000 0.944489 -0.423914 -0.000000 0.905702 -0.514793 -0.000000 0.857315 -0.600214 -0.000000 0.799839 -0.679273 -0.000000 0.733885 -0.751132 -0.000000 0.660152 -0.815028 -0.000000 0.579421 -0.870285 -0.000000 0.492548 -0.916317 -0.000000 0.400454 -0.952635 -0.000000 0.304115 -0.978856 -0.000000 0.204552 0.000000 1.000000 0.000000 0.000000 1.000000 0.000000 0.000000 1.000000 0.000000 0.000000 1.000000 0.000000 0.000000 1.000000 0.000000 0.000000 1.000000 0.000000 0.000000 1.000000 0.000000 0.000000 1.000000 0.000000 0.000000 1.000000 0.000000 0.000000 1.000000 0.000000 0.000000 1.000000 0.000000 0.000000 1.000000 0.000000 0.000000 1.000000 0.000000 0.000000 1.000000 0.000000 0.000000 1.000000 0.000000 0.000000 1.000000 0.000000 0.000000 1.000000 0.000000 0.000000 1.000000 0.000000 0.000000 1.000000 0.000000 0.000000 1.000000 0.000000 0.000000 1.000000 0.000000 0.000000 1.000000 0.000000 0.000000 1.000000 0.000000 0.000000 1.000000 0.000000 0.000000 1.000000 0.000000 0.000000 1.000000 0.000000 0.000000 1.000000 0.000000 0.000000 1.000000 0.000000 0.000000 1.000000 0.000000 0.000000 1.000000 0.000000 0.000000 1.000000 0.000000 0.000000 1.000000 0.000000 0.000000 1.000000 0.000000 0.000000 1.000000 0.000000 0.000000 1.000000 0.000000 0.000000 1.000000 0.000000 0.000000 1.000000 0.000000 0.000000 1.000000 0.000000 0.000000 1.000000 0.000000 0.000000 1.000000 0.000000 0.000000 1.000000 0.000000 0.000000 1.000000 0.000000 0.000000 1.000000 0.000000 0.000000 1.000000 0.000000 0.000000 1.000000 0.000000 0.000000 1.000000 0.000000 0.000000 1.000000 0.000000 0.000000 1.000000 0.000000 0.000000 1.000000 0.000000 0.000000 1.000000 0.000000 0.000000 1.000000 0.000000 0.000000 1.000000 0.000000 0.000000 1.000000 0.000000 0.000000 1.000000 0.000000 0.000000 1.000000 0.000000 0.000000 1.000000 0.000000 0.000000 1.000000 0.000000 0.000000 1.000000 0.000000 0.000000 1.000000 0.000000 0.000000 1.000000 0.000000 0.000000 1.000000 0.000000 0.994700 0.000000 -0.102821 0.994700 0.000000 -0.102821 1.000000 0.000000 -0.000000 1.000000 0.000000 -0.000000 0.994700 -0.000000 0.102821 0.994700 -0.000000 0.102821 0.978856 -0.000000 0.204552 0.978856 -0.000000 0.204552 0.952635 -0.000000 0.304115 0.952635 -0.000000 0.304115 0.916317 -0.000000 0.400454 0.916317 -0.000000 0.400454 0.870285 -0.000000 0.492548 0.870285 -0.000000 0.492548 0.815028 -0.000000 0.579421 0.815028 -0.000000 0.579421 0.751132 -0.000000 0.660152 0.751132 -0.000000 0.660152 0.679273 -0.000000 0.733885 0.679273 -0.000000 0.733885 0.600214 -0.000000 0.799839 0.600214 -0.000000 0.799839 0.514793 -0.000000 0.857315 0.514793 -0.000000 0.857315 0.423914 -0.000000 0.905702 0.423914 -0.000000 0.905702 0.328542 -0.000000 0.944489 0.328542 -0.000000 0.944489 0.229688 -0.000000 0.973264 0.229688 -0.000000 0.973264 0.128398 -0.000000 0.991723 0.128398 -0.000000 0.991723 0.025748 -0.000000 0.999668 0.025748 -0.000000 0.999668 -0.077175 0.000000 0.997018 -0.077175 0.000000 0.997018 -0.179281 0.000000 0.983798 -0.179281 0.000000 0.983798 -0.279486 0.000000 0.960150 -0.279486 0.000000 0.960150 -0.376728 0.000000 0.926324 -0.376728 0.000000 0.926324 -0.469977 0.000000 0.882679 -0.469977 0.000000 0.882679 -0.558244 0.000000 0.829677 -0.558244 0.000000 0.829677 -0.640593 0.000000 0.767880 -0.640593 0.000000 0.767880 -0.716152 0.000000 0.697944 -0.716152 0.000000 0.697944 -0.784120 0.000000 0.620609 -0.784120 0.000000 0.620609 -0.843776 0.000000 0.536696 -0.843776 0.000000 0.536696 -0.894487 0.000000 0.447094 -0.894487 0.000000 0.447094 -0.935717 0.000000 0.352752 -0.935717 0.000000 0.352752 -0.967028 0.000000 0.254671 -0.967028 0.000000 0.254671 -0.988088 0.000000 0.153891 -0.988088 0.000000 0.153891 -0.998674 0.000000 0.051479 -0.998674 0.000000 0.051479 -0.998674 0.000000 -0.051479 -0.998674 0.000000 -0.051479 -0.988088 0.000000 -0.153891 -0.988088 0.000000 -0.153891 -0.967028 0.000000 -0.254671 -0.967028 0.000000 -0.254671 -0.935717 0.000000 -0.352752 -0.935717 0.000000 -0.352752 -0.894487 0.000000 -0.447094 -0.894487 0.000000 -0.447094 -0.843776 0.000000 -0.536696 -0.843776 0.000000 -0.536696 -0.784120 0.000000 -0.620609 -0.784120 0.000000 -0.620609 -0.716152 0.000000 -0.697944 -0.716152 0.000000 -0.697944 -0.640593 0.000000 -0.767880 -0.640593 0.000000 -0.767880 -0.558244 0.000000 -0.829677 -0.558244 0.000000 -0.829677 -0.469977 0.000000 -0.882679 -0.469977 0.000000 -0.882679 -0.376728 0.000000 -0.926324 -0.376728 0.000000 -0.926324 -0.279486 0.000000 -0.960150 -0.279486 0.000000 -0.960150 -0.179281 0.000000 -0.983798 -0.179281 0.000000 -0.983798 -0.077175 0.000000 -0.997018 -0.077175 0.000000 -0.997018 0.025748 0.000000 -0.999668 0.025748 0.000000 -0.999668 0.128398 0.000000 -0.991723 0.128398 0.000000 -0.991723 0.229688 0.000000 -0.973264 0.229688 0.000000 -0.973264 0.328542 0.000000 -0.944489 0.328542 0.000000 -0.944489 0.423914 0.000000 -0.905702 0.423914 0.000000 -0.905702 0.514793 0.000000 -0.857315 0.514793 0.000000 -0.857315 0.600214 0.000000 -0.799839 0.600214 0.000000 -0.799839 0.679273 0.000000 -0.733885 0.679273 0.000000 -0.733885 0.751132 0.000000 -0.660152 0.751132 0.000000 -0.660152 0.815028 0.000000 -0.579421 0.815028 0.000000 -0.579421 0.870285 0.000000 -0.492548 0.870285 0.000000 -0.492548 0.916317 0.000000 -0.400454 0.916317 0.000000 -0.400454 0.952635 0.000000 -0.304115 0.952635 0.000000 -0.304115 0.978856 0.000000 -0.204552 0.978856 0.000000 -0.204552 1.000000 -0.000000 -0.000000 1.000000 -0.000000 -0.000000 0.995974 -0.000000 -0.089639 0.995974 -0.000000 -0.089639 0.983930 -0.000000 -0.178557 0.983930 -0.000000 -0.178557 0.963963 -0.000000 -0.266037 0.963963 -0.000000 -0.266037 0.936235 -0.000000 -0.351375 0.936235 -0.000000 -0.351375 0.900969 -0.000000 -0.433884 0.900969 -0.000000 -0.433884 0.858449 -0.000000 -0.512899 0.858449 -0.000000 -0.512899 0.809017 -0.000000 -0.587785 0.809017 -0.000000 -0.587785 0.753071 -0.000000 -0.657939 0.753071 -0.000000 -0.657939 0.691063 -0.000000 -0.722795 0.691063 -0.000000 -0.722795 0.623490 -0.000000 -0.781831 0.623490 -0.000000 -0.781831 0.550897 -0.000000 -0.834573 0.550897 -0.000000 -0.834573 0.473869 -0.000000 -0.880596 0.473869 -0.000000 -0.880596 0.393025 -0.000000 -0.919528 0.393025 -0.000000 -0.919528 0.309017 -0.000000 -0.951057 0.309017 -0.000000 -0.951057 0.222521 -0.000000 -0.974928 0.222521 -0.000000 -0.974928 0.134233 -0.000000 -0.990950 0.134233 -0.000000 -0.990950 0.044865 -0.000000 -0.998993 0.044865 -0.000000 -0.998993 -0.044865 0.000000 -0.998993 -0.044865 0.000000 -0.998993 -0.134233 0.000000 -0.990950 -0.134233 0.000000 -0.990950 -0.222521 0.000000 -0.974928 -0.222521 0.000000 -0.974928 -0.309017 0.000000 -0.951057 -0.309017 0.000000 -0.951057 -0.393025 0.000000 -0.919528 -0.393025 0.000000 -0.919528 -0.473869 0.000000 -0.880596 -0.473869 0.000000 -0.880596 -0.550897 0.000000 -0.834573 -0.550897 0.000000 -0.834573 -0.623490 0.000000 -0.781831 -0.623490 0.000000 -0.781831 -0.691063 0.000000 -0.722795 -0.691063 0.000000 -0.722795 -0.753071 0.000000 -0.657939 -0.753071 0.000000 -0.657939 -0.809017 0.000000 -0.587785 -0.809017 0.000000 -0.587785 -0.858449 0.000000 -0.512899 -0.858449 0.000000 -0.512899 -0.900969 0.000000 -0.433884 -0.900969 0.000000 -0.433884 -0.936235 0.000000 -0.351375 -0.936235 0.000000 -0.351375 -0.963963 0.000000 -0.266037 -0.963963 0.000000 -0.266037 -0.983930 0.000000 -0.178557 -0.983930 0.000000 -0.178557 -0.995974 0.000000 -0.089639 -0.995974 0.000000 -0.089639 -1.000000 0.000000 -0.000000 -1.000000 0.000000 -0.000000 1.000000 0.000000 -0.000000 1.000000 0.000000 -0.000000 -1.000000 -0.000000 0.000000 -1.000000 -0.000000 0.000000 -0.995974 -0.000000 0.089639 -0.995974 -0.000000 0.089639 -0.983930 -0.000000 0.178557 -0.983930 -0.000000 0.178557 -0.963963 -0.000000 0.266037 -0.963963 -0.000000 0.266037 -0.936235 -0.000000 0.351375 -0.936235 -0.000000 0.351375 -0.900969 -0.000000 0.433884 -0.900969 -0.000000 0.433884 -0.858449 -0.000000 0.512899 -0.858449 -0.000000 0.512899 -0.809017 -0.000000 0.587785 -0.809017 -0.000000 0.587785 -0.753071 -0.000000 0.657939 -0.753071 -0.000000 0.657939 -0.691063 -0.000000 0.722795 -0.691063 -0.000000 0.722795 -0.623490 -0.000000 0.781831 -0.623490 -0.000000 0.781831 -0.550897 -0.000000 0.834573 -0.550897 -0.000000 0.834573 -0.473869 -0.000000 0.880596 -0.473869 -0.000000 0.880596 -0.393025 -0.000000 0.919528 -0.393025 -0.000000 0.919528 -0.309017 -0.000000 0.951057 -0.309017 -0.000000 0.951057 -0.222521 -0.000000 0.974928 -0.222521 -0.000000 0.974928 -0.134233 -0.000000 0.990950 -0.134233 -0.000000 0.990950 -0.044865 -0.000000 0.998993 -0.044865 -0.000000 0.998993 0.044865 -0.000000 0.998993 0.044865 -0.000000 0.998993 0.134233 -0.000000 0.990950 0.134233 -0.000000 0.990950 0.222521 -0.000000 0.974928 0.222521 -0.000000 0.974928 0.309017 -0.000000 0.951057 0.309017 -0.000000 0.951057 0.393025 -0.000000 0.919528 0.393025 -0.000000 0.919528 0.473869 -0.000000 0.880596 0.473869 -0.000000 0.880596 0.550897 -0.000000 0.834573 0.550897 -0.000000 0.834573 0.623490 -0.000000 0.781831 0.623490 -0.000000 0.781831 0.691063 -0.000000 0.722795 0.691063 -0.000000 0.722795 0.753071 -0.000000 0.657939 0.753071 -0.000000 0.657939 0.809017 -0.000000 0.587785 0.809017 -0.000000 0.587785 0.858449 -0.000000 0.512899 0.858449 -0.000000 0.512899 0.900969 -0.000000 0.433884 0.900969 -0.000000 0.433884 0.936235 -0.000000 0.351375 0.936235 -0.000000 0.351375 0.963963 -0.000000 0.266037 0.963963 -0.000000 0.266037 0.983930 -0.000000 0.178557 0.983930 -0.000000 0.178557 0.995974 -0.000000 0.089639 0.995974 -0.000000 0.089639 0.000000 1.000000 0.000000 0.000000 1.000000 0.000000 0.000000 1.000000 0.000000 0.000000 1.000000 0.000000 0.000000 1.000000 0.000000 0.000000 1.000000 0.000000 0.000000 1.000000 0.000000 0.000000 1.000000 0.000000 0.000000 1.000000 0.000000 0.000000 1.000000 0.000000 0.000000 1.000000 0.000000 0.000000 1.000000 0.000000 0.000000 1.000000 0.000000 0.000000 1.000000 0.000000 0.000000 1.000000 0.000000 0.000000 1.000000 0.000000 0.000000 1.000000 0.000000 0.000000 1.000000 0.000000 0.000000 1.000000 0.000000 0.000000 1.000000 0.000000 0.000000 1.000000 0.000000 0.000000 1.000000 0.000000 0.000000 1.000000 0.000000 0.000000 1.000000 0.000000 0.000000 1.000000 0.000000 0.000000 1.000000 0.000000 0.000000 1.000000 0.000000 0.000000 1.000000 0.000000 0.000000 1.000000 0.000000 0.000000 1.000000 0.000000 0.000000 1.000000 0.000000 0.000000 1.000000 0.000000 0.000000 1.000000 0.000000 0.000000 1.000000 0.000000 0.000000 1.000000 0.000000 0.000000 1.000000 0.000000 0.000000 1.000000 0.000000 0.000000 1.000000 0.000000 0.000000 1.000000 0.000000 0.000000 1.000000 0.000000 0.000000 1.000000 0.000000 0.000000 1.000000 0.000000 0.000000 1.000000 0.000000 0.000000 1.000000 0.000000 0.000000 1.000000 0.000000 0.000000 1.000000 0.000000 0.000000 1.000000 0.000000 0.000000 1.000000 0.000000 0.000000 1.000000 0.000000 0.000000 1.000000 0.000000 0.000000 1.000000 0.000000 0.000000 1.000000 0.000000 0.000000 1.000000 0.000000 0.000000 1.000000 0.000000 0.000000 1.000000 0.000000 0.000000 1.000000 0.000000 0.000000 1.000000 0.000000 0.000000 1.000000 0.000000 0.000000 1.000000 0.000000 0.000000 1.000000 0.000000 0.000000 1.000000 0.000000 0.000000 1.000000 0.000000 0.000000 1.000000 0.000000 0.000000 1.000000 0.000000 0.000000 1.000000 0.000000 0.000000 1.000000 0.000000 0.000000 1.000000 0.000000 0.000000 1.000000 0.000000 0.000000 1.000000 0.000000 0.000000 1.000000 0.000000 0.000000 1.000000 0.000000 0.000000 1.000000 0.000000 0.000000 1.000000 0.000000 0.000000 1.000000 0.000000 0.000000 1.000000 0.000000 0.000000 1.000000 0.000000 0.000000 1.000000 0.000000 0.000000 1.000000 0.000000 0.000000 1.000000 0.000000 0.000000 1.000000 0.000000 0.000000 1.000000 0.000000 0.000000 1.000000 0.000000 0.000000 1.000000 0.000000 0.000000 1.000000 0.000000 0.000000 1.000000 0.000000 0.000000 1.000000 0.000000 0.000000 1.000000 0.000000 0.000000 1.000000 0.000000 0.000000 1.000000 0.000000 0.000000 1.000000 0.000000 0.000000 1.000000 0.000000 0.000000 1.000000 0.000000 0.000000 1.000000 0.000000 0.000000 1.000000 0.000000 0.000000 1.000000 0.000000 0.000000 1.000000 0.000000 0.000000 1.000000 0.000000 0.000000 1.000000 0.000000 0.000000 1.000000 0.000000 0.000000 1.000000 0.000000 0.000000 1.000000 0.000000 0.000000 1.000000 0.000000 0.000000 1.000000 0.000000 0.000000 1.000000 0.000000 0.000000 1.000000 0.000000 0.000000 1.000000 0.000000 0.000000 1.000000 0.000000 0.000000 1.000000 0.000000 0.000000 1.000000 0.000000 0.000000 1.000000 0.000000 0.000000 1.000000 0.000000 0.000000 1.000000 0.000000 0.000000 1.000000 0.000000 0.000000 1.000000 0.000000 0.000000 1.000000 0.000000 0.000000 1.000000 0.000000 0.000000 1.000000 0.000000 0.000000 1.000000 0.000000 0.000000 1.000000 0.000000 0.000000 1.000000 0.000000 0.000000 1.000000 0.000000 0.000000 1.000000 0.000000 0.000000 1.000000 0.000000 0.000000 1.000000 0.000000 0.000000 1.000000 0.000000 0.000000 1.000000 0.000000 0.000000 1.000000 0.000000 0.000000 1.000000 0.000000 0.000000 1.000000 0.000000 0.000000 1.000000 0.000000 0.000000 1.000000 0.000000 0.000000 1.000000 0.000000 0.000000 1.000000 0.000000 0.000000 1.000000 0.000000 0.000000 1.000000 0.000000 0.000000 1.000000 0.000000 0.000000 1.000000 0.000000 0.000000 1.000000 0.000000 0.000000 1.000000 0.000000 0.000000 1.000000 0.000000 0.000000 1.000000 0.000000 0.000000 1.000000 0.000000 0.000000 1.000000 0.000000 0.000000 1.000000 0.000000 0.000000 1.000000 0.000000 0.000000 1.000000 0.000000 0.000000 1.000000 0.000000 0.000000 1.000000 0.000000 0.000000 1.000000 0.000000 0.000000 1.000000 0.000000 0.000000 1.000000 0.000000 0.000000 1.000000 0.000000 0.000000 1.000000 0.000000 0.000000 1.000000 0.000000 0.000000 1.000000 0.000000 0.000000 1.000000 0.000000 0.000000 1.000000 0.000000 0.000000 1.000000 0.000000 0.000000 1.000000 0.000000 0.000000 1.000000 0.000000 0.000000 1.000000 0.000000 0.000000 1.000000 0.000000 0.000000 1.000000 0.000000 0.000000 1.000000 0.000000 0.000000 1.000000 0.000000 0.000000 1.000000 0.000000 0.000000 1.000000 0.000000 0.000000 1.000000 0.000000 0.000000 1.000000 0.000000 0.000000 1.000000 0.000000 0.000000 1.000000 0.000000 0.000000 1.000000 0.000000 0.000000 1.000000 0.000000 0.000000 1.000000 0.000000 0.000000 1.000000 0.000000 0.000000 1.000000 0.000000 0.000000 1.000000 0.000000 0.000000 1.000000 0.000000 0.000000 1.000000 0.000000 0.000000 1.000000 0.000000 0.000000 1.000000 0.000000 0.000000 1.000000 0.000000 0.000000 1.000000 0.000000 0.000000 1.000000 0.000000 0.000000 1.000000 0.000000 0.000000 1.000000 0.000000 0.000000 1.000000 0.000000 0.000000 1.000000 0.000000 0.000000 1.000000 0.000000 0.000000 1.000000 0.000000 0.000000 1.000000 0.000000 0.000000 1.000000 0.000000 0.000000 1.000000 0.000000 0.000000 1.000000 0.000000 -0.000000 -1.000000 -0.000000 -0.000000 -1.000000 -0.000000 -0.000000 -1.000000 -0.000000 -0.000000 -1.000000 -0.000000 -0.000000 -1.000000 -0.000000 -0.000000 -1.000000 -0.000000 -0.000000 -1.000000 -0.000000 -0.000000 -1.000000 -0.000000 -0.000000 -1.000000 -0.000000 -0.000000 -1.000000 -0.000000 -0.000000 -1.000000 -0.000000 -0.000000 -1.000000 -0.000000 -0.000000 -1.000000 -0.000000 -0.000000 -1.000000 -0.000000 -0.000000 -1.000000 -0.000000 -0.000000 -1.000000 -0.000000 -0.000000 -1.000000 -0.000000 -0.000000 -1.000000 -0.000000 -0.000000 -1.000000 -0.000000 -0.000000 -1.000000 -0.000000 -0.000000 -1.000000 -0.000000 -0.000000 -1.000000 -0.000000 -0.000000 -1.000000 -0.000000 -0.000000 -1.000000 -0.000000 -0.000000 -1.000000 -0.000000 -0.000000 -1.000000 -0.000000 -0.000000 -1.000000 -0.000000 -0.000000 -1.000000 -0.000000 -0.000000 -1.000000 -0.000000 -0.000000 -1.000000 -0.000000 -0.000000 -1.000000 -0.000000 -0.000000 -1.000000 -0.000000 -0.000000 -1.000000 -0.000000 -0.000000 -1.000000 -0.000000 -0.000000 -1.000000 -0.000000 -0.000000 -1.000000 -0.000000 -0.000000 -1.000000 -0.000000 -0.000000 -1.000000 -0.000000 -0.000000 -1.000000 -0.000000 -0.000000 -1.000000 -0.000000 -0.000000 -1.000000 -0.000000 -0.000000 -1.000000 -0.000000 -0.000000 -1.000000 -0.000000 -0.000000 -1.000000 -0.000000 -0.000000 -1.000000 -0.000000 -0.000000 -1.000000 -0.000000 -0.000000 -1.000000 -0.000000 -0.000000 -1.000000 -0.000000 -0.000000 -1.000000 -0.000000 -0.000000 -1.000000 -0.000000 -0.000000 -1.000000 -0.000000 -0.000000 -1.000000 -0.000000 -0.000000 -1.000000 -0.000000 -0.000000 -1.000000 -0.000000 -0.000000 -1.000000 -0.000000 -0.000000 -1.000000 -0.000000 -0.000000 -1.000000 -0.000000 -0.000000 -1.000000 -0.000000 -0.000000 -1.000000 -0.000000 -0.000000 -1.000000 -0.000000 -0.000000 -1.000000 -0.000000 -0.000000 -1.000000 -0.000000 -0.000000 -1.000000 -0.000000 -0.000000 -1.000000 -0.000000 -0.000000 -1.000000 -0.000000 -0.000000 -1.000000 -0.000000 -0.000000 -1.000000 -0.000000 -0.000000 -1.000000 -0.000000 -0.000000 -1.000000 -0.000000 -0.000000 -1.000000 -0.000000 -0.000000 -1.000000 -0.000000 -0.000000 -1.000000 -0.000000 -0.000000 -1.000000 -0.000000 -0.000000 -1.000000 -0.000000 -0.000000 -1.000000 -0.000000 -0.000000 -1.000000 -0.000000 -0.000000 -1.000000 -0.000000 -0.000000 -1.000000 -0.000000 -0.000000 -1.000000 -0.000000 -0.000000 -1.000000 -0.000000 -0.000000 -1.000000 -0.000000 -0.000000 -1.000000 -0.000000 -0.000000 -1.000000 -0.000000 -0.000000 -1.000000 -0.000000 -0.000000 -1.000000 -0.000000 -0.000000 -1.000000 -0.000000 -0.000000 -1.000000 -0.000000 -0.000000 -1.000000 -0.000000 -0.000000 -1.000000 -0.000000 -0.000000 -1.000000 -0.000000 -0.000000 -1.000000 -0.000000 -0.000000 -1.000000 -0.000000 -0.000000 -1.000000 -0.000000 -0.000000 -1.000000 -0.000000 -0.000000 -1.000000 -0.000000 -0.000000 -1.000000 -0.000000 -0.000000 -1.000000 -0.000000 -0.000000 -1.000000 -0.000000 -0.000000 -1.000000 -0.000000 -0.000000 -1.000000 -0.000000 -0.000000 -1.000000 -0.000000 -0.000000 -1.000000 -0.000000 -0.000000 -1.000000 -0.000000 -0.000000 -1.000000 -0.000000 -0.000000 -1.000000 -0.000000 -0.000000 -1.000000 -0.000000 -0.000000 -1.000000 -0.000000 -0.000000 -1.000000 -0.000000 -0.000000 -1.000000 -0.000000 -0.000000 -1.000000 -0.000000 -0.000000 -1.000000 -0.000000 -0.000000 -1.000000 -0.000000 -0.000000 -1.000000 -0.000000 -0.000000 -1.000000 -0.000000 -0.000000 -1.000000 -0.000000 -0.000000 -1.000000 -0.000000 -0.000000 -1.000000 -0.000000 -0.000000 -1.000000 -0.000000 -0.000000 -1.000000 -0.000000 -0.000000 -1.000000 -0.000000 -0.000000 -1.000000 -0.000000 -0.000000 -1.000000 -0.000000 -0.000000 -1.000000 -0.000000 -0.000000 -1.000000 -0.000000 -0.000000 -1.000000 -0.000000 -0.000000 -1.000000 -0.000000 -0.000000 -1.000000 -0.000000 -0.000000 -1.000000 -0.000000 -0.000000 -1.000000 -0.000000 -0.000000 -1.000000 -0.000000 -0.000000 -1.000000 -0.000000 -0.000000 -1.000000 -0.000000 -0.000000 -1.000000 -0.000000</float_array>
          <technique_common>
            <accessor source="#mat_3rd_link-mesh-normals-array" count="837" stride="3">
              <param name="X" type="float"/>
              <param name="Y" type="float"/>
              <param name="Z" type="float"/>
            </accessor>
          </technique_common>
        </source>
        <vertices id="mat_3rd_link-mesh-vertices">
          <input semantic="POSITION" source="#mat_3rd_link-mesh-positions"/>
        </vertices>
        <triangles material="Default" count="898">
          <input semantic="VERTEX" source="#mat_3rd_link-mesh-vertices" offset="0"/>
          <input semantic="NORMAL" source="#mat_3rd_link-mesh-normals" offset="1"/>
          <p>1 0 123 1 0 2 0 2 123 1 122 3 0 2 122 3 60 4 60 4 122 3 182 5 60 4 182 5 59 6 59 6 182 5 181 7 59 6 181 7 58 8 58 8 181 7 180 9 58 8 180 9 57 10 57 10 180 9 179 11 57 10 179 11 56 12 56 12 179 11 178 13 56 12 178 13 55 14 55 14 178 13 177 15 55 14 177 15 54 16 54 16 177 15 176 17 54 16 176 17 53 18 53 18 176 17 175 19 53 18 175 19 52 20 52 20 175 19 174 21 52 20 174 21 51 22 51 22 174 21 173 23 51 22 173 23 50 24 50 24 173 23 172 25 50 24 172 25 49 26 49 26 172 25 171 27 49 26 171 27 48 28 48 28 171 27 170 29 48 28 170 29 47 30 47 30 170 29 169 31 47 30 169 31 46 32 46 32 169 31 168 33 46 32 168 33 45 34 45 34 168 33 167 35 45 34 167 35 44 36 44 36 167 35 166 37 44 36 166 37 43 38 43 38 166 37 165 39 43 38 165 39 42 40 42 40 165 39 164 41 42 40 164 41 41 42 41 42 164 41 163 43 41 42 163 43 40 44 40 44 163 43 162 45 40 44 162 45 39 46 39 46 162 45 161 47 39 46 161 47 38 48 38 48 161 47 160 49 38 48 160 49 37 50 37 50 160 49 159 51 37 50 159 51 36 52 36 52 159 51 158 53 36 52 158 53 35 54 35 54 158 53 157 55 35 54 157 55 34 56 34 56 157 55 156 57 34 56 156 57 33 58 33 58 156 57 155 59 33 58 155 59 32 60 32 60 155 59 154 61 32 60 154 61 31 62 31 62 154 61 153 63 31 62 153 63 30 64 30 64 153 63 152 65 30 64 152 65 29 66 29 66 152 65 151 67 29 66 151 67 28 68 28 68 151 67 150 69 28 68 150 69 27 70 27 70 150 69 149 71 27 70 149 71 26 72 26 72 149 71 148 73 26 72 148 73 25 74 25 74 148 73 147 75 25 74 147 75 24 76 24 76 147 75 146 77 24 76 146 77 23 78 23 78 146 77 145 79 23 78 145 79 22 80 22 80 145 79 144 81 22 80 144 81 21 82 21 82 144 81 143 83 21 82 143 83 20 84 20 84 143 83 142 85 20 84 142 85 19 86 19 86 142 85 141 87 19 86 141 87 18 88 18 88 141 87 140 89 18 88 140 89 17 90 17 90 140 89 139 91 17 90 139 91 16 92 16 92 139 91 138 93 16 92 138 93 15 94 15 94 138 93 137 95 15 94 137 95 14 96 14 96 137 95 136 97 14 96 136 97 13 98 13 98 136 97 135 99 13 98 135 99 12 100 12 100 135 99 134 101 12 100 134 101 11 102 11 102 134 101 133 103 11 102 133 103 10 104 10 104 133 103 132 105 10 104 132 105 9 106 9 106 132 105 131 107 9 106 131 107 8 108 8 108 131 107 130 109 8 108 130 109 7 110 7 110 130 109 129 111 7 110 129 111 6 112 6 112 129 111 128 113 6 112 128 113 5 114 5 114 128 113 127 115 5 114 127 115 4 116 4 116 127 115 126 117 4 116 126 117 3 118 3 118 126 117 125 119 3 118 125 119 2 120 2 120 125 119 124 121 2 120 124 121 1 0 1 0 124 121 123 1 62 122 122 3 61 123 61 123 122 3 123 1 61 123 123 1 121 124 121 124 123 1 124 121 121 124 124 121 120 125 120 125 124 121 125 119 120 125 125 119 119 126 119 126 125 119 126 117 119 126 126 117 118 127 118 127 126 117 127 115 118 127 127 115 117 128 117 128 127 115 128 113 117 128 128 113 116 129 116 129 128 113 129 111 116 129 129 111 115 130 115 130 129 111 130 109 115 130 130 109 114 131 114 131 130 109 131 107 114 131 131 107 113 132 113 132 131 107 132 105 113 132 132 105 112 133 112 133 132 105 133 103 112 133 133 103 111 134 111 134 133 103 134 101 111 134 134 101 110 135 110 135 134 101 135 99 110 135 135 99 109 136 109 136 135 99 136 97 109 136 136 97 108 137 108 137 136 97 137 95 108 137 137 95 107 138 107 138 137 95 138 93 107 138 138 93 106 139 106 139 138 93 139 91 106 139 139 91 105 140 105 140 139 91 140 89 105 140 140 89 104 141 104 141 140 89 141 87 104 141 141 87 103 142 103 142 141 87 142 85 103 142 142 85 102 143 102 143 142 85 143 83 102 143 143 83 101 144 101 144 143 83 144 81 101 144 144 81 100 145 100 145 144 81 145 79 100 145 145 79 99 146 99 146 145 79 146 77 99 146 146 77 98 147 98 147 146 77 147 75 98 147 147 75 97 148 97 148 147 75 148 73 97 148 148 73 96 149 96 149 148 73 149 71 96 149 149 71 95 150 95 150 149 71 150 69 95 150 150 69 94 151 94 151 150 69 151 67 94 151 151 67 93 152 93 152 151 67 152 65 93 152 152 65 92 153 92 153 152 65 153 63 92 153 153 63 91 154 91 154 153 63 154 61 91 154 154 61 90 155 90 155 154 61 155 59 90 155 155 59 89 156 89 156 155 59 156 57 89 156 156 57 88 157 88 157 156 57 157 55 88 157 157 55 87 158 87 158 157 55 158 53 87 158 158 53 86 159 86 159 158 53 159 51 86 159 159 51 85 160 85 160 159 51 160 49 85 160 160 49 84 161 84 161 160 49 161 47 84 161 161 47 83 162 83 162 161 47 162 45 83 162 162 45 82 163 82 163 162 45 163 43 82 163 163 43 81 164 81 164 163 43 164 41 81 164 164 41 80 165 80 165 164 41 165 39 80 165 165 39 79 166 79 166 165 39 166 37 79 166 166 37 78 167 78 167 166 37 167 35 78 167 167 35 77 168 77 168 167 35 168 33 77 168 168 33 76 169 76 169 168 33 169 31 76 169 169 31 75 170 75 170 169 31 170 29 75 170 170 29 74 171 74 171 170 29 171 27 74 171 171 27 73 172 73 172 171 27 172 25 73 172 172 25 72 173 72 173 172 25 173 23 72 173 173 23 71 174 71 174 173 23 174 21 71 174 174 21 70 175 70 175 174 21 175 19 70 175 175 19 69 176 69 176 175 19 176 17 69 176 176 17 68 177 68 177 176 17 177 15 68 177 177 15 67 178 67 178 177 15 178 13 67 178 178 13 66 179 66 179 178 13 179 11 66 179 179 11 65 180 65 180 179 11 180 9 65 180 180 9 64 181 64 181 180 9 181 7 64 181 181 7 63 182 63 182 181 7 182 5 63 182 182 5 62 122 62 122 182 5 122 3 0 183 60 184 1 185 1 185 60 184 2 186 2 186 60 184 59 187 2 186 59 187 3 188 3 188 59 187 58 189 3 188 58 189 4 190 4 190 58 189 57 191 4 190 57 191 5 192 5 192 57 191 56 193 5 192 56 193 6 194 6 194 56 193 55 195 6 194 55 195 7 196 7 196 55 195 54 197 7 196 54 197 8 198 8 198 54 197 53 199 8 198 53 199 9 200 9 200 53 199 52 201 9 200 52 201 10 202 10 202 52 201 51 203 10 202 51 203 11 204 11 204 51 203 50 205 11 204 50 205 12 206 12 206 50 205 49 207 12 206 49 207 13 208 13 208 49 207 48 209 13 208 48 209 14 210 14 210 48 209 47 211 14 210 47 211 15 212 15 212 47 211 46 213 15 212 46 213 16 214 16 214 46 213 45 215 16 214 45 215 17 216 17 216 45 215 44 217 17 216 44 217 18 218 18 218 44 217 43 219 18 218 43 219 19 220 19 220 43 219 42 221 19 220 42 221 20 222 20 222 42 221 41 223 20 222 41 223 21 224 21 224 41 223 40 225 21 224 40 225 22 226 22 226 40 225 39 227 22 226 39 227 23 228 23 228 39 227 38 229 23 228 38 229 24 230 24 230 38 229 37 231 24 230 37 231 25 232 25 232 37 231 36 233 25 232 36 233 26 234 26 234 36 233 35 235 26 234 35 235 27 236 27 236 35 235 34 237 27 236 34 237 28 238 28 238 34 237 33 239 28 238 33 239 29 240 29 240 33 239 32 241 29 240 32 241 30 242 30 242 32 241 31 243 184 244 304 245 183 246 183 246 304 245 244 247 183 246 244 247 243 248 243 248 244 247 245 249 243 248 245 249 242 250 242 250 245 249 246 251 242 250 246 251 241 252 241 252 246 251 247 253 241 252 247 253 240 254 240 254 247 253 248 255 240 254 248 255 239 256 239 256 248 255 249 257 239 256 249 257 238 258 238 258 249 257 250 259 238 258 250 259 237 260 237 260 250 259 251 261 237 260 251 261 236 262 236 262 251 261 252 263 236 262 252 263 235 264 235 264 252 263 253 265 235 264 253 265 234 266 234 266 253 265 254 267 234 266 254 267 233 268 233 268 254 267 255 269 233 268 255 269 232 270 232 270 255 269 256 271 232 270 256 271 231 272 231 272 256 271 257 273 231 272 257 273 230 274 230 274 257 273 258 275 230 274 258 275 229 276 229 276 258 275 259 277 229 276 259 277 228 278 228 278 259 277 260 279 228 278 260 279 227 280 227 280 260 279 261 281 227 280 261 281 226 282 226 282 261 281 262 283 226 282 262 283 225 284 225 284 262 283 263 285 225 284 263 285 224 286 224 286 263 285 264 287 224 286 264 287 223 288 223 288 264 287 265 289 223 288 265 289 222 290 222 290 265 289 266 291 222 290 266 291 221 292 221 292 266 291 267 293 221 292 267 293 220 294 220 294 267 293 268 295 220 294 268 295 219 296 219 296 268 295 269 297 219 296 269 297 218 298 218 298 269 297 270 299 218 298 270 299 217 300 217 300 270 299 271 301 217 300 271 301 216 302 216 302 271 301 272 303 216 302 272 303 215 304 215 304 272 303 273 305 215 304 273 305 214 306 214 306 273 305 274 307 214 306 274 307 213 308 213 308 274 307 275 309 213 308 275 309 212 310 212 310 275 309 276 311 212 310 276 311 211 312 211 312 276 311 277 313 211 312 277 313 210 314 210 314 277 313 278 315 210 314 278 315 209 316 209 316 278 315 279 317 209 316 279 317 208 318 208 318 279 317 280 319 208 318 280 319 207 320 207 320 280 319 281 321 207 320 281 321 206 322 206 322 281 321 282 323 206 322 282 323 205 324 205 324 282 323 283 325 205 324 283 325 204 326 204 326 283 325 284 327 204 326 284 327 203 328 203 328 284 327 285 329 203 328 285 329 202 330 202 330 285 329 286 331 202 330 286 331 201 332 201 332 286 331 287 333 201 332 287 333 200 334 200 334 287 333 288 335 200 334 288 335 199 336 199 336 288 335 289 337 199 336 289 337 198 338 198 338 289 337 290 339 198 338 290 339 197 340 197 340 290 339 291 341 197 340 291 341 196 342 196 342 291 341 292 343 196 342 292 343 195 344 195 344 292 343 293 345 195 344 293 345 194 346 194 346 293 345 294 347 194 346 294 347 193 348 193 348 294 347 295 349 193 348 295 349 192 350 192 350 295 349 296 351 192 350 296 351 191 352 191 352 296 351 297 353 191 352 297 353 190 354 190 354 297 353 298 355 190 354 298 355 189 356 189 356 298 355 299 357 189 356 299 357 188 358 188 358 299 357 300 359 188 358 300 359 187 360 187 360 300 359 301 361 187 360 301 361 186 362 186 362 301 361 302 363 186 362 302 363 185 364 185 364 302 363 303 365 185 364 303 365 184 244 184 244 303 365 304 245 376 366 305 367 375 368 375 368 305 367 306 369 375 368 306 369 374 370 374 370 306 369 307 371 374 370 307 371 373 372 373 372 307 371 308 373 373 372 308 373 372 374 372 374 308 373 309 375 372 374 309 375 371 376 371 376 309 375 310 377 371 376 310 377 370 378 370 378 310 377 311 379 370 378 311 379 369 380 369 380 311 379 312 381 369 380 312 381 368 382 368 382 312 381 313 383 368 382 313 383 367 384 367 384 313 383 314 385 367 384 314 385 366 386 366 386 314 385 315 387 366 386 315 387 365 388 365 388 315 387 316 389 365 388 316 389 364 390 364 390 316 389 317 391 364 390 317 391 363 392 363 392 317 391 318 393 363 392 318 393 362 394 362 394 318 393 319 395 362 394 319 395 361 396 361 396 319 395 320 397 361 396 320 397 360 398 360 398 320 397 321 399 360 398 321 399 359 400 359 400 321 399 322 401 359 400 322 401 358 402 358 402 322 401 323 403 358 402 323 403 357 404 357 404 323 403 324 405 357 404 324 405 356 406 356 406 324 405 325 407 356 406 325 407 355 408 355 408 325 407 326 409 355 408 326 409 354 410 354 410 326 409 327 411 354 410 327 411 353 412 353 412 327 411 328 413 353 412 328 413 352 414 352 414 328 413 329 415 352 414 329 415 351 416 351 416 329 415 330 417 351 416 330 417 350 418 350 418 330 417 331 419 350 418 331 419 349 420 349 420 331 419 332 421 349 420 332 421 348 422 348 422 332 421 333 423 348 422 333 423 347 424 347 424 333 423 334 425 347 424 334 425 346 426 346 426 334 425 335 427 346 426 335 427 345 428 345 428 335 427 336 429 345 428 336 429 344 430 344 430 336 429 337 431 344 430 337 431 343 432 343 432 337 431 338 433 343 432 338 433 342 434 342 434 338 433 339 435 342 434 339 435 341 436 341 436 339 435 340 437 377 438 305 367 378 439 378 439 305 367 376 366 448 440 379 441 447 442 447 442 379 441 380 443 447 442 380 443 446 444 446 444 380 443 381 445 446 444 381 445 445 446 445 446 381 445 382 447 445 446 382 447 444 448 444 448 382 447 383 449 444 448 383 449 443 450 443 450 383 449 384 451 443 450 384 451 442 452 442 452 384 451 385 453 442 452 385 453 441 454 441 454 385 453 386 455 441 454 386 455 440 456 440 456 386 455 387 457 440 456 387 457 439 458 439 458 387 457 388 459 439 458 388 459 438 460 438 460 388 459 389 461 438 460 389 461 437 462 437 462 389 461 390 463 437 462 390 463 436 464 436 464 390 463 391 465 436 464 391 465 435 466 435 466 391 465 392 467 435 466 392 467 434 468 434 468 392 467 393 469 434 468 393 469 433 470 433 470 393 469 394 471 433 470 394 471 432 472 432 472 394 471 395 473 432 472 395 473 431 474 431 474 395 473 396 475 431 474 396 475 430 476 430 476 396 475 397 477 430 476 397 477 429 478 429 478 397 477 398 479 429 478 398 479 428 480 428 480 398 479 399 481 428 480 399 481 427 482 427 482 399 481 400 483 427 482 400 483 426 484 426 484 400 483 401 485 426 484 401 485 425 486 425 486 401 485 402 487 425 486 402 487 424 488 424 488 402 487 403 489 424 488 403 489 423 490 423 490 403 489 404 491 423 490 404 491 422 492 422 492 404 491 405 493 422 492 405 493 421 494 421 494 405 493 406 495 421 494 406 495 420 496 420 496 406 495 407 497 420 496 407 497 419 498 419 498 407 497 408 499 419 498 408 499 418 500 418 500 408 499 409 501 418 500 409 501 417 502 417 502 409 501 410 503 417 502 410 503 416 504 416 504 410 503 411 505 416 504 411 505 415 506 415 506 411 505 412 507 415 506 412 507 414 508 414 508 412 507 413 509 414 508 413 509 378 439 378 439 413 509 377 438 340 437 379 441 341 436 341 436 379 441 448 440 448 510 65 511 341 512 341 512 65 511 64 513 341 512 64 513 63 514 447 515 183 516 448 510 448 510 183 516 243 517 448 510 243 517 242 518 447 515 446 519 183 516 183 516 446 519 445 520 183 516 445 520 184 521 184 521 445 520 444 522 184 521 444 522 443 523 184 521 443 523 185 524 185 524 443 523 442 525 185 524 442 525 186 526 186 526 442 525 441 527 186 526 441 527 187 528 187 528 441 527 440 529 187 528 440 529 188 530 188 530 440 529 439 531 188 530 439 531 189 532 189 532 439 531 438 533 189 532 438 533 190 534 190 534 438 533 437 535 190 534 437 535 191 536 191 536 437 535 436 537 191 536 436 537 192 538 192 538 436 537 193 539 193 539 436 537 435 540 193 539 435 540 194 541 194 541 435 540 434 542 194 541 434 542 195 543 195 543 434 542 433 544 195 543 433 544 196 545 196 545 433 544 432 546 196 545 432 546 197 547 197 547 432 546 431 548 197 547 431 548 198 549 198 549 431 548 430 550 198 549 430 550 199 551 199 551 430 550 429 552 199 551 429 552 200 553 200 553 429 552 428 554 200 553 428 554 201 555 201 555 428 554 202 556 202 556 428 554 427 557 202 556 427 557 203 558 203 558 427 557 426 559 203 558 426 559 204 560 204 560 426 559 425 561 204 560 425 561 205 562 205 562 425 561 424 563 205 562 424 563 206 564 206 564 424 563 423 565 206 564 423 565 207 566 207 566 423 565 422 567 207 566 422 567 208 568 208 568 422 567 209 569 209 569 422 567 421 570 209 569 421 570 210 571 210 571 421 570 420 572 210 571 420 572 211 573 211 573 420 572 419 574 211 573 419 574 212 575 212 575 419 574 418 576 212 575 418 576 417 577 212 575 417 577 213 578 213 578 417 577 416 579 213 578 416 579 415 580 415 580 414 581 213 578 213 578 414 581 378 582 213 578 378 582 214 583 214 583 378 582 215 584 215 584 378 582 216 585 216 585 378 582 217 586 217 586 378 582 218 587 218 587 378 582 376 588 218 587 376 588 87 589 87 589 376 588 88 590 88 590 376 588 89 591 89 591 376 588 90 592 90 592 376 588 91 593 91 593 376 588 92 594 92 594 376 588 375 595 92 594 375 595 374 596 374 596 373 597 92 594 92 594 373 597 372 598 92 594 372 598 93 599 93 599 372 598 371 600 93 599 371 600 370 601 93 599 370 601 94 602 94 602 370 601 369 603 94 602 369 603 95 604 95 604 369 603 368 605 95 604 368 605 96 606 96 606 368 605 367 607 96 606 367 607 97 608 97 608 367 607 98 609 98 609 367 607 366 610 98 609 366 610 99 611 99 611 366 610 365 612 99 611 365 612 100 613 100 613 365 612 364 614 100 613 364 614 101 615 101 615 364 614 363 616 101 615 363 616 102 617 102 617 363 616 362 618 102 617 362 618 103 619 103 619 362 618 361 620 103 619 361 620 104 621 104 621 361 620 105 622 105 622 361 620 360 623 105 622 360 623 106 624 106 624 360 623 359 625 106 624 359 625 107 626 107 626 359 625 358 627 107 626 358 627 108 628 108 628 358 627 357 629 108 628 357 629 109 630 109 630 357 629 356 631 109 630 356 631 110 632 110 632 356 631 355 633 110 632 355 633 111 634 111 634 355 633 354 635 111 634 354 635 112 636 112 636 354 635 353 637 112 636 353 637 113 638 113 638 353 637 114 639 114 639 353 637 352 640 114 639 352 640 115 641 115 641 352 640 351 642 115 641 351 642 116 643 116 643 351 642 350 644 116 643 350 644 117 645 117 645 350 644 349 646 117 645 349 646 118 647 118 647 349 646 348 648 118 647 348 648 119 649 119 649 348 648 347 650 119 649 347 650 120 651 120 651 347 650 346 652 120 651 346 652 121 653 121 653 346 652 345 654 121 653 345 654 344 655 121 653 344 655 61 656 61 656 344 655 343 657 61 656 343 657 342 658 342 658 341 512 61 656 61 656 341 512 62 659 62 659 341 512 63 514 218 587 87 589 219 660 219 660 87 589 86 661 219 660 86 661 220 662 220 662 86 661 85 663 220 662 85 663 221 664 221 664 85 663 84 665 221 664 84 665 222 666 222 666 84 665 83 667 222 666 83 667 223 668 223 668 83 667 82 669 223 668 82 669 224 670 224 670 82 669 81 671 224 670 81 671 225 672 225 672 81 671 80 673 225 672 80 673 226 674 226 674 80 673 79 675 226 674 79 675 227 676 227 676 79 675 78 677 227 676 78 677 228 678 228 678 78 677 77 679 228 678 77 679 229 680 229 680 77 679 76 681 229 680 76 681 230 682 230 682 76 681 75 683 230 682 75 683 231 684 231 684 75 683 74 685 231 684 74 685 232 686 232 686 74 685 73 687 232 686 73 687 233 688 233 688 73 687 72 689 233 688 72 689 234 690 234 690 72 689 71 691 234 690 71 691 235 692 235 692 71 691 70 693 235 692 70 693 236 694 236 694 70 693 69 695 236 694 69 695 237 696 237 696 69 695 68 697 237 696 68 697 238 698 238 698 68 697 67 699 238 698 67 699 239 700 239 700 67 699 66 701 239 700 66 701 240 702 240 702 66 701 65 511 240 702 65 511 448 510 242 518 241 703 448 510 448 510 241 703 240 702 340 704 248 705 379 706 379 706 248 705 247 707 379 706 247 707 246 708 339 709 338 710 340 704 340 704 338 710 337 711 340 704 337 711 336 712 336 712 335 713 340 704 340 704 335 713 334 714 340 704 334 714 333 715 333 715 332 716 340 704 340 704 332 716 331 717 340 704 331 717 330 718 340 704 330 718 255 719 255 719 330 718 329 720 255 719 329 720 256 721 256 721 329 720 328 722 256 721 328 722 327 723 256 721 327 723 257 724 257 724 327 723 326 725 257 724 326 725 325 726 257 724 325 726 258 727 258 727 325 726 324 728 258 727 324 728 259 729 259 729 324 728 323 730 259 729 323 730 322 731 259 729 322 731 260 732 260 732 322 731 321 733 260 732 321 733 261 734 261 734 321 733 320 735 261 734 320 735 319 736 261 734 319 736 262 737 262 737 319 736 318 738 262 737 318 738 317 739 262 737 317 739 263 740 263 740 317 739 316 741 263 740 316 741 315 742 314 743 305 744 315 742 315 742 305 744 264 745 315 742 264 745 263 740 314 743 313 746 305 744 305 744 313 746 312 747 305 744 312 747 311 748 311 748 310 749 305 744 305 744 310 749 309 750 305 744 309 750 308 751 308 751 307 752 305 744 305 744 307 752 306 753 377 754 270 755 305 744 305 744 270 755 269 756 305 744 269 756 268 757 413 758 275 759 377 754 377 754 275 759 274 760 377 754 274 760 273 761 413 758 412 762 275 759 275 759 412 762 411 763 275 759 411 763 410 764 275 759 410 764 276 765 276 765 410 764 409 766 276 765 409 766 408 767 276 765 408 767 277 768 277 768 408 767 407 769 277 768 407 769 278 770 278 770 407 769 406 771 278 770 406 771 279 772 279 772 406 771 405 773 279 772 405 773 280 774 280 774 405 773 281 775 281 775 405 773 404 776 281 775 404 776 282 777 282 777 404 776 403 778 282 777 403 778 283 779 283 779 403 778 402 780 283 779 402 780 284 781 284 781 402 780 401 782 284 781 401 782 285 783 285 783 401 782 400 784 285 783 400 784 286 785 286 785 400 784 399 786 286 785 399 786 287 787 287 787 399 786 288 788 288 788 399 786 398 789 288 788 398 789 289 790 289 790 398 789 397 791 289 790 397 791 290 792 290 792 397 791 396 793 290 792 396 793 291 794 291 794 396 793 395 795 291 794 395 795 292 796 292 796 395 795 394 797 292 796 394 797 293 798 293 798 394 797 393 799 293 798 393 799 294 800 294 800 393 799 392 801 294 800 392 801 295 802 295 802 392 801 391 803 295 802 391 803 296 804 296 804 391 803 297 805 297 805 391 803 390 806 297 805 390 806 298 807 298 807 390 806 389 808 298 807 389 808 299 809 299 809 389 808 388 810 299 809 388 810 300 811 300 811 388 810 387 812 300 811 387 812 301 813 301 813 387 812 386 814 301 813 386 814 302 815 302 815 386 814 385 816 302 815 385 816 303 817 303 817 385 816 384 818 303 817 384 818 304 819 304 819 384 818 383 820 304 819 383 820 382 821 304 819 382 821 244 822 244 822 382 821 381 823 244 822 381 823 380 824 380 824 379 706 244 822 244 822 379 706 245 825 245 825 379 706 246 708 273 761 272 826 377 754 377 754 272 826 271 827 377 754 271 827 270 755 268 757 267 828 305 744 305 744 267 828 266 829 305 744 266 829 265 830 265 830 264 745 305 744 255 719 254 831 340 704 340 704 254 831 253 832 340 704 253 832 252 833 252 833 251 834 340 704 340 704 251 834 250 835 340 704 250 835 249 836 249 836 248 705 340 704</p>
        </triangles>
      </mesh>
    </geometry>
  </library_geometries>
  <library_visual_scenes>
    <visual_scene id="Scene" name="Scene">
      <node id="mat_3rd_link-node" name="3rd_link" type="NODE">
        <instance_geometry url="#mat_3rd_link-mesh">
          <bind_material>
            <technique_common>
              <instance_material symbol="Default" target="#Default"/>
            </technique_common>
          </bind_material>
        </instance_geometry>
      </node>
    </visual_scene>
  </library_visual_scenes>
  <scene>
    <instance_visual_scene url="#Scene"/>
  </scene>
</COLLADA>
