<?xml version="1.0" encoding="utf-8"?>
<COLLADA xmlns="http://www.collada.org/2005/11/COLLADASchema" version="1.4.1">
  <asset>
    <contributor>
      <authoring_tool>Fusion URDF/XACRO Exporter</authoring_tool>
    </contributor>
    <created>2026-08-21T07:34:06Z</created>
    <modified>2026-08-21T07:34:06Z</modified>
    <unit name="meter" meter="1.0"/>
    <up_axis>Z_UP</up_axis>
  </asset>
  <library_effects>
    <effect id="Default-effect">
      <profile_COMMON>
        <technique sid="common">
          <lambert>
            <emission><color>0 0 0 1</color></emission>
            <ambient><color>0.0000 0.0000 0.0000 1</color></ambient>
            <diffuse><color>0.7490 0.7490 0.7490 1</color></diffuse>
            <reflective><color>0 0 0 1</color></reflective>
            <transparent opaque="A_ONE"><color>1 1 1 1</color></transparent>
            <transparency><float>1</float></transparency>
          </lambert>
        </technique>
      </profile_COMMON>
    </effect>
  </library_effects>
  <library_materials>
    <material id="Default" name="Default">
      <instance_effect url="#Default-effect"/>
    </material>
  </library_materials>
  <library_geometries>
    <geometry id="mat_4th_link-mesh" name="4th_link">
      <mesh>
        <source id="mat_4th_link-mesh-positions">
          <float_array id="mat_4th_link-mesh-positions-array" count="900">-0.040000 0.000000 0.097000 0.040000 0.000000 0.097000 0.040000 0.005000 0.097000 -0.040000 0.005000 0.097000 -0.030000 0.005000 0.000000 -0.029883 0.005000 -0.002651 -0.029531 0.005000 -0.005282 -0.028949 0.005000 -0.007871 -0.028140 0.005000 -0.010399 -0.027111 0.005000 -0.012845 -0.025869 0.005000 -0.015191 -0.024426 0.005000 -0.017418 -0.022791 0.005000 -0.019509 -0.020977 0.005000 -0.021447 -0.019000 0.005000 -0.023217 -0.016873 0.005000 -0.024805 -0.014615 0.005000 -0.026199 -0.012243 0.005000 -0.027388 -0.009774 0.005000 -0.028363 -0.007229 0.005000 -0.029116 -0.004627 0.005000 -0.029641 -0.001990 0.005000 -0.029934 0.000664 0.005000 -0.029993 0.003312 0.005000 -0.029817 0.005934 0.005000 -0.029407 0.008510 0.005000 -0.028768 0.011019 0.005000 -0.027903 0.013442 0.005000 -0.026820 0.015760 0.005000 -0.025527 0.017954 0.005000 -0.024034 0.020008 0.005000 -0.022353 0.021905 0.005000 -0.020498 0.023631 0.005000 -0.018481 0.025172 0.005000 -0.016321 0.026516 0.005000 -0.014032 0.027652 0.005000 -0.011634 0.028572 0.005000 -0.009144 0.029269 0.005000 -0.006583 0.029736 0.005000 -0.003971 0.029971 0.005000 -0.001327 0.029971 0.005000 0.001327 0.029736 0.005000 0.003971 0.029269 0.005000 0.006583 0.028572 0.005000 0.009144 0.027652 0.005000 0.011634 0.026516 0.005000 0.014032 0.025172 0.005000 0.016321 0.023631 0.005000 0.018481 0.021905 0.005000 0.020498 0.020008 0.005000 0.022353 0.017954 0.005000 0.024034 0.015760 0.005000 0.025527 0.013442 0.005000 0.026820 0.011019 0.005000 0.027903 0.008510 0.005000 0.028768 0.005934 0.005000 0.029407 0.003312 0.005000 0.029817 0.000664 0.005000 0.029993 -0.001990 0.005000 0.029934 -0.004627 0.005000 0.029641 -0.007229 0.005000 0.029116 -0.009774 0.005000 0.028363 -0.012243 0.005000 0.027388 -0.014615 0.005000 0.026199 -0.016873 0.005000 0.024805 -0.019000 0.005000 0.023217 -0.020977 0.005000 0.021447 -0.022791 0.005000 0.019509 -0.024426 0.005000 0.017418 -0.025869 0.005000 0.015191 -0.027111 0.005000 0.012845 -0.028140 0.005000 0.010399 -0.028949 0.005000 0.007871 -0.029531 0.005000 0.005282 -0.029883 0.005000 0.002651 0.040000 0.005000 -0.000000 0.039883 0.005000 -0.003062 0.039531 0.005000 -0.006106 0.038948 0.005000 -0.009114 0.038136 0.005000 -0.012069 0.037100 0.005000 -0.014953 0.035847 0.005000 -0.017749 0.034383 0.005000 -0.020441 0.032717 0.005000 -0.023013 0.030860 0.005000 -0.025450 0.028821 0.005000 -0.027737 0.026613 0.005000 -0.029862 0.024249 0.005000 -0.031812 0.021743 0.005000 -0.033575 0.019109 0.005000 -0.035140 0.016363 0.005000 -0.036500 0.013521 0.005000 -0.037646 0.010599 0.005000 -0.038570 0.007616 0.005000 -0.039268 0.004587 0.005000 -0.039736 0.001532 0.005000 -0.039971 -0.001532 0.005000 -0.039971 -0.004587 0.005000 -0.039736 -0.007616 0.005000 -0.039268 -0.010599 0.005000 -0.038570 -0.013521 0.005000 -0.037646 -0.016363 0.005000 -0.036500 -0.019109 0.005000 -0.035140 -0.021743 0.005000 -0.033575 -0.024249 0.005000 -0.031812 -0.026613 0.005000 -0.029862 -0.028821 0.005000 -0.027737 -0.030860 0.005000 -0.025450 -0.032717 0.005000 -0.023013 -0.034383 0.005000 -0.020441 -0.035847 0.005000 -0.017749 -0.037100 0.005000 -0.014953 -0.038136 0.005000 -0.012069 -0.038948 0.005000 -0.009114 -0.039531 0.005000 -0.006106 -0.039883 0.005000 -0.003062 -0.040000 0.005000 -0.000000 0.040000 0.000000 -0.000000 -0.030000 0.105000 0.000000 -0.029883 0.105000 -0.002651 -0.029531 0.105000 -0.005282 -0.028949 0.105000 -0.007871 -0.028140 0.105000 -0.010399 -0.027111 0.105000 -0.012845 -0.025869 0.105000 -0.015191 -0.024426 0.105000 -0.017418 -0.022791 0.105000 -0.019509 -0.020977 0.105000 -0.021447 -0.019000 0.105000 -0.023217 -0.016873 0.105000 -0.024805 -0.014615 0.105000 -0.026199 -0.012243 0.105000 -0.027388 -0.009774 0.105000 -0.028363 -0.007229 0.105000 -0.029116 -0.004627 0.105000 -0.029641 -0.001990 0.105000 -0.029934 0.000664 0.105000 -0.029993 0.003312 0.105000 -0.029817 0.005934 0.105000 -0.029407 0.008510 0.105000 -0.028768 0.011019 0.105000 -0.027903 0.013442 0.105000 -0.026820 0.015760 0.105000 -0.025527 0.017954 0.105000 -0.024034 0.020008 0.105000 -0.022353 0.021905 0.105000 -0.020498 0.023631 0.105000 -0.018481 0.025172 0.105000 -0.016321 0.026516 0.105000 -0.014032 0.027652 0.105000 -0.011634 0.028572 0.105000 -0.009144 0.029269 0.105000 -0.006583 0.029736 0.105000 -0.003971 0.029971 0.105000 -0.001327 0.029971 0.105000 0.001327 0.029736 0.105000 0.003971 0.029269 0.105000 0.006583 0.028572 0.105000 0.009144 0.027652 0.105000 0.011634 0.026516 0.105000 0.014032 0.025172 0.105000 0.016321 0.023631 0.105000 0.018481 0.021905 0.105000 0.020498 0.020008 0.105000 0.022353 0.017954 0.105000 0.024034 0.015760 0.105000 0.025527 0.013442 0.105000 0.026820 0.011019 0.105000 0.027903 0.008510 0.105000 0.028768 0.005934 0.105000 0.029407 0.003312 0.105000 0.029817 0.000664 0.105000 0.029993 -0.001990 0.105000 0.029934 -0.004627 0.105000 0.029641 -0.007229 0.105000 0.029116 -0.009774 0.105000 0.028363 -0.012243 0.105000 0.027388 -0.014615 0.105000 0.026199 -0.016873 0.105000 0.024805 -0.019000 0.105000 0.023217 -0.020977 0.105000 0.021447 -0.022791 0.105000 0.019509 -0.024426 0.105000 0.017418 -0.025869 0.105000 0.015191 -0.027111 0.105000 0.012845 -0.028140 0.105000 0.010399 -0.028949 0.105000 0.007871 -0.029531 0.105000 0.005282 -0.029883 0.105000 0.002651 -0.030000 0.055000 0.000000 -0.029879 0.055000 -0.002689 -0.029518 0.055000 -0.005357 -0.028919 0.055000 -0.007981 -0.028087 0.055000 -0.010541 -0.027029 0.055000 -0.013017 -0.025753 0.055000 -0.015387 -0.024271 0.055000 -0.017634 -0.022592 0.055000 -0.019738 -0.020732 0.055000 -0.021684 -0.018705 0.055000 -0.023455 -0.016527 0.055000 -0.025037 -0.014216 0.055000 -0.026418 -0.011791 0.055000 -0.027586 -0.009271 0.055000 -0.028532 -0.006676 0.055000 -0.029248 -0.004027 0.055000 -0.029728 -0.001346 0.055000 -0.029970 0.001346 0.055000 -0.029970 0.004027 0.055000 -0.029728 0.006676 0.055000 -0.029248 0.009271 0.055000 -0.028532 0.011791 0.055000 -0.027586 0.014216 0.055000 -0.026418 0.016527 0.055000 -0.025037 0.018705 0.055000 -0.023455 0.020732 0.055000 -0.021684 0.022592 0.055000 -0.019738 0.024271 0.055000 -0.017634 0.025753 0.055000 -0.015387 0.027029 0.055000 -0.013017 0.028087 0.055000 -0.010541 0.028919 0.055000 -0.007981 0.029518 0.055000 -0.005357 0.029879 0.055000 -0.002689 0.030000 0.055000 -0.000000 0.029879 0.055000 0.002689 0.029518 0.055000 0.005357 0.028919 0.055000 0.007981 0.028087 0.055000 0.010541 0.027029 0.055000 0.013017 0.025753 0.055000 0.015387 0.024271 0.055000 0.017634 0.022592 0.055000 0.019738 0.020732 0.055000 0.021684 0.018705 0.055000 0.023455 0.016527 0.055000 0.025037 0.014216 0.055000 0.026418 0.011791 0.055000 0.027586 0.009271 0.055000 0.028532 0.006676 0.055000 0.029248 0.004027 0.055000 0.029728 0.001346 0.055000 0.029970 -0.001346 0.055000 0.029970 -0.004027 0.055000 0.029728 -0.006676 0.055000 0.029248 -0.009271 0.055000 0.028532 -0.011791 0.055000 0.027586 -0.014216 0.055000 0.026418 -0.016527 0.055000 0.025037 -0.018705 0.055000 0.023455 -0.020732 0.055000 0.021684 -0.022592 0.055000 0.019738 -0.024271 0.055000 0.017634 -0.025753 0.055000 0.015387 -0.027029 0.055000 0.013017 -0.028087 0.055000 0.010541 -0.028919 0.055000 0.007981 -0.029518 0.055000 0.005357 -0.029879 0.055000 0.002689 0.039883 0.000000 -0.003062 0.039531 0.000000 -0.006106 0.038948 0.000000 -0.009114 0.038136 0.000000 -0.012069 0.037100 0.000000 -0.014953 0.035847 0.000000 -0.017749 0.034383 0.000000 -0.020441 0.032717 0.000000 -0.023013 0.030860 0.000000 -0.025450 0.028821 0.000000 -0.027737 0.026613 0.000000 -0.029862 0.024249 0.000000 -0.031812 0.021743 0.000000 -0.033575 0.019109 0.000000 -0.035140 0.016363 0.000000 -0.036500 0.013521 0.000000 -0.037646 0.010599 0.000000 -0.038570 0.007616 0.000000 -0.039268 0.004587 0.000000 -0.039736 0.001532 0.000000 -0.039971 -0.001532 0.000000 -0.039971 -0.004587 0.000000 -0.039736 -0.007616 0.000000 -0.039268 -0.010599 0.000000 -0.038570 -0.013521 0.000000 -0.037646 -0.016363 0.000000 -0.036500 -0.019109 0.000000 -0.035140 -0.021743 0.000000 -0.033575 -0.024249 0.000000 -0.031812 -0.026613 0.000000 -0.029862 -0.028821 0.000000 -0.027737 -0.030860 0.000000 -0.025450 -0.032717 0.000000 -0.023013 -0.034383 0.000000 -0.020441 -0.035847 0.000000 -0.017749 -0.037100 0.000000 -0.014953 -0.038136 0.000000 -0.012069 -0.038948 0.000000 -0.009114 -0.039531 0.000000 -0.006106 -0.039883 0.000000 -0.003062 -0.040000 0.000000 -0.000000</float_array>
          <technique_common>
            <accessor source="#mat_4th_link-mesh-positions-array" count="300" stride="3">
              <param name="X" type="float"/>
              <param name="Y" type="float"/>
              <param name="Z" type="float"/>
            </accessor>
          </technique_common>
        </source>
        <source id="mat_4th_link-mesh-normals">
          <float_array id="mat_4th_link-mesh-normals-array" count="1602">-0.000000 -0.000000 1.000000 -0.000000 -0.000000 1.000000 -0.000000 -0.000000 1.000000 -0.000000 -0.000000 1.000000 0.000000 1.000000 0.000000 0.000000 1.000000 0.000000 0.000000 1.000000 0.000000 0.000000 1.000000 0.000000 0.000000 1.000000 0.000000 0.000000 1.000000 0.000000 0.000000 1.000000 0.000000 0.000000 1.000000 0.000000 0.000000 1.000000 0.000000 0.000000 1.000000 0.000000 0.000000 1.000000 0.000000 0.000000 1.000000 0.000000 0.000000 1.000000 0.000000 0.000000 1.000000 0.000000 0.000000 1.000000 0.000000 0.000000 1.000000 0.000000 0.000000 1.000000 0.000000 0.000000 1.000000 0.000000 0.000000 1.000000 0.000000 0.000000 1.000000 0.000000 0.000000 1.000000 0.000000 0.000000 1.000000 0.000000 0.000000 1.000000 0.000000 0.000000 1.000000 0.000000 0.000000 1.000000 0.000000 0.000000 1.000000 0.000000 0.000000 1.000000 0.000000 0.000000 1.000000 0.000000 0.000000 1.000000 0.000000 0.000000 1.000000 0.000000 0.000000 1.000000 0.000000 0.000000 1.000000 0.000000 0.000000 1.000000 0.000000 0.000000 1.000000 0.000000 0.000000 1.000000 0.000000 0.000000 1.000000 0.000000 0.000000 1.000000 0.000000 0.000000 1.000000 0.000000 0.000000 1.000000 0.000000 0.000000 1.000000 0.000000 0.000000 1.000000 0.000000 0.000000 1.000000 0.000000 0.000000 1.000000 0.000000 0.000000 1.000000 0.000000 0.000000 1.000000 0.000000 0.000000 1.000000 0.000000 0.000000 1.000000 0.000000 0.000000 1.000000 0.000000 0.000000 1.000000 0.000000 0.000000 1.000000 0.000000 0.000000 1.000000 0.000000 0.000000 1.000000 0.000000 0.000000 1.000000 0.000000 0.000000 1.000000 0.000000 0.000000 1.000000 0.000000 0.000000 1.000000 0.000000 0.000000 1.000000 0.000000 0.000000 1.000000 0.000000 0.000000 1.000000 0.000000 0.000000 1.000000 0.000000 0.000000 1.000000 0.000000 0.000000 1.000000 0.000000 0.000000 1.000000 0.000000 0.000000 1.000000 0.000000 0.000000 1.000000 0.000000 0.000000 1.000000 0.000000 0.000000 1.000000 0.000000 0.000000 1.000000 0.000000 0.000000 1.000000 0.000000 0.000000 1.000000 0.000000 0.000000 1.000000 0.000000 0.000000 1.000000 0.000000 0.000000 1.000000 0.000000 0.000000 1.000000 0.000000 0.000000 1.000000 0.000000 0.000000 1.000000 0.000000 0.000000 1.000000 0.000000 0.000000 1.000000 0.000000 0.000000 1.000000 0.000000 0.000000 1.000000 0.000000 0.000000 1.000000 0.000000 0.000000 1.000000 0.000000 0.000000 1.000000 0.000000 0.000000 1.000000 0.000000 0.000000 1.000000 0.000000 0.000000 1.000000 0.000000 0.000000 1.000000 0.000000 0.000000 1.000000 0.000000 0.000000 1.000000 0.000000 0.000000 1.000000 0.000000 0.000000 1.000000 0.000000 0.000000 1.000000 0.000000 0.000000 1.000000 0.000000 0.000000 1.000000 0.000000 0.000000 1.000000 0.000000 0.000000 1.000000 0.000000 0.000000 1.000000 0.000000 0.000000 1.000000 0.000000 0.000000 1.000000 0.000000 0.000000 1.000000 0.000000 0.000000 1.000000 0.000000 0.000000 1.000000 0.000000 0.000000 1.000000 0.000000 0.000000 1.000000 0.000000 0.000000 1.000000 0.000000 0.000000 1.000000 0.000000 0.000000 1.000000 0.000000 0.000000 1.000000 0.000000 0.000000 1.000000 0.000000 0.000000 1.000000 0.000000 0.000000 1.000000 0.000000 0.000000 1.000000 0.000000 0.000000 1.000000 0.000000 0.000000 1.000000 0.000000 0.000000 1.000000 0.000000 1.000000 -0.000000 0.000000 1.000000 -0.000000 0.000000 1.000000 -0.000000 0.000000 1.000000 -0.000000 0.000000 -0.996087 -0.000000 0.088380 -1.000000 -0.000000 0.000000 -1.000000 -0.000000 0.000000 -0.996087 0.000000 -0.088380 -0.995974 0.000000 -0.089639 -0.984378 0.000000 -0.176069 -0.983930 0.000000 -0.178557 -0.964965 0.000000 -0.262379 -0.963963 0.000000 -0.266037 -0.938000 0.000000 -0.346636 -0.936235 0.000000 -0.351375 -0.903693 0.000000 -0.428180 -0.900969 0.000000 -0.433884 -0.862315 0.000000 -0.506373 -0.858449 0.000000 -0.512899 -0.814187 0.000000 -0.580603 -0.809017 0.000000 -0.587785 -0.759687 0.000000 -0.650289 -0.753071 0.000000 -0.657939 -0.699242 0.000000 -0.714885 -0.691063 0.000000 -0.722795 -0.633324 0.000000 -0.773887 -0.623490 0.000000 -0.781831 -0.562449 0.000000 -0.826832 -0.550897 0.000000 -0.834573 -0.487173 0.000000 -0.873306 -0.473869 0.000000 -0.880596 -0.408084 0.000000 -0.912945 -0.393025 0.000000 -0.919528 -0.325801 0.000000 -0.945439 -0.309017 0.000000 -0.951057 -0.240968 0.000000 -0.970533 -0.222521 0.000000 -0.974928 -0.154249 0.000000 -0.988032 -0.134233 0.000000 -0.990950 -0.066323 0.000000 -0.997798 -0.044865 0.000000 -0.998993 0.022122 -0.000000 -0.999755 0.044865 -0.000000 -0.998993 0.110394 -0.000000 -0.993888 0.134233 -0.000000 -0.990950 0.197802 -0.000000 -0.980242 0.222521 -0.000000 -0.974928 0.283662 -0.000000 -0.958924 0.309017 -0.000000 -0.951057 0.367302 -0.000000 -0.930102 0.393025 -0.000000 -0.919528 0.448067 -0.000000 -0.894000 0.473869 -0.000000 -0.880596 0.525325 -0.000000 -0.850902 0.550897 -0.000000 -0.834573 0.598472 -0.000000 -0.801143 0.623490 -0.000000 -0.781831 0.666936 -0.000000 -0.745115 0.691063 -0.000000 -0.722795 0.730179 -0.000000 -0.683256 0.753071 -0.000000 -0.657939 0.787708 -0.000000 -0.616049 0.809017 -0.000000 -0.587785 0.839072 -0.000000 -0.544020 0.858449 -0.000000 -0.512899 0.883869 -0.000000 -0.467734 0.900969 -0.000000 -0.433884 0.921749 -0.000000 -0.387788 0.936235 -0.000000 -0.351375 0.952415 -0.000000 -0.304806 0.963963 -0.000000 -0.266037 0.975626 -0.000000 -0.219439 0.983930 -0.000000 -0.178557 0.991203 -0.000000 -0.132354 0.995974 -0.000000 -0.089639 0.999021 -0.000000 -0.044233 1.000000 -0.000000 -0.000000 0.999021 -0.000000 0.044233 0.995974 -0.000000 0.089639 0.991203 -0.000000 0.132354 0.983930 -0.000000 0.178557 0.975626 -0.000000 0.219439 0.963963 -0.000000 0.266037 0.952415 -0.000000 0.304806 0.936235 -0.000000 0.351375 0.921749 -0.000000 0.387788 0.900969 -0.000000 0.433884 0.883869 -0.000000 0.467734 0.858449 -0.000000 0.512899 0.839072 -0.000000 0.544020 0.809017 -0.000000 0.587785 0.787708 -0.000000 0.616049 0.753071 -0.000000 0.657939 0.730179 -0.000000 0.683256 0.691063 -0.000000 0.722795 0.666936 -0.000000 0.745115 0.623490 -0.000000 0.781831 0.598472 -0.000000 0.801143 0.550897 -0.000000 0.834573 0.525325 -0.000000 0.850902 0.473869 -0.000000 0.880596 0.448067 -0.000000 0.894000 0.393025 -0.000000 0.919528 0.367302 -0.000000 0.930102 0.309017 -0.000000 0.951057 0.283662 -0.000000 0.958924 0.222521 -0.000000 0.974928 0.197802 -0.000000 0.980242 0.134233 -0.000000 0.990950 0.110394 -0.000000 0.993888 0.044865 -0.000000 0.998993 0.022122 -0.000000 0.999755 -0.044865 -0.000000 0.998993 -0.066323 -0.000000 0.997798 -0.134233 -0.000000 0.990950 -0.154249 -0.000000 0.988032 -0.222521 -0.000000 0.974928 -0.240968 -0.000000 0.970533 -0.309017 -0.000000 0.951057 -0.325801 -0.000000 0.945439 -0.393025 -0.000000 0.919528 -0.408084 -0.000000 0.912945 -0.473869 -0.000000 0.880596 -0.487173 -0.000000 0.873306 -0.550897 -0.000000 0.834573 -0.562449 -0.000000 0.826832 -0.623490 -0.000000 0.781831 -0.633324 -0.000000 0.773887 -0.691063 -0.000000 0.722795 -0.699242 -0.000000 0.714885 -0.753071 -0.000000 0.657939 -0.759687 -0.000000 0.650289 -0.809017 -0.000000 0.587785 -0.814187 -0.000000 0.580603 -0.858449 -0.000000 0.512899 -0.862315 -0.000000 0.506373 -0.900969 -0.000000 0.433884 -0.903693 -0.000000 0.428180 -0.936235 -0.000000 0.351375 -0.938000 -0.000000 0.346636 -0.963963 -0.000000 0.266037 -0.964965 -0.000000 0.262379 -0.983930 -0.000000 0.178557 -0.984378 -0.000000 0.176069 -0.995974 -0.000000 0.089639 -0.996087 0.000000 -0.088380 -1.000000 -0.000000 0.000000 -0.996087 -0.000000 0.088380 -0.984378 -0.000000 0.176069 -0.964965 -0.000000 0.262379 -0.938000 -0.000000 0.346636 -0.903693 -0.000000 0.428180 -0.862315 -0.000000 0.506373 -0.814187 -0.000000 0.580603 -0.759687 -0.000000 0.650289 -0.699242 -0.000000 0.714885 -0.633324 -0.000000 0.773887 -0.562449 -0.000000 0.826832 -0.487173 -0.000000 0.873306 -0.408084 -0.000000 0.912945 -0.325801 -0.000000 0.945439 -0.240968 -0.000000 0.970533 -0.154249 -0.000000 0.988032 -0.066323 -0.000000 0.997798 0.022122 -0.000000 0.999755 0.110394 -0.000000 0.993888 0.197802 -0.000000 0.980242 0.283662 -0.000000 0.958924 0.367302 -0.000000 0.930102 0.448067 -0.000000 0.894000 0.525325 -0.000000 0.850902 0.598472 -0.000000 0.801143 0.666936 -0.000000 0.745115 0.730179 -0.000000 0.683256 0.787708 -0.000000 0.616049 0.839072 -0.000000 0.544020 0.883869 -0.000000 0.467734 0.921749 -0.000000 0.387788 0.952415 -0.000000 0.304806 0.975626 -0.000000 0.219439 0.991203 -0.000000 0.132354 0.999021 -0.000000 0.044233 0.999021 -0.000000 -0.044233 0.991203 -0.000000 -0.132354 0.975626 -0.000000 -0.219439 0.952415 -0.000000 -0.304806 0.921749 -0.000000 -0.387788 0.883869 -0.000000 -0.467734 0.839072 -0.000000 -0.544020 0.787708 -0.000000 -0.616049 0.730179 -0.000000 -0.683256 0.666936 -0.000000 -0.745115 0.598472 -0.000000 -0.801143 0.525325 -0.000000 -0.850902 0.448067 -0.000000 -0.894000 0.367302 -0.000000 -0.930102 0.283662 -0.000000 -0.958924 0.197802 -0.000000 -0.980242 0.110394 -0.000000 -0.993888 0.022122 -0.000000 -0.999755 -0.066323 0.000000 -0.997798 -0.154249 0.000000 -0.988032 -0.240968 0.000000 -0.970533 -0.325801 0.000000 -0.945439 -0.408084 0.000000 -0.912945 -0.487173 0.000000 -0.873306 -0.562449 0.000000 -0.826832 -0.633324 0.000000 -0.773887 -0.699242 0.000000 -0.714885 -0.759687 0.000000 -0.650289 -0.814187 0.000000 -0.580603 -0.862315 0.000000 -0.506373 -0.903693 0.000000 -0.428180 -0.938000 0.000000 -0.346636 -0.964965 0.000000 -0.262379 -0.984378 0.000000 -0.176069 0.000000 1.000000 0.000000 0.000000 1.000000 0.000000 0.000000 1.000000 0.000000 0.000000 1.000000 0.000000 0.000000 1.000000 0.000000 0.000000 1.000000 0.000000 0.000000 1.000000 0.000000 0.000000 1.000000 0.000000 0.000000 1.000000 0.000000 0.000000 1.000000 0.000000 0.000000 1.000000 0.000000 0.000000 1.000000 0.000000 0.000000 1.000000 0.000000 0.000000 1.000000 0.000000 0.000000 1.000000 0.000000 0.000000 1.000000 0.000000 0.000000 1.000000 0.000000 0.000000 1.000000 0.000000 0.000000 1.000000 0.000000 0.000000 1.000000 0.000000 0.000000 1.000000 0.000000 0.000000 1.000000 0.000000 0.000000 1.000000 0.000000 0.000000 1.000000 0.000000 0.000000 1.000000 0.000000 0.000000 1.000000 0.000000 0.000000 1.000000 0.000000 0.000000 1.000000 0.000000 0.000000 1.000000 0.000000 0.000000 1.000000 0.000000 0.000000 1.000000 0.000000 0.000000 1.000000 0.000000 0.000000 1.000000 0.000000 0.000000 1.000000 0.000000 0.000000 1.000000 0.000000 0.000000 1.000000 0.000000 0.000000 1.000000 0.000000 0.000000 1.000000 0.000000 0.000000 1.000000 0.000000 0.000000 1.000000 0.000000 0.000000 1.000000 0.000000 0.000000 1.000000 0.000000 0.000000 1.000000 0.000000 0.000000 1.000000 0.000000 0.000000 1.000000 0.000000 0.000000 1.000000 0.000000 0.000000 1.000000 0.000000 0.000000 1.000000 0.000000 0.000000 1.000000 0.000000 0.000000 1.000000 0.000000 0.000000 1.000000 0.000000 0.000000 1.000000 0.000000 0.000000 1.000000 0.000000 0.000000 1.000000 0.000000 0.000000 1.000000 0.000000 0.000000 1.000000 0.000000 0.000000 1.000000 0.000000 0.000000 1.000000 0.000000 0.000000 1.000000 0.000000 0.000000 1.000000 0.000000 0.000000 1.000000 0.000000 0.000000 1.000000 0.000000 0.000000 1.000000 0.000000 0.000000 1.000000 0.000000 0.000000 1.000000 0.000000 0.000000 1.000000 0.000000 0.000000 1.000000 0.000000 0.000000 1.000000 0.000000 0.000000 1.000000 0.000000 0.000000 1.000000 0.000000 0.000000 1.000000 0.000000 0.997066 -0.000000 -0.076549 0.997066 -0.000000 -0.076549 0.988280 -0.000000 -0.152649 0.988280 -0.000000 -0.152649 0.973695 -0.000000 -0.227854 0.973695 -0.000000 -0.227854 0.953396 -0.000000 -0.301721 0.953396 -0.000000 -0.301721 0.927502 -0.000000 -0.373817 0.927502 -0.000000 -0.373817 0.896166 -0.000000 -0.443720 0.896166 -0.000000 -0.443720 0.859570 -0.000000 -0.511019 0.859570 -0.000000 -0.511019 0.817929 -0.000000 -0.575319 0.817929 -0.000000 -0.575319 0.771489 -0.000000 -0.636242 0.771489 -0.000000 -0.636242 0.720522 -0.000000 -0.693433 0.720522 -0.000000 -0.693433 0.665326 -0.000000 -0.746553 0.665326 -0.000000 -0.746553 0.606225 -0.000000 -0.795293 0.606225 -0.000000 -0.795293 0.543568 -0.000000 -0.839365 0.543568 -0.000000 -0.839365 0.477720 -0.000000 -0.878512 0.477720 -0.000000 -0.878512 0.409069 -0.000000 -0.912504 0.409069 -0.000000 -0.912504 0.338017 -0.000000 -0.941140 0.338017 -0.000000 -0.941140 0.264982 -0.000000 -0.964253 0.264982 -0.000000 -0.964253 0.190391 -0.000000 -0.981708 0.190391 -0.000000 -0.981708 0.114683 -0.000000 -0.993402 0.114683 -0.000000 -0.993402 0.038303 -0.000000 -0.999266 0.038303 -0.000000 -0.999266 -0.038303 0.000000 -0.999266 -0.038303 0.000000 -0.999266 -0.114683 0.000000 -0.993402 -0.114683 0.000000 -0.993402 -0.190391 0.000000 -0.981708 -0.190391 0.000000 -0.981708 -0.264982 0.000000 -0.964253 -0.264982 0.000000 -0.964253 -0.338017 0.000000 -0.941140 -0.338017 0.000000 -0.941140 -0.409069 0.000000 -0.912504 -0.409069 0.000000 -0.912504 -0.477720 0.000000 -0.878512 -0.477720 0.000000 -0.878512 -0.543568 0.000000 -0.839365 -0.543568 0.000000 -0.839365 -0.606225 0.000000 -0.795293 -0.606225 0.000000 -0.795293 -0.665326 0.000000 -0.746553 -0.665326 0.000000 -0.746553 -0.720522 0.000000 -0.693433 -0.720522 0.000000 -0.693433 -0.771489 0.000000 -0.636242 -0.771489 0.000000 -0.636242 -0.817929 0.000000 -0.575319 -0.817929 0.000000 -0.575319 -0.859570 0.000000 -0.511019 -0.859570 0.000000 -0.511019 -0.896166 0.000000 -0.443720 -0.896166 0.000000 -0.443720 -0.927502 0.000000 -0.373817 -0.927502 0.000000 -0.373817 -0.953396 0.000000 -0.301721 -0.953396 0.000000 -0.301721 -0.973695 0.000000 -0.227854 -0.973695 0.000000 -0.227854 -0.988280 0.000000 -0.152649 -0.988280 0.000000 -0.152649 -0.997066 0.000000 -0.076549 -0.997066 0.000000 -0.076549 -1.000000 0.000000 -0.000000 -1.000000 0.000000 -0.000000 -1.000000 0.000000 0.000000 -1.000000 0.000000 0.000000 -0.000000 -1.000000 -0.000000 -0.000000 -1.000000 -0.000000 -0.000000 -1.000000 -0.000000 -0.000000 -1.000000 -0.000000 -0.000000 -1.000000 -0.000000 -0.000000 -1.000000 -0.000000 -0.000000 -1.000000 -0.000000 -0.000000 -1.000000 -0.000000 -0.000000 -1.000000 -0.000000 -0.000000 -1.000000 -0.000000 -0.000000 -1.000000 -0.000000 -0.000000 -1.000000 -0.000000 -0.000000 -1.000000 -0.000000 -0.000000 -1.000000 -0.000000 -0.000000 -1.000000 -0.000000 -0.000000 -1.000000 -0.000000 -0.000000 -1.000000 -0.000000 -0.000000 -1.000000 -0.000000 -0.000000 -1.000000 -0.000000 -0.000000 -1.000000 -0.000000 -0.000000 -1.000000 -0.000000 -0.000000 -1.000000 -0.000000 -0.000000 -1.000000 -0.000000 -0.000000 -1.000000 -0.000000 -0.000000 -1.000000 -0.000000 -0.000000 -1.000000 -0.000000 -0.000000 -1.000000 -0.000000 -0.000000 -1.000000 -0.000000 -0.000000 -1.000000 -0.000000 -0.000000 -1.000000 -0.000000 -0.000000 -1.000000 -0.000000 -0.000000 -1.000000 -0.000000 -0.000000 -1.000000 -0.000000 -0.000000 -1.000000 -0.000000 -0.000000 -1.000000 -0.000000 -0.000000 -1.000000 -0.000000 -0.000000 -1.000000 -0.000000 -0.000000 -1.000000 -0.000000 -0.000000 -1.000000 -0.000000 -0.000000 -1.000000 -0.000000 -0.000000 -1.000000 -0.000000 -0.000000 -1.000000 -0.000000 -0.000000 -1.000000 -0.000000 -0.000000 -1.000000 -0.000000</float_array>
          <technique_common>
            <accessor source="#mat_4th_link-mesh-normals-array" count="534" stride="3">
              <param name="X" type="float"/>
              <param name="Y" type="float"/>
              <param name="Z" type="float"/>
            </accessor>
          </technique_common>
        </source>
        <vertices id="mat_4th_link-mesh-vertices">
          <input semantic="POSITION" source="#mat_4th_link-mesh-positions"/>
        </vertices>
        <triangles material="Default" count="596">
          <input semantic="VERTEX" source="#mat_4th_link-mesh-vertices" offset="0"/>
          <input semantic="NORMAL" source="#mat_4th_link-mesh-normals" offset="1"/>
          <p>0 0 1 1 3 2 3 2 1 1 2 3 5 4 115 5 4 6 4 6 115 5 116 7 4 6 116 7 74 8 74 8 116 7 73 9 73 9 116 7 72 10 72 10 116 7 71 11 71 11 116 7 70 12 70 12 116 7 69 13 69 13 116 7 3 14 69 13 3 14 68 15 68 15 3 14 67 16 67 16 3 14 66 17 66 17 3 14 65 18 65 18 3 14 64 19 64 19 3 14 63 20 63 20 3 14 62 21 62 21 3 14 61 22 61 22 3 14 60 23 60 23 3 14 59 24 59 24 3 14 58 25 58 25 3 14 57 26 57 26 3 14 2 27 57 26 2 27 56 28 56 28 2 27 55 29 55 29 2 27 54 30 54 30 2 27 53 31 53 31 2 27 52 32 52 32 2 27 51 33 51 33 2 27 50 34 50 34 2 27 49 35 49 35 2 27 48 36 48 36 2 27 47 37 47 37 2 27 46 38 46 38 2 27 45 39 45 39 2 27 75 40 45 39 75 40 44 41 44 41 75 40 43 42 43 42 75 40 42 43 42 43 75 40 41 44 41 44 75 40 40 45 40 45 75 40 39 46 39 46 75 40 76 47 39 46 76 47 77 48 6 49 113 50 5 4 5 4 113 50 114 51 5 4 114 51 115 5 7 52 111 53 6 49 6 49 111 53 112 54 6 49 112 54 113 50 111 53 7 52 110 55 110 55 7 52 8 56 110 55 8 56 109 57 109 57 8 56 9 58 109 57 9 58 108 59 108 59 9 58 10 60 108 59 10 60 107 61 107 61 10 60 106 62 106 62 10 60 11 63 106 62 11 63 105 64 105 64 11 63 12 65 105 64 12 65 104 66 104 66 12 65 13 67 104 66 13 67 103 68 103 68 13 67 14 69 103 68 14 69 102 70 102 70 14 69 15 71 102 70 15 71 101 72 101 72 15 71 16 73 101 72 16 73 17 74 101 72 17 74 100 75 100 75 17 74 18 76 100 75 18 76 99 77 99 77 18 76 19 78 99 77 19 78 98 79 98 79 19 78 20 80 98 79 20 80 97 81 97 81 20 80 21 82 97 81 21 82 96 83 96 83 21 82 22 84 96 83 22 84 95 85 95 85 22 84 23 86 95 85 23 86 94 87 94 87 23 86 24 88 94 87 24 88 93 89 93 89 24 88 25 90 93 89 25 90 92 91 92 91 25 90 26 92 92 91 26 92 91 93 91 93 26 92 27 94 91 93 27 94 90 95 90 95 27 94 28 96 90 95 28 96 89 97 89 97 28 96 29 98 89 97 29 98 88 99 88 99 29 98 30 100 88 99 30 100 87 101 87 101 30 100 31 102 87 101 31 102 86 103 86 103 31 102 32 104 86 103 32 104 85 105 85 105 32 104 33 106 85 105 33 106 84 107 84 107 33 106 34 108 84 107 34 108 83 109 83 109 34 108 35 110 83 109 35 110 82 111 82 111 35 110 36 112 82 111 36 112 81 113 81 113 36 112 80 114 80 114 36 112 37 115 80 114 37 115 79 116 79 116 37 115 38 117 79 116 38 117 78 118 78 118 38 117 77 48 77 48 38 117 39 46 1 119 117 120 2 121 2 121 117 120 75 122 188 123 118 124 189 125 189 125 118 124 119 126 189 125 119 126 190 127 190 127 119 126 120 128 190 127 120 128 191 129 191 129 120 128 121 130 191 129 121 130 192 131 192 131 121 130 122 132 192 131 122 132 193 133 193 133 122 132 123 134 193 133 123 134 194 135 194 135 123 134 124 136 194 135 124 136 195 137 195 137 124 136 125 138 195 137 125 138 196 139 196 139 125 138 126 140 196 139 126 140 197 141 197 141 126 140 127 142 197 141 127 142 198 143 198 143 127 142 128 144 198 143 128 144 199 145 199 145 128 144 129 146 199 145 129 146 200 147 200 147 129 146 130 148 200 147 130 148 201 149 201 149 130 148 131 150 201 149 131 150 202 151 202 151 131 150 132 152 202 151 132 152 203 153 203 153 132 152 133 154 203 153 133 154 204 155 204 155 133 154 134 156 204 155 134 156 205 157 205 157 134 156 135 158 205 157 135 158 206 159 206 159 135 158 136 160 206 159 136 160 207 161 207 161 136 160 137 162 207 161 137 162 208 163 208 163 137 162 138 164 208 163 138 164 209 165 209 165 138 164 139 166 209 165 139 166 210 167 210 167 139 166 140 168 210 167 140 168 211 169 211 169 140 168 141 170 211 169 141 170 212 171 212 171 141 170 142 172 212 171 142 172 213 173 213 173 142 172 143 174 213 173 143 174 214 175 214 175 143 174 144 176 214 175 144 176 215 177 215 177 144 176 145 178 215 177 145 178 216 179 216 179 145 178 146 180 216 179 146 180 217 181 217 181 146 180 147 182 217 181 147 182 218 183 218 183 147 182 148 184 218 183 148 184 219 185 219 185 148 184 149 186 219 185 149 186 220 187 220 187 149 186 150 188 220 187 150 188 221 189 221 189 150 188 151 190 221 189 151 190 222 191 222 191 151 190 152 192 222 191 152 192 223 193 223 193 152 192 153 194 223 193 153 194 224 195 224 195 153 194 154 196 224 195 154 196 225 197 225 197 154 196 155 198 225 197 155 198 226 199 226 199 155 198 156 200 226 199 156 200 227 201 227 201 156 200 157 202 227 201 157 202 228 203 228 203 157 202 158 204 228 203 158 204 229 205 229 205 158 204 159 206 229 205 159 206 230 207 230 207 159 206 160 208 230 207 160 208 231 209 231 209 160 208 161 210 231 209 161 210 232 211 232 211 161 210 162 212 232 211 162 212 233 213 233 213 162 212 163 214 233 213 163 214 234 215 234 215 163 214 164 216 234 215 164 216 235 217 235 217 164 216 165 218 235 217 165 218 236 219 236 219 165 218 166 220 236 219 166 220 237 221 237 221 166 220 167 222 237 221 167 222 238 223 238 223 167 222 168 224 238 223 168 224 239 225 239 225 168 224 169 226 239 225 169 226 240 227 240 227 169 226 170 228 240 227 170 228 241 229 241 229 170 228 171 230 241 229 171 230 242 231 242 231 171 230 172 232 242 231 172 232 243 233 243 233 172 232 173 234 243 233 173 234 244 235 244 235 173 234 174 236 244 235 174 236 245 237 245 237 174 236 175 238 245 237 175 238 246 239 246 239 175 238 176 240 246 239 176 240 247 241 247 241 176 240 177 242 247 241 177 242 248 243 248 243 177 242 178 244 248 243 178 244 249 245 249 245 178 244 179 246 249 245 179 246 250 247 250 247 179 246 180 248 250 247 180 248 251 249 251 249 180 248 181 250 251 249 181 250 252 251 252 251 181 250 182 252 252 251 182 252 253 253 253 253 182 252 183 254 253 253 183 254 254 255 254 255 183 254 184 256 254 255 184 256 255 257 255 257 184 256 185 258 255 257 185 258 256 259 256 259 185 258 186 260 256 259 186 260 257 261 257 261 186 260 187 262 257 261 187 262 258 263 258 263 187 262 188 123 258 263 188 123 189 125 5 264 4 265 189 125 189 125 4 265 74 266 189 125 74 266 258 263 258 263 74 266 73 267 258 263 73 267 257 261 257 261 73 267 72 268 257 261 72 268 256 259 256 259 72 268 71 269 256 259 71 269 255 257 255 257 71 269 70 270 255 257 70 270 254 255 254 255 70 270 69 271 254 255 69 271 253 253 253 253 69 271 68 272 253 253 68 272 252 251 252 251 68 272 67 273 252 251 67 273 251 249 251 249 67 273 66 274 251 249 66 274 250 247 250 247 66 274 65 275 250 247 65 275 249 245 249 245 65 275 64 276 249 245 64 276 248 243 248 243 64 276 63 277 248 243 63 277 247 241 247 241 63 277 62 278 247 241 62 278 246 239 246 239 62 278 61 279 246 239 61 279 245 237 245 237 61 279 60 280 245 237 60 280 244 235 244 235 60 280 59 281 244 235 59 281 243 233 243 233 59 281 58 282 243 233 58 282 242 231 242 231 58 282 57 283 242 231 57 283 241 229 241 229 57 283 56 284 241 229 56 284 240 227 240 227 56 284 55 285 240 227 55 285 239 225 239 225 55 285 54 286 239 225 54 286 238 223 238 223 54 286 53 287 238 223 53 287 237 221 237 221 53 287 52 288 237 221 52 288 236 219 236 219 52 288 51 289 236 219 51 289 235 217 235 217 51 289 50 290 235 217 50 290 234 215 234 215 50 290 49 291 234 215 49 291 233 213 233 213 49 291 48 292 233 213 48 292 232 211 232 211 48 292 47 293 232 211 47 293 231 209 231 209 47 293 46 294 231 209 46 294 230 207 230 207 46 294 45 295 230 207 45 295 229 205 229 205 45 295 44 296 229 205 44 296 228 203 228 203 44 296 43 297 228 203 43 297 227 201 227 201 43 297 42 298 227 201 42 298 226 199 226 199 42 298 41 299 226 199 41 299 225 197 225 197 41 299 40 300 225 197 40 300 224 195 224 195 40 300 39 301 224 195 39 301 223 193 223 193 39 301 38 302 223 193 38 302 222 191 222 191 38 302 37 303 222 191 37 303 221 189 221 189 37 303 36 304 221 189 36 304 220 187 220 187 36 304 35 305 220 187 35 305 219 185 219 185 35 305 34 306 219 185 34 306 218 183 218 183 34 306 33 307 218 183 33 307 217 181 217 181 33 307 32 308 217 181 32 308 216 179 216 179 32 308 31 309 216 179 31 309 215 177 215 177 31 309 30 310 215 177 30 310 214 175 214 175 30 310 29 311 214 175 29 311 213 173 213 173 29 311 28 312 213 173 28 312 212 171 212 171 28 312 27 313 212 171 27 313 211 169 211 169 27 313 26 314 211 169 26 314 210 167 210 167 26 314 25 315 210 167 25 315 209 165 209 165 25 315 24 316 209 165 24 316 208 163 208 163 24 316 23 317 208 163 23 317 207 161 207 161 23 317 22 318 207 161 22 318 206 159 206 159 22 318 21 319 206 159 21 319 205 157 205 157 21 319 20 320 205 157 20 320 204 155 204 155 20 320 19 321 204 155 19 321 203 153 203 153 19 321 18 322 203 153 18 322 202 151 202 151 18 322 17 323 202 151 17 323 201 149 201 149 17 323 16 324 201 149 16 324 200 147 200 147 16 324 15 325 200 147 15 325 199 145 199 145 15 325 14 326 199 145 14 326 198 143 198 143 14 326 13 327 198 143 13 327 197 141 197 141 13 327 12 328 197 141 12 328 196 139 196 139 12 328 11 329 196 139 11 329 195 137 195 137 11 329 10 330 195 137 10 330 194 135 194 135 10 330 9 331 194 135 9 331 193 133 193 133 9 331 8 332 193 133 8 332 192 131 192 131 8 332 7 333 192 131 7 333 191 129 191 129 7 333 6 334 191 129 6 334 190 127 190 127 6 334 5 264 190 127 5 264 189 125 118 335 188 336 119 337 119 337 188 336 120 338 120 338 188 336 187 339 120 338 187 339 121 340 121 340 187 339 186 341 121 340 186 341 122 342 122 342 186 341 185 343 122 342 185 343 123 344 123 344 185 343 184 345 123 344 184 345 124 346 124 346 184 345 183 347 124 346 183 347 125 348 125 348 183 347 182 349 125 348 182 349 126 350 126 350 182 349 181 351 126 350 181 351 127 352 127 352 181 351 180 353 127 352 180 353 128 354 128 354 180 353 179 355 128 354 179 355 129 356 129 356 179 355 178 357 129 356 178 357 130 358 130 358 178 357 177 359 130 358 177 359 131 360 131 360 177 359 176 361 131 360 176 361 132 362 132 362 176 361 175 363 132 362 175 363 133 364 133 364 175 363 174 365 133 364 174 365 134 366 134 366 174 365 173 367 134 366 173 367 135 368 135 368 173 367 172 369 135 368 172 369 136 370 136 370 172 369 171 371 136 370 171 371 137 372 137 372 171 371 170 373 137 372 170 373 138 374 138 374 170 373 169 375 138 374 169 375 139 376 139 376 169 375 168 377 139 376 168 377 140 378 140 378 168 377 167 379 140 378 167 379 141 380 141 380 167 379 166 381 141 380 166 381 142 382 142 382 166 381 165 383 142 382 165 383 143 384 143 384 165 383 164 385 143 384 164 385 144 386 144 386 164 385 163 387 144 386 163 387 145 388 145 388 163 387 162 389 145 388 162 389 146 390 146 390 162 389 161 391 146 390 161 391 147 392 147 392 161 391 160 393 147 392 160 393 148 394 148 394 160 393 159 395 148 394 159 395 149 396 149 396 159 395 158 397 149 396 158 397 150 398 150 398 158 397 157 399 150 398 157 399 151 400 151 400 157 399 156 401 151 400 156 401 152 402 152 402 156 401 155 403 152 402 155 403 153 404 153 404 155 403 154 405 75 122 117 120 76 406 76 406 117 120 259 407 76 406 259 407 77 408 77 408 259 407 260 409 77 408 260 409 78 410 78 410 260 409 261 411 78 410 261 411 79 412 79 412 261 411 262 413 79 412 262 413 80 414 80 414 262 413 263 415 80 414 263 415 81 416 81 416 263 415 264 417 81 416 264 417 82 418 82 418 264 417 265 419 82 418 265 419 83 420 83 420 265 419 266 421 83 420 266 421 84 422 84 422 266 421 267 423 84 422 267 423 85 424 85 424 267 423 268 425 85 424 268 425 86 426 86 426 268 425 269 427 86 426 269 427 87 428 87 428 269 427 270 429 87 428 270 429 88 430 88 430 270 429 271 431 88 430 271 431 89 432 89 432 271 431 272 433 89 432 272 433 90 434 90 434 272 433 273 435 90 434 273 435 91 436 91 436 273 435 274 437 91 436 274 437 92 438 92 438 274 437 275 439 92 438 275 439 93 440 93 440 275 439 276 441 93 440 276 441 94 442 94 442 276 441 277 443 94 442 277 443 95 444 95 444 277 443 278 445 95 444 278 445 96 446 96 446 278 445 279 447 96 446 279 447 97 448 97 448 279 447 280 449 97 448 280 449 98 450 98 450 280 449 281 451 98 450 281 451 99 452 99 452 281 451 282 453 99 452 282 453 100 454 100 454 282 453 283 455 100 454 283 455 101 456 101 456 283 455 284 457 101 456 284 457 102 458 102 458 284 457 285 459 102 458 285 459 103 460 103 460 285 459 286 461 103 460 286 461 104 462 104 462 286 461 287 463 104 462 287 463 105 464 105 464 287 463 288 465 105 464 288 465 106 466 106 466 288 465 289 467 106 466 289 467 107 468 107 468 289 467 290 469 107 468 290 469 108 470 108 470 290 469 291 471 108 470 291 471 109 472 109 472 291 471 292 473 109 472 292 473 110 474 110 474 292 473 293 475 110 474 293 475 111 476 111 476 293 475 294 477 111 476 294 477 112 478 112 478 294 477 295 479 112 478 295 479 113 480 113 480 295 479 296 481 113 480 296 481 114 482 114 482 296 481 297 483 114 482 297 483 115 484 115 484 297 483 298 485 115 484 298 485 116 486 116 486 298 485 299 487 3 488 116 486 0 489 0 489 116 486 299 487 1 490 0 491 117 492 117 492 0 491 299 493 117 492 299 493 279 494 279 494 299 493 280 495 280 495 299 493 281 496 281 496 299 493 282 497 282 497 299 493 283 498 283 498 299 493 284 499 284 499 299 493 285 500 285 500 299 493 286 501 286 501 299 493 287 502 287 502 299 493 288 503 288 503 299 493 289 504 289 504 299 493 290 505 290 505 299 493 291 506 291 506 299 493 298 507 291 506 298 507 292 508 292 508 298 507 293 509 293 509 298 507 294 510 294 510 298 507 295 511 295 511 298 507 296 512 296 512 298 507 297 513 279 494 278 514 117 492 117 492 278 514 277 515 117 492 277 515 276 516 276 516 275 517 117 492 117 492 275 517 274 518 117 492 274 518 273 519 273 519 272 520 117 492 117 492 272 520 271 521 117 492 271 521 270 522 270 522 269 523 117 492 117 492 269 523 268 524 117 492 268 524 267 525 267 525 266 526 117 492 117 492 266 526 265 527 117 492 265 527 264 528 264 528 263 529 117 492 117 492 263 529 262 530 117 492 262 530 261 531 261 531 260 532 117 492 117 492 260 532 259 533</p>
        </triangles>
      </mesh>
    </geometry>
  </library_geometries>
  <library_visual_scenes>
    <visual_scene id="Scene" name="Scene">
      <node id="mat_4th_link-node" name="4th_link" type="NODE">
        <instance_geometry url="#mat_4th_link-mesh">
          <bind_material>
            <technique_common>
              <instance_material symbol="Default" target="#Default"/>
            </technique_common>
          </bind_material>
        </instance_geometry>
      </node>
    </visual_scene>
  </library_visual_scenes>
  <scene>
    <instance_visual_scene url="#Scene"/>
  </scene>
</COLLADA>
