<?xml version="1.0" encoding="utf-8"?>
<COLLADA xmlns="http://www.collada.org/2005/11/COLLADASchema" version="1.4.1">
  <asset>
    <contributor>
      <authoring_tool>Fusion URDF/XACRO Exporter</authoring_tool>
    </contributor>
    <created>2026-08-21T07:34:06Z</created>
    <modified>2026-08-21T07:34:06Z</modified>
    <unit name="meter" meter="1.0"/>
    <up_axis>Z_UP</up_axis>
  </asset>
  <library_effects>
    <effect id="Default-effect">
      <profile_COMMON>
        <technique sid="common">
          <lambert>
            <emission><color>0 0 0 1</color></emission>
            <ambient><color>0.0000 0.0000 0.0000 1</color></ambient>
            <diffuse><color>0.7490 0.7490 0.7490 1</color></diffuse>
            <reflective><color>0 0 0 1</color></reflective>
            <transparent opaque="A_ONE"><color>1 1 1 1</color></transparent>
            <transparency><float>1</float></transparency>
          </lambert>
        </technique>
      </profile_COMMON>
    </effect>
  </library_effects>
  <library_materials>
    <material id="Default" name="Default">
      <instance_effect url="#Default-effect"/>
    </material>
  </library_materials>
  <library_geometries>
    <geometry id="mat_5th_link-mesh" name="5th_link">
      <mesh>
        <source id="mat_5th_link-mesh-positions">
          <float_array id="mat_5th_link-mesh-positions-array" count="1095">0.012500 0.055000 0.100000 0.012378 0.055000 0.098260 0.012016 0.055000 0.096555 0.011419 0.055000 0.094916 0.010601 0.055000 0.093376 0.009576 0.055000 0.091965 0.008364 0.055000 0.090711 0.006990 0.055000 0.089637 0.005480 0.055000 0.088765 0.003863 0.055000 0.088112 0.002171 0.055000 0.087690 0.000436 0.055000 0.087508 -0.001307 0.055000 0.087568 -0.003024 0.055000 0.087871 -0.004683 0.055000 0.088410 -0.006250 0.055000 0.089175 -0.007696 0.055000 0.090150 -0.008992 0.055000 0.091317 -0.010113 0.055000 0.092653 -0.011037 0.055000 0.094132 -0.011746 0.055000 0.095725 -0.012227 0.055000 0.097401 -0.012470 0.055000 0.099128 -0.012470 0.055000 0.100872 -0.012227 0.055000 0.102599 -0.011746 0.055000 0.104275 -0.011037 0.055000 0.105868 -0.010113 0.055000 0.107347 -0.008992 0.055000 0.108683 -0.007696 0.055000 0.109850 -0.006250 0.055000 0.110825 -0.004683 0.055000 0.111590 -0.003024 0.055000 0.112129 -0.001307 0.055000 0.112432 0.000436 0.055000 0.112492 0.002171 0.055000 0.112310 0.003863 0.055000 0.111888 0.005480 0.055000 0.111235 0.006990 0.055000 0.110363 0.008364 0.055000 0.109289 0.009576 0.055000 0.108035 0.010601 0.055000 0.106624 0.011419 0.055000 0.105084 0.012016 0.055000 0.103445 0.012378 0.055000 0.101740 0.012500 0.105000 0.100000 0.012378 0.105000 0.101740 0.012016 0.105000 0.103445 0.011419 0.105000 0.105084 0.010601 0.105000 0.106624 0.009576 0.105000 0.108035 0.008364 0.105000 0.109289 0.006990 0.105000 0.110363 0.005480 0.105000 0.111235 0.003863 0.105000 0.111888 0.002171 0.105000 0.112310 0.000436 0.105000 0.112492 -0.001307 0.105000 0.112432 -0.003024 0.105000 0.112129 -0.004683 0.105000 0.111590 -0.006250 0.105000 0.110825 -0.007696 0.105000 0.109850 -0.008992 0.105000 0.108683 -0.010113 0.105000 0.107347 -0.011037 0.105000 0.105868 -0.011746 0.105000 0.104275 -0.012227 0.105000 0.102599 -0.012470 0.105000 0.100872 -0.012470 0.105000 0.099128 -0.012227 0.105000 0.097401 -0.011746 0.105000 0.095725 -0.011037 0.105000 0.094132 -0.010113 0.105000 0.092653 -0.008992 0.105000 0.091317 -0.007696 0.105000 0.090150 -0.006250 0.105000 0.089175 -0.004683 0.105000 0.088410 -0.003024 0.105000 0.087871 -0.001307 0.105000 0.087568 0.000436 0.105000 0.087508 0.002171 0.105000 0.087690 0.003863 0.105000 0.088112 0.005480 0.105000 0.088765 0.006990 0.105000 0.089637 0.008364 0.105000 0.090711 0.009576 0.105000 0.091965 0.010601 0.105000 0.093376 0.011419 0.105000 0.094916 0.012016 0.105000 0.096555 0.012378 0.105000 0.098260 0.012500 0.080000 0.100000 0.012378 0.080000 0.098260 0.012016 0.080000 0.096555 0.011419 0.080000 0.094916 0.010601 0.080000 0.093376 0.009576 0.080000 0.091965 0.008364 0.080000 0.090711 0.006990 0.080000 0.089637 0.005480 0.080000 0.088765 0.003863 0.080000 0.088112 0.002171 0.080000 0.087690 0.000436 0.080000 0.087508 -0.001307 0.080000 0.087568 -0.003024 0.080000 0.087871 -0.004683 0.080000 0.088410 -0.006250 0.080000 0.089175 -0.007696 0.080000 0.090150 -0.008992 0.080000 0.091317 -0.010113 0.080000 0.092653 -0.011037 0.080000 0.094132 -0.011746 0.080000 0.095725 -0.012227 0.080000 0.097401 -0.012470 0.080000 0.099128 -0.012470 0.080000 0.100872 -0.012227 0.080000 0.102599 -0.011746 0.080000 0.104275 -0.011037 0.080000 0.105868 -0.010113 0.080000 0.107347 -0.008992 0.080000 0.108683 -0.007696 0.080000 0.109850 -0.006250 0.080000 0.110825 -0.004683 0.080000 0.111590 -0.003024 0.080000 0.112129 -0.001307 0.080000 0.112432 0.000436 0.080000 0.112492 0.002171 0.080000 0.112310 0.003863 0.080000 0.111888 0.005480 0.080000 0.111235 0.006990 0.080000 0.110363 0.008364 0.080000 0.109289 0.009576 0.080000 0.108035 0.010601 0.080000 0.106624 0.011419 0.080000 0.105084 0.012016 0.080000 0.103445 0.012378 0.080000 0.101740 0.030000 0.055000 0.100000 0.029879 0.055000 0.097311 0.029518 0.055000 0.094643 0.028919 0.055000 0.092019 0.028087 0.055000 0.089459 0.027029 0.055000 0.086983 0.025753 0.055000 0.084613 0.024271 0.055000 0.082366 0.022592 0.055000 0.080262 0.020732 0.055000 0.078316 0.018705 0.055000 0.076545 0.016527 0.055000 0.074963 0.014216 0.055000 0.073582 0.011791 0.055000 0.072414 0.009271 0.055000 0.071468 0.006676 0.055000 0.070752 0.004027 0.055000 0.070272 0.001346 0.055000 0.070030 -0.001346 0.055000 0.070030 -0.004027 0.055000 0.070272 -0.006676 0.055000 0.070752 -0.009271 0.055000 0.071468 -0.011791 0.055000 0.072414 -0.014216 0.055000 0.073582 -0.016527 0.055000 0.074963 -0.018705 0.055000 0.076545 -0.020732 0.055000 0.078316 -0.022592 0.055000 0.080262 -0.024271 0.055000 0.082366 -0.025753 0.055000 0.084613 -0.027029 0.055000 0.086983 -0.028087 0.055000 0.089459 -0.028919 0.055000 0.092019 -0.029518 0.055000 0.094643 -0.029879 0.055000 0.097311 -0.030000 0.055000 0.100000 -0.029879 0.055000 0.102689 -0.029518 0.055000 0.105357 -0.028919 0.055000 0.107981 -0.028087 0.055000 0.110541 -0.027029 0.055000 0.113017 -0.025753 0.055000 0.115387 -0.024271 0.055000 0.117634 -0.022592 0.055000 0.119738 -0.020732 0.055000 0.121684 -0.018705 0.055000 0.123455 -0.016527 0.055000 0.125037 -0.014216 0.055000 0.126418 -0.011791 0.055000 0.127586 -0.009271 0.055000 0.128532 -0.006676 0.055000 0.129248 -0.004027 0.055000 0.129728 -0.001346 0.055000 0.129970 0.001346 0.055000 0.129970 0.004027 0.055000 0.129728 0.006676 0.055000 0.129248 0.009271 0.055000 0.128532 0.011791 0.055000 0.127586 0.014216 0.055000 0.126418 0.016527 0.055000 0.125037 0.018705 0.055000 0.123455 0.020732 0.055000 0.121684 0.022592 0.055000 0.119738 0.024271 0.055000 0.117634 0.025753 0.055000 0.115387 0.027029 0.055000 0.113017 0.028087 0.055000 0.110541 0.028919 0.055000 0.107981 0.029518 0.055000 0.105357 0.029879 0.055000 0.102689 -0.040000 0.005000 0.005000 0.040000 0.005000 0.005000 0.040000 0.110000 0.005000 -0.040000 0.110000 0.005000 0.040000 0.110000 -0.000000 -0.040000 0.110000 -0.000000 -0.030000 0.005000 0.100000 -0.029879 0.005000 0.102689 -0.029518 0.005000 0.105357 -0.028919 0.005000 0.107981 -0.028087 0.005000 0.110541 -0.027029 0.005000 0.113017 -0.025753 0.005000 0.115387 -0.024271 0.005000 0.117634 -0.022592 0.005000 0.119738 -0.020732 0.005000 0.121684 -0.018705 0.005000 0.123455 -0.016527 0.005000 0.125037 -0.014216 0.005000 0.126418 -0.011791 0.005000 0.127586 -0.009271 0.005000 0.128532 -0.006676 0.005000 0.129248 -0.004027 0.005000 0.129728 -0.001346 0.005000 0.129970 0.001346 0.005000 0.129970 0.004027 0.005000 0.129728 0.006676 0.005000 0.129248 0.009271 0.005000 0.128532 0.011791 0.005000 0.127586 0.014216 0.005000 0.126418 0.016527 0.005000 0.125037 0.018705 0.005000 0.123455 0.020732 0.005000 0.121684 0.022592 0.005000 0.119738 0.024271 0.005000 0.117634 0.025753 0.005000 0.115387 0.027029 0.005000 0.113017 0.028087 0.005000 0.110541 0.028919 0.005000 0.107981 0.029518 0.005000 0.105357 0.029879 0.005000 0.102689 0.030000 0.005000 0.100000 0.029879 0.005000 0.097311 0.029518 0.005000 0.094643 0.028919 0.005000 0.092019 0.028087 0.005000 0.089459 0.027029 0.005000 0.086983 0.025753 0.005000 0.084613 0.024271 0.005000 0.082366 0.022592 0.005000 0.080262 0.020732 0.005000 0.078316 0.018705 0.005000 0.076545 0.016527 0.005000 0.074963 0.014216 0.005000 0.073582 0.011791 0.005000 0.072414 0.009271 0.005000 0.071468 0.006676 0.005000 0.070752 0.004027 0.005000 0.070272 0.001346 0.005000 0.070030 -0.001346 0.005000 0.070030 -0.004027 0.005000 0.070272 -0.006676 0.005000 0.070752 -0.009271 0.005000 0.071468 -0.011791 0.005000 0.072414 -0.014216 0.005000 0.073582 -0.016527 0.005000 0.074963 -0.018705 0.005000 0.076545 -0.020732 0.005000 0.078316 -0.022592 0.005000 0.080262 -0.024271 0.005000 0.082366 -0.025753 0.005000 0.084613 -0.027029 0.005000 0.086983 -0.028087 0.005000 0.089459 -0.028919 0.005000 0.092019 -0.029518 0.005000 0.094643 -0.029879 0.005000 0.097311 0.040000 0.000000 -0.000000 -0.040000 0.000000 -0.000000 0.040000 0.000000 0.100000 0.040000 0.005000 0.100000 -0.040000 0.000000 0.100000 -0.039877 0.000000 0.103138 -0.039508 0.000000 0.106257 -0.038895 0.000000 0.109338 -0.038042 0.000000 0.112361 -0.036955 0.000000 0.115307 -0.035640 0.000000 0.118160 -0.034106 0.000000 0.120900 -0.032361 0.000000 0.123511 -0.030416 0.000000 0.125978 -0.028284 0.000000 0.128284 -0.025978 0.000000 0.130416 -0.023511 0.000000 0.132361 -0.020900 0.000000 0.134106 -0.018160 0.000000 0.135640 -0.015307 0.000000 0.136955 -0.012361 0.000000 0.138042 -0.009338 0.000000 0.138895 -0.006257 0.000000 0.139508 -0.003138 0.000000 0.139877 -0.000000 0.000000 0.140000 0.003138 0.000000 0.139877 0.006257 0.000000 0.139508 0.009338 0.000000 0.138895 0.012361 0.000000 0.138042 0.015307 0.000000 0.136955 0.018160 0.000000 0.135640 0.020900 0.000000 0.134106 0.023511 0.000000 0.132361 0.025978 0.000000 0.130416 0.028284 0.000000 0.128284 0.030416 0.000000 0.125978 0.032361 0.000000 0.123511 0.034106 0.000000 0.120900 0.035640 0.000000 0.118160 0.036955 0.000000 0.115307 0.038042 0.000000 0.112361 0.038895 0.000000 0.109338 0.039508 0.000000 0.106257 0.039877 0.000000 0.103138 0.039877 0.005000 0.103138 0.039508 0.005000 0.106257 0.038895 0.005000 0.109338 0.038042 0.005000 0.112361 0.036955 0.005000 0.115307 0.035640 0.005000 0.118160 0.034106 0.005000 0.120900 0.032361 0.005000 0.123511 0.030416 0.005000 0.125978 0.028284 0.005000 0.128284 0.025978 0.005000 0.130416 0.023511 0.005000 0.132361 0.020900 0.005000 0.134106 0.018160 0.005000 0.135640 0.015307 0.005000 0.136955 0.012361 0.005000 0.138042 0.009338 0.005000 0.138895 0.006257 0.005000 0.139508 0.003138 0.005000 0.139877 -0.000000 0.005000 0.140000 -0.003138 0.005000 0.139877 -0.006257 0.005000 0.139508 -0.009338 0.005000 0.138895 -0.012361 0.005000 0.138042 -0.015307 0.005000 0.136955 -0.018160 0.005000 0.135640 -0.020900 0.005000 0.134106 -0.023511 0.005000 0.132361 -0.025978 0.005000 0.130416 -0.028284 0.005000 0.128284 -0.030416 0.005000 0.125978 -0.032361 0.005000 0.123511 -0.034106 0.005000 0.120900 -0.035640 0.005000 0.118160 -0.036955 0.005000 0.115307 -0.038042 0.005000 0.112361 -0.038895 0.005000 0.109338 -0.039508 0.005000 0.106257 -0.039877 0.005000 0.103138 -0.040000 0.005000 0.100000</float_array>
          <technique_common>
            <accessor source="#mat_5th_link-mesh-positions-array" count="365" stride="3">
              <param name="X" type="float"/>
              <param name="Y" type="float"/>
              <param name="Z" type="float"/>
            </accessor>
          </technique_common>
        </source>
        <source id="mat_5th_link-mesh-normals">
          <float_array id="mat_5th_link-mesh-normals-array" count="2079">0.990268 -0.000000 -0.139173 0.990268 -0.000000 -0.139173 1.000000 -0.000000 -0.000000 1.000000 -0.000000 -0.000000 0.990268 0.000000 0.139173 0.990268 0.000000 0.139173 0.961262 0.000000 0.275637 0.961262 0.000000 0.275637 0.913545 0.000000 0.406737 0.913545 0.000000 0.406737 0.848048 0.000000 0.529919 0.848048 0.000000 0.529919 0.766044 0.000000 0.642788 0.766044 0.000000 0.642788 0.669131 0.000000 0.743145 0.669131 0.000000 0.743145 0.559193 0.000000 0.829038 0.559193 0.000000 0.829038 0.438371 0.000000 0.898794 0.438371 0.000000 0.898794 0.309017 0.000000 0.951057 0.309017 0.000000 0.951057 0.173648 0.000000 0.984808 0.173648 0.000000 0.984808 0.034899 0.000000 0.999391 0.034899 0.000000 0.999391 -0.104528 -0.000000 0.994522 -0.104528 -0.000000 0.994522 -0.241922 -0.000000 0.970296 -0.241922 -0.000000 0.970296 -0.374607 -0.000000 0.927184 -0.374607 -0.000000 0.927184 -0.500000 -0.000000 0.866025 -0.500000 -0.000000 0.866025 -0.615661 -0.000000 0.788011 -0.615661 -0.000000 0.788011 -0.719340 -0.000000 0.694658 -0.719340 -0.000000 0.694658 -0.809017 -0.000000 0.587785 -0.809017 -0.000000 0.587785 -0.882948 -0.000000 0.469472 -0.882948 -0.000000 0.469472 -0.939693 -0.000000 0.342020 -0.939693 -0.000000 0.342020 -0.978148 -0.000000 0.207912 -0.978148 -0.000000 0.207912 -0.997564 -0.000000 0.069756 -0.997564 -0.000000 0.069756 -0.997564 -0.000000 -0.069756 -0.997564 -0.000000 -0.069756 -0.978148 -0.000000 -0.207912 -0.978148 -0.000000 -0.207912 -0.939693 -0.000000 -0.342020 -0.939693 -0.000000 -0.342020 -0.882948 -0.000000 -0.469472 -0.882948 -0.000000 -0.469472 -0.809017 -0.000000 -0.587785 -0.809017 -0.000000 -0.587785 -0.719340 -0.000000 -0.694658 -0.719340 -0.000000 -0.694658 -0.615661 -0.000000 -0.788011 -0.615661 -0.000000 -0.788011 -0.500000 -0.000000 -0.866025 -0.500000 -0.000000 -0.866025 -0.374607 -0.000000 -0.927184 -0.374607 -0.000000 -0.927184 -0.241922 -0.000000 -0.970296 -0.241922 -0.000000 -0.970296 -0.104528 -0.000000 -0.994522 -0.104528 -0.000000 -0.994522 0.034899 -0.000000 -0.999391 0.034899 -0.000000 -0.999391 0.173648 -0.000000 -0.984808 0.173648 -0.000000 -0.984808 0.309017 -0.000000 -0.951057 0.309017 -0.000000 -0.951057 0.438371 -0.000000 -0.898794 0.438371 -0.000000 -0.898794 0.559193 -0.000000 -0.829038 0.559193 -0.000000 -0.829038 0.669131 -0.000000 -0.743145 0.669131 -0.000000 -0.743145 0.766044 -0.000000 -0.642788 0.766044 -0.000000 -0.642788 0.848048 -0.000000 -0.529919 0.848048 -0.000000 -0.529919 0.913545 -0.000000 -0.406737 0.913545 -0.000000 -0.406737 0.961262 -0.000000 -0.275637 0.961262 -0.000000 -0.275637 0.990268 0.000000 0.139173 1.000000 0.000000 0.000000 0.990268 -0.000000 -0.139173 0.961262 -0.000000 -0.275637 0.913545 -0.000000 -0.406737 0.848048 -0.000000 -0.529919 0.766044 -0.000000 -0.642788 0.669131 -0.000000 -0.743145 0.559193 -0.000000 -0.829038 0.438371 -0.000000 -0.898794 0.309017 -0.000000 -0.951057 0.173648 -0.000000 -0.984808 0.034899 -0.000000 -0.999391 -0.104528 -0.000000 -0.994522 -0.241922 -0.000000 -0.970296 -0.374607 -0.000000 -0.927184 -0.500000 -0.000000 -0.866025 -0.615661 -0.000000 -0.788011 -0.719340 -0.000000 -0.694658 -0.809017 -0.000000 -0.587785 -0.882948 -0.000000 -0.469472 -0.939693 -0.000000 -0.342020 -0.978148 -0.000000 -0.207912 -0.997564 -0.000000 -0.069756 -0.997564 -0.000000 0.069756 -0.978148 -0.000000 0.207912 -0.939693 -0.000000 0.342020 -0.882948 -0.000000 0.469472 -0.809017 -0.000000 0.587785 -0.719340 -0.000000 0.694658 -0.615661 -0.000000 0.788011 -0.500000 -0.000000 0.866025 -0.374607 -0.000000 0.927184 -0.241922 -0.000000 0.970296 -0.104528 -0.000000 0.994522 0.034899 0.000000 0.999391 0.173648 0.000000 0.984808 0.309017 0.000000 0.951057 0.438371 0.000000 0.898794 0.559193 0.000000 0.829038 0.669131 0.000000 0.743145 0.766044 0.000000 0.642788 0.848048 0.000000 0.529919 0.913545 0.000000 0.406737 0.961262 0.000000 0.275637 0.000000 1.000000 -0.000000 0.000000 1.000000 -0.000000 0.000000 1.000000 -0.000000 0.000000 1.000000 -0.000000 0.000000 1.000000 -0.000000 0.000000 1.000000 -0.000000 0.000000 1.000000 -0.000000 0.000000 1.000000 -0.000000 0.000000 1.000000 -0.000000 0.000000 1.000000 -0.000000 0.000000 1.000000 -0.000000 0.000000 1.000000 -0.000000 0.000000 1.000000 -0.000000 0.000000 1.000000 -0.000000 0.000000 1.000000 -0.000000 0.000000 1.000000 -0.000000 0.000000 1.000000 -0.000000 0.000000 1.000000 -0.000000 0.000000 1.000000 -0.000000 0.000000 1.000000 -0.000000 0.000000 1.000000 -0.000000 0.000000 1.000000 -0.000000 0.000000 1.000000 -0.000000 0.000000 1.000000 -0.000000 0.000000 1.000000 -0.000000 0.000000 1.000000 -0.000000 0.000000 1.000000 -0.000000 0.000000 1.000000 -0.000000 0.000000 1.000000 -0.000000 0.000000 1.000000 -0.000000 0.000000 1.000000 -0.000000 0.000000 1.000000 -0.000000 0.000000 1.000000 -0.000000 0.000000 1.000000 -0.000000 0.000000 1.000000 -0.000000 0.000000 1.000000 -0.000000 0.000000 1.000000 -0.000000 0.000000 1.000000 -0.000000 0.000000 1.000000 -0.000000 0.000000 1.000000 -0.000000 0.000000 1.000000 -0.000000 0.000000 1.000000 -0.000000 0.000000 1.000000 -0.000000 0.000000 1.000000 -0.000000 0.000000 1.000000 -0.000000 0.000000 1.000000 -0.000000 0.000000 1.000000 -0.000000 0.000000 1.000000 -0.000000 0.000000 1.000000 -0.000000 0.000000 1.000000 -0.000000 0.000000 1.000000 -0.000000 0.000000 1.000000 -0.000000 0.000000 1.000000 -0.000000 0.000000 1.000000 -0.000000 0.000000 1.000000 -0.000000 0.000000 1.000000 -0.000000 0.000000 1.000000 -0.000000 0.000000 1.000000 -0.000000 0.000000 1.000000 -0.000000 0.000000 1.000000 -0.000000 0.000000 1.000000 -0.000000 0.000000 1.000000 -0.000000 0.000000 1.000000 -0.000000 0.000000 1.000000 -0.000000 0.000000 1.000000 -0.000000 0.000000 1.000000 -0.000000 0.000000 1.000000 -0.000000 0.000000 1.000000 -0.000000 0.000000 1.000000 -0.000000 0.000000 1.000000 -0.000000 0.000000 1.000000 -0.000000 0.000000 1.000000 -0.000000 0.000000 1.000000 -0.000000 0.000000 1.000000 -0.000000 0.000000 1.000000 -0.000000 0.000000 1.000000 -0.000000 0.000000 1.000000 -0.000000 0.000000 1.000000 -0.000000 0.000000 1.000000 -0.000000 0.000000 1.000000 -0.000000 0.000000 1.000000 -0.000000 0.000000 1.000000 -0.000000 0.000000 1.000000 -0.000000 0.000000 1.000000 -0.000000 0.000000 1.000000 -0.000000 0.000000 1.000000 -0.000000 0.000000 1.000000 -0.000000 0.000000 1.000000 -0.000000 0.000000 1.000000 -0.000000 0.000000 1.000000 -0.000000 0.000000 1.000000 -0.000000 0.000000 1.000000 -0.000000 0.000000 1.000000 -0.000000 0.000000 1.000000 -0.000000 0.000000 1.000000 -0.000000 0.000000 1.000000 -0.000000 0.000000 1.000000 -0.000000 0.000000 1.000000 -0.000000 0.000000 1.000000 -0.000000 0.000000 1.000000 -0.000000 0.000000 1.000000 -0.000000 0.000000 1.000000 -0.000000 0.000000 1.000000 -0.000000 0.000000 1.000000 -0.000000 0.000000 1.000000 -0.000000 0.000000 1.000000 -0.000000 0.000000 1.000000 -0.000000 0.000000 1.000000 -0.000000 0.000000 1.000000 -0.000000 0.000000 1.000000 -0.000000 0.000000 1.000000 -0.000000 0.000000 1.000000 -0.000000 0.000000 1.000000 -0.000000 0.000000 1.000000 -0.000000 0.000000 1.000000 -0.000000 0.000000 -0.000000 1.000000 0.000000 -0.000000 1.000000 0.000000 -0.000000 1.000000 0.000000 -0.000000 1.000000 0.000000 1.000000 0.000000 0.000000 1.000000 0.000000 0.000000 1.000000 0.000000 0.000000 1.000000 0.000000 0.995974 -0.000000 0.089639 0.995974 -0.000000 0.089639 1.000000 -0.000000 0.000000 1.000000 -0.000000 0.000000 0.995974 -0.000000 -0.089639 0.995974 -0.000000 -0.089639 0.983930 -0.000000 -0.178557 0.983930 -0.000000 -0.178557 0.963963 -0.000000 -0.266037 0.963963 -0.000000 -0.266037 0.936235 -0.000000 -0.351375 0.936235 -0.000000 -0.351375 0.900969 -0.000000 -0.433884 0.900969 -0.000000 -0.433884 0.858449 -0.000000 -0.512899 0.858449 -0.000000 -0.512899 0.809017 -0.000000 -0.587785 0.809017 -0.000000 -0.587785 0.753071 -0.000000 -0.657939 0.753071 -0.000000 -0.657939 0.691063 -0.000000 -0.722795 0.691063 -0.000000 -0.722795 0.623490 -0.000000 -0.781831 0.623490 -0.000000 -0.781831 0.550897 -0.000000 -0.834573 0.550897 -0.000000 -0.834573 0.473869 -0.000000 -0.880596 0.473869 -0.000000 -0.880596 0.393025 -0.000000 -0.919528 0.393025 -0.000000 -0.919528 0.309017 -0.000000 -0.951057 0.309017 -0.000000 -0.951057 0.222521 -0.000000 -0.974928 0.222521 -0.000000 -0.974928 0.134233 -0.000000 -0.990950 0.134233 -0.000000 -0.990950 0.044865 -0.000000 -0.998993 0.044865 -0.000000 -0.998993 -0.044865 0.000000 -0.998993 -0.044865 0.000000 -0.998993 -0.134233 0.000000 -0.990950 -0.134233 0.000000 -0.990950 -0.222521 0.000000 -0.974928 -0.222521 0.000000 -0.974928 -0.309017 0.000000 -0.951057 -0.309017 0.000000 -0.951057 -0.393025 0.000000 -0.919528 -0.393025 0.000000 -0.919528 -0.473869 0.000000 -0.880596 -0.473869 0.000000 -0.880596 -0.550897 0.000000 -0.834573 -0.550897 0.000000 -0.834573 -0.623490 0.000000 -0.781831 -0.623490 0.000000 -0.781831 -0.691063 0.000000 -0.722795 -0.691063 0.000000 -0.722795 -0.753071 0.000000 -0.657939 -0.753071 0.000000 -0.657939 -0.809017 0.000000 -0.587785 -0.809017 0.000000 -0.587785 -0.858449 0.000000 -0.512899 -0.858449 0.000000 -0.512899 -0.900969 0.000000 -0.433884 -0.900969 0.000000 -0.433884 -0.936235 0.000000 -0.351375 -0.936235 0.000000 -0.351375 -0.963963 0.000000 -0.266037 -0.963963 0.000000 -0.266037 -0.983930 0.000000 -0.178557 -0.983930 0.000000 -0.178557 -0.995974 0.000000 -0.089639 -0.995974 0.000000 -0.089639 -1.000000 0.000000 -0.000000 -1.000000 -0.000000 0.000000 -0.995974 -0.000000 0.089639 -0.995974 -0.000000 0.089639 -0.983930 -0.000000 0.178557 -0.983930 -0.000000 0.178557 -0.963963 -0.000000 0.266037 -0.963963 -0.000000 0.266037 -0.936235 -0.000000 0.351375 -0.936235 -0.000000 0.351375 -0.900969 -0.000000 0.433884 -0.900969 -0.000000 0.433884 -0.858449 -0.000000 0.512899 -0.858449 -0.000000 0.512899 -0.809017 -0.000000 0.587785 -0.809017 -0.000000 0.587785 -0.753071 -0.000000 0.657939 -0.753071 -0.000000 0.657939 -0.691063 -0.000000 0.722795 -0.691063 -0.000000 0.722795 -0.623490 -0.000000 0.781831 -0.623490 -0.000000 0.781831 -0.550897 -0.000000 0.834573 -0.550897 -0.000000 0.834573 -0.473869 -0.000000 0.880596 -0.473869 -0.000000 0.880596 -0.393025 -0.000000 0.919528 -0.393025 -0.000000 0.919528 -0.309017 -0.000000 0.951057 -0.309017 -0.000000 0.951057 -0.222521 -0.000000 0.974928 -0.222521 -0.000000 0.974928 -0.134233 -0.000000 0.990950 -0.134233 -0.000000 0.990950 -0.044865 -0.000000 0.998993 -0.044865 -0.000000 0.998993 0.044865 -0.000000 0.998993 0.044865 -0.000000 0.998993 0.134233 -0.000000 0.990950 0.134233 -0.000000 0.990950 0.222521 -0.000000 0.974928 0.222521 -0.000000 0.974928 0.309017 -0.000000 0.951057 0.309017 -0.000000 0.951057 0.393025 -0.000000 0.919528 0.393025 -0.000000 0.919528 0.473869 -0.000000 0.880596 0.473869 -0.000000 0.880596 0.550897 -0.000000 0.834573 0.550897 -0.000000 0.834573 0.623490 -0.000000 0.781831 0.623490 -0.000000 0.781831 0.691063 -0.000000 0.722795 0.691063 -0.000000 0.722795 0.753071 -0.000000 0.657939 0.753071 -0.000000 0.657939 0.809017 -0.000000 0.587785 0.809017 -0.000000 0.587785 0.858449 -0.000000 0.512899 0.858449 -0.000000 0.512899 0.900969 -0.000000 0.433884 0.900969 -0.000000 0.433884 0.936235 -0.000000 0.351375 0.936235 -0.000000 0.351375 0.963963 -0.000000 0.266037 0.963963 -0.000000 0.266037 0.983930 -0.000000 0.178557 0.983930 -0.000000 0.178557 0.000000 1.000000 0.000000 0.000000 1.000000 0.000000 0.000000 1.000000 0.000000 0.000000 1.000000 0.000000 0.000000 1.000000 0.000000 0.000000 1.000000 0.000000 0.000000 1.000000 0.000000 0.000000 1.000000 0.000000 0.000000 1.000000 0.000000 0.000000 1.000000 0.000000 0.000000 1.000000 0.000000 0.000000 1.000000 0.000000 0.000000 1.000000 0.000000 0.000000 1.000000 0.000000 0.000000 1.000000 0.000000 0.000000 1.000000 0.000000 0.000000 1.000000 0.000000 0.000000 1.000000 0.000000 0.000000 1.000000 0.000000 0.000000 1.000000 0.000000 0.000000 1.000000 0.000000 0.000000 1.000000 0.000000 0.000000 1.000000 0.000000 0.000000 1.000000 0.000000 0.000000 1.000000 0.000000 0.000000 1.000000 0.000000 0.000000 1.000000 0.000000 0.000000 1.000000 0.000000 0.000000 1.000000 0.000000 0.000000 1.000000 0.000000 0.000000 1.000000 0.000000 0.000000 1.000000 0.000000 0.000000 1.000000 0.000000 0.000000 1.000000 0.000000 0.000000 1.000000 0.000000 0.000000 1.000000 0.000000 0.000000 1.000000 0.000000 0.000000 1.000000 0.000000 0.000000 1.000000 0.000000 0.000000 1.000000 0.000000 0.000000 1.000000 0.000000 0.000000 1.000000 0.000000 0.000000 1.000000 0.000000 0.000000 1.000000 0.000000 0.000000 1.000000 0.000000 0.000000 0.000000 -1.000000 0.000000 0.000000 -1.000000 0.000000 0.000000 -1.000000 0.000000 0.000000 -1.000000 1.000000 -0.000000 0.000000 1.000000 -0.000000 0.000000 1.000000 -0.000000 0.000000 1.000000 -0.000000 0.000000 1.000000 -0.000000 0.000000 1.000000 -0.000000 0.000000 -1.000000 -0.000000 0.000000 -1.000000 -0.000000 0.000000 -0.996917 -0.000000 0.078459 -0.996917 -0.000000 0.078459 -0.987688 -0.000000 0.156434 -0.987688 -0.000000 0.156434 -0.972370 -0.000000 0.233445 -0.972370 -0.000000 0.233445 -0.951057 -0.000000 0.309017 -0.951057 -0.000000 0.309017 -0.923880 -0.000000 0.382683 -0.923880 -0.000000 0.382683 -0.891007 -0.000000 0.453990 -0.891007 -0.000000 0.453990 -0.852640 -0.000000 0.522499 -0.852640 -0.000000 0.522499 -0.809017 -0.000000 0.587785 -0.809017 -0.000000 0.587785 -0.760406 -0.000000 0.649448 -0.760406 -0.000000 0.649448 -0.707107 -0.000000 0.707107 -0.707107 -0.000000 0.707107 -0.649448 -0.000000 0.760406 -0.649448 -0.000000 0.760406 -0.587785 -0.000000 0.809017 -0.587785 -0.000000 0.809017 -0.522499 -0.000000 0.852640 -0.522499 -0.000000 0.852640 -0.453990 -0.000000 0.891007 -0.453990 -0.000000 0.891007 -0.382683 -0.000000 0.923880 -0.382683 -0.000000 0.923880 -0.309017 -0.000000 0.951057 -0.309017 -0.000000 0.951057 -0.233445 -0.000000 0.972370 -0.233445 -0.000000 0.972370 -0.156434 -0.000000 0.987688 -0.156434 -0.000000 0.987688 -0.078459 -0.000000 0.996917 -0.078459 -0.000000 0.996917 -0.000000 -0.000000 1.000000 -0.000000 -0.000000 1.000000 0.078459 -0.000000 0.996917 0.078459 -0.000000 0.996917 0.156434 -0.000000 0.987688 0.156434 -0.000000 0.987688 0.233445 -0.000000 0.972370 0.233445 -0.000000 0.972370 0.309017 -0.000000 0.951057 0.309017 -0.000000 0.951057 0.382683 -0.000000 0.923880 0.382683 -0.000000 0.923880 0.453990 -0.000000 0.891007 0.453990 -0.000000 0.891007 0.522499 -0.000000 0.852640 0.522499 -0.000000 0.852640 0.587785 -0.000000 0.809017 0.587785 -0.000000 0.809017 0.649448 -0.000000 0.760406 0.649448 -0.000000 0.760406 0.707107 -0.000000 0.707107 0.707107 -0.000000 0.707107 0.760406 -0.000000 0.649448 0.760406 -0.000000 0.649448 0.809017 -0.000000 0.587785 0.809017 -0.000000 0.587785 0.852640 -0.000000 0.522499 0.852640 -0.000000 0.522499 0.891007 -0.000000 0.453990 0.891007 -0.000000 0.453990 0.923880 -0.000000 0.382683 0.923880 -0.000000 0.382683 0.951057 -0.000000 0.309017 0.951057 -0.000000 0.309017 0.972370 -0.000000 0.233445 0.972370 -0.000000 0.233445 0.987688 -0.000000 0.156434 0.987688 -0.000000 0.156434 0.996917 -0.000000 0.078459 0.996917 -0.000000 0.078459 -1.000000 0.000000 0.000000 -1.000000 0.000000 0.000000 -1.000000 0.000000 0.000000 -1.000000 0.000000 0.000000 0.000000 1.000000 0.000000 0.000000 1.000000 0.000000 0.000000 1.000000 0.000000 0.000000 1.000000 0.000000 0.000000 1.000000 0.000000 0.000000 1.000000 0.000000 0.000000 1.000000 0.000000 0.000000 1.000000 0.000000 0.000000 1.000000 0.000000 0.000000 1.000000 0.000000 0.000000 1.000000 0.000000 0.000000 1.000000 0.000000 0.000000 1.000000 0.000000 0.000000 1.000000 0.000000 0.000000 1.000000 0.000000 0.000000 1.000000 0.000000 0.000000 1.000000 0.000000 0.000000 1.000000 0.000000 0.000000 1.000000 0.000000 0.000000 1.000000 0.000000 0.000000 1.000000 0.000000 0.000000 1.000000 0.000000 0.000000 1.000000 0.000000 0.000000 1.000000 0.000000 0.000000 1.000000 0.000000 0.000000 1.000000 0.000000 0.000000 1.000000 0.000000 0.000000 1.000000 0.000000 0.000000 1.000000 0.000000 0.000000 1.000000 0.000000 0.000000 1.000000 0.000000 0.000000 1.000000 0.000000 0.000000 1.000000 0.000000 0.000000 1.000000 0.000000 0.000000 1.000000 0.000000 0.000000 1.000000 0.000000 0.000000 1.000000 0.000000 0.000000 1.000000 0.000000 0.000000 1.000000 0.000000 0.000000 1.000000 0.000000 0.000000 1.000000 0.000000 0.000000 1.000000 0.000000 0.000000 1.000000 0.000000 0.000000 1.000000 0.000000 0.000000 1.000000 0.000000 0.000000 1.000000 0.000000 0.000000 1.000000 0.000000 0.000000 1.000000 0.000000 0.000000 1.000000 0.000000 0.000000 1.000000 0.000000 0.000000 1.000000 0.000000 0.000000 1.000000 0.000000 0.000000 1.000000 0.000000 0.000000 1.000000 0.000000 0.000000 1.000000 0.000000 0.000000 1.000000 0.000000 0.000000 1.000000 0.000000 0.000000 1.000000 0.000000 0.000000 1.000000 0.000000 0.000000 1.000000 0.000000 0.000000 1.000000 0.000000 0.000000 1.000000 0.000000 0.000000 1.000000 0.000000 0.000000 1.000000 0.000000 0.000000 1.000000 0.000000 0.000000 1.000000 0.000000 0.000000 1.000000 0.000000 0.000000 1.000000 0.000000 0.000000 1.000000 0.000000 0.000000 1.000000 0.000000 0.000000 1.000000 0.000000 0.000000 1.000000 0.000000 0.000000 1.000000 0.000000 0.000000 1.000000 0.000000 0.000000 1.000000 0.000000 0.000000 1.000000 0.000000 0.000000 1.000000 0.000000 0.000000 1.000000 0.000000 0.000000 1.000000 0.000000 0.000000 1.000000 0.000000 0.000000 1.000000 0.000000 0.000000 1.000000 0.000000 0.000000 1.000000 0.000000 0.000000 1.000000 0.000000 0.000000 1.000000 0.000000 0.000000 1.000000 0.000000 0.000000 1.000000 0.000000 0.000000 1.000000 0.000000 0.000000 1.000000 0.000000 0.000000 1.000000 0.000000 0.000000 1.000000 0.000000 0.000000 1.000000 0.000000 0.000000 1.000000 0.000000 0.000000 1.000000 0.000000 0.000000 1.000000 0.000000 0.000000 1.000000 0.000000 0.000000 1.000000 0.000000 0.000000 1.000000 0.000000 0.000000 1.000000 0.000000 0.000000 1.000000 0.000000 0.000000 1.000000 0.000000 0.000000 1.000000 0.000000 0.000000 1.000000 0.000000 0.000000 1.000000 0.000000 0.000000 1.000000 0.000000 0.000000 1.000000 0.000000 0.000000 1.000000 0.000000 0.000000 1.000000 0.000000 0.000000 1.000000 0.000000 0.000000 1.000000 0.000000 0.000000 1.000000 0.000000 0.000000 1.000000 0.000000 0.000000 1.000000 0.000000 -0.000000 -1.000000 -0.000000 -0.000000 -1.000000 -0.000000 -0.000000 -1.000000 -0.000000 -0.000000 -1.000000 -0.000000 -0.000000 -1.000000 -0.000000 -0.000000 -1.000000 -0.000000 -0.000000 -1.000000 -0.000000 -0.000000 -1.000000 -0.000000 -0.000000 -1.000000 -0.000000 -0.000000 -1.000000 -0.000000 -0.000000 -1.000000 -0.000000 -0.000000 -1.000000 -0.000000 -0.000000 -1.000000 -0.000000 -0.000000 -1.000000 -0.000000 -0.000000 -1.000000 -0.000000 -0.000000 -1.000000 -0.000000 -0.000000 -1.000000 -0.000000 -0.000000 -1.000000 -0.000000 -0.000000 -1.000000 -0.000000 -0.000000 -1.000000 -0.000000 -0.000000 -1.000000 -0.000000 -0.000000 -1.000000 -0.000000 -0.000000 -1.000000 -0.000000 -0.000000 -1.000000 -0.000000 -0.000000 -1.000000 -0.000000 -0.000000 -1.000000 -0.000000 -0.000000 -1.000000 -0.000000 -0.000000 -1.000000 -0.000000 -0.000000 -1.000000 -0.000000 -0.000000 -1.000000 -0.000000 -0.000000 -1.000000 -0.000000 -0.000000 -1.000000 -0.000000 -0.000000 -1.000000 -0.000000 -0.000000 -1.000000 -0.000000 -0.000000 -1.000000 -0.000000 -0.000000 -1.000000 -0.000000 -0.000000 -1.000000 -0.000000 -0.000000 -1.000000 -0.000000 -0.000000 -1.000000 -0.000000 -0.000000 -1.000000 -0.000000 -0.000000 -1.000000 -0.000000 -0.000000 -1.000000 -0.000000 -0.000000 -1.000000 -0.000000</float_array>
          <technique_common>
            <accessor source="#mat_5th_link-mesh-normals-array" count="693" stride="3">
              <param name="X" type="float"/>
              <param name="Y" type="float"/>
              <param name="Z" type="float"/>
            </accessor>
          </technique_common>
        </source>
        <vertices id="mat_5th_link-mesh-vertices">
          <input semantic="POSITION" source="#mat_5th_link-mesh-positions"/>
        </vertices>
        <triangles material="Default" count="726">
          <input semantic="VERTEX" source="#mat_5th_link-mesh-vertices" offset="0"/>
          <input semantic="NORMAL" source="#mat_5th_link-mesh-normals" offset="1"/>
          <p>1 0 91 1 0 2 0 2 91 1 90 3 0 2 90 3 44 4 44 4 90 3 134 5 44 4 134 5 43 6 43 6 134 5 133 7 43 6 133 7 42 8 42 8 133 7 132 9 42 8 132 9 41 10 41 10 132 9 131 11 41 10 131 11 40 12 40 12 131 11 130 13 40 12 130 13 39 14 39 14 130 13 129 15 39 14 129 15 38 16 38 16 129 15 128 17 38 16 128 17 37 18 37 18 128 17 127 19 37 18 127 19 36 20 36 20 127 19 126 21 36 20 126 21 35 22 35 22 126 21 125 23 35 22 125 23 34 24 34 24 125 23 124 25 34 24 124 25 33 26 33 26 124 25 123 27 33 26 123 27 32 28 32 28 123 27 122 29 32 28 122 29 31 30 31 30 122 29 121 31 31 30 121 31 30 32 30 32 121 31 120 33 30 32 120 33 29 34 29 34 120 33 119 35 29 34 119 35 28 36 28 36 119 35 118 37 28 36 118 37 27 38 27 38 118 37 117 39 27 38 117 39 26 40 26 40 117 39 116 41 26 40 116 41 25 42 25 42 116 41 115 43 25 42 115 43 24 44 24 44 115 43 114 45 24 44 114 45 23 46 23 46 114 45 113 47 23 46 113 47 22 48 22 48 113 47 112 49 22 48 112 49 21 50 21 50 112 49 111 51 21 50 111 51 20 52 20 52 111 51 110 53 20 52 110 53 19 54 19 54 110 53 109 55 19 54 109 55 18 56 18 56 109 55 108 57 18 56 108 57 17 58 17 58 108 57 107 59 17 58 107 59 16 60 16 60 107 59 106 61 16 60 106 61 15 62 15 62 106 61 105 63 15 62 105 63 14 64 14 64 105 63 104 65 14 64 104 65 13 66 13 66 104 65 103 67 13 66 103 67 12 68 12 68 103 67 102 69 12 68 102 69 11 70 11 70 102 69 101 71 11 70 101 71 10 72 10 72 101 71 100 73 10 72 100 73 9 74 9 74 100 73 99 75 9 74 99 75 8 76 8 76 99 75 98 77 8 76 98 77 7 78 7 78 98 77 97 79 7 78 97 79 6 80 6 80 97 79 96 81 6 80 96 81 5 82 5 82 96 81 95 83 5 82 95 83 4 84 4 84 95 83 94 85 4 84 94 85 3 86 3 86 94 85 93 87 3 86 93 87 2 88 2 88 93 87 92 89 2 88 92 89 1 0 1 0 92 89 91 1 46 90 134 5 45 91 45 91 134 5 90 3 45 91 90 3 89 92 89 92 90 3 91 1 89 92 91 1 88 93 88 93 91 1 92 89 88 93 92 89 87 94 87 94 92 89 93 87 87 94 93 87 86 95 86 95 93 87 94 85 86 95 94 85 85 96 85 96 94 85 95 83 85 96 95 83 84 97 84 97 95 83 96 81 84 97 96 81 83 98 83 98 96 81 97 79 83 98 97 79 82 99 82 99 97 79 98 77 82 99 98 77 81 100 81 100 98 77 99 75 81 100 99 75 80 101 80 101 99 75 100 73 80 101 100 73 79 102 79 102 100 73 101 71 79 102 101 71 78 103 78 103 101 71 102 69 78 103 102 69 77 104 77 104 102 69 103 67 77 104 103 67 76 105 76 105 103 67 104 65 76 105 104 65 75 106 75 106 104 65 105 63 75 106 105 63 74 107 74 107 105 63 106 61 74 107 106 61 73 108 73 108 106 61 107 59 73 108 107 59 72 109 72 109 107 59 108 57 72 109 108 57 71 110 71 110 108 57 109 55 71 110 109 55 70 111 70 111 109 55 110 53 70 111 110 53 69 112 69 112 110 53 111 51 69 112 111 51 68 113 68 113 111 51 112 49 68 113 112 49 67 114 67 114 112 49 113 47 67 114 113 47 66 115 66 115 113 47 114 45 66 115 114 45 65 116 65 116 114 45 115 43 65 116 115 43 64 117 64 117 115 43 116 41 64 117 116 41 63 118 63 118 116 41 117 39 63 118 117 39 62 119 62 119 117 39 118 37 62 119 118 37 61 120 61 120 118 37 119 35 61 120 119 35 60 121 60 121 119 35 120 33 60 121 120 33 59 122 59 122 120 33 121 31 59 122 121 31 58 123 58 123 121 31 122 29 58 123 122 29 57 124 57 124 122 29 123 27 57 124 123 27 56 125 56 125 123 27 124 25 56 125 124 25 55 126 55 126 124 25 125 23 55 126 125 23 54 127 54 127 125 23 126 21 54 127 126 21 53 128 53 128 126 21 127 19 53 128 127 19 52 129 52 129 127 19 128 17 52 129 128 17 51 130 51 130 128 17 129 15 51 130 129 15 50 131 50 131 129 15 130 13 50 131 130 13 49 132 49 132 130 13 131 11 49 132 131 11 48 133 48 133 131 11 132 9 48 133 132 9 47 134 47 134 132 9 133 7 47 134 133 7 46 90 46 90 133 7 134 5 44 135 204 136 0 137 0 137 204 136 135 138 0 137 135 138 136 139 204 136 44 135 203 140 203 140 44 135 43 141 203 140 43 141 202 142 202 142 43 141 201 143 201 143 43 141 42 144 201 143 42 144 200 145 200 145 42 144 41 146 200 145 41 146 199 147 199 147 41 146 198 148 198 148 41 146 40 149 198 148 40 149 197 150 197 150 40 149 196 151 196 151 40 149 39 152 196 151 39 152 195 153 195 153 39 152 38 154 195 153 38 154 194 155 194 155 38 154 193 156 193 156 38 154 37 157 193 156 37 157 192 158 192 158 37 157 36 159 192 158 36 159 191 160 191 160 36 159 190 161 190 161 36 159 35 162 190 161 35 162 189 163 189 163 35 162 34 164 189 163 34 164 188 165 188 165 34 164 187 166 187 166 34 164 33 167 187 166 33 167 186 168 186 168 33 167 32 169 186 168 32 169 185 170 185 170 32 169 184 171 184 171 32 169 31 172 184 171 31 172 183 173 183 173 31 172 182 174 182 174 31 172 30 175 182 174 30 175 181 176 181 176 30 175 29 177 181 176 29 177 180 178 180 178 29 177 179 179 179 179 29 177 28 180 179 179 28 180 178 181 178 181 28 180 27 182 178 181 27 182 177 183 177 183 27 182 176 184 176 184 27 182 26 185 176 184 26 185 175 186 175 186 26 185 25 187 175 186 25 187 174 188 174 188 25 187 173 189 173 189 25 187 24 190 173 189 24 190 172 191 172 191 24 190 23 192 172 191 23 192 171 193 171 193 23 192 170 194 170 194 23 192 22 195 170 194 22 195 169 196 169 196 22 195 168 197 168 197 22 195 21 198 168 197 21 198 167 199 167 199 21 198 20 200 167 199 20 200 166 201 166 201 20 200 165 202 165 202 20 200 19 203 165 202 19 203 164 204 164 204 19 203 18 205 164 204 18 205 163 206 163 206 18 205 162 207 162 207 18 205 17 208 162 207 17 208 161 209 161 209 17 208 16 210 161 209 16 210 160 211 160 211 16 210 159 212 159 212 16 210 15 213 159 212 15 213 158 214 158 214 15 213 14 215 158 214 14 215 157 216 157 216 14 215 156 217 156 217 14 215 13 218 156 217 13 218 155 219 155 219 13 218 154 220 154 220 13 218 12 221 154 220 12 221 153 222 153 222 12 221 11 223 153 222 11 223 152 224 152 224 11 223 151 225 151 225 11 223 10 226 151 225 10 226 150 227 150 227 10 226 9 228 150 227 9 228 149 229 149 229 9 228 148 230 148 230 9 228 8 231 148 230 8 231 147 232 147 232 8 231 7 233 147 232 7 233 146 234 146 234 7 233 145 235 145 235 7 233 6 236 145 235 6 236 144 237 144 237 6 236 5 238 144 237 5 238 143 239 143 239 5 238 142 240 142 240 5 238 4 241 142 240 4 241 141 242 141 242 4 241 140 243 140 243 4 241 3 244 140 243 3 244 139 245 139 245 3 244 2 246 139 245 2 246 138 247 138 247 2 246 137 248 137 248 2 246 1 249 137 248 1 249 136 139 136 139 1 249 0 137 205 250 206 251 208 252 208 252 206 251 207 253 207 254 209 255 208 256 208 256 209 255 210 257 204 258 245 259 135 260 135 260 245 259 246 261 135 260 246 261 136 262 136 262 246 261 247 263 136 262 247 263 137 264 137 264 247 263 248 265 137 264 248 265 138 266 138 266 248 265 249 267 138 266 249 267 139 268 139 268 249 267 250 269 139 268 250 269 140 270 140 270 250 269 251 271 140 270 251 271 141 272 141 272 251 271 252 273 141 272 252 273 142 274 142 274 252 273 253 275 142 274 253 275 143 276 143 276 253 275 254 277 143 276 254 277 144 278 144 278 254 277 255 279 144 278 255 279 145 280 145 280 255 279 256 281 145 280 256 281 146 282 146 282 256 281 257 283 146 282 257 283 147 284 147 284 257 283 258 285 147 284 258 285 148 286 148 286 258 285 259 287 148 286 259 287 149 288 149 288 259 287 260 289 149 288 260 289 150 290 150 290 260 289 261 291 150 290 261 291 151 292 151 292 261 291 262 293 151 292 262 293 152 294 152 294 262 293 263 295 152 294 263 295 153 296 153 296 263 295 264 297 153 296 264 297 154 298 154 298 264 297 265 299 154 298 265 299 155 300 155 300 265 299 266 301 155 300 266 301 156 302 156 302 266 301 267 303 156 302 267 303 157 304 157 304 267 303 268 305 157 304 268 305 158 306 158 306 268 305 269 307 158 306 269 307 159 308 159 308 269 307 270 309 159 308 270 309 160 310 160 310 270 309 271 311 160 310 271 311 161 312 161 312 271 311 272 313 161 312 272 313 162 314 162 314 272 313 273 315 162 314 273 315 163 316 163 316 273 315 274 317 163 316 274 317 164 318 164 318 274 317 275 319 164 318 275 319 165 320 165 320 275 319 276 321 165 320 276 321 166 322 166 322 276 321 277 323 166 322 277 323 167 324 167 324 277 323 278 325 167 324 278 325 168 326 168 326 278 325 279 327 168 326 279 327 169 328 169 328 279 327 280 329 169 328 280 329 170 330 170 330 280 329 211 331 170 330 211 331 171 332 171 332 211 331 212 333 171 332 212 333 172 334 172 334 212 333 213 335 172 334 213 335 173 336 173 336 213 335 214 337 173 336 214 337 174 338 174 338 214 337 215 339 174 338 215 339 175 340 175 340 215 339 216 341 175 340 216 341 176 342 176 342 216 341 217 343 176 342 217 343 177 344 177 344 217 343 218 345 177 344 218 345 178 346 178 346 218 345 219 347 178 346 219 347 179 348 179 348 219 347 220 349 179 348 220 349 180 350 180 350 220 349 221 351 180 350 221 351 181 352 181 352 221 351 222 353 181 352 222 353 182 354 182 354 222 353 223 355 182 354 223 355 183 356 183 356 223 355 224 357 183 356 224 357 184 358 184 358 224 357 225 359 184 358 225 359 185 360 185 360 225 359 226 361 185 360 226 361 186 362 186 362 226 361 227 363 186 362 227 363 187 364 187 364 227 363 228 365 187 364 228 365 188 366 188 366 228 365 229 367 188 366 229 367 189 368 189 368 229 367 230 369 189 368 230 369 190 370 190 370 230 369 231 371 190 370 231 371 191 372 191 372 231 371 232 373 191 372 232 373 192 374 192 374 232 373 233 375 192 374 233 375 193 376 193 376 233 375 234 377 193 376 234 377 194 378 194 378 234 377 235 379 194 378 235 379 195 380 195 380 235 379 236 381 195 380 236 381 196 382 196 382 236 381 237 383 196 382 237 383 197 384 197 384 237 383 238 385 197 384 238 385 198 386 198 386 238 385 239 387 198 386 239 387 199 388 199 388 239 387 240 389 199 388 240 389 200 390 200 390 240 389 241 391 200 390 241 391 201 392 201 392 241 391 242 393 201 392 242 393 202 394 202 394 242 393 243 395 202 394 243 395 203 396 203 396 243 395 244 397 203 396 244 397 204 258 204 258 244 397 245 259 45 398 89 399 46 400 46 400 89 399 47 401 47 401 89 399 88 402 47 401 88 402 48 403 48 403 88 402 87 404 48 403 87 404 49 405 49 405 87 404 86 406 49 405 86 406 50 407 50 407 86 406 85 408 50 407 85 408 51 409 51 409 85 408 84 410 51 409 84 410 52 411 52 411 84 410 83 412 52 411 83 412 53 413 53 413 83 412 82 414 53 413 82 414 54 415 54 415 82 414 81 416 54 415 81 416 55 417 55 417 81 416 80 418 55 417 80 418 56 419 56 419 80 418 79 420 56 419 79 420 57 421 57 421 79 420 78 422 57 421 78 422 58 423 58 423 78 422 77 424 58 423 77 424 59 425 59 425 77 424 76 426 59 425 76 426 60 427 60 427 76 426 75 428 60 427 75 428 61 429 61 429 75 428 74 430 61 429 74 430 62 431 62 431 74 430 73 432 62 431 73 432 63 433 63 433 73 432 72 434 63 433 72 434 64 435 64 435 72 434 71 436 64 435 71 436 65 437 65 437 71 436 70 438 65 437 70 438 66 439 66 439 70 438 69 440 66 439 69 440 67 441 67 441 69 440 68 442 281 443 282 444 209 445 209 445 282 444 210 446 284 447 283 448 206 449 206 449 283 448 281 450 206 449 281 450 209 451 209 451 207 452 206 449 364 453 285 454 363 455 363 455 285 454 286 456 363 455 286 456 362 457 362 457 286 456 287 458 362 457 287 458 361 459 361 459 287 458 288 460 361 459 288 460 360 461 360 461 288 460 289 462 360 461 289 462 359 463 359 463 289 462 290 464 359 463 290 464 358 465 358 465 290 464 291 466 358 465 291 466 357 467 357 467 291 466 292 468 357 467 292 468 356 469 356 469 292 468 293 470 356 469 293 470 355 471 355 471 293 470 294 472 355 471 294 472 354 473 354 473 294 472 295 474 354 473 295 474 353 475 353 475 295 474 296 476 353 475 296 476 352 477 352 477 296 476 297 478 352 477 297 478 351 479 351 479 297 478 298 480 351 479 298 480 350 481 350 481 298 480 299 482 350 481 299 482 349 483 349 483 299 482 300 484 349 483 300 484 348 485 348 485 300 484 301 486 348 485 301 486 347 487 347 487 301 486 302 488 347 487 302 488 346 489 346 489 302 488 303 490 346 489 303 490 345 491 345 491 303 490 304 492 345 491 304 492 344 493 344 493 304 492 305 494 344 493 305 494 343 495 343 495 305 494 306 496 343 495 306 496 342 497 342 497 306 496 307 498 342 497 307 498 341 499 341 499 307 498 308 500 341 499 308 500 340 501 340 501 308 500 309 502 340 501 309 502 339 503 339 503 309 502 310 504 339 503 310 504 338 505 338 505 310 504 311 506 338 505 311 506 337 507 337 507 311 506 312 508 337 507 312 508 336 509 336 509 312 508 313 510 336 509 313 510 335 511 335 511 313 510 314 512 335 511 314 512 334 513 334 513 314 512 315 514 334 513 315 514 333 515 333 515 315 514 316 516 333 515 316 516 332 517 332 517 316 516 317 518 332 517 317 518 331 519 331 519 317 518 318 520 331 519 318 520 330 521 330 521 318 520 319 522 330 521 319 522 329 523 329 523 319 522 320 524 329 523 320 524 328 525 328 525 320 524 321 526 328 525 321 526 327 527 327 527 321 526 322 528 327 527 322 528 326 529 326 529 322 528 323 530 326 529 323 530 325 531 325 531 323 530 324 532 325 531 324 532 284 447 284 447 324 532 283 448 210 533 282 534 205 535 205 535 282 534 285 454 205 535 285 454 364 453 205 535 208 536 210 533 205 537 263 538 206 539 206 539 263 538 262 540 206 539 262 540 261 541 364 542 275 543 205 537 205 537 275 543 274 544 205 537 274 544 273 545 363 546 211 547 364 542 364 542 211 547 280 548 364 542 280 548 279 549 211 547 363 546 212 550 212 550 363 546 362 551 212 550 362 551 361 552 212 550 361 552 213 553 213 553 361 552 360 554 213 553 360 554 214 555 214 555 360 554 359 556 214 555 359 556 358 557 214 555 358 557 215 558 215 558 358 557 357 559 215 558 357 559 216 560 216 560 357 559 356 561 216 560 356 561 217 562 217 562 356 561 355 563 217 562 355 563 218 564 218 564 355 563 354 565 218 564 354 565 219 566 219 566 354 565 353 567 219 566 353 567 220 568 220 568 353 567 352 569 220 568 352 569 221 570 221 570 352 569 351 571 221 570 351 571 222 572 222 572 351 571 350 573 222 572 350 573 223 574 223 574 350 573 349 575 223 574 349 575 224 576 224 576 349 575 348 577 224 576 348 577 225 578 225 578 348 577 347 579 225 578 347 579 226 580 226 580 347 579 346 581 226 580 346 581 227 582 227 582 346 581 345 583 227 582 345 583 228 584 228 584 345 583 344 585 228 584 344 585 229 586 229 586 344 585 343 587 229 586 343 587 230 588 230 588 343 587 342 589 230 588 342 589 231 590 231 590 342 589 341 591 231 590 341 591 232 592 232 592 341 591 340 593 232 592 340 593 233 594 233 594 340 593 339 595 233 594 339 595 234 596 234 596 339 595 338 597 234 596 338 597 235 598 235 598 338 597 337 599 235 598 337 599 236 600 236 600 337 599 336 601 236 600 336 601 237 602 237 602 336 601 335 603 237 602 335 603 238 604 238 604 335 603 334 605 238 604 334 605 239 606 239 606 334 605 333 607 239 606 333 607 240 608 240 608 333 607 332 609 240 608 332 609 241 610 241 610 332 609 331 611 241 610 331 611 242 612 242 612 331 611 330 613 242 612 330 613 243 614 243 614 330 613 329 615 243 614 329 615 328 616 243 614 328 616 244 617 244 617 328 616 327 618 244 617 327 618 245 619 245 619 327 618 326 620 245 619 326 620 325 621 245 619 325 621 246 622 246 622 325 621 284 623 246 622 284 623 247 624 247 624 284 623 248 625 248 625 284 623 249 626 249 626 284 623 250 627 250 627 284 623 251 628 251 628 284 623 252 629 252 629 284 623 206 539 252 629 206 539 253 630 253 630 206 539 254 631 254 631 206 539 255 632 255 632 206 539 256 633 256 633 206 539 257 634 257 634 206 539 258 635 258 635 206 539 259 636 259 636 206 539 260 637 260 637 206 539 261 541 279 549 278 638 364 542 364 542 278 638 277 639 364 542 277 639 276 640 276 640 275 543 364 542 273 545 272 641 205 537 205 537 272 641 271 642 205 537 271 642 270 643 270 643 269 644 205 537 205 537 269 644 268 645 205 537 268 645 267 646 267 646 266 647 205 537 205 537 266 647 265 648 205 537 265 648 264 649 264 649 263 538 205 537 282 650 283 651 285 652 285 652 283 651 305 653 285 652 305 653 304 654 282 650 281 655 283 651 324 656 323 657 283 651 283 651 323 657 322 658 283 651 322 658 321 659 321 659 320 660 283 651 283 651 320 660 319 661 283 651 319 661 318 662 318 662 317 663 283 651 283 651 317 663 316 664 283 651 316 664 315 665 315 665 314 666 283 651 283 651 314 666 313 667 283 651 313 667 312 668 312 668 311 669 283 651 283 651 311 669 310 670 283 651 310 670 309 671 309 671 308 672 283 651 283 651 308 672 307 673 283 651 307 673 306 674 306 674 305 653 283 651 304 654 303 675 285 652 285 652 303 675 302 676 285 652 302 676 301 677 301 677 300 678 285 652 285 652 300 678 299 679 285 652 299 679 298 680 298 680 297 681 285 652 285 652 297 681 296 682 285 652 296 682 295 683 295 683 294 684 285 652 285 652 294 684 293 685 285 652 293 685 292 686 292 686 291 687 285 652 285 652 291 687 290 688 285 652 290 688 289 689 289 689 288 690 285 652 285 652 288 690 287 691 285 652 287 691 286 692</p>
        </triangles>
      </mesh>
    </geometry>
  </library_geometries>
  <library_visual_scenes>
    <visual_scene id="Scene" name="Scene">
      <node id="mat_5th_link-node" name="5th_link" type="NODE">
        <instance_geometry url="#mat_5th_link-mesh">
          <bind_material>
            <technique_common>
              <instance_material symbol="Default" target="#Default"/>
            </technique_common>
          </bind_material>
        </instance_geometry>
      </node>
    </visual_scene>
  </library_visual_scenes>
  <scene>
    <instance_visual_scene url="#Scene"/>
  </scene>
</COLLADA>
