<?xml version="1.0" encoding="utf-8"?>
<COLLADA xmlns="http://www.collada.org/2005/11/COLLADASchema" version="1.4.1">
  <asset>
    <contributor>
      <authoring_tool>Fusion URDF/XACRO Exporter</authoring_tool>
    </contributor>
    <created>2026-08-21T07:34:05Z</created>
    <modified>2026-08-21T07:34:05Z</modified>
    <unit name="meter" meter="1.0"/>
    <up_axis>Z_UP</up_axis>
  </asset>
  <library_effects>
    <effect id="Default-effect">
      <profile_COMMON>
        <technique sid="common">
          <lambert>
            <emission><color>0 0 0 1</color></emission>
            <ambient><color>0.0000 0.0000 0.0000 1</color></ambient>
            <diffuse><color>0.7490 0.7490 0.7490 1</color></diffuse>
            <reflective><color>0 0 0 1</color></reflective>
            <transparent opaque="A_ONE"><color>1 1 1 1</color></transparent>
            <transparency><float>1</float></transparency>
          </lambert>
        </technique>
      </profile_COMMON>
    </effect>
  </library_effects>
  <library_materials>
    <material id="Default" name="Default">
      <instance_effect url="#Default-effect"/>
    </material>
  </library_materials>
  <library_geometries>
    <geometry id="base_link-mesh" name="base_link">
      <mesh>
        <source id="base_link-mesh-positions">
          <float_array id="base_link-mesh-positions-array" count="1224">-0.120000 0.100000 -0.004000 -0.119796 0.102846 -0.004000 -0.119190 0.105635 -0.004000 -0.118193 0.108308 -0.004000 -0.116825 0.110813 -0.004000 -0.115115 0.113097 -0.004000 -0.113097 0.115115 -0.004000 -0.110813 0.116825 -0.004000 -0.108308 0.118193 -0.004000 -0.105635 0.119190 -0.004000 -0.102846 0.119796 -0.004000 -0.100000 0.120000 -0.004000 0.100000 0.120000 -0.004000 0.102846 0.119796 -0.004000 0.105635 0.119190 -0.004000 0.108308 0.118193 -0.004000 0.110813 0.116825 -0.004000 0.113097 0.115115 -0.004000 0.115115 0.113097 -0.004000 0.116825 0.110813 -0.004000 0.118193 0.108308 -0.004000 0.119190 0.105635 -0.004000 0.119796 0.102846 -0.004000 0.120000 0.100000 -0.004000 0.120000 -0.100000 -0.004000 0.119796 -0.102846 -0.004000 0.119190 -0.105635 -0.004000 0.118193 -0.108308 -0.004000 0.116825 -0.110813 -0.004000 0.115115 -0.113097 -0.004000 0.113097 -0.115115 -0.004000 0.110813 -0.116825 -0.004000 0.108308 -0.118193 -0.004000 0.105635 -0.119190 -0.004000 0.102846 -0.119796 -0.004000 0.100000 -0.120000 -0.004000 -0.100000 -0.120000 -0.004000 -0.102846 -0.119796 -0.004000 -0.105635 -0.119190 -0.004000 -0.108308 -0.118193 -0.004000 -0.110813 -0.116825 -0.004000 -0.113097 -0.115115 -0.004000 -0.115115 -0.113097 -0.004000 -0.116825 -0.110813 -0.004000 -0.118193 -0.108308 -0.004000 -0.119190 -0.105635 -0.004000 -0.119796 -0.102846 -0.004000 -0.120000 -0.100000 -0.004000 -0.120000 0.100000 0.080000 -0.119796 0.102846 0.080000 -0.119190 0.105635 0.080000 -0.118193 0.108308 0.080000 -0.116825 0.110813 0.080000 -0.115115 0.113097 0.080000 -0.113097 0.115115 0.080000 -0.110813 0.116825 0.080000 -0.108308 0.118193 0.080000 -0.105635 0.119190 0.080000 -0.102846 0.119796 0.080000 -0.100000 0.120000 0.080000 -0.119796 0.102846 0.038000 -0.119190 0.105635 0.038000 -0.118193 0.108308 0.038000 -0.116825 0.110813 0.038000 -0.115115 0.113097 0.038000 -0.113097 0.115115 0.038000 -0.110813 0.116825 0.038000 -0.108308 0.118193 0.038000 -0.105635 0.119190 0.038000 -0.102846 0.119796 0.038000 0.100000 0.120000 0.080000 -0.120000 -0.100000 0.080000 -0.119796 -0.102846 0.080000 -0.119190 -0.105635 0.080000 -0.118193 -0.108308 0.080000 -0.116825 -0.110813 0.080000 -0.115115 -0.113097 0.080000 -0.113097 -0.115115 0.080000 -0.110813 -0.116825 0.080000 -0.108308 -0.118193 0.080000 -0.105635 -0.119190 0.080000 -0.102846 -0.119796 0.080000 -0.100000 -0.120000 0.080000 0.100000 -0.120000 0.080000 0.102846 -0.119796 0.080000 0.105635 -0.119190 0.080000 0.108308 -0.118193 0.080000 0.110813 -0.116825 0.080000 0.113097 -0.115115 0.080000 0.115115 -0.113097 0.080000 0.116825 -0.110813 0.080000 0.118193 -0.108308 0.080000 0.119190 -0.105635 0.080000 0.119796 -0.102846 0.080000 0.120000 -0.100000 0.080000 0.120000 0.100000 0.080000 0.119796 0.102846 0.080000 0.119190 0.105635 0.080000 0.118193 0.108308 0.080000 0.116825 0.110813 0.080000 0.115115 0.113097 0.080000 0.113097 0.115115 0.080000 0.110813 0.116825 0.080000 0.108308 0.118193 0.080000 0.105635 0.119190 0.080000 0.102846 0.119796 0.080000 -0.080000 -0.000000 0.080000 -0.079765 0.006124 0.080000 -0.079062 0.012212 0.080000 -0.077896 0.018228 0.080000 -0.076272 0.024138 0.080000 -0.074200 0.029905 0.080000 -0.071693 0.035498 0.080000 -0.068766 0.040881 0.080000 -0.065434 0.046025 0.080000 -0.061719 0.050899 0.080000 -0.057642 0.055475 0.080000 -0.053226 0.059724 0.080000 -0.048498 0.063623 0.080000 -0.043485 0.067149 0.080000 -0.038218 0.070281 0.080000 -0.032725 0.073000 0.080000 -0.027041 0.075291 0.080000 -0.021199 0.077140 0.080000 -0.015231 0.078537 0.080000 -0.009175 0.079472 0.080000 -0.003064 0.079941 0.080000 0.003064 0.079941 0.080000 0.009175 0.079472 0.080000 0.015231 0.078537 0.080000 0.021199 0.077140 0.080000 0.027041 0.075291 0.080000 0.032725 0.073000 0.080000 0.038218 0.070281 0.080000 0.043485 0.067149 0.080000 0.048498 0.063623 0.080000 0.053226 0.059724 0.080000 0.057642 0.055475 0.080000 0.061719 0.050899 0.080000 0.065434 0.046025 0.080000 0.068766 0.040881 0.080000 0.071693 0.035498 0.080000 0.074200 0.029905 0.080000 0.076272 0.024138 0.080000 0.077896 0.018228 0.080000 0.079062 0.012212 0.080000 0.079765 0.006124 0.080000 0.080000 0.000000 0.080000 0.079765 -0.006124 0.080000 0.079062 -0.012212 0.080000 0.077896 -0.018228 0.080000 0.076272 -0.024138 0.080000 0.074200 -0.029905 0.080000 0.071693 -0.035498 0.080000 0.068766 -0.040881 0.080000 0.065434 -0.046025 0.080000 0.061719 -0.050899 0.080000 0.057642 -0.055475 0.080000 0.053226 -0.059724 0.080000 0.048498 -0.063623 0.080000 0.043485 -0.067149 0.080000 0.038218 -0.070281 0.080000 0.032725 -0.073000 0.080000 0.027041 -0.075291 0.080000 0.021199 -0.077140 0.080000 0.015231 -0.078537 0.080000 0.009175 -0.079472 0.080000 0.003064 -0.079941 0.080000 -0.003064 -0.079941 0.080000 -0.009175 -0.079472 0.080000 -0.015231 -0.078537 0.080000 -0.021199 -0.077140 0.080000 -0.027041 -0.075291 0.080000 -0.032725 -0.073000 0.080000 -0.038218 -0.070281 0.080000 -0.043485 -0.067149 0.080000 -0.048498 -0.063623 0.080000 -0.053226 -0.059724 0.080000 -0.057642 -0.055475 0.080000 -0.061719 -0.050899 0.080000 -0.065434 -0.046025 0.080000 -0.068766 -0.040881 0.080000 -0.071693 -0.035498 0.080000 -0.074200 -0.029905 0.080000 -0.076272 -0.024138 0.080000 -0.077896 -0.018228 0.080000 -0.079062 -0.012212 0.080000 -0.079765 -0.006124 0.080000 0.102846 0.119796 0.038000 0.105635 0.119190 0.038000 0.108308 0.118193 0.038000 0.110813 0.116825 0.038000 0.113097 0.115115 0.038000 0.115115 0.113097 0.038000 0.116825 0.110813 0.038000 0.118193 0.108308 0.038000 0.119190 0.105635 0.038000 0.119796 0.102846 0.038000 0.119796 -0.102846 0.038000 0.119190 -0.105635 0.038000 0.118193 -0.108308 0.038000 0.116825 -0.110813 0.038000 0.115115 -0.113097 0.038000 0.113097 -0.115115 0.038000 0.110813 -0.116825 0.038000 0.108308 -0.118193 0.038000 0.105635 -0.119190 0.038000 0.102846 -0.119796 0.038000 -0.102846 -0.119796 0.038000 -0.105635 -0.119190 0.038000 -0.108308 -0.118193 0.038000 -0.110813 -0.116825 0.038000 -0.113097 -0.115115 0.038000 -0.115115 -0.113097 0.038000 -0.116825 -0.110813 0.038000 -0.118193 -0.108308 0.038000 -0.119190 -0.105635 0.038000 -0.119796 -0.102846 0.038000 -0.035000 0.000000 0.160000 -0.034763 -0.004063 0.160000 -0.034057 -0.008072 0.160000 -0.032889 -0.011971 0.160000 -0.031277 -0.015708 0.160000 -0.029242 -0.019233 0.160000 -0.026812 -0.022498 0.160000 -0.024018 -0.025458 0.160000 -0.020901 -0.028074 0.160000 -0.017500 -0.030311 0.160000 -0.013863 -0.032138 0.160000 -0.010038 -0.033530 0.160000 -0.006078 -0.034468 0.160000 -0.002035 -0.034941 0.160000 0.002035 -0.034941 0.160000 0.006078 -0.034468 0.160000 0.010038 -0.033530 0.160000 0.013863 -0.032138 0.160000 0.017500 -0.030311 0.160000 0.020901 -0.028074 0.160000 0.024018 -0.025458 0.160000 0.026812 -0.022498 0.160000 0.029242 -0.019233 0.160000 0.031277 -0.015708 0.160000 0.032889 -0.011971 0.160000 0.034057 -0.008072 0.160000 0.034763 -0.004063 0.160000 0.035000 0.000000 0.160000 0.034763 0.004063 0.160000 0.034057 0.008072 0.160000 0.032889 0.011971 0.160000 0.031277 0.015708 0.160000 0.029242 0.019233 0.160000 0.026812 0.022498 0.160000 0.024018 0.025458 0.160000 0.020901 0.028074 0.160000 0.017500 0.030311 0.160000 0.013863 0.032138 0.160000 0.010038 0.033530 0.160000 0.006078 0.034468 0.160000 0.002035 0.034941 0.160000 -0.002035 0.034941 0.160000 -0.006078 0.034468 0.160000 -0.010038 0.033530 0.160000 -0.013863 0.032138 0.160000 -0.017500 0.030311 0.160000 -0.020901 0.028074 0.160000 -0.024018 0.025458 0.160000 -0.026812 0.022498 0.160000 -0.029242 0.019233 0.160000 -0.031277 0.015708 0.160000 -0.032889 0.011971 0.160000 -0.034057 0.008072 0.160000 -0.034763 0.004063 0.160000 -0.035000 -0.000000 0.162000 -0.034763 -0.004063 0.162000 -0.034057 -0.008072 0.162000 -0.032889 -0.011971 0.162000 -0.031277 -0.015708 0.162000 -0.029242 -0.019233 0.162000 -0.026812 -0.022498 0.162000 -0.024018 -0.025458 0.162000 -0.020901 -0.028074 0.162000 -0.017500 -0.030311 0.162000 -0.013863 -0.032138 0.162000 -0.010038 -0.033530 0.162000 -0.006078 -0.034468 0.162000 -0.002035 -0.034941 0.162000 0.002035 -0.034941 0.162000 0.006078 -0.034468 0.162000 0.010038 -0.033530 0.162000 0.013863 -0.032138 0.162000 0.017500 -0.030311 0.162000 0.020901 -0.028074 0.162000 0.024018 -0.025458 0.162000 0.026812 -0.022498 0.162000 0.029242 -0.019233 0.162000 0.031277 -0.015708 0.162000 0.032889 -0.011971 0.162000 0.034057 -0.008072 0.162000 0.034763 -0.004063 0.162000 0.035000 0.000000 0.162000 0.034763 0.004063 0.162000 0.034057 0.008072 0.162000 0.032889 0.011971 0.162000 0.031277 0.015708 0.162000 0.029242 0.019233 0.162000 0.026812 0.022498 0.162000 0.024018 0.025458 0.162000 0.020901 0.028074 0.162000 0.017500 0.030311 0.162000 0.013863 0.032138 0.162000 0.010038 0.033530 0.162000 0.006078 0.034468 0.162000 0.002035 0.034941 0.162000 -0.002035 0.034941 0.162000 -0.006078 0.034468 0.162000 -0.010038 0.033530 0.162000 -0.013863 0.032138 0.162000 -0.017500 0.030311 0.162000 -0.020901 0.028074 0.162000 -0.024018 0.025458 0.162000 -0.026812 0.022498 0.162000 -0.029242 0.019233 0.162000 -0.031277 0.015708 0.162000 -0.032889 0.011971 0.162000 -0.034057 0.008072 0.162000 -0.034763 0.004063 0.162000 -0.080000 0.000000 0.162000 -0.079765 0.006124 0.162000 -0.079062 0.012212 0.162000 -0.077896 0.018228 0.162000 -0.076272 0.024138 0.162000 -0.074200 0.029905 0.162000 -0.071693 0.035498 0.162000 -0.068766 0.040881 0.162000 -0.065434 0.046025 0.162000 -0.061719 0.050899 0.162000 -0.057642 0.055475 0.162000 -0.053226 0.059724 0.162000 -0.048498 0.063623 0.162000 -0.043485 0.067149 0.162000 -0.038218 0.070281 0.162000 -0.032725 0.073000 0.162000 -0.027041 0.075291 0.162000 -0.021199 0.077140 0.162000 -0.015231 0.078537 0.162000 -0.009175 0.079472 0.162000 -0.003064 0.079941 0.162000 0.003064 0.079941 0.162000 0.009175 0.079472 0.162000 0.015231 0.078537 0.162000 0.021199 0.077140 0.162000 0.027041 0.075291 0.162000 0.032725 0.073000 0.162000 0.038218 0.070281 0.162000 0.043485 0.067149 0.162000 0.048498 0.063623 0.162000 0.053226 0.059724 0.162000 0.057642 0.055475 0.162000 0.061719 0.050899 0.162000 0.065434 0.046025 0.162000 0.068766 0.040881 0.162000 0.071693 0.035498 0.162000 0.074200 0.029905 0.162000 0.076272 0.024138 0.162000 0.077896 0.018228 0.162000 0.079062 0.012212 0.162000 0.079765 0.006124 0.162000 0.080000 0.000000 0.162000 0.079765 -0.006124 0.162000 0.079062 -0.012212 0.162000 0.077896 -0.018228 0.162000 0.076272 -0.024138 0.162000 0.074200 -0.029905 0.162000 0.071693 -0.035498 0.162000 0.068766 -0.040881 0.162000 0.065434 -0.046025 0.162000 0.061719 -0.050899 0.162000 0.057642 -0.055475 0.162000 0.053226 -0.059724 0.162000 0.048498 -0.063623 0.162000 0.043485 -0.067149 0.162000 0.038218 -0.070281 0.162000 0.032725 -0.073000 0.162000 0.027041 -0.075291 0.162000 0.021199 -0.077140 0.162000 0.015231 -0.078537 0.162000 0.009175 -0.079472 0.162000 0.003064 -0.079941 0.162000 -0.003064 -0.079941 0.162000 -0.009175 -0.079472 0.162000 -0.015231 -0.078537 0.162000 -0.021199 -0.077140 0.162000 -0.027041 -0.075291 0.162000 -0.032725 -0.073000 0.162000 -0.038218 -0.070281 0.162000 -0.043485 -0.067149 0.162000 -0.048498 -0.063623 0.162000 -0.053226 -0.059724 0.162000 -0.057642 -0.055475 0.162000 -0.061719 -0.050899 0.162000 -0.065434 -0.046025 0.162000 -0.068766 -0.040881 0.162000 -0.071693 -0.035498 0.162000 -0.074200 -0.029905 0.162000 -0.076272 -0.024138 0.162000 -0.077896 -0.018228 0.162000 -0.079062 -0.012212 0.162000 -0.079765 -0.006124 0.162000</float_array>
          <technique_common>
            <accessor source="#base_link-mesh-positions-array" count="408" stride="3">
              <param name="X" type="float"/>
              <param name="Y" type="float"/>
              <param name="Z" type="float"/>
            </accessor>
          </technique_common>
        </source>
        <source id="base_link-mesh-normals">
          <float_array id="base_link-mesh-normals-array" count="2328">-0.000000 -0.000000 -1.000000 -0.000000 -0.000000 -1.000000 -0.000000 -0.000000 -1.000000 -0.000000 -0.000000 -1.000000 -0.000000 -0.000000 -1.000000 -0.000000 -0.000000 -1.000000 -0.000000 -0.000000 -1.000000 -0.000000 -0.000000 -1.000000 -0.000000 -0.000000 -1.000000 -0.000000 -0.000000 -1.000000 -0.000000 -0.000000 -1.000000 -0.000000 -0.000000 -1.000000 -0.000000 -0.000000 -1.000000 -0.000000 -0.000000 -1.000000 -0.000000 -0.000000 -1.000000 -0.000000 -0.000000 -1.000000 -0.000000 -0.000000 -1.000000 -0.000000 -0.000000 -1.000000 -0.000000 -0.000000 -1.000000 -0.000000 -0.000000 -1.000000 -0.000000 -0.000000 -1.000000 -0.000000 -0.000000 -1.000000 -0.000000 -0.000000 -1.000000 -0.000000 -0.000000 -1.000000 -0.000000 -0.000000 -1.000000 -0.000000 -0.000000 -1.000000 -0.000000 -0.000000 -1.000000 -0.000000 -0.000000 -1.000000 -0.000000 -0.000000 -1.000000 -0.000000 -0.000000 -1.000000 -0.000000 -0.000000 -1.000000 -0.000000 -0.000000 -1.000000 -0.000000 -0.000000 -1.000000 -0.000000 -0.000000 -1.000000 -0.000000 -0.000000 -1.000000 -0.000000 -0.000000 -1.000000 -0.000000 -0.000000 -1.000000 -0.000000 -0.000000 -1.000000 -0.000000 -0.000000 -1.000000 -0.000000 -0.000000 -1.000000 -0.000000 -0.000000 -1.000000 -0.000000 -0.000000 -1.000000 -0.000000 -0.000000 -1.000000 -0.000000 -0.000000 -1.000000 -0.000000 -0.000000 -1.000000 -0.000000 -0.000000 -1.000000 -0.000000 -0.000000 -1.000000 -0.000000 -0.000000 -1.000000 -1.000000 -0.000000 0.000000 -1.000000 -0.000000 0.000000 -0.989821 0.142315 -0.000000 -0.989821 0.142315 -0.000000 -0.959493 0.281733 -0.000000 -0.959493 0.281733 -0.000000 -0.909632 0.415415 -0.000000 -0.909632 0.415415 -0.000000 -0.841254 0.540641 -0.000000 -0.841254 0.540641 -0.000000 -0.755750 0.654861 -0.000000 -0.755750 0.654861 -0.000000 -0.654861 0.755750 -0.000000 -0.654861 0.755750 -0.000000 -0.540641 0.841254 -0.000000 -0.540641 0.841254 -0.000000 -0.415415 0.909632 -0.000000 -0.415415 0.909632 -0.000000 -0.281733 0.959493 -0.000000 -0.281733 0.959493 -0.000000 -0.142315 0.989821 -0.000000 -0.142315 0.989821 -0.000000 -0.000000 1.000000 -0.000000 -0.000000 1.000000 -0.000000 -0.142315 0.989821 -0.000000 -0.281733 0.959493 -0.000000 -0.415415 0.909632 -0.000000 -0.540641 0.841254 -0.000000 -0.654861 0.755750 -0.000000 -0.755750 0.654861 -0.000000 -0.841254 0.540641 -0.000000 -0.909632 0.415415 -0.000000 -0.959493 0.281733 -0.000000 -0.989821 0.142315 -0.000000 0.000000 1.000000 -0.000000 0.000000 1.000000 -0.000000 0.000000 0.000000 1.000000 0.000000 0.000000 1.000000 0.000000 0.000000 1.000000 0.000000 0.000000 1.000000 0.000000 0.000000 1.000000 0.000000 0.000000 1.000000 0.000000 0.000000 1.000000 0.000000 0.000000 1.000000 0.000000 0.000000 1.000000 0.000000 0.000000 1.000000 0.000000 0.000000 1.000000 0.000000 0.000000 1.000000 0.000000 0.000000 1.000000 0.000000 0.000000 1.000000 0.000000 0.000000 1.000000 0.000000 0.000000 1.000000 0.000000 0.000000 1.000000 0.000000 0.000000 1.000000 0.000000 0.000000 1.000000 0.000000 0.000000 1.000000 0.000000 0.000000 1.000000 0.000000 0.000000 1.000000 0.000000 0.000000 1.000000 0.000000 0.000000 1.000000 0.000000 0.000000 1.000000 0.000000 0.000000 1.000000 0.000000 0.000000 1.000000 0.000000 0.000000 1.000000 0.000000 0.000000 1.000000 0.000000 0.000000 1.000000 0.000000 0.000000 1.000000 0.000000 0.000000 1.000000 0.000000 0.000000 1.000000 0.000000 0.000000 1.000000 0.000000 0.000000 1.000000 0.000000 0.000000 1.000000 0.000000 0.000000 1.000000 0.000000 0.000000 1.000000 0.000000 0.000000 1.000000 0.000000 0.000000 1.000000 0.000000 0.000000 1.000000 0.000000 0.000000 1.000000 0.000000 0.000000 1.000000 0.000000 0.000000 1.000000 0.000000 0.000000 1.000000 0.000000 0.000000 1.000000 0.000000 0.000000 1.000000 0.000000 0.000000 1.000000 0.000000 0.000000 1.000000 0.000000 0.000000 1.000000 0.000000 0.000000 1.000000 0.000000 0.000000 1.000000 0.000000 0.000000 1.000000 0.000000 0.000000 1.000000 0.000000 0.000000 1.000000 0.000000 0.000000 1.000000 0.000000 0.000000 1.000000 0.000000 0.000000 1.000000 0.000000 0.000000 1.000000 0.000000 0.000000 1.000000 0.000000 0.000000 1.000000 0.000000 0.000000 1.000000 0.000000 0.000000 1.000000 0.000000 0.000000 1.000000 0.000000 0.000000 1.000000 0.000000 0.000000 1.000000 0.000000 0.000000 1.000000 0.000000 0.000000 1.000000 0.000000 0.000000 1.000000 0.000000 0.000000 1.000000 0.000000 0.000000 1.000000 0.000000 0.000000 1.000000 0.000000 0.000000 1.000000 0.000000 0.000000 1.000000 0.000000 0.000000 1.000000 0.000000 0.000000 1.000000 0.000000 0.000000 1.000000 0.000000 0.000000 1.000000 0.000000 0.000000 1.000000 0.000000 0.000000 1.000000 0.000000 0.000000 1.000000 0.000000 0.000000 1.000000 0.000000 0.000000 1.000000 0.000000 0.000000 1.000000 0.000000 0.000000 1.000000 0.000000 0.000000 1.000000 0.000000 0.000000 1.000000 0.000000 0.000000 1.000000 0.000000 0.000000 1.000000 0.000000 0.000000 1.000000 0.000000 0.000000 1.000000 0.000000 0.000000 1.000000 0.000000 0.000000 1.000000 0.000000 0.000000 1.000000 0.000000 0.000000 1.000000 0.000000 0.000000 1.000000 0.000000 0.000000 1.000000 0.000000 0.000000 1.000000 0.000000 0.000000 1.000000 0.000000 0.000000 1.000000 0.000000 0.000000 1.000000 0.000000 0.000000 1.000000 0.000000 0.000000 1.000000 0.000000 0.000000 1.000000 0.000000 0.000000 1.000000 0.000000 0.000000 1.000000 0.000000 0.000000 1.000000 0.000000 0.000000 1.000000 0.000000 0.000000 1.000000 0.000000 0.000000 1.000000 0.000000 0.000000 1.000000 0.000000 0.000000 1.000000 0.000000 0.000000 1.000000 0.000000 0.000000 1.000000 0.000000 0.000000 1.000000 0.000000 0.000000 1.000000 0.000000 0.000000 1.000000 0.000000 0.000000 1.000000 0.000000 0.000000 1.000000 0.000000 0.000000 1.000000 0.000000 0.000000 1.000000 0.000000 0.000000 1.000000 0.000000 0.000000 1.000000 0.000000 0.000000 1.000000 0.000000 0.000000 1.000000 0.000000 0.000000 1.000000 0.000000 0.000000 1.000000 0.000000 0.000000 1.000000 0.000000 0.000000 1.000000 0.000000 0.000000 1.000000 0.142315 0.989821 -0.000000 0.142315 0.989821 -0.000000 0.281733 0.959493 -0.000000 0.281733 0.959493 -0.000000 0.415415 0.909632 -0.000000 0.415415 0.909632 -0.000000 0.540641 0.841254 -0.000000 0.540641 0.841254 -0.000000 0.654861 0.755750 -0.000000 0.654861 0.755750 -0.000000 0.755750 0.654861 -0.000000 0.755750 0.654861 -0.000000 0.841254 0.540641 -0.000000 0.841254 0.540641 -0.000000 0.909632 0.415415 -0.000000 0.909632 0.415415 -0.000000 0.959493 0.281733 -0.000000 0.959493 0.281733 -0.000000 0.989821 0.142315 -0.000000 0.989821 0.142315 -0.000000 1.000000 -0.000000 -0.000000 1.000000 -0.000000 -0.000000 0.989821 0.142315 -0.000000 0.959493 0.281733 -0.000000 0.909632 0.415415 -0.000000 0.841254 0.540641 -0.000000 0.755750 0.654861 -0.000000 0.654861 0.755750 -0.000000 0.540641 0.841254 -0.000000 0.415415 0.909632 -0.000000 0.281733 0.959493 -0.000000 0.142315 0.989821 -0.000000 1.000000 0.000000 0.000000 1.000000 0.000000 0.000000 0.989821 -0.142315 -0.000000 0.989821 -0.142315 -0.000000 0.959493 -0.281733 -0.000000 0.959493 -0.281733 -0.000000 0.909632 -0.415415 -0.000000 0.909632 -0.415415 -0.000000 0.841254 -0.540641 -0.000000 0.841254 -0.540641 -0.000000 0.755750 -0.654861 -0.000000 0.755750 -0.654861 -0.000000 0.654861 -0.755750 -0.000000 0.654861 -0.755750 -0.000000 0.540641 -0.841254 -0.000000 0.540641 -0.841254 -0.000000 0.415415 -0.909632 -0.000000 0.415415 -0.909632 -0.000000 0.281733 -0.959493 -0.000000 0.281733 -0.959493 -0.000000 0.142315 -0.989821 -0.000000 0.142315 -0.989821 -0.000000 -0.000000 -1.000000 -0.000000 -0.000000 -1.000000 -0.000000 0.142315 -0.989821 -0.000000 0.281733 -0.959493 -0.000000 0.415415 -0.909632 -0.000000 0.540641 -0.841254 -0.000000 0.654861 -0.755750 -0.000000 0.755750 -0.654861 -0.000000 0.841254 -0.540641 -0.000000 0.909632 -0.415415 -0.000000 0.959493 -0.281733 -0.000000 0.989821 -0.142315 -0.000000 -0.000000 -1.000000 0.000000 -0.000000 -1.000000 0.000000 -0.142315 -0.989821 0.000000 -0.142315 -0.989821 0.000000 -0.281733 -0.959493 0.000000 -0.281733 -0.959493 0.000000 -0.415415 -0.909632 0.000000 -0.415415 -0.909632 0.000000 -0.540641 -0.841254 0.000000 -0.540641 -0.841254 0.000000 -0.654861 -0.755750 0.000000 -0.654861 -0.755750 0.000000 -0.755750 -0.654861 0.000000 -0.755750 -0.654861 0.000000 -0.841254 -0.540641 0.000000 -0.841254 -0.540641 0.000000 -0.909632 -0.415415 0.000000 -0.909632 -0.415415 0.000000 -0.959493 -0.281733 0.000000 -0.959493 -0.281733 0.000000 -0.989821 -0.142315 0.000000 -0.989821 -0.142315 0.000000 -1.000000 -0.000000 0.000000 -1.000000 -0.000000 0.000000 -0.989821 -0.142315 0.000000 -0.959493 -0.281733 0.000000 -0.909632 -0.415415 0.000000 -0.841254 -0.540641 0.000000 -0.755750 -0.654861 0.000000 -0.654861 -0.755750 0.000000 -0.540641 -0.841254 0.000000 -0.415415 -0.909632 0.000000 -0.281733 -0.959493 0.000000 -0.142315 -0.989821 0.000000 0.000000 0.000000 1.000000 0.000000 0.000000 1.000000 0.000000 0.000000 1.000000 0.000000 0.000000 1.000000 0.000000 0.000000 1.000000 0.000000 0.000000 1.000000 0.000000 0.000000 1.000000 0.000000 0.000000 1.000000 0.000000 0.000000 1.000000 0.000000 0.000000 1.000000 0.000000 0.000000 1.000000 0.000000 0.000000 1.000000 0.000000 0.000000 1.000000 0.000000 0.000000 1.000000 0.000000 0.000000 1.000000 0.000000 0.000000 1.000000 0.000000 0.000000 1.000000 0.000000 0.000000 1.000000 0.000000 0.000000 1.000000 0.000000 0.000000 1.000000 0.000000 0.000000 1.000000 0.000000 0.000000 1.000000 0.000000 0.000000 1.000000 0.000000 0.000000 1.000000 0.000000 0.000000 1.000000 0.000000 0.000000 1.000000 0.000000 0.000000 1.000000 0.000000 0.000000 1.000000 0.000000 0.000000 1.000000 0.000000 0.000000 1.000000 0.000000 0.000000 1.000000 0.000000 0.000000 1.000000 0.000000 0.000000 1.000000 0.000000 0.000000 1.000000 0.000000 0.000000 1.000000 0.000000 0.000000 1.000000 0.000000 0.000000 1.000000 0.000000 0.000000 1.000000 0.000000 0.000000 1.000000 0.000000 0.000000 1.000000 0.000000 0.000000 1.000000 0.000000 0.000000 1.000000 0.000000 0.000000 1.000000 0.000000 0.000000 1.000000 0.000000 0.000000 1.000000 0.000000 0.000000 1.000000 0.000000 0.000000 1.000000 0.000000 0.000000 1.000000 0.000000 0.000000 1.000000 0.000000 0.000000 1.000000 0.000000 0.000000 1.000000 0.000000 0.000000 1.000000 0.000000 0.000000 1.000000 0.000000 0.000000 1.000000 0.993238 -0.116093 0.000000 0.993238 -0.116093 0.000000 1.000000 -0.000000 0.000000 1.000000 -0.000000 0.000000 0.993238 0.116093 -0.000000 0.993238 0.116093 -0.000000 0.973045 0.230616 -0.000000 0.973045 0.230616 -0.000000 0.939693 0.342020 -0.000000 0.939693 0.342020 -0.000000 0.893633 0.448799 -0.000000 0.893633 0.448799 -0.000000 0.835488 0.549509 -0.000000 0.835488 0.549509 -0.000000 0.766044 0.642788 -0.000000 0.766044 0.642788 -0.000000 0.686242 0.727374 -0.000000 0.686242 0.727374 -0.000000 0.597159 0.802123 -0.000000 0.597159 0.802123 -0.000000 0.500000 0.866025 -0.000000 0.500000 0.866025 -0.000000 0.396080 0.918216 -0.000000 0.396080 0.918216 -0.000000 0.286803 0.957990 -0.000000 0.286803 0.957990 -0.000000 0.173648 0.984808 -0.000000 0.173648 0.984808 -0.000000 0.058145 0.998308 -0.000000 0.058145 0.998308 -0.000000 -0.058145 0.998308 0.000000 -0.058145 0.998308 0.000000 -0.173648 0.984808 0.000000 -0.173648 0.984808 0.000000 -0.286803 0.957990 0.000000 -0.286803 0.957990 0.000000 -0.396080 0.918216 0.000000 -0.396080 0.918216 0.000000 -0.500000 0.866025 0.000000 -0.500000 0.866025 0.000000 -0.597159 0.802123 0.000000 -0.597159 0.802123 0.000000 -0.686242 0.727374 0.000000 -0.686242 0.727374 0.000000 -0.766044 0.642788 0.000000 -0.766044 0.642788 0.000000 -0.835488 0.549509 0.000000 -0.835488 0.549509 0.000000 -0.893633 0.448799 0.000000 -0.893633 0.448799 0.000000 -0.939693 0.342020 0.000000 -0.939693 0.342020 0.000000 -0.973045 0.230616 0.000000 -0.973045 0.230616 0.000000 -0.993238 0.116093 0.000000 -0.993238 0.116093 0.000000 -1.000000 0.000000 0.000000 -1.000000 0.000000 0.000000 -0.993238 -0.116093 0.000000 -0.993238 -0.116093 0.000000 -0.973045 -0.230616 0.000000 -0.973045 -0.230616 0.000000 -0.939693 -0.342020 0.000000 -0.939693 -0.342020 0.000000 -0.893633 -0.448799 0.000000 -0.893633 -0.448799 0.000000 -0.835488 -0.549509 0.000000 -0.835488 -0.549509 0.000000 -0.766044 -0.642788 0.000000 -0.766044 -0.642788 0.000000 -0.686242 -0.727374 0.000000 -0.686242 -0.727374 0.000000 -0.597159 -0.802123 0.000000 -0.597159 -0.802123 0.000000 -0.500000 -0.866025 0.000000 -0.500000 -0.866025 0.000000 -0.396080 -0.918216 0.000000 -0.396080 -0.918216 0.000000 -0.286803 -0.957990 0.000000 -0.286803 -0.957990 0.000000 -0.173648 -0.984808 0.000000 -0.173648 -0.984808 0.000000 -0.058145 -0.998308 0.000000 -0.058145 -0.998308 0.000000 0.058145 -0.998308 0.000000 0.058145 -0.998308 0.000000 0.173648 -0.984808 0.000000 0.173648 -0.984808 0.000000 0.286803 -0.957990 0.000000 0.286803 -0.957990 0.000000 0.396080 -0.918216 0.000000 0.396080 -0.918216 0.000000 0.500000 -0.866025 0.000000 0.500000 -0.866025 0.000000 0.597159 -0.802123 0.000000 0.597159 -0.802123 0.000000 0.686242 -0.727374 0.000000 0.686242 -0.727374 0.000000 0.766044 -0.642788 0.000000 0.766044 -0.642788 0.000000 0.835488 -0.549509 0.000000 0.835488 -0.549509 0.000000 0.893633 -0.448799 0.000000 0.893633 -0.448799 0.000000 0.939693 -0.342020 0.000000 0.939693 -0.342020 0.000000 0.973045 -0.230616 0.000000 0.973045 -0.230616 0.000000 -0.997066 -0.076549 0.000000 -0.997066 -0.076549 0.000000 -1.000000 -0.000000 0.000000 -1.000000 -0.000000 0.000000 -0.997066 0.076549 -0.000000 -0.997066 0.076549 -0.000000 -0.988280 0.152649 -0.000000 -0.988280 0.152649 -0.000000 -0.973695 0.227854 -0.000000 -0.973695 0.227854 -0.000000 -0.953396 0.301721 -0.000000 -0.953396 0.301721 -0.000000 -0.927502 0.373817 -0.000000 -0.927502 0.373817 -0.000000 -0.896166 0.443720 -0.000000 -0.896166 0.443720 -0.000000 -0.859570 0.511019 -0.000000 -0.859570 0.511019 -0.000000 -0.817929 0.575319 -0.000000 -0.817929 0.575319 -0.000000 -0.771489 0.636242 -0.000000 -0.771489 0.636242 -0.000000 -0.720522 0.693433 -0.000000 -0.720522 0.693433 -0.000000 -0.665326 0.746553 -0.000000 -0.665326 0.746553 -0.000000 -0.606225 0.795293 -0.000000 -0.606225 0.795293 -0.000000 -0.543568 0.839365 -0.000000 -0.543568 0.839365 -0.000000 -0.477720 0.878512 -0.000000 -0.477720 0.878512 -0.000000 -0.409069 0.912504 -0.000000 -0.409069 0.912504 -0.000000 -0.338017 0.941140 -0.000000 -0.338017 0.941140 -0.000000 -0.264982 0.964253 -0.000000 -0.264982 0.964253 -0.000000 -0.190391 0.981708 -0.000000 -0.190391 0.981708 -0.000000 -0.114683 0.993402 -0.000000 -0.114683 0.993402 -0.000000 -0.038303 0.999266 -0.000000 -0.038303 0.999266 -0.000000 0.038303 0.999266 -0.000000 0.038303 0.999266 -0.000000 0.114683 0.993402 -0.000000 0.114683 0.993402 -0.000000 0.190391 0.981708 -0.000000 0.190391 0.981708 -0.000000 0.264982 0.964253 -0.000000 0.264982 0.964253 -0.000000 0.338017 0.941140 -0.000000 0.338017 0.941140 -0.000000 0.409069 0.912504 -0.000000 0.409069 0.912504 -0.000000 0.477720 0.878512 -0.000000 0.477720 0.878512 -0.000000 0.543568 0.839365 -0.000000 0.543568 0.839365 -0.000000 0.606225 0.795293 -0.000000 0.606225 0.795293 -0.000000 0.665326 0.746553 -0.000000 0.665326 0.746553 -0.000000 0.720522 0.693433 -0.000000 0.720522 0.693433 -0.000000 0.771489 0.636242 -0.000000 0.771489 0.636242 -0.000000 0.817929 0.575319 -0.000000 0.817929 0.575319 -0.000000 0.859570 0.511019 -0.000000 0.859570 0.511019 -0.000000 0.896166 0.443720 -0.000000 0.896166 0.443720 -0.000000 0.927502 0.373817 -0.000000 0.927502 0.373817 -0.000000 0.953396 0.301721 -0.000000 0.953396 0.301721 -0.000000 0.973695 0.227854 -0.000000 0.973695 0.227854 -0.000000 0.988280 0.152649 -0.000000 0.988280 0.152649 -0.000000 0.997066 0.076549 -0.000000 0.997066 0.076549 -0.000000 1.000000 0.000000 -0.000000 1.000000 0.000000 -0.000000 0.997066 -0.076549 -0.000000 0.997066 -0.076549 -0.000000 0.988280 -0.152649 -0.000000 0.988280 -0.152649 -0.000000 0.973695 -0.227854 -0.000000 0.973695 -0.227854 -0.000000 0.953396 -0.301721 -0.000000 0.953396 -0.301721 -0.000000 0.927502 -0.373817 -0.000000 0.927502 -0.373817 -0.000000 0.896166 -0.443720 -0.000000 0.896166 -0.443720 -0.000000 0.859570 -0.511019 -0.000000 0.859570 -0.511019 -0.000000 0.817929 -0.575319 -0.000000 0.817929 -0.575319 -0.000000 0.771489 -0.636242 -0.000000 0.771489 -0.636242 -0.000000 0.720522 -0.693433 -0.000000 0.720522 -0.693433 -0.000000 0.665326 -0.746553 -0.000000 0.665326 -0.746553 -0.000000 0.606225 -0.795293 -0.000000 0.606225 -0.795293 -0.000000 0.543568 -0.839365 -0.000000 0.543568 -0.839365 -0.000000 0.477720 -0.878512 -0.000000 0.477720 -0.878512 -0.000000 0.409069 -0.912504 -0.000000 0.409069 -0.912504 -0.000000 0.338017 -0.941140 -0.000000 0.338017 -0.941140 -0.000000 0.264982 -0.964253 -0.000000 0.264982 -0.964253 -0.000000 0.190391 -0.981708 -0.000000 0.190391 -0.981708 -0.000000 0.114683 -0.993402 -0.000000 0.114683 -0.993402 -0.000000 0.038303 -0.999266 -0.000000 0.038303 -0.999266 -0.000000 -0.038303 -0.999266 0.000000 -0.038303 -0.999266 0.000000 -0.114683 -0.993402 0.000000 -0.114683 -0.993402 0.000000 -0.190391 -0.981708 0.000000 -0.190391 -0.981708 0.000000 -0.264982 -0.964253 0.000000 -0.264982 -0.964253 0.000000 -0.338017 -0.941140 0.000000 -0.338017 -0.941140 0.000000 -0.409069 -0.912504 0.000000 -0.409069 -0.912504 0.000000 -0.477720 -0.878512 0.000000 -0.477720 -0.878512 0.000000 -0.543568 -0.839365 0.000000 -0.543568 -0.839365 0.000000 -0.606225 -0.795293 0.000000 -0.606225 -0.795293 0.000000 -0.665326 -0.746553 0.000000 -0.665326 -0.746553 0.000000 -0.720522 -0.693433 0.000000 -0.720522 -0.693433 0.000000 -0.771489 -0.636242 0.000000 -0.771489 -0.636242 0.000000 -0.817929 -0.575319 0.000000 -0.817929 -0.575319 0.000000 -0.859570 -0.511019 0.000000 -0.859570 -0.511019 0.000000 -0.896166 -0.443720 0.000000 -0.896166 -0.443720 0.000000 -0.927502 -0.373817 0.000000 -0.927502 -0.373817 0.000000 -0.953396 -0.301721 0.000000 -0.953396 -0.301721 0.000000 -0.973695 -0.227854 0.000000 -0.973695 -0.227854 0.000000 -0.988280 -0.152649 0.000000 -0.988280 -0.152649 0.000000 0.000000 0.000000 1.000000 0.000000 0.000000 1.000000 0.000000 0.000000 1.000000 0.000000 0.000000 1.000000 0.000000 0.000000 1.000000 0.000000 0.000000 1.000000 0.000000 0.000000 1.000000 0.000000 0.000000 1.000000 0.000000 0.000000 1.000000 0.000000 0.000000 1.000000 0.000000 0.000000 1.000000 0.000000 0.000000 1.000000 0.000000 0.000000 1.000000 0.000000 0.000000 1.000000 0.000000 0.000000 1.000000 0.000000 0.000000 1.000000 0.000000 0.000000 1.000000 0.000000 0.000000 1.000000 0.000000 0.000000 1.000000 0.000000 0.000000 1.000000 0.000000 0.000000 1.000000 0.000000 0.000000 1.000000 0.000000 0.000000 1.000000 0.000000 0.000000 1.000000 0.000000 0.000000 1.000000 0.000000 0.000000 1.000000 0.000000 0.000000 1.000000 0.000000 0.000000 1.000000 0.000000 0.000000 1.000000 0.000000 0.000000 1.000000 0.000000 0.000000 1.000000 0.000000 0.000000 1.000000 0.000000 0.000000 1.000000 0.000000 0.000000 1.000000 0.000000 0.000000 1.000000 0.000000 0.000000 1.000000 0.000000 0.000000 1.000000 0.000000 0.000000 1.000000 0.000000 0.000000 1.000000 0.000000 0.000000 1.000000 0.000000 0.000000 1.000000 0.000000 0.000000 1.000000 0.000000 0.000000 1.000000 0.000000 0.000000 1.000000 0.000000 0.000000 1.000000 0.000000 0.000000 1.000000 0.000000 0.000000 1.000000 0.000000 0.000000 1.000000 0.000000 0.000000 1.000000 0.000000 0.000000 1.000000 0.000000 0.000000 1.000000 0.000000 0.000000 1.000000 0.000000 0.000000 1.000000 0.000000 0.000000 1.000000 0.000000 0.000000 1.000000 0.000000 0.000000 1.000000 0.000000 0.000000 1.000000 0.000000 0.000000 1.000000 0.000000 0.000000 1.000000 0.000000 0.000000 1.000000 0.000000 0.000000 1.000000 0.000000 0.000000 1.000000 0.000000 0.000000 1.000000 0.000000 0.000000 1.000000 0.000000 0.000000 1.000000 0.000000 0.000000 1.000000 0.000000 0.000000 1.000000 0.000000 0.000000 1.000000 0.000000 0.000000 1.000000 0.000000 0.000000 1.000000 0.000000 0.000000 1.000000 0.000000 0.000000 1.000000 0.000000 0.000000 1.000000 0.000000 0.000000 1.000000 0.000000 0.000000 1.000000 0.000000 0.000000 1.000000 0.000000 0.000000 1.000000 0.000000 0.000000 1.000000 0.000000 0.000000 1.000000 0.000000 0.000000 1.000000 0.000000 0.000000 1.000000 0.000000 0.000000 1.000000 0.000000 0.000000 1.000000 0.000000 0.000000 1.000000 0.000000 0.000000 1.000000 0.000000 0.000000 1.000000 0.000000 0.000000 1.000000 0.000000 0.000000 1.000000 0.000000 0.000000 1.000000 0.000000 0.000000 1.000000 0.000000 0.000000 1.000000 0.000000 0.000000 1.000000 0.000000 0.000000 1.000000 0.000000 0.000000 1.000000 0.000000 0.000000 1.000000 0.000000 0.000000 1.000000 0.000000 0.000000 1.000000 0.000000 0.000000 1.000000 0.000000 0.000000 1.000000 0.000000 0.000000 1.000000 0.000000 0.000000 1.000000 0.000000 0.000000 1.000000 0.000000 0.000000 1.000000 0.000000 0.000000 1.000000 0.000000 0.000000 1.000000 0.000000 0.000000 1.000000 0.000000 0.000000 1.000000 0.000000 0.000000 1.000000 0.000000 0.000000 1.000000 0.000000 0.000000 1.000000 0.000000 0.000000 1.000000 0.000000 0.000000 1.000000 0.000000 0.000000 1.000000 0.000000 0.000000 1.000000 0.000000 0.000000 1.000000 0.000000 0.000000 1.000000 0.000000 0.000000 1.000000 0.000000 0.000000 1.000000 0.000000 0.000000 1.000000 0.000000 0.000000 1.000000 0.000000 0.000000 1.000000 0.000000 0.000000 1.000000 0.000000 0.000000 1.000000 0.000000 0.000000 1.000000 0.000000 0.000000 1.000000 0.000000 0.000000 1.000000 0.000000 0.000000 1.000000 0.000000 0.000000 1.000000 0.000000 0.000000 1.000000 0.000000 0.000000 1.000000 0.000000 0.000000 1.000000 0.000000 0.000000 1.000000 0.000000 0.000000 1.000000 0.000000 0.000000 1.000000 0.000000 0.000000 1.000000 0.000000 0.000000 1.000000</float_array>
          <technique_common>
            <accessor source="#base_link-mesh-normals-array" count="776" stride="3">
              <param name="X" type="float"/>
              <param name="Y" type="float"/>
              <param name="Z" type="float"/>
            </accessor>
          </technique_common>
        </source>
        <vertices id="base_link-mesh-vertices">
          <input semantic="POSITION" source="#base_link-mesh-positions"/>
        </vertices>
        <triangles material="Default" count="812">
          <input semantic="VERTEX" source="#base_link-mesh-vertices" offset="0"/>
          <input semantic="NORMAL" source="#base_link-mesh-normals" offset="1"/>
          <p>1 0 11 1 0 2 0 2 11 1 12 3 0 2 12 3 47 4 47 4 12 3 23 5 47 4 23 5 36 6 36 6 23 5 24 7 36 6 24 7 35 8 35 8 24 7 34 9 34 9 24 7 33 10 33 10 24 7 32 11 32 11 24 7 31 12 31 12 24 7 30 13 30 13 24 7 29 14 29 14 24 7 28 15 28 15 24 7 27 16 27 16 24 7 26 17 26 17 24 7 25 18 1 0 2 19 11 1 11 1 2 19 3 20 11 1 3 20 4 21 4 21 5 22 11 1 11 1 5 22 6 23 11 1 6 23 7 24 7 24 8 25 11 1 11 1 8 25 9 26 11 1 9 26 10 27 13 28 14 29 12 3 12 3 14 29 15 30 12 3 15 30 16 31 16 31 17 32 12 3 12 3 17 32 18 33 12 3 18 33 19 34 19 34 20 35 12 3 12 3 20 35 21 36 12 3 21 36 22 37 22 37 23 5 12 3 36 6 37 38 47 4 47 4 37 38 38 39 47 4 38 39 39 40 39 40 40 41 47 4 47 4 40 41 41 42 47 4 41 42 42 43 42 43 43 44 47 4 47 4 43 44 44 45 47 4 44 45 45 46 45 46 46 47 47 4 0 48 48 49 60 50 60 50 48 49 49 51 60 50 49 51 61 52 61 52 49 51 50 53 61 52 50 53 62 54 62 54 50 53 51 55 62 54 51 55 63 56 63 56 51 55 52 57 63 56 52 57 64 58 64 58 52 57 53 59 64 58 53 59 65 60 65 60 53 59 54 61 65 60 54 61 66 62 66 62 54 61 55 63 66 62 55 63 67 64 67 64 55 63 56 65 67 64 56 65 68 66 68 66 56 65 57 67 68 66 57 67 69 68 69 68 57 67 58 69 69 68 58 69 59 70 59 70 11 71 69 68 69 68 11 71 10 72 69 68 10 72 68 66 68 66 10 72 9 73 68 66 9 73 67 64 67 64 9 73 8 74 67 64 8 74 66 62 66 62 8 74 7 75 66 62 7 75 65 60 65 60 7 75 6 76 65 60 6 76 64 58 64 58 6 76 5 77 64 58 5 77 63 56 63 56 5 77 4 78 63 56 4 78 62 54 62 54 4 78 3 79 62 54 3 79 61 52 61 52 3 79 2 80 61 52 2 80 60 50 60 50 2 80 1 81 60 50 1 81 0 48 59 70 70 82 11 71 11 71 70 82 12 83 58 84 57 85 59 86 59 86 57 85 56 87 59 86 56 87 55 88 55 88 54 89 59 86 59 86 54 89 53 90 59 86 53 90 52 91 52 91 51 92 59 86 59 86 51 92 50 93 59 86 50 93 49 94 49 94 48 95 59 86 59 86 48 95 116 96 59 86 116 96 117 97 71 98 106 99 48 95 48 95 106 99 107 100 48 95 107 100 108 101 72 102 73 103 71 98 71 98 73 103 74 104 71 98 74 104 75 105 75 105 76 106 71 98 71 98 76 106 77 107 71 98 77 107 78 108 78 108 79 109 71 98 71 98 79 109 80 110 71 98 80 110 81 111 81 111 82 112 71 98 71 98 82 112 178 113 71 98 178 113 179 114 83 115 168 116 82 112 82 112 168 116 169 117 82 112 169 117 170 118 84 119 94 120 83 115 83 115 94 120 157 121 83 115 157 121 158 122 84 119 85 123 94 120 94 120 85 123 86 124 94 120 86 124 87 125 87 125 88 126 94 120 94 120 88 126 89 127 94 120 89 127 90 128 90 128 91 129 94 120 94 120 91 129 92 130 94 120 92 130 93 131 95 132 147 133 94 120 94 120 147 133 148 134 94 120 148 134 149 135 96 136 70 137 95 132 95 132 70 137 137 138 95 132 137 138 138 139 96 136 97 140 70 137 70 137 97 140 98 141 70 137 98 141 99 142 99 142 100 143 70 137 70 137 100 143 101 144 70 137 101 144 102 145 102 145 103 146 70 137 70 137 103 146 104 147 70 137 104 147 105 148 59 86 127 149 70 137 70 137 127 149 128 150 70 137 128 150 129 151 108 101 109 152 48 95 48 95 109 152 110 153 48 95 110 153 111 154 111 154 112 155 48 95 48 95 112 155 113 156 48 95 113 156 114 157 114 157 115 158 48 95 48 95 115 158 116 96 117 97 118 159 59 86 59 86 118 159 119 160 59 86 119 160 120 161 120 161 121 162 59 86 59 86 121 162 122 163 59 86 122 163 123 164 123 164 124 165 59 86 59 86 124 165 125 166 59 86 125 166 126 167 126 167 127 149 59 86 129 151 130 168 70 137 70 137 130 168 131 169 70 137 131 169 132 170 132 170 133 171 70 137 70 137 133 171 134 172 70 137 134 172 135 173 135 173 136 174 70 137 70 137 136 174 137 138 138 139 139 175 95 132 95 132 139 175 140 176 95 132 140 176 141 177 141 177 142 178 95 132 95 132 142 178 143 179 95 132 143 179 144 180 144 180 145 181 95 132 95 132 145 181 146 182 95 132 146 182 147 133 149 135 150 183 94 120 94 120 150 183 151 184 94 120 151 184 152 185 152 185 153 186 94 120 94 120 153 186 154 187 94 120 154 187 155 188 155 188 156 189 94 120 94 120 156 189 157 121 158 122 159 190 83 115 83 115 159 190 160 191 83 115 160 191 161 192 161 192 162 193 83 115 83 115 162 193 163 194 83 115 163 194 164 195 164 195 165 196 83 115 83 115 165 196 166 197 83 115 166 197 167 198 167 198 168 116 83 115 170 118 171 199 82 112 82 112 171 199 172 200 82 112 172 200 173 201 173 201 174 202 82 112 82 112 174 202 175 203 82 112 175 203 176 204 176 204 177 205 82 112 82 112 177 205 178 113 179 114 180 206 71 98 71 98 180 206 181 207 71 98 181 207 182 208 182 208 183 209 71 98 71 98 183 209 184 210 71 98 184 210 185 211 185 211 186 212 71 98 71 98 186 212 187 213 71 98 187 213 106 99 12 83 70 82 188 214 188 214 70 82 105 215 188 214 105 215 189 216 189 216 105 215 104 217 189 216 104 217 190 218 190 218 104 217 103 219 190 218 103 219 191 220 191 220 103 219 102 221 191 220 102 221 192 222 192 222 102 221 101 223 192 222 101 223 193 224 193 224 101 223 100 225 193 224 100 225 194 226 194 226 100 225 99 227 194 226 99 227 195 228 195 228 99 227 98 229 195 228 98 229 196 230 196 230 98 229 97 231 196 230 97 231 197 232 197 232 97 231 96 233 197 232 96 233 95 234 95 234 23 235 197 232 197 232 23 235 22 236 197 232 22 236 196 230 196 230 22 236 21 237 196 230 21 237 195 228 195 228 21 237 20 238 195 228 20 238 194 226 194 226 20 238 19 239 194 226 19 239 193 224 193 224 19 239 18 240 193 224 18 240 192 222 192 222 18 240 17 241 192 222 17 241 191 220 191 220 17 241 16 242 191 220 16 242 190 218 190 218 16 242 15 243 190 218 15 243 189 216 189 216 15 243 14 244 189 216 14 244 188 214 188 214 14 244 13 245 188 214 13 245 12 83 95 234 94 246 23 235 23 235 94 246 24 247 24 247 94 246 198 248 198 248 94 246 93 249 198 248 93 249 199 250 199 250 93 249 92 251 199 250 92 251 200 252 200 252 92 251 91 253 200 252 91 253 201 254 201 254 91 253 90 255 201 254 90 255 202 256 202 256 90 255 89 257 202 256 89 257 203 258 203 258 89 257 88 259 203 258 88 259 204 260 204 260 88 259 87 261 204 260 87 261 205 262 205 262 87 261 86 263 205 262 86 263 206 264 206 264 86 263 85 265 206 264 85 265 207 266 207 266 85 265 84 267 207 266 84 267 83 268 83 268 35 269 207 266 207 266 35 269 34 270 207 266 34 270 206 264 206 264 34 270 33 271 206 264 33 271 205 262 205 262 33 271 32 272 205 262 32 272 204 260 204 260 32 272 31 273 204 260 31 273 203 258 203 258 31 273 30 274 203 258 30 274 202 256 202 256 30 274 29 275 202 256 29 275 201 254 201 254 29 275 28 276 201 254 28 276 200 252 200 252 28 276 27 277 200 252 27 277 199 250 199 250 27 277 26 278 199 250 26 278 198 248 198 248 26 278 25 279 198 248 25 279 24 247 83 268 82 280 35 269 35 269 82 280 36 281 36 281 82 280 208 282 208 282 82 280 81 283 208 282 81 283 209 284 209 284 81 283 80 285 209 284 80 285 210 286 210 286 80 285 79 287 210 286 79 287 211 288 211 288 79 287 78 289 211 288 78 289 212 290 212 290 78 289 77 291 212 290 77 291 213 292 213 292 77 291 76 293 213 292 76 293 214 294 214 294 76 293 75 295 214 294 75 295 215 296 215 296 75 295 74 297 215 296 74 297 216 298 216 298 74 297 73 299 216 298 73 299 217 300 217 300 73 299 72 301 217 300 72 301 71 302 71 302 47 303 217 300 217 300 47 303 46 304 217 300 46 304 216 298 216 298 46 304 45 305 216 298 45 305 215 296 215 296 45 305 44 306 215 296 44 306 214 294 214 294 44 306 43 307 214 294 43 307 213 292 213 292 43 307 42 308 213 292 42 308 212 290 212 290 42 308 41 309 212 290 41 309 211 288 211 288 41 309 40 310 211 288 40 310 210 286 210 286 40 310 39 311 210 286 39 311 209 284 209 284 39 311 38 312 209 284 38 312 208 282 208 282 38 312 37 313 208 282 37 313 36 281 0 48 47 303 48 49 48 49 47 303 71 302 219 314 244 315 218 316 218 316 244 315 245 317 218 316 245 317 271 318 271 318 245 317 246 319 271 318 246 319 270 320 270 320 246 319 247 321 270 320 247 321 269 322 269 322 247 321 248 323 269 322 248 323 268 324 268 324 248 323 249 325 268 324 249 325 267 326 267 326 249 325 250 327 267 326 250 327 266 328 266 328 250 327 251 329 266 328 251 329 265 330 265 330 251 329 252 331 265 330 252 331 264 332 264 332 252 331 253 333 264 332 253 333 263 334 263 334 253 333 254 335 263 334 254 335 262 336 262 336 254 335 255 337 262 336 255 337 261 338 261 338 255 337 256 339 261 338 256 339 260 340 260 340 256 339 257 341 260 340 257 341 259 342 259 342 257 341 258 343 244 315 219 314 243 344 243 344 219 314 220 345 243 344 220 345 242 346 242 346 220 345 221 347 242 346 221 347 241 348 241 348 221 347 222 349 241 348 222 349 240 350 240 350 222 349 223 351 240 350 223 351 239 352 239 352 223 351 224 353 239 352 224 353 238 354 238 354 224 353 225 355 238 354 225 355 237 356 237 356 225 355 226 357 237 356 226 357 236 358 236 358 226 357 227 359 236 358 227 359 235 360 235 360 227 359 228 361 235 360 228 361 234 362 234 362 228 361 229 363 234 362 229 363 233 364 233 364 229 363 230 365 233 364 230 365 232 366 232 366 230 365 231 367 271 368 325 369 218 370 218 370 325 369 272 371 218 370 272 371 219 372 219 372 272 371 273 373 219 372 273 373 220 374 220 374 273 373 274 375 220 374 274 375 221 376 221 376 274 375 275 377 221 376 275 377 222 378 222 378 275 377 276 379 222 378 276 379 223 380 223 380 276 379 277 381 223 380 277 381 224 382 224 382 277 381 278 383 224 382 278 383 225 384 225 384 278 383 279 385 225 384 279 385 226 386 226 386 279 385 280 387 226 386 280 387 227 388 227 388 280 387 281 389 227 388 281 389 228 390 228 390 281 389 282 391 228 390 282 391 229 392 229 392 282 391 283 393 229 392 283 393 230 394 230 394 283 393 284 395 230 394 284 395 231 396 231 396 284 395 285 397 231 396 285 397 232 398 232 398 285 397 286 399 232 398 286 399 233 400 233 400 286 399 287 401 233 400 287 401 234 402 234 402 287 401 288 403 234 402 288 403 235 404 235 404 288 403 289 405 235 404 289 405 236 406 236 406 289 405 290 407 236 406 290 407 237 408 237 408 290 407 291 409 237 408 291 409 238 410 238 410 291 409 292 411 238 410 292 411 239 412 239 412 292 411 293 413 239 412 293 413 240 414 240 414 293 413 294 415 240 414 294 415 241 416 241 416 294 415 295 417 241 416 295 417 242 418 242 418 295 417 296 419 242 418 296 419 243 420 243 420 296 419 297 421 243 420 297 421 244 422 244 422 297 421 298 423 244 422 298 423 245 424 245 424 298 423 299 425 245 424 299 425 246 426 246 426 299 425 300 427 246 426 300 427 247 428 247 428 300 427 301 429 247 428 301 429 248 430 248 430 301 429 302 431 248 430 302 431 249 432 249 432 302 431 303 433 249 432 303 433 250 434 250 434 303 433 304 435 250 434 304 435 251 436 251 436 304 435 305 437 251 436 305 437 252 438 252 438 305 437 306 439 252 438 306 439 253 440 253 440 306 439 307 441 253 440 307 441 254 442 254 442 307 441 308 443 254 442 308 443 255 444 255 444 308 443 309 445 255 444 309 445 256 446 256 446 309 445 310 447 256 446 310 447 257 448 257 448 310 447 311 449 257 448 311 449 258 450 258 450 311 449 312 451 258 450 312 451 259 452 259 452 312 451 313 453 259 452 313 453 260 454 260 454 313 453 314 455 260 454 314 455 261 456 261 456 314 455 315 457 261 456 315 457 262 458 262 458 315 457 316 459 262 458 316 459 263 460 263 460 316 459 317 461 263 460 317 461 264 462 264 462 317 461 318 463 264 462 318 463 265 464 265 464 318 463 319 465 265 464 319 465 266 466 266 466 319 465 320 467 266 466 320 467 267 468 267 468 320 467 321 469 267 468 321 469 268 470 268 470 321 469 322 471 268 470 322 471 269 472 269 472 322 471 323 473 269 472 323 473 270 474 270 474 323 473 324 475 270 474 324 475 271 368 271 368 324 475 325 369 187 476 407 477 106 478 106 478 407 477 326 479 106 478 326 479 107 480 107 480 326 479 327 481 107 480 327 481 108 482 108 482 327 481 328 483 108 482 328 483 109 484 109 484 328 483 329 485 109 484 329 485 110 486 110 486 329 485 330 487 110 486 330 487 111 488 111 488 330 487 331 489 111 488 331 489 112 490 112 490 331 489 332 491 112 490 332 491 113 492 113 492 332 491 333 493 113 492 333 493 114 494 114 494 333 493 334 495 114 494 334 495 115 496 115 496 334 495 335 497 115 496 335 497 116 498 116 498 335 497 336 499 116 498 336 499 117 500 117 500 336 499 337 501 117 500 337 501 118 502 118 502 337 501 338 503 118 502 338 503 119 504 119 504 338 503 339 505 119 504 339 505 120 506 120 506 339 505 340 507 120 506 340 507 121 508 121 508 340 507 341 509 121 508 341 509 122 510 122 510 341 509 342 511 122 510 342 511 123 512 123 512 342 511 343 513 123 512 343 513 124 514 124 514 343 513 344 515 124 514 344 515 125 516 125 516 344 515 345 517 125 516 345 517 126 518 126 518 345 517 346 519 126 518 346 519 127 520 127 520 346 519 347 521 127 520 347 521 128 522 128 522 347 521 348 523 128 522 348 523 129 524 129 524 348 523 349 525 129 524 349 525 130 526 130 526 349 525 350 527 130 526 350 527 131 528 131 528 350 527 351 529 131 528 351 529 132 530 132 530 351 529 352 531 132 530 352 531 133 532 133 532 352 531 353 533 133 532 353 533 134 534 134 534 353 533 354 535 134 534 354 535 135 536 135 536 354 535 355 537 135 536 355 537 136 538 136 538 355 537 356 539 136 538 356 539 137 540 137 540 356 539 357 541 137 540 357 541 138 542 138 542 357 541 358 543 138 542 358 543 139 544 139 544 358 543 359 545 139 544 359 545 140 546 140 546 359 545 360 547 140 546 360 547 141 548 141 548 360 547 361 549 141 548 361 549 142 550 142 550 361 549 362 551 142 550 362 551 143 552 143 552 362 551 363 553 143 552 363 553 144 554 144 554 363 553 364 555 144 554 364 555 145 556 145 556 364 555 365 557 145 556 365 557 146 558 146 558 365 557 366 559 146 558 366 559 147 560 147 560 366 559 367 561 147 560 367 561 148 562 148 562 367 561 368 563 148 562 368 563 149 564 149 564 368 563 369 565 149 564 369 565 150 566 150 566 369 565 370 567 150 566 370 567 151 568 151 568 370 567 371 569 151 568 371 569 152 570 152 570 371 569 372 571 152 570 372 571 153 572 153 572 372 571 373 573 153 572 373 573 154 574 154 574 373 573 374 575 154 574 374 575 155 576 155 576 374 575 375 577 155 576 375 577 156 578 156 578 375 577 376 579 156 578 376 579 157 580 157 580 376 579 377 581 157 580 377 581 158 582 158 582 377 581 378 583 158 582 378 583 159 584 159 584 378 583 379 585 159 584 379 585 160 586 160 586 379 585 380 587 160 586 380 587 161 588 161 588 380 587 381 589 161 588 381 589 162 590 162 590 381 589 382 591 162 590 382 591 163 592 163 592 382 591 383 593 163 592 383 593 164 594 164 594 383 593 384 595 164 594 384 595 165 596 165 596 384 595 385 597 165 596 385 597 166 598 166 598 385 597 386 599 166 598 386 599 167 600 167 600 386 599 387 601 167 600 387 601 168 602 168 602 387 601 388 603 168 602 388 603 169 604 169 604 388 603 389 605 169 604 389 605 170 606 170 606 389 605 390 607 170 606 390 607 171 608 171 608 390 607 391 609 171 608 391 609 172 610 172 610 391 609 392 611 172 610 392 611 173 612 173 612 392 611 393 613 173 612 393 613 174 614 174 614 393 613 394 615 174 614 394 615 175 616 175 616 394 615 395 617 175 616 395 617 176 618 176 618 395 617 396 619 176 618 396 619 177 620 177 620 396 619 397 621 177 620 397 621 178 622 178 622 397 621 398 623 178 622 398 623 179 624 179 624 398 623 399 625 179 624 399 625 180 626 180 626 399 625 400 627 180 626 400 627 181 628 181 628 400 627 401 629 181 628 401 629 182 630 182 630 401 629 402 631 182 630 402 631 183 632 183 632 402 631 403 633 183 632 403 633 184 634 184 634 403 633 404 635 184 634 404 635 185 636 185 636 404 635 405 637 185 636 405 637 186 638 186 638 405 637 406 639 186 638 406 639 187 476 187 476 406 639 407 477 327 640 326 641 272 642 272 642 326 641 407 643 272 642 407 643 273 644 273 644 407 643 406 645 273 644 406 645 274 646 274 646 406 645 405 647 274 646 405 647 404 648 274 646 404 648 275 649 275 649 404 648 403 650 275 649 403 650 276 651 276 651 403 650 402 652 276 651 402 652 401 653 276 651 401 653 277 654 277 654 401 653 400 655 277 654 400 655 278 656 278 656 400 655 399 657 278 656 399 657 398 658 278 656 398 658 279 659 279 659 398 658 397 660 279 659 397 660 280 661 280 661 397 660 396 662 280 661 396 662 395 663 280 661 395 663 281 664 281 664 395 663 394 665 281 664 394 665 282 666 282 666 394 665 393 667 282 666 393 667 392 668 282 666 392 668 283 669 283 669 392 668 391 670 283 669 391 670 284 671 284 671 391 670 390 672 284 671 390 672 389 673 284 671 389 673 285 674 285 674 389 673 388 675 285 674 388 675 387 676 285 674 387 676 286 677 286 677 387 676 386 678 286 677 386 678 287 679 287 679 386 678 385 680 287 679 385 680 384 681 287 679 384 681 288 682 288 682 384 681 383 683 288 682 383 683 289 684 289 684 383 683 382 685 289 684 382 685 381 686 289 684 381 686 290 687 290 687 381 686 380 688 290 687 380 688 291 689 291 689 380 688 379 690 291 689 379 690 378 691 291 689 378 691 292 692 292 692 378 691 377 693 292 692 377 693 293 694 293 694 377 693 376 695 293 694 376 695 375 696 293 694 375 696 294 697 294 697 375 696 374 698 294 697 374 698 295 699 295 699 374 698 373 700 295 699 373 700 372 701 295 699 372 701 296 702 296 702 372 701 371 703 296 702 371 703 297 704 297 704 371 703 370 705 297 704 370 705 369 706 297 704 369 706 298 707 298 707 369 706 368 708 298 707 368 708 299 709 299 709 368 708 367 710 299 709 367 710 366 711 299 709 366 711 300 712 300 712 366 711 365 713 300 712 365 713 301 714 301 714 365 713 364 715 301 714 364 715 363 716 301 714 363 716 302 717 302 717 363 716 362 718 302 717 362 718 303 719 303 719 362 718 361 720 303 719 361 720 360 721 303 719 360 721 304 722 304 722 360 721 359 723 304 722 359 723 305 724 305 724 359 723 358 725 305 724 358 725 357 726 305 724 357 726 306 727 306 727 357 726 356 728 306 727 356 728 307 729 307 729 356 728 355 730 307 729 355 730 354 731 307 729 354 731 308 732 308 732 354 731 353 733 308 732 353 733 309 734 309 734 353 733 352 735 309 734 352 735 351 736 309 734 351 736 310 737 310 737 351 736 350 738 310 737 350 738 311 739 311 739 350 738 349 740 311 739 349 740 348 741 311 739 348 741 312 742 312 742 348 741 347 743 312 742 347 743 346 744 312 742 346 744 313 745 313 745 346 744 345 746 313 745 345 746 314 747 314 747 345 746 344 748 314 747 344 748 343 749 314 747 343 749 315 750 315 750 343 749 342 751 315 750 342 751 316 752 316 752 342 751 341 753 316 752 341 753 340 754 316 752 340 754 317 755 317 755 340 754 339 756 317 755 339 756 318 757 318 757 339 756 338 758 318 757 338 758 337 759 318 757 337 759 319 760 319 760 337 759 336 761 319 760 336 761 320 762 320 762 336 761 335 763 320 762 335 763 334 764 320 762 334 764 321 765 321 765 334 764 333 766 321 765 333 766 322 767 322 767 333 766 332 768 322 767 332 768 331 769 322 767 331 769 323 770 323 770 331 769 330 771 323 770 330 771 324 772 324 772 330 771 329 773 324 772 329 773 328 774 324 772 328 774 325 775 325 775 328 774 327 640 325 775 327 640 272 642</p>
        </triangles>
      </mesh>
    </geometry>
  </library_geometries>
  <library_visual_scenes>
    <visual_scene id="Scene" name="Scene">
      <node id="base_link-node" name="base_link" type="NODE">
        <instance_geometry url="#base_link-mesh">
          <bind_material>
            <technique_common>
              <instance_material symbol="Default" target="#Default"/>
            </technique_common>
          </bind_material>
        </instance_geometry>
      </node>
    </visual_scene>
  </library_visual_scenes>
  <scene>
    <instance_visual_scene url="#Scene"/>
  </scene>
</COLLADA>
