<?xml version="1.0" encoding="utf-8"?>
<COLLADA xmlns="http://www.collada.org/2005/11/COLLADASchema" version="1.4.1">
  <asset>
    <contributor>
      <authoring_tool>Fusion URDF/XACRO Exporter</authoring_tool>
    </contributor>
    <created>2026-08-21T07:34:07Z</created>
    <modified>2026-08-21T07:34:07Z</modified>
    <unit name="meter" meter="1.0"/>
    <up_axis>Z_UP</up_axis>
  </asset>
  <library_effects>
    <effect id="Steel_-_Satin-effect">
      <profile_COMMON>
        <technique sid="common">
          <lambert>
            <emission><color>0 0 0 1</color></emission>
            <ambient><color>0.0000 0.0000 0.0000 1</color></ambient>
            <diffuse><color>0.6275 0.6275 0.6275 1</color></diffuse>
            <reflective><color>0 0 0 1</color></reflective>
            <transparent opaque="A_ONE"><color>1 1 1 1</color></transparent>
            <transparency><float>1</float></transparency>
          </lambert>
        </technique>
      </profile_COMMON>
    </effect>
  </library_effects>
  <library_materials>
    <material id="Steel_-_Satin" name="Steel_-_Satin">
      <instance_effect url="#Steel_-_Satin-effect"/>
    </material>
  </library_materials>
  <library_geometries>
    <geometry id="gripper_motor-mesh" name="gripper_motor">
      <mesh>
        <source id="gripper_motor-mesh-positions">
          <float_array id="gripper_motor-mesh-positions-array" count="936">-0.012500 0.000000 0.543000 -0.012459 -0.001006 0.543000 -0.012338 -0.002005 0.543000 -0.012137 -0.002991 0.543000 -0.011857 -0.003958 0.543000 -0.011500 -0.004900 0.543000 -0.011068 -0.005809 0.543000 -0.010565 -0.006681 0.543000 -0.009993 -0.007509 0.543000 -0.009356 -0.008289 0.543000 -0.008659 -0.009015 0.543000 -0.007906 -0.009683 0.543000 -0.007101 -0.010287 0.543000 -0.006250 -0.010825 0.543000 -0.005359 -0.011293 0.543000 -0.004433 -0.011688 0.543000 -0.003478 -0.012006 0.543000 -0.002500 -0.012247 0.543000 -0.001507 -0.012409 0.543000 -0.000503 -0.012490 0.543000 0.000503 -0.012490 0.543000 0.001507 -0.012409 0.543000 0.002500 -0.012247 0.543000 0.003478 -0.012006 0.543000 0.004433 -0.011688 0.543000 0.005359 -0.011293 0.543000 0.006250 -0.010825 0.543000 0.007101 -0.010287 0.543000 0.007906 -0.009683 0.543000 0.008659 -0.009015 0.543000 0.009356 -0.008289 0.543000 0.009993 -0.007509 0.543000 0.010565 -0.006681 0.543000 0.011068 -0.005809 0.543000 0.011500 -0.004900 0.543000 0.011857 -0.003958 0.543000 0.012137 -0.002991 0.543000 0.012338 -0.002005 0.543000 0.012459 -0.001006 0.543000 0.012500 -0.000000 0.543000 0.012459 0.001006 0.543000 0.012338 0.002005 0.543000 0.012137 0.002991 0.543000 0.011857 0.003958 0.543000 0.011500 0.004900 0.543000 0.011068 0.005809 0.543000 0.010565 0.006681 0.543000 0.009993 0.007509 0.543000 0.009356 0.008289 0.543000 0.008659 0.009015 0.543000 0.007906 0.009683 0.543000 0.007101 0.010287 0.543000 0.006250 0.010825 0.543000 0.005359 0.011293 0.543000 0.004433 0.011688 0.543000 0.003478 0.012006 0.543000 0.002500 0.012247 0.543000 0.001507 0.012409 0.543000 0.000503 0.012490 0.543000 -0.000503 0.012490 0.543000 -0.001507 0.012409 0.543000 -0.002500 0.012247 0.543000 -0.003478 0.012006 0.543000 -0.004433 0.011688 0.543000 -0.005359 0.011293 0.543000 -0.006250 0.010825 0.543000 -0.007101 0.010287 0.543000 -0.007906 0.009683 0.543000 -0.008659 0.009015 0.543000 -0.009356 0.008289 0.543000 -0.009993 0.007509 0.543000 -0.010565 0.006681 0.543000 -0.011068 0.005809 0.543000 -0.011500 0.004900 0.543000 -0.011857 0.003958 0.543000 -0.012137 0.002991 0.543000 -0.012338 0.002005 0.543000 -0.012459 0.001006 0.543000 -0.012500 0.000000 0.598000 -0.012459 0.001006 0.598000 -0.012338 0.002005 0.598000 -0.012137 0.002991 0.598000 -0.011857 0.003958 0.598000 -0.011500 0.004900 0.598000 -0.011068 0.005809 0.598000 -0.010565 0.006681 0.598000 -0.009993 0.007509 0.598000 -0.009356 0.008289 0.598000 -0.008659 0.009015 0.598000 -0.007906 0.009683 0.598000 -0.007101 0.010287 0.598000 -0.006250 0.010825 0.598000 -0.005359 0.011293 0.598000 -0.004433 0.011688 0.598000 -0.003478 0.012006 0.598000 -0.002500 0.012247 0.598000 -0.001507 0.012409 0.598000 -0.000503 0.012490 0.598000 0.000503 0.012490 0.598000 0.001507 0.012409 0.598000 0.002500 0.012247 0.598000 0.003478 0.012006 0.598000 0.004433 0.011688 0.598000 0.005359 0.011293 0.598000 0.006250 0.010825 0.598000 0.007101 0.010287 0.598000 0.007906 0.009683 0.598000 0.008659 0.009015 0.598000 0.009356 0.008289 0.598000 0.009993 0.007509 0.598000 0.010565 0.006681 0.598000 0.011068 0.005809 0.598000 0.011500 0.004900 0.598000 0.011857 0.003958 0.598000 0.012137 0.002991 0.598000 0.012338 0.002005 0.598000 0.012459 0.001006 0.598000 0.012500 -0.000000 0.598000 0.012459 -0.001006 0.598000 0.012338 -0.002005 0.598000 0.012137 -0.002991 0.598000 0.011857 -0.003958 0.598000 0.011500 -0.004900 0.598000 0.011068 -0.005809 0.598000 0.010565 -0.006681 0.598000 0.009993 -0.007509 0.598000 0.009356 -0.008289 0.598000 0.008659 -0.009015 0.598000 0.007906 -0.009683 0.598000 0.007101 -0.010287 0.598000 0.006250 -0.010825 0.598000 0.005359 -0.011293 0.598000 0.004433 -0.011688 0.598000 0.003478 -0.012006 0.598000 0.002500 -0.012247 0.598000 0.001507 -0.012409 0.598000 0.000503 -0.012490 0.598000 -0.000503 -0.012490 0.598000 -0.001507 -0.012409 0.598000 -0.002500 -0.012247 0.598000 -0.003478 -0.012006 0.598000 -0.004433 -0.011688 0.598000 -0.005359 -0.011293 0.598000 -0.006250 -0.010825 0.598000 -0.007101 -0.010287 0.598000 -0.007906 -0.009683 0.598000 -0.008659 -0.009015 0.598000 -0.009356 -0.008289 0.598000 -0.009993 -0.007509 0.598000 -0.010565 -0.006681 0.598000 -0.011068 -0.005809 0.598000 -0.011500 -0.004900 0.598000 -0.011857 -0.003958 0.598000 -0.012137 -0.002991 0.598000 -0.012338 -0.002005 0.598000 -0.012459 -0.001006 0.598000 -0.012500 0.000000 0.561333 -0.012500 0.000000 0.579667 -0.012459 -0.001006 0.561333 -0.012459 -0.001006 0.579667 -0.012338 -0.002005 0.561333 -0.012338 -0.002005 0.579667 -0.012137 -0.002991 0.561333 -0.012137 -0.002991 0.579667 -0.011857 -0.003958 0.561333 -0.011857 -0.003958 0.579667 -0.011500 -0.004900 0.561333 -0.011500 -0.004900 0.579667 -0.011068 -0.005809 0.561333 -0.011068 -0.005809 0.579667 -0.010565 -0.006681 0.561333 -0.010565 -0.006681 0.579667 -0.009993 -0.007509 0.561333 -0.009993 -0.007509 0.579667 -0.009356 -0.008289 0.561333 -0.009356 -0.008289 0.579667 -0.008659 -0.009015 0.561333 -0.008659 -0.009015 0.579667 -0.007906 -0.009683 0.561333 -0.007906 -0.009683 0.579667 -0.007101 -0.010287 0.561333 -0.007101 -0.010287 0.579667 -0.006250 -0.010825 0.561333 -0.006250 -0.010825 0.579667 -0.005359 -0.011293 0.561333 -0.005359 -0.011293 0.579667 -0.004433 -0.011688 0.561333 -0.004433 -0.011688 0.579667 -0.003478 -0.012006 0.561333 -0.003478 -0.012006 0.579667 -0.002500 -0.012247 0.561333 -0.002500 -0.012247 0.579667 -0.001507 -0.012409 0.561333 -0.001507 -0.012409 0.579667 -0.000503 -0.012490 0.561333 -0.000503 -0.012490 0.579667 0.000503 -0.012490 0.561333 0.000503 -0.012490 0.579667 0.001507 -0.012409 0.561333 0.001507 -0.012409 0.579667 0.002500 -0.012247 0.561333 0.002500 -0.012247 0.579667 0.003478 -0.012006 0.561333 0.003478 -0.012006 0.579667 0.004433 -0.011688 0.561333 0.004433 -0.011688 0.579667 0.005359 -0.011293 0.561333 0.005359 -0.011293 0.579667 0.006250 -0.010825 0.561333 0.006250 -0.010825 0.579667 0.007101 -0.010287 0.561333 0.007101 -0.010287 0.579667 0.007906 -0.009683 0.561333 0.007906 -0.009683 0.579667 0.008659 -0.009015 0.561333 0.008659 -0.009015 0.579667 0.009356 -0.008289 0.561333 0.009356 -0.008289 0.579667 0.009993 -0.007509 0.561333 0.009993 -0.007509 0.579667 0.010565 -0.006681 0.561333 0.010565 -0.006681 0.579667 0.011068 -0.005809 0.561333 0.011068 -0.005809 0.579667 0.011500 -0.004900 0.561333 0.011500 -0.004900 0.579667 0.011857 -0.003958 0.561333 0.011857 -0.003958 0.579667 0.012137 -0.002991 0.561333 0.012137 -0.002991 0.579667 0.012338 -0.002005 0.561333 0.012338 -0.002005 0.579667 0.012459 -0.001006 0.561333 0.012459 -0.001006 0.579667 0.012500 -0.000000 0.561333 0.012500 -0.000000 0.579667 0.012459 0.001006 0.561333 0.012459 0.001006 0.579667 0.012338 0.002005 0.561333 0.012338 0.002005 0.579667 0.012137 0.002991 0.561333 0.012137 0.002991 0.579667 0.011857 0.003958 0.561333 0.011857 0.003958 0.579667 0.011500 0.004900 0.561333 0.011500 0.004900 0.579667 0.011068 0.005809 0.561333 0.011068 0.005809 0.579667 0.010565 0.006681 0.561333 0.010565 0.006681 0.579667 0.009993 0.007509 0.561333 0.009993 0.007509 0.579667 0.009356 0.008289 0.561333 0.009356 0.008289 0.579667 0.008659 0.009015 0.561333 0.008659 0.009015 0.579667 0.007906 0.009683 0.561333 0.007906 0.009683 0.579667 0.007101 0.010287 0.561333 0.007101 0.010287 0.579667 0.006250 0.010825 0.561333 0.006250 0.010825 0.579667 0.005359 0.011293 0.561333 0.005359 0.011293 0.579667 0.004433 0.011688 0.561333 0.004433 0.011688 0.579667 0.003478 0.012006 0.561333 0.003478 0.012006 0.579667 0.002500 0.012247 0.561333 0.002500 0.012247 0.579667 0.001507 0.012409 0.561333 0.001507 0.012409 0.579667 0.000503 0.012490 0.561333 0.000503 0.012490 0.579667 -0.000503 0.012490 0.561333 -0.000503 0.012490 0.579667 -0.001507 0.012409 0.561333 -0.001507 0.012409 0.579667 -0.002500 0.012247 0.561333 -0.002500 0.012247 0.579667 -0.003478 0.012006 0.561333 -0.003478 0.012006 0.579667 -0.004433 0.011688 0.561333 -0.004433 0.011688 0.579667 -0.005359 0.011293 0.561333 -0.005359 0.011293 0.579667 -0.006250 0.010825 0.561333 -0.006250 0.010825 0.579667 -0.007101 0.010287 0.561333 -0.007101 0.010287 0.579667 -0.007906 0.009683 0.561333 -0.007906 0.009683 0.579667 -0.008659 0.009015 0.561333 -0.008659 0.009015 0.579667 -0.009356 0.008289 0.561333 -0.009356 0.008289 0.579667 -0.009993 0.007509 0.561333 -0.009993 0.007509 0.579667 -0.010565 0.006681 0.561333 -0.010565 0.006681 0.579667 -0.011068 0.005809 0.561333 -0.011068 0.005809 0.579667 -0.011500 0.004900 0.561333 -0.011500 0.004900 0.579667 -0.011857 0.003958 0.561333 -0.011857 0.003958 0.579667 -0.012137 0.002991 0.561333 -0.012137 0.002991 0.579667 -0.012338 0.002005 0.561333 -0.012338 0.002005 0.579667 -0.012459 0.001006 0.561333 -0.012459 0.001006 0.579667</float_array>
          <technique_common>
            <accessor source="#gripper_motor-mesh-positions-array" count="312" stride="3">
              <param name="X" type="float"/>
              <param name="Y" type="float"/>
              <param name="Z" type="float"/>
            </accessor>
          </technique_common>
        </source>
        <source id="gripper_motor-mesh-normals">
          <float_array id="gripper_motor-mesh-normals-array" count="1404">-0.996757 -0.080467 0.000000 -0.996757 -0.080467 0.000000 -1.000000 -0.000000 0.000000 -1.000000 -0.000000 0.000000 -0.996757 0.080467 0.000000 -0.996757 0.080467 0.000000 -0.987050 0.160411 0.000000 -0.987050 0.160411 0.000000 -0.970942 0.239316 0.000000 -0.970942 0.239316 0.000000 -0.948536 0.316668 0.000000 -0.948536 0.316668 0.000000 -0.919979 0.391967 0.000000 -0.919979 0.391967 0.000000 -0.885456 0.464723 0.000000 -0.885456 0.464723 0.000000 -0.845190 0.534466 0.000000 -0.845190 0.534466 0.000000 -0.799443 0.600742 0.000000 -0.799443 0.600742 0.000000 -0.748511 0.663123 0.000000 -0.748511 0.663123 0.000000 -0.692724 0.721202 0.000000 -0.692724 0.721202 0.000000 -0.632445 0.774605 0.000000 -0.632445 0.774605 0.000000 -0.568065 0.822984 0.000000 -0.568065 0.822984 0.000000 -0.500000 0.866025 0.000000 -0.500000 0.866025 0.000000 -0.428693 0.903450 0.000000 -0.428693 0.903450 0.000000 -0.354605 0.935016 0.000000 -0.354605 0.935016 0.000000 -0.278217 0.960518 0.000000 -0.278217 0.960518 0.000000 -0.200026 0.979791 0.000000 -0.200026 0.979791 0.000000 -0.120537 0.992709 0.000000 -0.120537 0.992709 0.000000 -0.040266 0.999189 0.000000 -0.040266 0.999189 0.000000 0.040266 0.999189 -0.000000 0.040266 0.999189 -0.000000 0.120537 0.992709 -0.000000 0.120537 0.992709 -0.000000 0.200026 0.979791 -0.000000 0.200026 0.979791 -0.000000 0.278217 0.960518 -0.000000 0.278217 0.960518 -0.000000 0.354605 0.935016 -0.000000 0.354605 0.935016 -0.000000 0.428693 0.903450 -0.000000 0.428693 0.903450 -0.000000 0.500000 0.866025 -0.000000 0.500000 0.866025 -0.000000 0.568065 0.822984 -0.000000 0.568065 0.822984 -0.000000 0.632445 0.774605 -0.000000 0.632445 0.774605 -0.000000 0.692724 0.721202 -0.000000 0.692724 0.721202 -0.000000 0.748511 0.663123 -0.000000 0.748511 0.663123 -0.000000 0.799443 0.600742 -0.000000 0.799443 0.600742 -0.000000 0.845190 0.534466 -0.000000 0.845190 0.534466 -0.000000 0.885456 0.464723 -0.000000 0.885456 0.464723 -0.000000 0.919979 0.391967 -0.000000 0.919979 0.391967 -0.000000 0.948536 0.316668 -0.000000 0.948536 0.316668 -0.000000 0.970942 0.239316 -0.000000 0.970942 0.239316 -0.000000 0.987050 0.160411 -0.000000 0.987050 0.160411 -0.000000 0.996757 0.080467 -0.000000 0.996757 0.080467 -0.000000 1.000000 0.000000 -0.000000 1.000000 -0.000000 -0.000000 0.996757 -0.080467 -0.000000 0.996757 -0.080467 -0.000000 0.987050 -0.160411 -0.000000 0.987050 -0.160411 -0.000000 0.970942 -0.239316 -0.000000 0.970942 -0.239316 -0.000000 0.948536 -0.316668 -0.000000 0.948536 -0.316668 -0.000000 0.919979 -0.391967 -0.000000 0.919979 -0.391967 -0.000000 0.885456 -0.464723 -0.000000 0.885456 -0.464723 -0.000000 0.845190 -0.534466 -0.000000 0.845190 -0.534466 -0.000000 0.799443 -0.600742 -0.000000 0.799443 -0.600742 -0.000000 0.748511 -0.663123 -0.000000 0.748511 -0.663123 -0.000000 0.692724 -0.721202 -0.000000 0.692724 -0.721202 -0.000000 0.632445 -0.774605 -0.000000 0.632445 -0.774605 -0.000000 0.568065 -0.822984 -0.000000 0.568065 -0.822984 -0.000000 0.500000 -0.866025 -0.000000 0.500000 -0.866025 -0.000000 0.428693 -0.903450 -0.000000 0.428693 -0.903450 -0.000000 0.354605 -0.935016 -0.000000 0.354605 -0.935016 -0.000000 0.278217 -0.960518 -0.000000 0.278217 -0.960518 -0.000000 0.200026 -0.979791 -0.000000 0.200026 -0.979791 -0.000000 0.120537 -0.992709 -0.000000 0.120537 -0.992709 -0.000000 0.040266 -0.999189 -0.000000 0.040266 -0.999189 -0.000000 -0.040266 -0.999189 0.000000 -0.040266 -0.999189 0.000000 -0.120537 -0.992709 0.000000 -0.120537 -0.992709 0.000000 -0.200026 -0.979791 0.000000 -0.200026 -0.979791 0.000000 -0.278217 -0.960518 0.000000 -0.278217 -0.960518 0.000000 -0.354605 -0.935016 0.000000 -0.354605 -0.935016 0.000000 -0.428693 -0.903450 0.000000 -0.428693 -0.903450 0.000000 -0.500000 -0.866025 0.000000 -0.500000 -0.866025 0.000000 -0.568065 -0.822984 0.000000 -0.568065 -0.822984 0.000000 -0.632445 -0.774605 0.000000 -0.632445 -0.774605 0.000000 -0.692724 -0.721202 0.000000 -0.692724 -0.721202 0.000000 -0.748511 -0.663123 0.000000 -0.748511 -0.663123 0.000000 -0.799443 -0.600742 0.000000 -0.799443 -0.600742 0.000000 -0.845190 -0.534466 0.000000 -0.845190 -0.534466 0.000000 -0.885456 -0.464723 0.000000 -0.885456 -0.464723 0.000000 -0.919979 -0.391967 0.000000 -0.919979 -0.391967 0.000000 -0.948536 -0.316668 0.000000 -0.948536 -0.316668 0.000000 -0.970942 -0.239316 0.000000 -0.970942 -0.239316 0.000000 -0.987050 -0.160411 0.000000 -0.987050 -0.160411 0.000000 -0.996757 0.080467 0.000000 -0.996757 0.080467 0.000000 -1.000000 0.000000 0.000000 -1.000000 0.000000 0.000000 -0.996757 -0.080467 0.000000 -0.996757 -0.080467 0.000000 -0.987050 -0.160411 0.000000 -0.987050 -0.160411 0.000000 -0.970942 -0.239316 0.000000 -0.970942 -0.239316 0.000000 -0.948536 -0.316668 0.000000 -0.948536 -0.316668 0.000000 -0.919979 -0.391967 0.000000 -0.919979 -0.391967 0.000000 -0.885456 -0.464723 0.000000 -0.885456 -0.464723 0.000000 -0.845190 -0.534466 0.000000 -0.845190 -0.534466 0.000000 -0.799443 -0.600742 0.000000 -0.799443 -0.600742 0.000000 -0.748511 -0.663123 0.000000 -0.748511 -0.663123 0.000000 -0.692724 -0.721202 0.000000 -0.692724 -0.721202 0.000000 -0.632445 -0.774605 0.000000 -0.632445 -0.774605 0.000000 -0.568065 -0.822984 0.000000 -0.568065 -0.822984 0.000000 -0.500000 -0.866025 0.000000 -0.500000 -0.866025 0.000000 -0.428693 -0.903450 0.000000 -0.428693 -0.903450 0.000000 -0.354605 -0.935016 0.000000 -0.354605 -0.935016 0.000000 -0.278217 -0.960518 0.000000 -0.278217 -0.960518 0.000000 -0.200026 -0.979791 0.000000 -0.200026 -0.979791 0.000000 -0.120537 -0.992709 0.000000 -0.120537 -0.992709 0.000000 -0.040266 -0.999189 0.000000 -0.040266 -0.999189 0.000000 0.040266 -0.999189 -0.000000 0.040266 -0.999189 -0.000000 0.120537 -0.992709 -0.000000 0.120537 -0.992709 -0.000000 0.200026 -0.979791 -0.000000 0.200026 -0.979791 -0.000000 0.278217 -0.960518 -0.000000 0.278217 -0.960518 -0.000000 0.354605 -0.935016 -0.000000 0.354605 -0.935016 -0.000000 0.428693 -0.903450 -0.000000 0.428693 -0.903450 -0.000000 0.500000 -0.866025 -0.000000 0.500000 -0.866025 -0.000000 0.568065 -0.822984 -0.000000 0.568065 -0.822984 -0.000000 0.632445 -0.774605 -0.000000 0.632445 -0.774605 -0.000000 0.692724 -0.721202 -0.000000 0.692724 -0.721202 -0.000000 0.748511 -0.663123 -0.000000 0.748511 -0.663123 -0.000000 0.799443 -0.600742 -0.000000 0.799443 -0.600742 -0.000000 0.845190 -0.534466 -0.000000 0.845190 -0.534466 -0.000000 0.885456 -0.464723 -0.000000 0.885456 -0.464723 -0.000000 0.919979 -0.391967 -0.000000 0.919979 -0.391967 -0.000000 0.948536 -0.316668 -0.000000 0.948536 -0.316668 -0.000000 0.970942 -0.239316 -0.000000 0.970942 -0.239316 -0.000000 0.987050 -0.160411 -0.000000 0.987050 -0.160411 -0.000000 0.996757 -0.080467 -0.000000 0.996757 -0.080467 -0.000000 1.000000 -0.000000 -0.000000 1.000000 -0.000000 -0.000000 0.996757 0.080467 -0.000000 0.996757 0.080467 -0.000000 0.987050 0.160411 -0.000000 0.987050 0.160411 -0.000000 0.970942 0.239316 -0.000000 0.970942 0.239316 -0.000000 0.948536 0.316668 -0.000000 0.948536 0.316668 -0.000000 0.919979 0.391967 -0.000000 0.919979 0.391967 -0.000000 0.885456 0.464723 -0.000000 0.885456 0.464723 -0.000000 0.845190 0.534466 -0.000000 0.845190 0.534466 -0.000000 0.799443 0.600742 -0.000000 0.799443 0.600742 -0.000000 0.748511 0.663123 -0.000000 0.748511 0.663123 -0.000000 0.692724 0.721202 -0.000000 0.692724 0.721202 -0.000000 0.632445 0.774605 -0.000000 0.632445 0.774605 -0.000000 0.568065 0.822984 -0.000000 0.568065 0.822984 -0.000000 0.500000 0.866025 -0.000000 0.500000 0.866025 -0.000000 0.428693 0.903450 -0.000000 0.428693 0.903450 -0.000000 0.354605 0.935016 -0.000000 0.354605 0.935016 -0.000000 0.278217 0.960518 -0.000000 0.278217 0.960518 -0.000000 0.200026 0.979791 -0.000000 0.200026 0.979791 -0.000000 0.120537 0.992709 -0.000000 0.120537 0.992709 -0.000000 0.040266 0.999189 -0.000000 0.040266 0.999189 -0.000000 -0.040266 0.999189 0.000000 -0.040266 0.999189 0.000000 -0.120537 0.992709 0.000000 -0.120537 0.992709 0.000000 -0.200026 0.979791 0.000000 -0.200026 0.979791 0.000000 -0.278217 0.960518 0.000000 -0.278217 0.960518 0.000000 -0.354605 0.935016 0.000000 -0.354605 0.935016 0.000000 -0.428693 0.903450 0.000000 -0.428693 0.903450 0.000000 -0.500000 0.866025 0.000000 -0.500000 0.866025 0.000000 -0.568065 0.822984 0.000000 -0.568065 0.822984 0.000000 -0.632445 0.774605 0.000000 -0.632445 0.774605 0.000000 -0.692724 0.721202 0.000000 -0.692724 0.721202 0.000000 -0.748511 0.663123 0.000000 -0.748511 0.663123 0.000000 -0.799443 0.600742 0.000000 -0.799443 0.600742 0.000000 -0.845190 0.534466 0.000000 -0.845190 0.534466 0.000000 -0.885456 0.464723 0.000000 -0.885456 0.464723 0.000000 -0.919979 0.391967 0.000000 -0.919979 0.391967 0.000000 -0.948536 0.316668 0.000000 -0.948536 0.316668 0.000000 -0.970942 0.239316 0.000000 -0.970942 0.239316 0.000000 -0.987050 0.160411 0.000000 -0.987050 0.160411 0.000000 -0.000000 -0.000000 -1.000000 -0.000000 -0.000000 -1.000000 -0.000000 -0.000000 -1.000000 -0.000000 -0.000000 -1.000000 -0.000000 -0.000000 -1.000000 -0.000000 -0.000000 -1.000000 -0.000000 -0.000000 -1.000000 -0.000000 -0.000000 -1.000000 -0.000000 -0.000000 -1.000000 -0.000000 -0.000000 -1.000000 -0.000000 -0.000000 -1.000000 -0.000000 -0.000000 -1.000000 -0.000000 -0.000000 -1.000000 -0.000000 -0.000000 -1.000000 -0.000000 -0.000000 -1.000000 -0.000000 -0.000000 -1.000000 -0.000000 -0.000000 -1.000000 -0.000000 -0.000000 -1.000000 -0.000000 -0.000000 -1.000000 -0.000000 -0.000000 -1.000000 -0.000000 -0.000000 -1.000000 -0.000000 -0.000000 -1.000000 -0.000000 -0.000000 -1.000000 -0.000000 -0.000000 -1.000000 -0.000000 -0.000000 -1.000000 -0.000000 -0.000000 -1.000000 -0.000000 -0.000000 -1.000000 -0.000000 -0.000000 -1.000000 -0.000000 -0.000000 -1.000000 -0.000000 -0.000000 -1.000000 -0.000000 -0.000000 -1.000000 -0.000000 -0.000000 -1.000000 -0.000000 -0.000000 -1.000000 -0.000000 -0.000000 -1.000000 -0.000000 -0.000000 -1.000000 -0.000000 -0.000000 -1.000000 -0.000000 -0.000000 -1.000000 -0.000000 -0.000000 -1.000000 -0.000000 -0.000000 -1.000000 -0.000000 -0.000000 -1.000000 -0.000000 -0.000000 -1.000000 -0.000000 -0.000000 -1.000000 -0.000000 -0.000000 -1.000000 -0.000000 -0.000000 -1.000000 -0.000000 -0.000000 -1.000000 -0.000000 -0.000000 -1.000000 -0.000000 -0.000000 -1.000000 -0.000000 -0.000000 -1.000000 -0.000000 -0.000000 -1.000000 -0.000000 -0.000000 -1.000000 -0.000000 -0.000000 -1.000000 -0.000000 -0.000000 -1.000000 -0.000000 -0.000000 -1.000000 -0.000000 -0.000000 -1.000000 -0.000000 -0.000000 -1.000000 -0.000000 -0.000000 -1.000000 -0.000000 -0.000000 -1.000000 -0.000000 -0.000000 -1.000000 -0.000000 -0.000000 -1.000000 -0.000000 -0.000000 -1.000000 -0.000000 -0.000000 -1.000000 -0.000000 -0.000000 -1.000000 -0.000000 -0.000000 -1.000000 -0.000000 -0.000000 -1.000000 -0.000000 -0.000000 -1.000000 -0.000000 -0.000000 -1.000000 -0.000000 -0.000000 -1.000000 -0.000000 -0.000000 -1.000000 -0.000000 -0.000000 -1.000000 -0.000000 -0.000000 -1.000000 -0.000000 -0.000000 -1.000000 -0.000000 -0.000000 -1.000000 -0.000000 -0.000000 -1.000000 -0.000000 -0.000000 -1.000000 -0.000000 -0.000000 -1.000000 -0.000000 -0.000000 -1.000000 -0.000000 -0.000000 -1.000000 -0.000000 -0.000000 -1.000000 0.000000 0.000000 1.000000 0.000000 0.000000 1.000000 0.000000 0.000000 1.000000 0.000000 0.000000 1.000000 0.000000 0.000000 1.000000 0.000000 0.000000 1.000000 0.000000 0.000000 1.000000 0.000000 0.000000 1.000000 0.000000 0.000000 1.000000 0.000000 0.000000 1.000000 0.000000 0.000000 1.000000 0.000000 0.000000 1.000000 0.000000 0.000000 1.000000 0.000000 0.000000 1.000000 0.000000 0.000000 1.000000 0.000000 0.000000 1.000000 0.000000 0.000000 1.000000 0.000000 0.000000 1.000000 0.000000 0.000000 1.000000 0.000000 0.000000 1.000000 0.000000 0.000000 1.000000 0.000000 0.000000 1.000000 0.000000 0.000000 1.000000 0.000000 0.000000 1.000000 0.000000 0.000000 1.000000 0.000000 0.000000 1.000000 0.000000 0.000000 1.000000 0.000000 0.000000 1.000000 0.000000 0.000000 1.000000 0.000000 0.000000 1.000000 0.000000 0.000000 1.000000 0.000000 0.000000 1.000000 0.000000 0.000000 1.000000 0.000000 0.000000 1.000000 0.000000 0.000000 1.000000 0.000000 0.000000 1.000000 0.000000 0.000000 1.000000 0.000000 0.000000 1.000000 0.000000 0.000000 1.000000 0.000000 0.000000 1.000000 0.000000 0.000000 1.000000 0.000000 0.000000 1.000000 0.000000 0.000000 1.000000 0.000000 0.000000 1.000000 0.000000 0.000000 1.000000 0.000000 0.000000 1.000000 0.000000 0.000000 1.000000 0.000000 0.000000 1.000000 0.000000 0.000000 1.000000 0.000000 0.000000 1.000000 0.000000 0.000000 1.000000 0.000000 0.000000 1.000000 0.000000 0.000000 1.000000 0.000000 0.000000 1.000000 0.000000 0.000000 1.000000 0.000000 0.000000 1.000000 0.000000 0.000000 1.000000 0.000000 0.000000 1.000000 0.000000 0.000000 1.000000 0.000000 0.000000 1.000000 0.000000 0.000000 1.000000 0.000000 0.000000 1.000000 0.000000 0.000000 1.000000 0.000000 0.000000 1.000000 0.000000 0.000000 1.000000 0.000000 0.000000 1.000000 0.000000 0.000000 1.000000 0.000000 0.000000 1.000000 0.000000 0.000000 1.000000 0.000000 0.000000 1.000000 0.000000 0.000000 1.000000 0.000000 0.000000 1.000000 0.000000 0.000000 1.000000 0.000000 0.000000 1.000000 0.000000 0.000000 1.000000 0.000000 0.000000 1.000000 0.000000 0.000000 1.000000 0.000000 0.000000 1.000000</float_array>
          <technique_common>
            <accessor source="#gripper_motor-mesh-normals-array" count="468" stride="3">
              <param name="X" type="float"/>
              <param name="Y" type="float"/>
              <param name="Z" type="float"/>
            </accessor>
          </technique_common>
        </source>
        <vertices id="gripper_motor-mesh-vertices">
          <input semantic="POSITION" source="#gripper_motor-mesh-positions"/>
        </vertices>
        <triangles material="Steel_-_Satin" count="620">
          <input semantic="VERTEX" source="#gripper_motor-mesh-vertices" offset="0"/>
          <input semantic="NORMAL" source="#gripper_motor-mesh-normals" offset="1"/>
          <p>1 0 158 1 0 2 0 2 158 1 156 3 0 2 156 3 77 4 77 4 156 3 310 5 77 4 310 5 76 6 76 6 310 5 308 7 76 6 308 7 75 8 75 8 308 7 306 9 75 8 306 9 74 10 74 10 306 9 304 11 74 10 304 11 73 12 73 12 304 11 302 13 73 12 302 13 72 14 72 14 302 13 300 15 72 14 300 15 71 16 71 16 300 15 298 17 71 16 298 17 70 18 70 18 298 17 296 19 70 18 296 19 69 20 69 20 296 19 294 21 69 20 294 21 68 22 68 22 294 21 292 23 68 22 292 23 67 24 67 24 292 23 290 25 67 24 290 25 66 26 66 26 290 25 288 27 66 26 288 27 65 28 65 28 288 27 286 29 65 28 286 29 64 30 64 30 286 29 284 31 64 30 284 31 63 32 63 32 284 31 282 33 63 32 282 33 62 34 62 34 282 33 280 35 62 34 280 35 61 36 61 36 280 35 278 37 61 36 278 37 60 38 60 38 278 37 276 39 60 38 276 39 59 40 59 40 276 39 274 41 59 40 274 41 58 42 58 42 274 41 272 43 58 42 272 43 57 44 57 44 272 43 270 45 57 44 270 45 56 46 56 46 270 45 268 47 56 46 268 47 55 48 55 48 268 47 266 49 55 48 266 49 54 50 54 50 266 49 264 51 54 50 264 51 53 52 53 52 264 51 262 53 53 52 262 53 52 54 52 54 262 53 260 55 52 54 260 55 51 56 51 56 260 55 258 57 51 56 258 57 50 58 50 58 258 57 256 59 50 58 256 59 49 60 49 60 256 59 254 61 49 60 254 61 48 62 48 62 254 61 252 63 48 62 252 63 47 64 47 64 252 63 250 65 47 64 250 65 46 66 46 66 250 65 248 67 46 66 248 67 45 68 45 68 248 67 246 69 45 68 246 69 44 70 44 70 246 69 244 71 44 70 244 71 43 72 43 72 244 71 242 73 43 72 242 73 42 74 42 74 242 73 240 75 42 74 240 75 41 76 41 76 240 75 238 77 41 76 238 77 40 78 40 78 238 77 236 79 40 78 236 79 39 80 39 80 236 79 234 81 39 80 234 81 38 82 38 82 234 81 232 83 38 82 232 83 37 84 37 84 232 83 230 85 37 84 230 85 36 86 36 86 230 85 228 87 36 86 228 87 35 88 35 88 228 87 226 89 35 88 226 89 34 90 34 90 226 89 224 91 34 90 224 91 33 92 33 92 224 91 222 93 33 92 222 93 32 94 32 94 222 93 220 95 32 94 220 95 31 96 31 96 220 95 218 97 31 96 218 97 30 98 30 98 218 97 216 99 30 98 216 99 29 100 29 100 216 99 214 101 29 100 214 101 28 102 28 102 214 101 212 103 28 102 212 103 27 104 27 104 212 103 210 105 27 104 210 105 26 106 26 106 210 105 208 107 26 106 208 107 25 108 25 108 208 107 206 109 25 108 206 109 24 110 24 110 206 109 204 111 24 110 204 111 23 112 23 112 204 111 202 113 23 112 202 113 22 114 22 114 202 113 200 115 22 114 200 115 21 116 21 116 200 115 198 117 21 116 198 117 20 118 20 118 198 117 196 119 20 118 196 119 19 120 19 120 196 119 194 121 19 120 194 121 18 122 18 122 194 121 192 123 18 122 192 123 17 124 17 124 192 123 190 125 17 124 190 125 16 126 16 126 190 125 188 127 16 126 188 127 15 128 15 128 188 127 186 129 15 128 186 129 14 130 14 130 186 129 184 131 14 130 184 131 13 132 13 132 184 131 182 133 13 132 182 133 12 134 12 134 182 133 180 135 12 134 180 135 11 136 11 136 180 135 178 137 11 136 178 137 10 138 10 138 178 137 176 139 10 138 176 139 9 140 9 140 176 139 174 141 9 140 174 141 8 142 8 142 174 141 172 143 8 142 172 143 7 144 7 144 172 143 170 145 7 144 170 145 6 146 6 146 170 145 168 147 6 146 168 147 5 148 5 148 168 147 166 149 5 148 166 149 4 150 4 150 166 149 164 151 4 150 164 151 3 152 3 152 164 151 162 153 3 152 162 153 2 154 2 154 162 153 160 155 2 154 160 155 1 0 1 0 160 155 158 1 79 156 311 157 78 158 78 158 311 157 157 159 78 158 157 159 155 160 155 160 157 159 159 161 155 160 159 161 154 162 154 162 159 161 161 163 154 162 161 163 153 164 153 164 161 163 163 165 153 164 163 165 152 166 152 166 163 165 165 167 152 166 165 167 151 168 151 168 165 167 167 169 151 168 167 169 150 170 150 170 167 169 169 171 150 170 169 171 149 172 149 172 169 171 171 173 149 172 171 173 148 174 148 174 171 173 173 175 148 174 173 175 147 176 147 176 173 175 175 177 147 176 175 177 146 178 146 178 175 177 177 179 146 178 177 179 145 180 145 180 177 179 179 181 145 180 179 181 144 182 144 182 179 181 181 183 144 182 181 183 143 184 143 184 181 183 183 185 143 184 183 185 142 186 142 186 183 185 185 187 142 186 185 187 141 188 141 188 185 187 187 189 141 188 187 189 140 190 140 190 187 189 189 191 140 190 189 191 139 192 139 192 189 191 191 193 139 192 191 193 138 194 138 194 191 193 193 195 138 194 193 195 137 196 137 196 193 195 195 197 137 196 195 197 136 198 136 198 195 197 197 199 136 198 197 199 135 200 135 200 197 199 199 201 135 200 199 201 134 202 134 202 199 201 201 203 134 202 201 203 133 204 133 204 201 203 203 205 133 204 203 205 132 206 132 206 203 205 205 207 132 206 205 207 131 208 131 208 205 207 207 209 131 208 207 209 130 210 130 210 207 209 209 211 130 210 209 211 129 212 129 212 209 211 211 213 129 212 211 213 128 214 128 214 211 213 213 215 128 214 213 215 127 216 127 216 213 215 215 217 127 216 215 217 126 218 126 218 215 217 217 219 126 218 217 219 125 220 125 220 217 219 219 221 125 220 219 221 124 222 124 222 219 221 221 223 124 222 221 223 123 224 123 224 221 223 223 225 123 224 223 225 122 226 122 226 223 225 225 227 122 226 225 227 121 228 121 228 225 227 227 229 121 228 227 229 120 230 120 230 227 229 229 231 120 230 229 231 119 232 119 232 229 231 231 233 119 232 231 233 118 234 118 234 231 233 233 235 118 234 233 235 117 236 117 236 233 235 235 237 117 236 235 237 116 238 116 238 235 237 237 239 116 238 237 239 115 240 115 240 237 239 239 241 115 240 239 241 114 242 114 242 239 241 241 243 114 242 241 243 113 244 113 244 241 243 243 245 113 244 243 245 112 246 112 246 243 245 245 247 112 246 245 247 111 248 111 248 245 247 247 249 111 248 247 249 110 250 110 250 247 249 249 251 110 250 249 251 109 252 109 252 249 251 251 253 109 252 251 253 108 254 108 254 251 253 253 255 108 254 253 255 107 256 107 256 253 255 255 257 107 256 255 257 106 258 106 258 255 257 257 259 106 258 257 259 105 260 105 260 257 259 259 261 105 260 259 261 104 262 104 262 259 261 261 263 104 262 261 263 103 264 103 264 261 263 263 265 103 264 263 265 102 266 102 266 263 265 265 267 102 266 265 267 101 268 101 268 265 267 267 269 101 268 267 269 100 270 100 270 267 269 269 271 100 270 269 271 99 272 99 272 269 271 271 273 99 272 271 273 98 274 98 274 271 273 273 275 98 274 273 275 97 276 97 276 273 275 275 277 97 276 275 277 96 278 96 278 275 277 277 279 96 278 277 279 95 280 95 280 277 279 279 281 95 280 279 281 94 282 94 282 279 281 281 283 94 282 281 283 93 284 93 284 281 283 283 285 93 284 283 285 92 286 92 286 283 285 285 287 92 286 285 287 91 288 91 288 285 287 287 289 91 288 287 289 90 290 90 290 287 289 289 291 90 290 289 291 89 292 89 292 289 291 291 293 89 292 291 293 88 294 88 294 291 293 293 295 88 294 293 295 87 296 87 296 293 295 295 297 87 296 295 297 86 298 86 298 295 297 297 299 86 298 297 299 85 300 85 300 297 299 299 301 85 300 299 301 84 302 84 302 299 301 301 303 84 302 301 303 83 304 83 304 301 303 303 305 83 304 303 305 82 306 82 306 303 305 305 307 82 306 305 307 81 308 81 308 305 307 307 309 81 308 307 309 80 310 80 310 307 309 309 311 80 310 309 311 79 156 79 156 309 311 311 157 156 3 157 159 310 5 310 5 157 159 311 157 310 5 311 157 308 7 308 7 311 157 309 311 308 7 309 311 306 9 306 9 309 311 307 309 306 9 307 309 304 11 304 11 307 309 305 307 304 11 305 307 302 13 302 13 305 307 303 305 302 13 303 305 300 15 300 15 303 305 301 303 300 15 301 303 298 17 298 17 301 303 299 301 298 17 299 301 296 19 296 19 299 301 297 299 296 19 297 299 294 21 294 21 297 299 295 297 294 21 295 297 292 23 292 23 295 297 293 295 292 23 293 295 290 25 290 25 293 295 291 293 290 25 291 293 288 27 288 27 291 293 289 291 288 27 289 291 286 29 286 29 289 291 287 289 286 29 287 289 284 31 284 31 287 289 285 287 284 31 285 287 282 33 282 33 285 287 283 285 282 33 283 285 280 35 280 35 283 285 281 283 280 35 281 283 278 37 278 37 281 283 279 281 278 37 279 281 276 39 276 39 279 281 277 279 276 39 277 279 274 41 274 41 277 279 275 277 274 41 275 277 272 43 272 43 275 277 273 275 272 43 273 275 270 45 270 45 273 275 271 273 270 45 271 273 268 47 268 47 271 273 269 271 268 47 269 271 266 49 266 49 269 271 267 269 266 49 267 269 264 51 264 51 267 269 265 267 264 51 265 267 262 53 262 53 265 267 263 265 262 53 263 265 260 55 260 55 263 265 261 263 260 55 261 263 258 57 258 57 261 263 259 261 258 57 259 261 256 59 256 59 259 261 257 259 256 59 257 259 254 61 254 61 257 259 255 257 254 61 255 257 252 63 252 63 255 257 253 255 252 63 253 255 250 65 250 65 253 255 251 253 250 65 251 253 248 67 248 67 251 253 249 251 248 67 249 251 246 69 246 69 249 251 247 249 246 69 247 249 244 71 244 71 247 249 245 247 244 71 245 247 242 73 242 73 245 247 243 245 242 73 243 245 240 75 240 75 243 245 241 243 240 75 241 243 238 77 238 77 241 243 239 241 238 77 239 241 236 79 236 79 239 241 237 239 236 79 237 239 234 81 234 81 237 239 235 237 234 81 235 237 232 83 232 83 235 237 233 235 232 83 233 235 230 85 230 85 233 235 231 233 230 85 231 233 228 87 228 87 231 233 229 231 228 87 229 231 226 89 226 89 229 231 227 229 226 89 227 229 224 91 224 91 227 229 225 227 224 91 225 227 222 93 222 93 225 227 223 225 222 93 223 225 220 95 220 95 223 225 221 223 220 95 221 223 218 97 218 97 221 223 219 221 218 97 219 221 216 99 216 99 219 221 217 219 216 99 217 219 214 101 214 101 217 219 215 217 214 101 215 217 212 103 212 103 215 217 213 215 212 103 213 215 210 105 210 105 213 215 211 213 210 105 211 213 208 107 208 107 211 213 209 211 208 107 209 211 206 109 206 109 209 211 207 209 206 109 207 209 204 111 204 111 207 209 205 207 204 111 205 207 202 113 202 113 205 207 203 205 202 113 203 205 200 115 200 115 203 205 201 203 200 115 201 203 198 117 198 117 201 203 199 201 198 117 199 201 196 119 196 119 199 201 197 199 196 119 197 199 194 121 194 121 197 199 195 197 194 121 195 197 192 123 192 123 195 197 193 195 192 123 193 195 190 125 190 125 193 195 191 193 190 125 191 193 188 127 188 127 191 193 189 191 188 127 189 191 186 129 186 129 189 191 187 189 186 129 187 189 184 131 184 131 187 189 185 187 184 131 185 187 182 133 182 133 185 187 183 185 182 133 183 185 180 135 180 135 183 185 181 183 180 135 181 183 178 137 178 137 181 183 179 181 178 137 179 181 176 139 176 139 179 181 177 179 176 139 177 179 174 141 174 141 177 179 175 177 174 141 175 177 172 143 172 143 175 177 173 175 172 143 173 175 170 145 170 145 173 175 171 173 170 145 171 173 168 147 168 147 171 173 169 171 168 147 169 171 166 149 166 149 169 171 167 169 166 149 167 169 164 151 164 151 167 169 165 167 164 151 165 167 162 153 162 153 165 167 163 165 162 153 163 165 160 155 160 155 163 165 161 163 160 155 161 163 158 1 158 1 161 163 159 161 158 1 159 161 156 3 156 3 159 161 157 159 77 312 40 313 0 314 0 314 40 313 39 315 0 314 39 315 1 316 1 316 39 315 38 317 1 316 38 317 2 318 2 318 38 317 37 319 2 318 37 319 3 320 3 320 37 319 36 321 3 320 36 321 4 322 4 322 36 321 35 323 4 322 35 323 5 324 5 324 35 323 34 325 5 324 34 325 6 326 6 326 34 325 33 327 6 326 33 327 7 328 7 328 33 327 32 329 7 328 32 329 8 330 8 330 32 329 31 331 8 330 31 331 9 332 9 332 31 331 30 333 9 332 30 333 10 334 10 334 30 333 29 335 10 334 29 335 11 336 11 336 29 335 28 337 11 336 28 337 12 338 12 338 28 337 27 339 12 338 27 339 13 340 13 340 27 339 26 341 13 340 26 341 14 342 14 342 26 341 25 343 14 342 25 343 15 344 15 344 25 343 24 345 15 344 24 345 16 346 16 346 24 345 23 347 16 346 23 347 17 348 17 348 23 347 22 349 17 348 22 349 18 350 18 350 22 349 21 351 18 350 21 351 19 352 19 352 21 351 20 353 40 313 77 312 41 354 41 354 77 312 76 355 41 354 76 355 42 356 42 356 76 355 75 357 42 356 75 357 43 358 43 358 75 357 74 359 43 358 74 359 44 360 44 360 74 359 73 361 44 360 73 361 45 362 45 362 73 361 72 363 45 362 72 363 46 364 46 364 72 363 71 365 46 364 71 365 47 366 47 366 71 365 70 367 47 366 70 367 48 368 48 368 70 367 69 369 48 368 69 369 49 370 49 370 69 369 68 371 49 370 68 371 50 372 50 372 68 371 67 373 50 372 67 373 51 374 51 374 67 373 66 375 51 374 66 375 52 376 52 376 66 375 65 377 52 376 65 377 53 378 53 378 65 377 64 379 53 378 64 379 54 380 54 380 64 379 63 381 54 380 63 381 55 382 55 382 63 381 62 383 55 382 62 383 56 384 56 384 62 383 61 385 56 384 61 385 57 386 57 386 61 385 60 387 57 386 60 387 58 388 58 388 60 387 59 389 155 390 118 391 78 392 78 392 118 391 117 393 78 392 117 393 79 394 79 394 117 393 116 395 79 394 116 395 80 396 80 396 116 395 115 397 80 396 115 397 81 398 81 398 115 397 114 399 81 398 114 399 82 400 82 400 114 399 113 401 82 400 113 401 83 402 83 402 113 401 112 403 83 402 112 403 84 404 84 404 112 403 111 405 84 404 111 405 85 406 85 406 111 405 110 407 85 406 110 407 86 408 86 408 110 407 109 409 86 408 109 409 87 410 87 410 109 409 108 411 87 410 108 411 88 412 88 412 108 411 107 413 88 412 107 413 89 414 89 414 107 413 106 415 89 414 106 415 90 416 90 416 106 415 105 417 90 416 105 417 91 418 91 418 105 417 104 419 91 418 104 419 92 420 92 420 104 419 103 421 92 420 103 421 93 422 93 422 103 421 102 423 93 422 102 423 94 424 94 424 102 423 101 425 94 424 101 425 95 426 95 426 101 425 100 427 95 426 100 427 96 428 96 428 100 427 99 429 96 428 99 429 97 430 97 430 99 429 98 431 118 391 155 390 119 432 119 432 155 390 154 433 119 432 154 433 120 434 120 434 154 433 153 435 120 434 153 435 121 436 121 436 153 435 152 437 121 436 152 437 122 438 122 438 152 437 151 439 122 438 151 439 123 440 123 440 151 439 150 441 123 440 150 441 124 442 124 442 150 441 149 443 124 442 149 443 125 444 125 444 149 443 148 445 125 444 148 445 126 446 126 446 148 445 147 447 126 446 147 447 127 448 127 448 147 447 146 449 127 448 146 449 128 450 128 450 146 449 145 451 128 450 145 451 129 452 129 452 145 451 144 453 129 452 144 453 130 454 130 454 144 453 143 455 130 454 143 455 131 456 131 456 143 455 142 457 131 456 142 457 132 458 132 458 142 457 141 459 132 458 141 459 133 460 133 460 141 459 140 461 133 460 140 461 134 462 134 462 140 461 139 463 134 462 139 463 135 464 135 464 139 463 138 465 135 464 138 465 136 466 136 466 138 465 137 467</p>
        </triangles>
      </mesh>
    </geometry>
  </library_geometries>
  <library_visual_scenes>
    <visual_scene id="Scene" name="Scene">
      <node id="gripper_motor-node" name="gripper_motor" type="NODE">
        <instance_geometry url="#gripper_motor-mesh">
          <bind_material>
            <technique_common>
              <instance_material symbol="Steel_-_Satin" target="#Steel_-_Satin"/>
            </technique_common>
          </bind_material>
        </instance_geometry>
      </node>
    </visual_scene>
  </library_visual_scenes>
  <scene>
    <instance_visual_scene url="#Scene"/>
  </scene>
</COLLADA>
