<?xml version="1.0" encoding="utf-8"?>
<COLLADA xmlns="http://www.collada.org/2005/11/COLLADASchema" version="1.4.1">
  <asset>
    <contributor>
      <authoring_tool>Fusion URDF/XACRO Exporter</authoring_tool>
    </contributor>
    <created>2026-08-21T07:34:06Z</created>
    <modified>2026-08-21T07:34:06Z</modified>
    <unit name="meter" meter="1.0"/>
    <up_axis>Z_UP</up_axis>
  </asset>
  <library_effects>
    <effect id="Steel_-_Satin-effect">
      <profile_COMMON>
        <technique sid="common">
          <lambert>
            <emission><color>0 0 0 1</color></emission>
            <ambient><color>0.0000 0.0000 0.0000 1</color></ambient>
            <diffuse><color>0.6275 0.6275 0.6275 1</color></diffuse>
            <reflective><color>0 0 0 1</color></reflective>
            <transparent opaque="A_ONE"><color>1 1 1 1</color></transparent>
            <transparency><float>1</float></transparency>
          </lambert>
        </technique>
      </profile_COMMON>
    </effect>
  </library_effects>
  <library_materials>
    <material id="Steel_-_Satin" name="Steel_-_Satin">
      <instance_effect url="#Steel_-_Satin-effect"/>
    </material>
  </library_materials>
  <library_geometries>
    <geometry id="gripper_tooth_2-mesh" name="gripper_tooth_2">
      <mesh>
        <source id="gripper_tooth_2-mesh-positions">
          <float_array id="gripper_tooth_2-mesh-positions-array" count="24">-0.030000 0.055000 0.628000 -0.030000 0.040000 0.628000 -0.030000 0.040000 0.703000 -0.030000 0.055000 0.703000 0.030000 0.055000 0.628000 0.030000 0.055000 0.703000 0.030000 0.040000 0.628000 0.030000 0.040000 0.703000</float_array>
          <technique_common>
            <accessor source="#gripper_tooth_2-mesh-positions-array" count="8" stride="3">
              <param name="X" type="float"/>
              <param name="Y" type="float"/>
              <param name="Z" type="float"/>
            </accessor>
          </technique_common>
        </source>
        <source id="gripper_tooth_2-mesh-normals">
          <float_array id="gripper_tooth_2-mesh-normals-array" count="72">-1.000000 -0.000000 0.000000 -1.000000 -0.000000 0.000000 -1.000000 -0.000000 0.000000 -1.000000 -0.000000 0.000000 -0.000000 1.000000 0.000000 -0.000000 1.000000 0.000000 -0.000000 1.000000 0.000000 -0.000000 1.000000 0.000000 1.000000 -0.000000 0.000000 1.000000 -0.000000 0.000000 1.000000 -0.000000 0.000000 1.000000 -0.000000 0.000000 0.000000 -1.000000 0.000000 0.000000 -1.000000 0.000000 0.000000 -1.000000 0.000000 0.000000 -1.000000 0.000000 0.000000 0.000000 1.000000 0.000000 0.000000 1.000000 0.000000 0.000000 1.000000 0.000000 0.000000 1.000000 -0.000000 -0.000000 -1.000000 -0.000000 -0.000000 -1.000000 -0.000000 -0.000000 -1.000000 -0.000000 -0.000000 -1.000000</float_array>
          <technique_common>
            <accessor source="#gripper_tooth_2-mesh-normals-array" count="24" stride="3">
              <param name="X" type="float"/>
              <param name="Y" type="float"/>
              <param name="Z" type="float"/>
            </accessor>
          </technique_common>
        </source>
        <vertices id="gripper_tooth_2-mesh-vertices">
          <input semantic="POSITION" source="#gripper_tooth_2-mesh-positions"/>
        </vertices>
        <triangles material="Steel_-_Satin" count="12">
          <input semantic="VERTEX" source="#gripper_tooth_2-mesh-vertices" offset="0"/>
          <input semantic="NORMAL" source="#gripper_tooth_2-mesh-normals" offset="1"/>
          <p>0 0 1 1 3 2 3 2 1 1 2 3 4 4 0 5 5 6 5 6 0 5 3 7 6 8 4 9 7 10 7 10 4 9 5 11 1 12 6 13 2 14 2 14 6 13 7 15 2 16 7 17 3 18 3 18 7 17 5 19 6 20 1 21 4 22 4 22 1 21 0 23</p>
        </triangles>
      </mesh>
    </geometry>
  </library_geometries>
  <library_visual_scenes>
    <visual_scene id="Scene" name="Scene">
      <node id="gripper_tooth_2-node" name="gripper_tooth_2" type="NODE">
        <instance_geometry url="#gripper_tooth_2-mesh">
          <bind_material>
            <technique_common>
              <instance_material symbol="Steel_-_Satin" target="#Steel_-_Satin"/>
            </technique_common>
          </bind_material>
        </instance_geometry>
      </node>
    </visual_scene>
  </library_visual_scenes>
  <scene>
    <instance_visual_scene url="#Scene"/>
  </scene>
</COLLADA>
