<?xml version="1.0" encoding="utf-8"?>
<COLLADA xmlns="http://www.collada.org/2005/11/COLLADASchema" version="1.4.1">
  <asset>
    <contributor>
      <authoring_tool>Fusion URDF/XACRO Exporter</authoring_tool>
    </contributor>
    <created>2026-08-21T07:34:06Z</created>
    <modified>2026-08-21T07:34:06Z</modified>
    <unit name="meter" meter="1.0"/>
    <up_axis>Z_UP</up_axis>
  </asset>
  <library_effects>
    <effect id="Steel_-_Satin-effect">
      <profile_COMMON>
        <technique sid="common">
          <lambert>
            <emission><color>0 0 0 1</color></emission>
            <ambient><color>0.0000 0.0000 0.0000 1</color></ambient>
            <diffuse><color>0.6275 0.6275 0.6275 1</color></diffuse>
            <reflective><color>0 0 0 1</color></reflective>
            <transparent opaque="A_ONE"><color>1 1 1 1</color></transparent>
            <transparency><float>1</float></transparency>
          </lambert>
        </technique>
      </profile_COMMON>
    </effect>
  </library_effects>
  <library_materials>
    <material id="Steel_-_Satin" name="Steel_-_Satin">
      <instance_effect url="#Steel_-_Satin-effect"/>
    </material>
  </library_materials>
  <library_geometries>
    <geometry id="wrist_base-mesh" name="wrist_base">
      <mesh>
        <source id="wrist_base-mesh-positions">
          <float_array id="wrist_base-mesh-positions-array" count="294">0.030017 -0.140000 0.180000 0.030017 -0.140000 0.223000 0.030017 -0.144000 0.223000 0.030017 -0.144000 0.180000 -0.030017 -0.140000 0.223000 -0.030017 -0.140000 0.180000 -0.030017 -0.144000 0.180000 -0.030017 -0.144000 0.223000 0.029933 -0.140000 0.220757 0.029681 -0.140000 0.218526 0.029264 -0.140000 0.216321 0.028683 -0.140000 0.214152 0.027942 -0.140000 0.212034 0.027044 -0.140000 0.209976 0.025995 -0.140000 0.207992 0.024801 -0.140000 0.206091 0.023468 -0.140000 0.204285 0.022004 -0.140000 0.202583 0.020417 -0.140000 0.200996 0.018715 -0.140000 0.199532 0.016909 -0.140000 0.198199 0.015008 -0.140000 0.197005 0.013024 -0.140000 0.195956 0.010966 -0.140000 0.195058 0.008848 -0.140000 0.194317 0.006679 -0.140000 0.193736 0.004474 -0.140000 0.193319 0.002243 -0.140000 0.193067 -0.000000 -0.140000 0.192983 -0.002243 -0.140000 0.193067 -0.004474 -0.140000 0.193319 -0.006679 -0.140000 0.193736 -0.008848 -0.140000 0.194317 -0.010966 -0.140000 0.195058 -0.013024 -0.140000 0.195956 -0.015008 -0.140000 0.197005 -0.016909 -0.140000 0.198199 -0.018715 -0.140000 0.199532 -0.020417 -0.140000 0.200996 -0.022004 -0.140000 0.202583 -0.023468 -0.140000 0.204285 -0.024801 -0.140000 0.206091 -0.025995 -0.140000 0.207992 -0.027044 -0.140000 0.209976 -0.027942 -0.140000 0.212034 -0.028683 -0.140000 0.214152 -0.029264 -0.140000 0.216321 -0.029681 -0.140000 0.218526 -0.029933 -0.140000 0.220757 -0.029933 -0.144000 0.220757 -0.029681 -0.144000 0.218526 -0.029264 -0.144000 0.216321 -0.028683 -0.144000 0.214152 -0.027942 -0.144000 0.212034 -0.027044 -0.144000 0.209976 -0.025995 -0.144000 0.207992 -0.024801 -0.144000 0.206091 -0.023468 -0.144000 0.204285 -0.022004 -0.144000 0.202583 -0.020417 -0.144000 0.200996 -0.018715 -0.144000 0.199532 -0.016909 -0.144000 0.198199 -0.015008 -0.144000 0.197005 -0.013024 -0.144000 0.195956 -0.010966 -0.144000 0.195058 -0.008848 -0.144000 0.194317 -0.006679 -0.144000 0.193736 -0.004474 -0.144000 0.193319 -0.002243 -0.144000 0.193067 -0.000000 -0.144000 0.192983 0.002243 -0.144000 0.193067 0.004474 -0.144000 0.193319 0.006679 -0.144000 0.193736 0.008848 -0.144000 0.194317 0.010966 -0.144000 0.195058 0.013024 -0.144000 0.195956 0.015008 -0.144000 0.197005 0.016909 -0.144000 0.198199 0.018715 -0.144000 0.199532 0.020417 -0.144000 0.200996 0.022004 -0.144000 0.202583 0.023468 -0.144000 0.204285 0.024801 -0.144000 0.206091 0.025995 -0.144000 0.207992 0.027044 -0.144000 0.209976 0.027942 -0.144000 0.212034 0.028683 -0.144000 0.214152 0.029264 -0.144000 0.216321 0.029681 -0.144000 0.218526 0.029933 -0.144000 0.220757 -0.040000 -0.144000 0.180000 -0.040000 -0.144000 0.170000 0.040000 -0.144000 0.170000 0.040000 -0.144000 0.180000 -0.040000 -0.050000 0.170000 0.040000 -0.050000 0.170000 -0.040000 -0.050000 0.180000 0.040000 -0.050000 0.180000</float_array>
          <technique_common>
            <accessor source="#wrist_base-mesh-positions-array" count="98" stride="3">
              <param name="X" type="float"/>
              <param name="Y" type="float"/>
              <param name="Z" type="float"/>
            </accessor>
          </technique_common>
        </source>
        <source id="wrist_base-mesh-normals">
          <float_array id="wrist_base-mesh-normals-array" count="636">1.000000 0.000000 0.000000 1.000000 0.000000 0.000000 1.000000 0.000000 0.000000 1.000000 0.000000 0.000000 -1.000000 -0.000000 -0.000000 -1.000000 -0.000000 -0.000000 -1.000000 -0.000000 -0.000000 -1.000000 -0.000000 -0.000000 -1.000000 0.000000 0.000000 -1.000000 0.000000 0.000000 -0.997204 0.000000 0.074730 -0.997204 0.000000 0.074730 -0.988831 0.000000 0.149042 -0.988831 0.000000 0.149042 -0.974928 0.000000 0.222521 -0.974928 0.000000 0.222521 -0.955573 0.000000 0.294755 -0.955573 0.000000 0.294755 -0.930874 0.000000 0.365341 -0.930874 0.000000 0.365341 -0.900969 0.000000 0.433884 -0.900969 0.000000 0.433884 -0.866025 0.000000 0.500000 -0.866025 0.000000 0.500000 -0.826239 0.000000 0.563320 -0.826239 0.000000 0.563320 -0.781831 0.000000 0.623490 -0.781831 0.000000 0.623490 -0.733052 0.000000 0.680173 -0.733052 0.000000 0.680173 -0.680173 0.000000 0.733052 -0.680173 0.000000 0.733052 -0.623490 0.000000 0.781831 -0.623490 0.000000 0.781831 -0.563320 0.000000 0.826239 -0.563320 0.000000 0.826239 -0.500000 0.000000 0.866025 -0.500000 0.000000 0.866025 -0.433884 0.000000 0.900969 -0.433884 0.000000 0.900969 -0.365341 0.000000 0.930874 -0.365341 0.000000 0.930874 -0.294755 0.000000 0.955573 -0.294755 0.000000 0.955573 -0.222521 0.000000 0.974928 -0.222521 0.000000 0.974928 -0.149042 0.000000 0.988831 -0.149042 0.000000 0.988831 -0.074730 0.000000 0.997204 -0.074730 0.000000 0.997204 0.000000 0.000000 1.000000 0.000000 0.000000 1.000000 0.074730 0.000000 0.997204 0.074730 0.000000 0.997204 0.149042 0.000000 0.988831 0.149042 0.000000 0.988831 0.222521 0.000000 0.974928 0.222521 0.000000 0.974928 0.294755 0.000000 0.955573 0.294755 0.000000 0.955573 0.365341 0.000000 0.930874 0.365341 0.000000 0.930874 0.433884 0.000000 0.900969 0.433884 0.000000 0.900969 0.500000 0.000000 0.866025 0.500000 0.000000 0.866025 0.563320 0.000000 0.826239 0.563320 0.000000 0.826239 0.623490 0.000000 0.781831 0.623490 0.000000 0.781831 0.680173 0.000000 0.733052 0.680173 0.000000 0.733052 0.733052 0.000000 0.680173 0.733052 0.000000 0.680173 0.781831 0.000000 0.623490 0.781831 0.000000 0.623490 0.826239 0.000000 0.563320 0.826239 0.000000 0.563320 0.866025 0.000000 0.500000 0.866025 0.000000 0.500000 0.900969 0.000000 0.433884 0.900969 0.000000 0.433884 0.930874 0.000000 0.365341 0.930874 0.000000 0.365341 0.955573 0.000000 0.294755 0.955573 0.000000 0.294755 0.974928 0.000000 0.222521 0.974928 0.000000 0.222521 0.988831 0.000000 0.149042 0.988831 0.000000 0.149042 0.997204 0.000000 0.074730 0.997204 0.000000 0.074730 1.000000 0.000000 0.000000 1.000000 0.000000 0.000000 -0.000000 -1.000000 0.000000 -0.000000 -1.000000 0.000000 -0.000000 -1.000000 0.000000 -0.000000 -1.000000 0.000000 -0.000000 -1.000000 0.000000 -0.000000 -1.000000 0.000000 -0.000000 -1.000000 0.000000 -0.000000 -1.000000 0.000000 -0.000000 -1.000000 0.000000 -0.000000 -1.000000 0.000000 -0.000000 -1.000000 0.000000 -0.000000 -1.000000 0.000000 -0.000000 -1.000000 0.000000 -0.000000 -1.000000 0.000000 -0.000000 -1.000000 0.000000 -0.000000 -1.000000 0.000000 -0.000000 -1.000000 0.000000 -0.000000 -1.000000 0.000000 -0.000000 -1.000000 0.000000 -0.000000 -1.000000 0.000000 -0.000000 -1.000000 0.000000 -0.000000 -1.000000 0.000000 -0.000000 -1.000000 0.000000 -0.000000 -1.000000 0.000000 -0.000000 -1.000000 0.000000 -0.000000 -1.000000 0.000000 -0.000000 -1.000000 0.000000 -0.000000 -1.000000 0.000000 -0.000000 -1.000000 0.000000 -0.000000 -1.000000 0.000000 -0.000000 -1.000000 0.000000 -0.000000 -1.000000 0.000000 -0.000000 -1.000000 0.000000 -0.000000 -1.000000 0.000000 -0.000000 -1.000000 0.000000 -0.000000 -1.000000 0.000000 -0.000000 -1.000000 0.000000 -0.000000 -1.000000 0.000000 -0.000000 -1.000000 0.000000 -0.000000 -1.000000 0.000000 -0.000000 -1.000000 0.000000 -0.000000 -1.000000 0.000000 -0.000000 -1.000000 0.000000 -0.000000 -1.000000 0.000000 -0.000000 -1.000000 0.000000 -0.000000 -1.000000 0.000000 -0.000000 -1.000000 0.000000 -0.000000 -1.000000 0.000000 -0.000000 -1.000000 0.000000 0.000000 1.000000 -0.000000 0.000000 1.000000 -0.000000 0.000000 1.000000 -0.000000 0.000000 1.000000 -0.000000 0.000000 1.000000 -0.000000 0.000000 1.000000 -0.000000 0.000000 1.000000 -0.000000 0.000000 1.000000 -0.000000 0.000000 1.000000 -0.000000 0.000000 1.000000 -0.000000 0.000000 1.000000 -0.000000 0.000000 1.000000 -0.000000 0.000000 1.000000 -0.000000 0.000000 1.000000 -0.000000 0.000000 1.000000 -0.000000 0.000000 1.000000 -0.000000 0.000000 1.000000 -0.000000 0.000000 1.000000 -0.000000 0.000000 1.000000 -0.000000 0.000000 1.000000 -0.000000 0.000000 1.000000 -0.000000 0.000000 1.000000 -0.000000 0.000000 1.000000 -0.000000 0.000000 1.000000 -0.000000 0.000000 1.000000 -0.000000 0.000000 1.000000 -0.000000 0.000000 1.000000 -0.000000 0.000000 1.000000 -0.000000 0.000000 1.000000 -0.000000 0.000000 1.000000 -0.000000 0.000000 1.000000 -0.000000 0.000000 1.000000 -0.000000 0.000000 1.000000 -0.000000 0.000000 1.000000 -0.000000 0.000000 1.000000 -0.000000 0.000000 1.000000 -0.000000 0.000000 1.000000 -0.000000 0.000000 1.000000 -0.000000 0.000000 1.000000 -0.000000 0.000000 1.000000 -0.000000 0.000000 1.000000 -0.000000 0.000000 1.000000 -0.000000 0.000000 1.000000 -0.000000 0.000000 1.000000 -0.000000 0.000000 1.000000 -0.000000 0.000000 0.000000 -1.000000 0.000000 0.000000 -1.000000 0.000000 0.000000 -1.000000 0.000000 0.000000 -1.000000 -1.000000 -0.000000 -0.000000 -1.000000 -0.000000 -0.000000 -1.000000 -0.000000 -0.000000 -1.000000 -0.000000 -0.000000 0.000000 0.000000 1.000000 0.000000 0.000000 1.000000 0.000000 0.000000 1.000000 0.000000 0.000000 1.000000 0.000000 0.000000 1.000000 0.000000 0.000000 1.000000 0.000000 0.000000 1.000000 0.000000 0.000000 1.000000 1.000000 0.000000 -0.000000 1.000000 0.000000 -0.000000 1.000000 0.000000 -0.000000 1.000000 0.000000 -0.000000 -0.000000 1.000000 -0.000000 -0.000000 1.000000 -0.000000 -0.000000 1.000000 -0.000000 -0.000000 1.000000 -0.000000</float_array>
          <technique_common>
            <accessor source="#wrist_base-mesh-normals-array" count="212" stride="3">
              <param name="X" type="float"/>
              <param name="Y" type="float"/>
              <param name="Z" type="float"/>
            </accessor>
          </technique_common>
        </source>
        <vertices id="wrist_base-mesh-vertices">
          <input semantic="POSITION" source="#wrist_base-mesh-positions"/>
        </vertices>
        <triangles material="Steel_-_Satin" count="192">
          <input semantic="VERTEX" source="#wrist_base-mesh-vertices" offset="0"/>
          <input semantic="NORMAL" source="#wrist_base-mesh-normals" offset="1"/>
          <p>0 0 1 1 3 2 3 2 1 1 2 3 4 4 5 5 7 6 7 6 5 5 6 7 2 8 1 9 89 10 89 10 1 9 8 11 89 10 8 11 88 12 88 12 8 11 9 13 88 12 9 13 87 14 87 14 9 13 10 15 87 14 10 15 86 16 86 16 10 15 11 17 86 16 11 17 85 18 85 18 11 17 12 19 85 18 12 19 84 20 84 20 12 19 13 21 84 20 13 21 83 22 83 22 13 21 14 23 83 22 14 23 82 24 82 24 14 23 15 25 82 24 15 25 81 26 81 26 15 25 16 27 81 26 16 27 80 28 80 28 16 27 17 29 80 28 17 29 79 30 79 30 17 29 18 31 79 30 18 31 78 32 78 32 18 31 19 33 78 32 19 33 77 34 77 34 19 33 20 35 77 34 20 35 76 36 76 36 20 35 21 37 76 36 21 37 75 38 75 38 21 37 22 39 75 38 22 39 74 40 74 40 22 39 23 41 74 40 23 41 73 42 73 42 23 41 24 43 73 42 24 43 72 44 72 44 24 43 25 45 72 44 25 45 71 46 71 46 25 45 26 47 71 46 26 47 70 48 70 48 26 47 27 49 70 48 27 49 69 50 69 50 27 49 28 51 69 50 28 51 68 52 68 52 28 51 29 53 68 52 29 53 67 54 67 54 29 53 30 55 67 54 30 55 66 56 66 56 30 55 31 57 66 56 31 57 65 58 65 58 31 57 32 59 65 58 32 59 64 60 64 60 32 59 33 61 64 60 33 61 63 62 63 62 33 61 34 63 63 62 34 63 62 64 62 64 34 63 35 65 62 64 35 65 61 66 61 66 35 65 36 67 61 66 36 67 60 68 60 68 36 67 37 69 60 68 37 69 59 70 59 70 37 69 38 71 59 70 38 71 58 72 58 72 38 71 39 73 58 72 39 73 57 74 57 74 39 73 40 75 57 74 40 75 56 76 56 76 40 75 41 77 56 76 41 77 55 78 55 78 41 77 42 79 55 78 42 79 54 80 54 80 42 79 43 81 54 80 43 81 53 82 53 82 43 81 44 83 53 82 44 83 52 84 52 84 44 83 45 85 52 84 45 85 51 86 51 86 45 85 46 87 51 86 46 87 50 88 50 88 46 87 47 89 50 88 47 89 49 90 49 90 47 89 48 91 49 90 48 91 7 92 7 92 48 91 4 93 2 94 89 95 3 96 3 96 89 95 88 97 3 96 88 97 87 98 87 98 86 99 3 96 3 96 86 99 85 100 3 96 85 100 84 101 84 101 83 102 3 96 3 96 83 102 82 103 3 96 82 103 81 104 81 104 80 105 3 96 3 96 80 105 79 106 3 96 79 106 78 107 78 107 77 108 3 96 3 96 77 108 76 109 3 96 76 109 75 110 75 110 74 111 3 96 3 96 74 111 73 112 3 96 73 112 72 113 72 113 71 114 3 96 3 96 71 114 70 115 3 96 70 115 69 116 3 96 69 116 6 117 6 117 69 116 68 118 6 117 68 118 67 119 67 119 66 120 6 117 6 117 66 120 65 121 6 117 65 121 64 122 64 122 63 123 6 117 6 117 63 123 62 124 6 117 62 124 61 125 61 125 60 126 6 117 6 117 60 126 59 127 6 117 59 127 58 128 58 128 57 129 6 117 6 117 57 129 56 130 6 117 56 130 55 131 55 131 54 132 6 117 6 117 54 132 53 133 6 117 53 133 52 134 52 134 51 135 6 117 6 117 51 135 50 136 6 117 50 136 49 137 49 137 7 138 6 117 90 139 91 140 6 117 6 117 91 140 92 141 6 117 92 141 3 96 3 96 92 141 93 142 5 143 28 144 0 145 0 145 28 144 27 146 0 145 27 146 26 147 4 148 48 149 5 143 5 143 48 149 47 150 5 143 47 150 46 151 46 151 45 152 5 143 5 143 45 152 44 153 5 143 44 153 43 154 43 154 42 155 5 143 5 143 42 155 41 156 5 143 41 156 40 157 40 157 39 158 5 143 5 143 39 158 38 159 5 143 38 159 37 160 37 160 36 161 5 143 5 143 36 161 35 162 5 143 35 162 34 163 34 163 33 164 5 143 5 143 33 164 32 165 5 143 32 165 31 166 31 166 30 167 5 143 5 143 30 167 29 168 5 143 29 168 28 144 26 147 25 169 0 145 0 145 25 169 24 170 0 145 24 170 23 171 23 171 22 172 0 145 0 145 22 172 21 173 0 145 21 173 20 174 20 174 19 175 0 145 0 145 19 175 18 176 0 145 18 176 17 177 17 177 16 178 0 145 0 145 16 178 15 179 0 145 15 179 14 180 14 180 13 181 0 145 0 145 13 181 12 182 0 145 12 182 11 183 11 183 10 184 0 145 0 145 10 184 9 185 0 145 9 185 8 186 8 186 1 187 0 145 94 188 95 189 91 190 91 190 95 189 92 191 96 192 94 193 90 194 90 194 94 193 91 195 93 196 97 197 0 198 0 198 97 197 96 199 0 198 96 199 5 200 5 200 96 199 90 201 5 200 90 201 6 202 0 198 3 203 93 196 95 204 97 205 92 206 92 206 97 205 93 207 95 208 94 209 97 210 97 210 94 209 96 211</p>
        </triangles>
      </mesh>
    </geometry>
  </library_geometries>
  <library_visual_scenes>
    <visual_scene id="Scene" name="Scene">
      <node id="wrist_base-node" name="wrist_base" type="NODE">
        <instance_geometry url="#wrist_base-mesh">
          <bind_material>
            <technique_common>
              <instance_material symbol="Steel_-_Satin" target="#Steel_-_Satin"/>
            </technique_common>
          </bind_material>
        </instance_geometry>
      </node>
    </visual_scene>
  </library_visual_scenes>
  <scene>
    <instance_visual_scene url="#Scene"/>
  </scene>
</COLLADA>
