<?xml version="1.0" encoding="utf-8"?>
<COLLADA xmlns="http://www.collada.org/2005/11/COLLADASchema" version="1.4.1">
  <asset>
    <contributor>
      <authoring_tool>Fusion URDF/XACRO Exporter</authoring_tool>
    </contributor>
    <created>2026-09-24T02:12:54Z</created>
    <modified>2026-09-24T02:12:54Z</modified>
    <unit name="meter" meter="1.0"/>
    <up_axis>Z_UP</up_axis>
  </asset>
  <library_effects>
    <effect id="Steel_-_Satin-effect">
      <profile_COMMON>
        <technique sid="common">
          <lambert>
            <emission><color>0 0 0 1</color></emission>
            <ambient><color>0.0000 0.0000 0.0000 1</color></ambient>
            <diffuse><color>0.6275 0.6275 0.6275 1</color></diffuse>
            <reflective><color>0 0 0 1</color></reflective>
            <transparent opaque="A_ONE"><color>1 1 1 1</color></transparent>
            <transparency><float>1</float></transparency>
          </lambert>
        </technique>
      </profile_COMMON>
    </effect>
  </library_effects>
  <library_materials>
    <material id="Steel_-_Satin" name="Steel_-_Satin">
      <instance_effect url="#Steel_-_Satin-effect"/>
    </material>
  </library_materials>
  <library_geometries>
    <geometry id="base_link-mesh" name="base_link">
      <mesh>
        <source id="base_link-mesh-positions">
          <float_array id="base_link-mesh-positions-array" count="570">0.120000 0.120000 0.000000 -0.120000 0.120000 0.000000 -0.120000 0.120000 0.084000 0.120000 0.120000 0.084000 0.120000 -0.120000 0.000000 0.120000 -0.120000 0.084000 -0.120000 -0.120000 0.000000 -0.120000 -0.120000 0.084000 -0.080000 -0.000000 0.166000 -0.079809 0.005519 0.166000 -0.079238 0.011012 0.166000 -0.078290 0.016453 0.166000 -0.076968 0.021815 0.166000 -0.075280 0.027073 0.166000 -0.073233 0.032202 0.166000 -0.070836 0.037178 0.166000 -0.068103 0.041976 0.166000 -0.065044 0.046575 0.166000 -0.061676 0.050951 0.166000 -0.058014 0.055085 0.166000 -0.054075 0.058956 0.166000 -0.049879 0.062547 0.166000 -0.045445 0.065839 0.166000 -0.040795 0.068817 0.166000 -0.035950 0.071468 0.166000 -0.030933 0.073778 0.166000 -0.025770 0.075736 0.166000 -0.020483 0.077333 0.166000 -0.015099 0.078562 0.166000 -0.009643 0.079417 0.166000 -0.004141 0.079893 0.166000 0.001381 0.079988 0.166000 0.006896 0.079702 0.166000 0.012378 0.079037 0.166000 0.017802 0.077994 0.166000 0.023140 0.076580 0.166000 0.028368 0.074801 0.166000 0.033461 0.072666 0.166000 0.038395 0.070184 0.166000 0.043146 0.067368 0.166000 0.047691 0.064231 0.166000 0.052008 0.060788 0.166000 0.056078 0.057055 0.166000 0.059881 0.053050 0.166000 0.063398 0.048792 0.166000 0.066613 0.044302 0.166000 0.069511 0.039601 0.166000 0.072078 0.034711 0.166000 0.074300 0.029655 0.166000 0.076169 0.024459 0.166000 0.077675 0.019145 0.166000 0.078811 0.013741 0.166000 0.079571 0.008271 0.166000 0.079952 0.002761 0.166000 0.079952 -0.002761 0.166000 0.079571 -0.008271 0.166000 0.078811 -0.013741 0.166000 0.077675 -0.019145 0.166000 0.076169 -0.024459 0.166000 0.074300 -0.029655 0.166000 0.072078 -0.034711 0.166000 0.069511 -0.039601 0.166000 0.066613 -0.044302 0.166000 0.063398 -0.048792 0.166000 0.059881 -0.053050 0.166000 0.056078 -0.057055 0.166000 0.052008 -0.060788 0.166000 0.047691 -0.064231 0.166000 0.043146 -0.067368 0.166000 0.038395 -0.070184 0.166000 0.033461 -0.072666 0.166000 0.028368 -0.074801 0.166000 0.023140 -0.076580 0.166000 0.017802 -0.077994 0.166000 0.012378 -0.079037 0.166000 0.006896 -0.079702 0.166000 0.001381 -0.079988 0.166000 -0.004141 -0.079893 0.166000 -0.009643 -0.079417 0.166000 -0.015099 -0.078562 0.166000 -0.020483 -0.077333 0.166000 -0.025770 -0.075736 0.166000 -0.030933 -0.073778 0.166000 -0.035950 -0.071468 0.166000 -0.040795 -0.068817 0.166000 -0.045445 -0.065839 0.166000 -0.049879 -0.062547 0.166000 -0.054075 -0.058956 0.166000 -0.058014 -0.055085 0.166000 -0.061676 -0.050951 0.166000 -0.065044 -0.046575 0.166000 -0.068103 -0.041976 0.166000 -0.070836 -0.037178 0.166000 -0.073233 -0.032202 0.166000 -0.075280 -0.027073 0.166000 -0.076968 -0.021815 0.166000 -0.078290 -0.016453 0.166000 -0.079238 -0.011012 0.166000 -0.079809 -0.005519 0.166000 -0.080000 -0.000000 0.084000 -0.079809 -0.005519 0.084000 -0.079238 -0.011012 0.084000 -0.078290 -0.016453 0.084000 -0.076968 -0.021815 0.084000 -0.075280 -0.027073 0.084000 -0.073233 -0.032202 0.084000 -0.070836 -0.037178 0.084000 -0.068103 -0.041976 0.084000 -0.065044 -0.046575 0.084000 -0.061676 -0.050951 0.084000 -0.058014 -0.055085 0.084000 -0.054075 -0.058956 0.084000 -0.049879 -0.062547 0.084000 -0.045445 -0.065839 0.084000 -0.040795 -0.068817 0.084000 -0.035950 -0.071468 0.084000 -0.030933 -0.073778 0.084000 -0.025770 -0.075736 0.084000 -0.020483 -0.077333 0.084000 -0.015099 -0.078562 0.084000 -0.009643 -0.079417 0.084000 -0.004141 -0.079893 0.084000 0.001381 -0.079988 0.084000 0.006896 -0.079702 0.084000 0.012378 -0.079037 0.084000 0.017802 -0.077994 0.084000 0.023140 -0.076580 0.084000 0.028368 -0.074801 0.084000 0.033461 -0.072666 0.084000 0.038395 -0.070184 0.084000 0.043146 -0.067368 0.084000 0.047691 -0.064231 0.084000 0.052008 -0.060788 0.084000 0.056078 -0.057055 0.084000 0.059881 -0.053050 0.084000 0.063398 -0.048792 0.084000 0.066613 -0.044302 0.084000 0.069511 -0.039601 0.084000 0.072078 -0.034711 0.084000 0.074300 -0.029655 0.084000 0.076169 -0.024459 0.084000 0.077675 -0.019145 0.084000 0.078811 -0.013741 0.084000 0.079571 -0.008271 0.084000 0.079952 -0.002761 0.084000 0.079952 0.002761 0.084000 0.079571 0.008271 0.084000 0.078811 0.013741 0.084000 0.077675 0.019145 0.084000 0.076169 0.024459 0.084000 0.074300 0.029655 0.084000 0.072078 0.034711 0.084000 0.069511 0.039601 0.084000 0.066613 0.044302 0.084000 0.063398 0.048792 0.084000 0.059881 0.053050 0.084000 0.056078 0.057055 0.084000 0.052008 0.060788 0.084000 0.047691 0.064231 0.084000 0.043146 0.067368 0.084000 0.038395 0.070184 0.084000 0.033461 0.072666 0.084000 0.028368 0.074801 0.084000 0.023140 0.076580 0.084000 0.017802 0.077994 0.084000 0.012378 0.079037 0.084000 0.006896 0.079702 0.084000 0.001381 0.079988 0.084000 -0.004141 0.079893 0.084000 -0.009643 0.079417 0.084000 -0.015099 0.078562 0.084000 -0.020483 0.077333 0.084000 -0.025770 0.075736 0.084000 -0.030933 0.073778 0.084000 -0.035950 0.071468 0.084000 -0.040795 0.068817 0.084000 -0.045445 0.065839 0.084000 -0.049879 0.062547 0.084000 -0.054075 0.058956 0.084000 -0.058014 0.055085 0.084000 -0.061676 0.050951 0.084000 -0.065044 0.046575 0.084000 -0.068103 0.041976 0.084000 -0.070836 0.037178 0.084000 -0.073233 0.032202 0.084000 -0.075280 0.027073 0.084000 -0.076968 0.021815 0.084000 -0.078290 0.016453 0.084000 -0.079238 0.011012 0.084000 -0.079809 0.005519 0.084000</float_array>
          <technique_common>
            <accessor source="#base_link-mesh-positions-array" count="190" stride="3">
              <param name="X" type="float"/>
              <param name="Y" type="float"/>
              <param name="Z" type="float"/>
            </accessor>
          </technique_common>
        </source>
        <source id="base_link-mesh-normals">
          <float_array id="base_link-mesh-normals-array" count="1164">0.000000 1.000000 -0.000000 0.000000 1.000000 -0.000000 0.000000 1.000000 -0.000000 0.000000 1.000000 -0.000000 1.000000 0.000000 0.000000 1.000000 0.000000 0.000000 1.000000 0.000000 0.000000 1.000000 0.000000 0.000000 0.000000 -1.000000 0.000000 0.000000 -1.000000 0.000000 0.000000 -1.000000 0.000000 0.000000 -1.000000 0.000000 -1.000000 0.000000 0.000000 -1.000000 0.000000 0.000000 -1.000000 0.000000 0.000000 -1.000000 0.000000 0.000000 0.000000 0.000000 1.000000 0.000000 0.000000 1.000000 0.000000 0.000000 1.000000 0.000000 0.000000 1.000000 -0.000000 -0.000000 -1.000000 -0.000000 -0.000000 -1.000000 -0.000000 -0.000000 -1.000000 -0.000000 -0.000000 -1.000000 -0.997617 0.068991 -0.000000 -0.997617 0.068991 -0.000000 -1.000000 0.000000 -0.000000 -1.000000 0.000000 -0.000000 -0.997617 -0.068991 0.000000 -0.997617 -0.068991 0.000000 -0.990480 -0.137654 0.000000 -0.990480 -0.137654 0.000000 -0.978624 -0.205660 0.000000 -0.978624 -0.205660 0.000000 -0.962103 -0.272686 0.000000 -0.962103 -0.272686 0.000000 -0.940998 -0.338413 0.000000 -0.940998 -0.338413 0.000000 -0.915408 -0.402527 0.000000 -0.915408 -0.402527 0.000000 -0.885456 -0.464723 0.000000 -0.885456 -0.464723 0.000000 -0.851284 -0.524704 0.000000 -0.851284 -0.524704 0.000000 -0.813056 -0.582185 0.000000 -0.813056 -0.582185 0.000000 -0.770953 -0.636892 0.000000 -0.770953 -0.636892 0.000000 -0.725176 -0.688563 0.000000 -0.725176 -0.688563 0.000000 -0.675944 -0.736953 0.000000 -0.675944 -0.736953 0.000000 -0.623490 -0.781831 0.000000 -0.623490 -0.781831 0.000000 -0.568065 -0.822984 0.000000 -0.568065 -0.822984 0.000000 -0.509933 -0.860214 0.000000 -0.509933 -0.860214 0.000000 -0.449370 -0.893346 0.000000 -0.449370 -0.893346 0.000000 -0.386667 -0.922220 0.000000 -0.386667 -0.922220 0.000000 -0.322120 -0.946699 0.000000 -0.322120 -0.946699 0.000000 -0.256039 -0.966666 0.000000 -0.256039 -0.966666 0.000000 -0.188738 -0.982028 0.000000 -0.188738 -0.982028 0.000000 -0.120537 -0.992709 0.000000 -0.120537 -0.992709 0.000000 -0.051761 -0.998659 0.000000 -0.051761 -0.998659 0.000000 0.017261 -0.999851 -0.000000 0.017261 -0.999851 -0.000000 0.086200 -0.996278 -0.000000 0.086200 -0.996278 -0.000000 0.154729 -0.987957 -0.000000 0.154729 -0.987957 -0.000000 0.222521 -0.974928 -0.000000 0.222521 -0.974928 -0.000000 0.289252 -0.957253 -0.000000 0.289252 -0.957253 -0.000000 0.354605 -0.935016 -0.000000 0.354605 -0.935016 -0.000000 0.418268 -0.908324 -0.000000 0.418268 -0.908324 -0.000000 0.479937 -0.877303 -0.000000 0.479937 -0.877303 -0.000000 0.539320 -0.842101 -0.000000 0.539320 -0.842101 -0.000000 0.596132 -0.802886 -0.000000 0.596132 -0.802886 -0.000000 0.650104 -0.759845 -0.000000 0.650104 -0.759845 -0.000000 0.700978 -0.713183 -0.000000 0.700978 -0.713183 -0.000000 0.748511 -0.663123 -0.000000 0.748511 -0.663123 -0.000000 0.792477 -0.609902 -0.000000 0.792477 -0.609902 -0.000000 0.832666 -0.553775 -0.000000 0.832666 -0.553775 -0.000000 0.868888 -0.495009 -0.000000 0.868888 -0.495009 -0.000000 0.900969 -0.433884 -0.000000 0.900969 -0.433884 -0.000000 0.928756 -0.370691 -0.000000 0.928756 -0.370691 -0.000000 0.952118 -0.305732 -0.000000 0.952118 -0.305732 -0.000000 0.970942 -0.239316 -0.000000 0.970942 -0.239316 -0.000000 0.985139 -0.171759 -0.000000 0.985139 -0.171759 -0.000000 0.994642 -0.103384 -0.000000 0.994642 -0.103384 -0.000000 0.999404 -0.034516 -0.000000 0.999404 -0.034516 -0.000000 0.999404 0.034516 -0.000000 0.999404 0.034516 -0.000000 0.994642 0.103384 -0.000000 0.994642 0.103384 -0.000000 0.985139 0.171759 -0.000000 0.985139 0.171759 -0.000000 0.970942 0.239316 -0.000000 0.970942 0.239316 -0.000000 0.952118 0.305732 -0.000000 0.952118 0.305732 -0.000000 0.928756 0.370691 -0.000000 0.928756 0.370691 -0.000000 0.900969 0.433884 -0.000000 0.900969 0.433884 -0.000000 0.868888 0.495009 -0.000000 0.868888 0.495009 -0.000000 0.832666 0.553775 -0.000000 0.832666 0.553775 -0.000000 0.792477 0.609902 -0.000000 0.792477 0.609902 -0.000000 0.748511 0.663123 -0.000000 0.748511 0.663123 -0.000000 0.700978 0.713183 -0.000000 0.700978 0.713183 -0.000000 0.650104 0.759845 -0.000000 0.650104 0.759845 -0.000000 0.596132 0.802886 -0.000000 0.596132 0.802886 -0.000000 0.539320 0.842101 -0.000000 0.539320 0.842101 -0.000000 0.479937 0.877303 -0.000000 0.479937 0.877303 -0.000000 0.418268 0.908324 -0.000000 0.418268 0.908324 -0.000000 0.354605 0.935016 -0.000000 0.354605 0.935016 -0.000000 0.289252 0.957253 -0.000000 0.289252 0.957253 -0.000000 0.222521 0.974928 -0.000000 0.222521 0.974928 -0.000000 0.154729 0.987957 -0.000000 0.154729 0.987957 -0.000000 0.086200 0.996278 -0.000000 0.086200 0.996278 -0.000000 0.017261 0.999851 -0.000000 0.017261 0.999851 -0.000000 -0.051761 0.998659 -0.000000 -0.051761 0.998659 -0.000000 -0.120537 0.992709 -0.000000 -0.120537 0.992709 -0.000000 -0.188738 0.982028 -0.000000 -0.188738 0.982028 -0.000000 -0.256039 0.966666 -0.000000 -0.256039 0.966666 -0.000000 -0.322120 0.946699 -0.000000 -0.322120 0.946699 -0.000000 -0.386667 0.922220 -0.000000 -0.386667 0.922220 -0.000000 -0.449370 0.893346 -0.000000 -0.449370 0.893346 -0.000000 -0.509933 0.860214 -0.000000 -0.509933 0.860214 -0.000000 -0.568065 0.822984 -0.000000 -0.568065 0.822984 -0.000000 -0.623490 0.781831 -0.000000 -0.623490 0.781831 -0.000000 -0.675944 0.736953 -0.000000 -0.675944 0.736953 -0.000000 -0.725176 0.688563 -0.000000 -0.725176 0.688563 -0.000000 -0.770953 0.636892 -0.000000 -0.770953 0.636892 -0.000000 -0.813056 0.582185 -0.000000 -0.813056 0.582185 -0.000000 -0.851284 0.524704 -0.000000 -0.851284 0.524704 -0.000000 -0.885456 0.464723 -0.000000 -0.885456 0.464723 -0.000000 -0.915408 0.402527 -0.000000 -0.915408 0.402527 -0.000000 -0.940998 0.338413 -0.000000 -0.940998 0.338413 -0.000000 -0.962103 0.272686 -0.000000 -0.962103 0.272686 -0.000000 -0.978624 0.205660 -0.000000 -0.978624 0.205660 -0.000000 -0.990480 0.137654 -0.000000 -0.990480 0.137654 -0.000000 0.000000 0.000000 1.000000 0.000000 0.000000 1.000000 0.000000 0.000000 1.000000 0.000000 0.000000 1.000000 0.000000 0.000000 1.000000 0.000000 0.000000 1.000000 0.000000 0.000000 1.000000 0.000000 0.000000 1.000000 0.000000 0.000000 1.000000 0.000000 0.000000 1.000000 0.000000 0.000000 1.000000 0.000000 0.000000 1.000000 0.000000 0.000000 1.000000 0.000000 0.000000 1.000000 0.000000 0.000000 1.000000 0.000000 0.000000 1.000000 0.000000 0.000000 1.000000 0.000000 0.000000 1.000000 0.000000 0.000000 1.000000 0.000000 0.000000 1.000000 0.000000 0.000000 1.000000 0.000000 0.000000 1.000000 0.000000 0.000000 1.000000 0.000000 0.000000 1.000000 0.000000 0.000000 1.000000 0.000000 0.000000 1.000000 0.000000 0.000000 1.000000 0.000000 0.000000 1.000000 0.000000 0.000000 1.000000 0.000000 0.000000 1.000000 0.000000 0.000000 1.000000 0.000000 0.000000 1.000000 0.000000 0.000000 1.000000 0.000000 0.000000 1.000000 0.000000 0.000000 1.000000 0.000000 0.000000 1.000000 0.000000 0.000000 1.000000 0.000000 0.000000 1.000000 0.000000 0.000000 1.000000 0.000000 0.000000 1.000000 0.000000 0.000000 1.000000 0.000000 0.000000 1.000000 0.000000 0.000000 1.000000 0.000000 0.000000 1.000000 0.000000 0.000000 1.000000 0.000000 0.000000 1.000000 0.000000 0.000000 1.000000 0.000000 0.000000 1.000000 0.000000 0.000000 1.000000 0.000000 0.000000 1.000000 0.000000 0.000000 1.000000 0.000000 0.000000 1.000000 0.000000 0.000000 1.000000 0.000000 0.000000 1.000000 0.000000 0.000000 1.000000 0.000000 0.000000 1.000000 0.000000 0.000000 1.000000 0.000000 0.000000 1.000000 0.000000 0.000000 1.000000 0.000000 0.000000 1.000000 0.000000 0.000000 1.000000 0.000000 0.000000 1.000000 0.000000 0.000000 1.000000 0.000000 0.000000 1.000000 0.000000 0.000000 1.000000 0.000000 0.000000 1.000000 0.000000 0.000000 1.000000 0.000000 0.000000 1.000000 0.000000 0.000000 1.000000 0.000000 0.000000 1.000000 0.000000 0.000000 1.000000 0.000000 0.000000 1.000000 0.000000 0.000000 1.000000 0.000000 0.000000 1.000000 0.000000 0.000000 1.000000 0.000000 0.000000 1.000000 0.000000 0.000000 1.000000 0.000000 0.000000 1.000000 0.000000 0.000000 1.000000 0.000000 0.000000 1.000000 0.000000 0.000000 1.000000 0.000000 0.000000 1.000000 0.000000 0.000000 1.000000 0.000000 0.000000 1.000000 0.000000 0.000000 1.000000 0.000000 0.000000 1.000000 0.000000 0.000000 1.000000 0.000000 0.000000 1.000000 0.000000 0.000000 1.000000 0.000000 0.000000 1.000000 0.000000 0.000000 1.000000 -0.000000 -0.000000 -1.000000 -0.000000 -0.000000 -1.000000 -0.000000 -0.000000 -1.000000 -0.000000 -0.000000 -1.000000 -0.000000 -0.000000 -1.000000 -0.000000 -0.000000 -1.000000 -0.000000 -0.000000 -1.000000 -0.000000 -0.000000 -1.000000 -0.000000 -0.000000 -1.000000 -0.000000 -0.000000 -1.000000 -0.000000 -0.000000 -1.000000 -0.000000 -0.000000 -1.000000 -0.000000 -0.000000 -1.000000 -0.000000 -0.000000 -1.000000 -0.000000 -0.000000 -1.000000 -0.000000 -0.000000 -1.000000 -0.000000 -0.000000 -1.000000 -0.000000 -0.000000 -1.000000 -0.000000 -0.000000 -1.000000 -0.000000 -0.000000 -1.000000 -0.000000 -0.000000 -1.000000 -0.000000 -0.000000 -1.000000 -0.000000 -0.000000 -1.000000 -0.000000 -0.000000 -1.000000 -0.000000 -0.000000 -1.000000 -0.000000 -0.000000 -1.000000 -0.000000 -0.000000 -1.000000 -0.000000 -0.000000 -1.000000 -0.000000 -0.000000 -1.000000 -0.000000 -0.000000 -1.000000 -0.000000 -0.000000 -1.000000 -0.000000 -0.000000 -1.000000 -0.000000 -0.000000 -1.000000 -0.000000 -0.000000 -1.000000 -0.000000 -0.000000 -1.000000 -0.000000 -0.000000 -1.000000 -0.000000 -0.000000 -1.000000 -0.000000 -0.000000 -1.000000 -0.000000 -0.000000 -1.000000 -0.000000 -0.000000 -1.000000 -0.000000 -0.000000 -1.000000 -0.000000 -0.000000 -1.000000 -0.000000 -0.000000 -1.000000 -0.000000 -0.000000 -1.000000 -0.000000 -0.000000 -1.000000 -0.000000 -0.000000 -1.000000 -0.000000 -0.000000 -1.000000 -0.000000 -0.000000 -1.000000 -0.000000 -0.000000 -1.000000 -0.000000 -0.000000 -1.000000 -0.000000 -0.000000 -1.000000 -0.000000 -0.000000 -1.000000 -0.000000 -0.000000 -1.000000 -0.000000 -0.000000 -1.000000 -0.000000 -0.000000 -1.000000 -0.000000 -0.000000 -1.000000 -0.000000 -0.000000 -1.000000 -0.000000 -0.000000 -1.000000 -0.000000 -0.000000 -1.000000 -0.000000 -0.000000 -1.000000 -0.000000 -0.000000 -1.000000 -0.000000 -0.000000 -1.000000 -0.000000 -0.000000 -1.000000 -0.000000 -0.000000 -1.000000 -0.000000 -0.000000 -1.000000 -0.000000 -0.000000 -1.000000 -0.000000 -0.000000 -1.000000 -0.000000 -0.000000 -1.000000 -0.000000 -0.000000 -1.000000 -0.000000 -0.000000 -1.000000 -0.000000 -0.000000 -1.000000 -0.000000 -0.000000 -1.000000 -0.000000 -0.000000 -1.000000 -0.000000 -0.000000 -1.000000 -0.000000 -0.000000 -1.000000 -0.000000 -0.000000 -1.000000 -0.000000 -0.000000 -1.000000 -0.000000 -0.000000 -1.000000 -0.000000 -0.000000 -1.000000 -0.000000 -0.000000 -1.000000 -0.000000 -0.000000 -1.000000 -0.000000 -0.000000 -1.000000 -0.000000 -0.000000 -1.000000 -0.000000 -0.000000 -1.000000 -0.000000 -0.000000 -1.000000 -0.000000 -0.000000 -1.000000 -0.000000 -0.000000 -1.000000 -0.000000 -0.000000 -1.000000 -0.000000 -0.000000 -1.000000 -0.000000 -0.000000 -1.000000 -0.000000 -0.000000 -1.000000</float_array>
          <technique_common>
            <accessor source="#base_link-mesh-normals-array" count="388" stride="3">
              <param name="X" type="float"/>
              <param name="Y" type="float"/>
              <param name="Z" type="float"/>
            </accessor>
          </technique_common>
        </source>
        <vertices id="base_link-mesh-vertices">
          <input semantic="POSITION" source="#base_link-mesh-positions"/>
        </vertices>
        <triangles material="Steel_-_Satin" count="372">
          <input semantic="VERTEX" source="#base_link-mesh-vertices" offset="0"/>
          <input semantic="NORMAL" source="#base_link-mesh-normals" offset="1"/>
          <p>0 0 1 1 3 2 3 2 1 1 2 3 4 4 0 5 5 6 5 6 0 5 3 7 6 8 4 9 7 10 7 10 4 9 5 11 1 12 6 13 2 14 2 14 6 13 7 15 7 16 5 17 2 18 2 18 5 17 3 19 1 20 0 21 6 22 6 22 0 21 4 23 9 24 189 25 8 26 8 26 189 25 99 27 8 26 99 27 98 28 98 28 99 27 100 29 98 28 100 29 97 30 97 30 100 29 101 31 97 30 101 31 96 32 96 32 101 31 102 33 96 32 102 33 95 34 95 34 102 33 103 35 95 34 103 35 94 36 94 36 103 35 104 37 94 36 104 37 93 38 93 38 104 37 105 39 93 38 105 39 92 40 92 40 105 39 106 41 92 40 106 41 91 42 91 42 106 41 107 43 91 42 107 43 90 44 90 44 107 43 108 45 90 44 108 45 89 46 89 46 108 45 109 47 89 46 109 47 88 48 88 48 109 47 110 49 88 48 110 49 87 50 87 50 110 49 111 51 87 50 111 51 86 52 86 52 111 51 112 53 86 52 112 53 85 54 85 54 112 53 113 55 85 54 113 55 84 56 84 56 113 55 114 57 84 56 114 57 83 58 83 58 114 57 115 59 83 58 115 59 82 60 82 60 115 59 116 61 82 60 116 61 81 62 81 62 116 61 117 63 81 62 117 63 80 64 80 64 117 63 118 65 80 64 118 65 79 66 79 66 118 65 119 67 79 66 119 67 78 68 78 68 119 67 120 69 78 68 120 69 77 70 77 70 120 69 121 71 77 70 121 71 76 72 76 72 121 71 122 73 76 72 122 73 75 74 75 74 122 73 123 75 75 74 123 75 74 76 74 76 123 75 124 77 74 76 124 77 73 78 73 78 124 77 125 79 73 78 125 79 72 80 72 80 125 79 126 81 72 80 126 81 71 82 71 82 126 81 127 83 71 82 127 83 70 84 70 84 127 83 128 85 70 84 128 85 69 86 69 86 128 85 129 87 69 86 129 87 68 88 68 88 129 87 130 89 68 88 130 89 67 90 67 90 130 89 131 91 67 90 131 91 66 92 66 92 131 91 132 93 66 92 132 93 65 94 65 94 132 93 133 95 65 94 133 95 64 96 64 96 133 95 134 97 64 96 134 97 63 98 63 98 134 97 135 99 63 98 135 99 62 100 62 100 135 99 136 101 62 100 136 101 61 102 61 102 136 101 137 103 61 102 137 103 60 104 60 104 137 103 138 105 60 104 138 105 59 106 59 106 138 105 139 107 59 106 139 107 58 108 58 108 139 107 140 109 58 108 140 109 57 110 57 110 140 109 141 111 57 110 141 111 56 112 56 112 141 111 142 113 56 112 142 113 55 114 55 114 142 113 143 115 55 114 143 115 54 116 54 116 143 115 144 117 54 116 144 117 53 118 53 118 144 117 145 119 53 118 145 119 52 120 52 120 145 119 146 121 52 120 146 121 51 122 51 122 146 121 147 123 51 122 147 123 50 124 50 124 147 123 148 125 50 124 148 125 49 126 49 126 148 125 149 127 49 126 149 127 48 128 48 128 149 127 150 129 48 128 150 129 47 130 47 130 150 129 151 131 47 130 151 131 46 132 46 132 151 131 152 133 46 132 152 133 45 134 45 134 152 133 153 135 45 134 153 135 44 136 44 136 153 135 154 137 44 136 154 137 43 138 43 138 154 137 155 139 43 138 155 139 42 140 42 140 155 139 156 141 42 140 156 141 41 142 41 142 156 141 157 143 41 142 157 143 40 144 40 144 157 143 158 145 40 144 158 145 39 146 39 146 158 145 159 147 39 146 159 147 38 148 38 148 159 147 160 149 38 148 160 149 37 150 37 150 160 149 161 151 37 150 161 151 36 152 36 152 161 151 162 153 36 152 162 153 35 154 35 154 162 153 163 155 35 154 163 155 34 156 34 156 163 155 164 157 34 156 164 157 33 158 33 158 164 157 165 159 33 158 165 159 32 160 32 160 165 159 166 161 32 160 166 161 31 162 31 162 166 161 167 163 31 162 167 163 30 164 30 164 167 163 168 165 30 164 168 165 29 166 29 166 168 165 169 167 29 166 169 167 28 168 28 168 169 167 170 169 28 168 170 169 27 170 27 170 170 169 171 171 27 170 171 171 26 172 26 172 171 171 172 173 26 172 172 173 25 174 25 174 172 173 173 175 25 174 173 175 24 176 24 176 173 175 174 177 24 176 174 177 23 178 23 178 174 177 175 179 23 178 175 179 22 180 22 180 175 179 176 181 22 180 176 181 21 182 21 182 176 181 177 183 21 182 177 183 20 184 20 184 177 183 178 185 20 184 178 185 19 186 19 186 178 185 179 187 19 186 179 187 18 188 18 188 179 187 180 189 18 188 180 189 17 190 17 190 180 189 181 191 17 190 181 191 16 192 16 192 181 191 182 193 16 192 182 193 15 194 15 194 182 193 183 195 15 194 183 195 14 196 14 196 183 195 184 197 14 196 184 197 13 198 13 198 184 197 185 199 13 198 185 199 12 200 12 200 185 199 186 201 12 200 186 201 11 202 11 202 186 201 187 203 11 202 187 203 10 204 10 204 187 203 188 205 10 204 188 205 9 24 9 24 188 205 189 25 98 206 54 207 8 208 8 208 54 207 53 209 8 208 53 209 9 210 9 210 53 209 52 211 9 210 52 211 10 212 10 212 52 211 51 213 10 212 51 213 11 214 11 214 51 213 50 215 11 214 50 215 49 216 54 207 98 206 55 217 55 217 98 206 97 218 55 217 97 218 56 219 56 219 97 218 96 220 56 219 96 220 57 221 57 221 96 220 95 222 57 221 95 222 58 223 58 223 95 222 94 224 58 223 94 224 59 225 59 225 94 224 93 226 59 225 93 226 60 227 60 227 93 226 92 228 60 227 92 228 61 229 61 229 92 228 91 230 61 229 91 230 62 231 62 231 91 230 90 232 62 231 90 232 63 233 63 233 90 232 89 234 63 233 89 234 64 235 64 235 89 234 88 236 64 235 88 236 65 237 65 237 88 236 87 238 65 237 87 238 66 239 66 239 87 238 86 240 66 239 86 240 67 241 67 241 86 240 85 242 67 241 85 242 68 243 68 243 85 242 84 244 68 243 84 244 69 245 69 245 84 244 83 246 69 245 83 246 70 247 70 247 83 246 82 248 70 247 82 248 71 249 71 249 82 248 81 250 71 249 81 250 72 251 72 251 81 250 80 252 72 251 80 252 73 253 73 253 80 252 79 254 73 253 79 254 74 255 74 255 79 254 78 256 74 255 78 256 75 257 75 257 78 256 77 258 75 257 77 258 76 259 49 216 48 260 11 214 11 214 48 260 47 261 11 214 47 261 46 262 46 262 45 263 11 214 11 214 45 263 44 264 11 214 44 264 43 265 43 265 42 266 11 214 11 214 42 266 41 267 11 214 41 267 40 268 40 268 39 269 11 214 11 214 39 269 38 270 11 214 38 270 37 271 37 271 36 272 11 214 11 214 36 272 35 273 11 214 35 273 34 274 34 274 33 275 11 214 11 214 33 275 32 276 11 214 32 276 31 277 31 277 30 278 11 214 11 214 30 278 29 279 11 214 29 279 28 280 28 280 27 281 11 214 11 214 27 281 26 282 11 214 26 282 25 283 25 283 24 284 11 214 11 214 24 284 23 285 11 214 23 285 22 286 22 286 21 287 11 214 11 214 21 287 20 288 11 214 20 288 19 289 19 289 18 290 11 214 11 214 18 290 17 291 11 214 17 291 16 292 16 292 15 293 11 214 11 214 15 293 14 294 11 214 14 294 13 295 13 295 12 296 11 214 189 297 145 298 99 299 99 299 145 298 144 300 99 299 144 300 100 301 100 301 144 300 143 302 100 301 143 302 101 303 101 303 143 302 142 304 101 303 142 304 102 305 102 305 142 304 141 306 102 305 141 306 103 307 103 307 141 306 140 308 103 307 140 308 104 309 104 309 140 308 139 310 104 309 139 310 105 311 105 311 139 310 138 312 105 311 138 312 106 313 106 313 138 312 137 314 106 313 137 314 107 315 107 315 137 314 136 316 107 315 136 316 108 317 108 317 136 316 135 318 108 317 135 318 109 319 109 319 135 318 134 320 109 319 134 320 110 321 110 321 134 320 133 322 110 321 133 322 111 323 111 323 133 322 132 324 111 323 132 324 112 325 112 325 132 324 131 326 112 325 131 326 113 327 113 327 131 326 130 328 113 327 130 328 114 329 114 329 130 328 129 330 114 329 129 330 115 331 115 331 129 330 128 332 115 331 128 332 116 333 116 333 128 332 127 334 116 333 127 334 117 335 117 335 127 334 126 336 117 335 126 336 118 337 118 337 126 336 125 338 118 337 125 338 119 339 119 339 125 338 124 340 119 339 124 340 120 341 120 341 124 340 123 342 120 341 123 342 121 343 121 343 123 342 122 344 145 298 189 297 146 345 146 345 189 297 188 346 146 345 188 346 147 347 147 347 188 346 187 348 147 347 187 348 148 349 148 349 187 348 149 350 149 350 187 348 150 351 150 351 187 348 151 352 151 352 187 348 152 353 152 353 187 348 153 354 153 354 187 348 154 355 154 355 187 348 155 356 155 356 187 348 156 357 156 357 187 348 157 358 157 358 187 348 158 359 158 359 187 348 159 360 159 360 187 348 160 361 160 361 187 348 161 362 161 362 187 348 162 363 162 363 187 348 163 364 163 364 187 348 164 365 164 365 187 348 165 366 165 366 187 348 166 367 166 367 187 348 167 368 167 368 187 348 168 369 168 369 187 348 169 370 169 370 187 348 170 371 170 371 187 348 171 372 171 372 187 348 172 373 172 373 187 348 173 374 173 374 187 348 174 375 174 375 187 348 175 376 175 376 187 348 176 377 176 377 187 348 177 378 177 378 187 348 178 379 178 379 187 348 179 380 179 380 187 348 180 381 180 381 187 348 181 382 181 382 187 348 182 383 182 383 187 348 183 384 183 384 187 348 184 385 184 385 187 348 185 386 185 386 187 348 186 387</p>
        </triangles>
      </mesh>
    </geometry>
  </library_geometries>
  <library_visual_scenes>
    <visual_scene id="Scene" name="Scene">
      <node id="base_link-node" name="base_link" type="NODE">
        <instance_geometry url="#base_link-mesh">
          <bind_material>
            <technique_common>
              <instance_material symbol="Steel_-_Satin" target="#Steel_-_Satin"/>
            </technique_common>
          </bind_material>
        </instance_geometry>
      </node>
    </visual_scene>
  </library_visual_scenes>
  <scene>
    <instance_visual_scene url="#Scene"/>
  </scene>
</COLLADA>
