<?xml version="1.0" encoding="utf-8"?>
<COLLADA xmlns="http://www.collada.org/2005/11/COLLADASchema" version="1.4.1">
  <asset>
    <contributor>
      <authoring_tool>Fusion URDF/XACRO Exporter</authoring_tool>
    </contributor>
    <created>2026-09-24T02:12:54Z</created>
    <modified>2026-09-24T02:12:54Z</modified>
    <unit name="meter" meter="1.0"/>
    <up_axis>Z_UP</up_axis>
  </asset>
  <library_effects>
    <effect id="Steel_-_Satin-effect">
      <profile_COMMON>
        <technique sid="common">
          <lambert>
            <emission><color>0 0 0 1</color></emission>
            <ambient><color>0.0000 0.0000 0.0000 1</color></ambient>
            <diffuse><color>0.6275 0.6275 0.6275 1</color></diffuse>
            <reflective><color>0 0 0 1</color></reflective>
            <transparent opaque="A_ONE"><color>1 1 1 1</color></transparent>
            <transparency><float>1</float></transparency>
          </lambert>
        </technique>
      </profile_COMMON>
    </effect>
  </library_effects>
  <library_materials>
    <material id="Steel_-_Satin" name="Steel_-_Satin">
      <instance_effect url="#Steel_-_Satin-effect"/>
    </material>
  </library_materials>
  <library_geometries>
    <geometry id="elbow_arm-mesh" name="elbow_arm">
      <mesh>
        <source id="elbow_arm-mesh-positions">
          <float_array id="elbow_arm-mesh-positions-array" count="456">-0.045000 -0.040000 0.506000 -0.045000 -0.039856 0.509392 -0.045000 -0.039425 0.512760 -0.045000 -0.038709 0.516079 -0.045000 -0.037715 0.519326 -0.045000 -0.036449 0.522476 -0.045000 -0.034921 0.525508 -0.045000 -0.033140 0.528399 -0.045000 -0.031121 0.531129 -0.045000 -0.028878 0.533678 -0.045000 -0.026427 0.536027 -0.045000 -0.023785 0.538160 -0.045000 -0.020972 0.540061 -0.045000 -0.018008 0.541717 -0.045000 -0.014914 0.543116 -0.045000 -0.011713 0.544247 -0.045000 -0.008427 0.545102 -0.045000 -0.005081 0.545676 -0.045000 -0.001698 0.545964 -0.045000 0.001698 0.545964 -0.045000 0.005081 0.545676 -0.045000 0.008427 0.545102 -0.045000 0.011713 0.544247 -0.045000 0.014914 0.543116 -0.045000 0.018008 0.541717 -0.045000 0.020972 0.540061 -0.045000 0.023785 0.538160 -0.045000 0.026427 0.536027 -0.045000 0.028878 0.533678 -0.045000 0.031121 0.531129 -0.045000 0.033140 0.528399 -0.045000 0.034921 0.525508 -0.045000 0.036449 0.522476 -0.045000 0.037715 0.519326 -0.045000 0.038709 0.516079 -0.045000 0.039425 0.512760 -0.045000 0.039856 0.509392 -0.045000 0.040000 0.506000 -0.050000 0.040000 0.506000 -0.050000 0.039856 0.509392 -0.050000 0.039425 0.512760 -0.050000 0.038709 0.516079 -0.050000 0.037715 0.519326 -0.050000 0.036449 0.522476 -0.050000 0.034921 0.525508 -0.050000 0.033140 0.528399 -0.050000 0.031121 0.531129 -0.050000 0.028878 0.533678 -0.050000 0.026427 0.536027 -0.050000 0.023785 0.538160 -0.050000 0.020972 0.540061 -0.050000 0.018008 0.541717 -0.050000 0.014914 0.543116 -0.050000 0.011713 0.544247 -0.050000 0.008427 0.545102 -0.050000 0.005081 0.545676 -0.050000 0.001698 0.545964 -0.050000 -0.001698 0.545964 -0.050000 -0.005081 0.545676 -0.050000 -0.008427 0.545102 -0.050000 -0.011713 0.544247 -0.050000 -0.014914 0.543116 -0.050000 -0.018008 0.541717 -0.050000 -0.020972 0.540061 -0.050000 -0.023785 0.538160 -0.050000 -0.026427 0.536027 -0.050000 -0.028878 0.533678 -0.050000 -0.031121 0.531129 -0.050000 -0.033140 0.528399 -0.050000 -0.034921 0.525508 -0.050000 -0.036449 0.522476 -0.050000 -0.037715 0.519326 -0.050000 -0.038709 0.516079 -0.050000 -0.039425 0.512760 -0.050000 -0.039856 0.509392 -0.050000 -0.040000 0.506000 -0.045000 -0.040000 0.366000 -0.050000 -0.040000 0.366000 -0.045000 0.040000 0.366000 -0.045000 0.039856 0.362608 -0.045000 0.039425 0.359240 -0.045000 0.038709 0.355921 -0.045000 0.037715 0.352674 -0.045000 0.036449 0.349524 -0.045000 0.034921 0.346492 -0.045000 0.033140 0.343601 -0.045000 0.031121 0.340871 -0.045000 0.028878 0.338322 -0.045000 0.026427 0.335973 -0.045000 0.023785 0.333840 -0.045000 0.020972 0.331939 -0.045000 0.018008 0.330283 -0.045000 0.014914 0.328884 -0.045000 0.011713 0.327753 -0.045000 0.008427 0.326898 -0.045000 0.005081 0.326324 -0.045000 0.001698 0.326036 -0.045000 -0.001698 0.326036 -0.045000 -0.005081 0.326324 -0.045000 -0.008427 0.326898 -0.045000 -0.011713 0.327753 -0.045000 -0.014914 0.328884 -0.045000 -0.018008 0.330283 -0.045000 -0.020972 0.331939 -0.045000 -0.023785 0.333840 -0.045000 -0.026427 0.335973 -0.045000 -0.028878 0.338322 -0.045000 -0.031121 0.340871 -0.045000 -0.033140 0.343601 -0.045000 -0.034921 0.346492 -0.045000 -0.036449 0.349524 -0.045000 -0.037715 0.352674 -0.045000 -0.038709 0.355921 -0.045000 -0.039425 0.359240 -0.045000 -0.039856 0.362608 -0.050000 -0.039856 0.362608 -0.050000 -0.039425 0.359240 -0.050000 -0.038709 0.355921 -0.050000 -0.037715 0.352674 -0.050000 -0.036449 0.349524 -0.050000 -0.034921 0.346492 -0.050000 -0.033140 0.343601 -0.050000 -0.031121 0.340871 -0.050000 -0.028878 0.338322 -0.050000 -0.026427 0.335973 -0.050000 -0.023785 0.333840 -0.050000 -0.020972 0.331939 -0.050000 -0.018008 0.330283 -0.050000 -0.014914 0.328884 -0.050000 -0.011713 0.327753 -0.050000 -0.008427 0.326898 -0.050000 -0.005081 0.326324 -0.050000 -0.001698 0.326036 -0.050000 0.001698 0.326036 -0.050000 0.005081 0.326324 -0.050000 0.008427 0.326898 -0.050000 0.011713 0.327753 -0.050000 0.014914 0.328884 -0.050000 0.018008 0.330283 -0.050000 0.020972 0.331939 -0.050000 0.023785 0.333840 -0.050000 0.026427 0.335973 -0.050000 0.028878 0.338322 -0.050000 0.031121 0.340871 -0.050000 0.033140 0.343601 -0.050000 0.034921 0.346492 -0.050000 0.036449 0.349524 -0.050000 0.037715 0.352674 -0.050000 0.038709 0.355921 -0.050000 0.039425 0.359240 -0.050000 0.039856 0.362608 -0.050000 0.040000 0.366000</float_array>
          <technique_common>
            <accessor source="#elbow_arm-mesh-positions-array" count="152" stride="3">
              <param name="X" type="float"/>
              <param name="Y" type="float"/>
              <param name="Z" type="float"/>
            </accessor>
          </technique_common>
        </source>
        <source id="elbow_arm-mesh-normals">
          <float_array id="elbow_arm-mesh-normals-array" count="912">-0.000000 -1.000000 0.000000 -0.000000 -1.000000 0.000000 -0.000000 -0.996397 0.084806 -0.000000 -0.996397 0.084806 -0.000000 -0.985616 0.169001 -0.000000 -0.985616 0.169001 -0.000000 -0.967733 0.251978 -0.000000 -0.967733 0.251978 -0.000000 -0.942877 0.333140 -0.000000 -0.942877 0.333140 -0.000000 -0.911228 0.411901 -0.000000 -0.911228 0.411901 -0.000000 -0.873014 0.487695 -0.000000 -0.873014 0.487695 -0.000000 -0.828510 0.559975 -0.000000 -0.828510 0.559975 -0.000000 -0.778036 0.628220 -0.000000 -0.778036 0.628220 -0.000000 -0.721956 0.691939 -0.000000 -0.721956 0.691939 -0.000000 -0.660675 0.750672 -0.000000 -0.660675 0.750672 -0.000000 -0.594633 0.803997 -0.000000 -0.594633 0.803997 -0.000000 -0.524307 0.851529 -0.000000 -0.524307 0.851529 -0.000000 -0.450204 0.892926 -0.000000 -0.450204 0.892926 -0.000000 -0.372856 0.927889 -0.000000 -0.372856 0.927889 -0.000000 -0.292823 0.956167 -0.000000 -0.292823 0.956167 -0.000000 -0.210679 0.977555 -0.000000 -0.210679 0.977555 -0.000000 -0.127018 0.991900 -0.000000 -0.127018 0.991900 -0.000000 -0.042441 0.999099 -0.000000 -0.042441 0.999099 0.000000 0.042441 0.999099 0.000000 0.042441 0.999099 0.000000 0.127018 0.991900 0.000000 0.127018 0.991900 0.000000 0.210679 0.977555 0.000000 0.210679 0.977555 0.000000 0.292823 0.956167 0.000000 0.292823 0.956167 0.000000 0.372856 0.927889 0.000000 0.372856 0.927889 0.000000 0.450204 0.892926 0.000000 0.450204 0.892926 0.000000 0.524307 0.851529 0.000000 0.524307 0.851529 0.000000 0.594633 0.803997 0.000000 0.594633 0.803997 0.000000 0.660675 0.750672 0.000000 0.660675 0.750672 0.000000 0.721956 0.691939 0.000000 0.721956 0.691939 0.000000 0.778036 0.628220 0.000000 0.778036 0.628220 0.000000 0.828510 0.559975 0.000000 0.828510 0.559975 0.000000 0.873014 0.487695 0.000000 0.873014 0.487695 0.000000 0.911228 0.411901 0.000000 0.911228 0.411901 0.000000 0.942877 0.333140 0.000000 0.942877 0.333140 0.000000 0.967733 0.251978 0.000000 0.967733 0.251978 0.000000 0.985616 0.169001 0.000000 0.985616 0.169001 0.000000 0.996397 0.084806 0.000000 0.996397 0.084806 0.000000 1.000000 0.000000 0.000000 1.000000 0.000000 0.000000 -1.000000 0.000000 0.000000 -1.000000 0.000000 0.000000 1.000000 0.000000 0.000000 1.000000 0.000000 -0.000000 0.996397 -0.084806 -0.000000 0.996397 -0.084806 -0.000000 0.985616 -0.169001 -0.000000 0.985616 -0.169001 -0.000000 0.967733 -0.251978 -0.000000 0.967733 -0.251978 -0.000000 0.942877 -0.333140 -0.000000 0.942877 -0.333140 -0.000000 0.911228 -0.411901 -0.000000 0.911228 -0.411901 -0.000000 0.873014 -0.487695 -0.000000 0.873014 -0.487695 -0.000000 0.828510 -0.559975 -0.000000 0.828510 -0.559975 -0.000000 0.778036 -0.628220 -0.000000 0.778036 -0.628220 -0.000000 0.721956 -0.691939 -0.000000 0.721956 -0.691939 -0.000000 0.660675 -0.750672 -0.000000 0.660675 -0.750672 -0.000000 0.594633 -0.803997 -0.000000 0.594633 -0.803997 -0.000000 0.524307 -0.851529 -0.000000 0.524307 -0.851529 -0.000000 0.450204 -0.892926 -0.000000 0.450204 -0.892926 -0.000000 0.372856 -0.927889 -0.000000 0.372856 -0.927889 -0.000000 0.292823 -0.956167 -0.000000 0.292823 -0.956167 -0.000000 0.210679 -0.977555 -0.000000 0.210679 -0.977555 -0.000000 0.127018 -0.991900 -0.000000 0.127018 -0.991900 -0.000000 0.042441 -0.999099 -0.000000 0.042441 -0.999099 -0.000000 -0.042441 -0.999099 -0.000000 -0.042441 -0.999099 -0.000000 -0.127018 -0.991900 -0.000000 -0.127018 -0.991900 -0.000000 -0.210679 -0.977555 -0.000000 -0.210679 -0.977555 -0.000000 -0.292823 -0.956167 -0.000000 -0.292823 -0.956167 -0.000000 -0.372856 -0.927889 -0.000000 -0.372856 -0.927889 -0.000000 -0.450204 -0.892926 -0.000000 -0.450204 -0.892926 -0.000000 -0.524307 -0.851529 -0.000000 -0.524307 -0.851529 -0.000000 -0.594633 -0.803997 -0.000000 -0.594633 -0.803997 -0.000000 -0.660675 -0.750672 -0.000000 -0.660675 -0.750672 -0.000000 -0.721956 -0.691939 -0.000000 -0.721956 -0.691939 -0.000000 -0.778036 -0.628220 -0.000000 -0.778036 -0.628220 -0.000000 -0.828510 -0.559975 -0.000000 -0.828510 -0.559975 -0.000000 -0.873014 -0.487695 -0.000000 -0.873014 -0.487695 -0.000000 -0.911228 -0.411901 -0.000000 -0.911228 -0.411901 -0.000000 -0.942877 -0.333140 -0.000000 -0.942877 -0.333140 -0.000000 -0.967733 -0.251978 -0.000000 -0.967733 -0.251978 -0.000000 -0.985616 -0.169001 -0.000000 -0.985616 -0.169001 -0.000000 -0.996397 -0.084806 -0.000000 -0.996397 -0.084806 -1.000000 0.000000 0.000000 -1.000000 0.000000 0.000000 -1.000000 0.000000 0.000000 -1.000000 0.000000 0.000000 -1.000000 0.000000 0.000000 -1.000000 0.000000 0.000000 -1.000000 0.000000 0.000000 -1.000000 0.000000 0.000000 -1.000000 0.000000 0.000000 -1.000000 0.000000 0.000000 -1.000000 0.000000 0.000000 -1.000000 0.000000 0.000000 -1.000000 0.000000 0.000000 -1.000000 0.000000 0.000000 -1.000000 0.000000 0.000000 -1.000000 0.000000 0.000000 -1.000000 0.000000 0.000000 -1.000000 0.000000 0.000000 -1.000000 0.000000 0.000000 -1.000000 0.000000 0.000000 -1.000000 0.000000 0.000000 -1.000000 0.000000 0.000000 -1.000000 0.000000 0.000000 -1.000000 0.000000 0.000000 -1.000000 0.000000 0.000000 -1.000000 0.000000 0.000000 -1.000000 0.000000 0.000000 -1.000000 0.000000 0.000000 -1.000000 0.000000 0.000000 -1.000000 0.000000 0.000000 -1.000000 0.000000 0.000000 -1.000000 0.000000 0.000000 -1.000000 0.000000 0.000000 -1.000000 0.000000 0.000000 -1.000000 0.000000 0.000000 -1.000000 0.000000 0.000000 -1.000000 0.000000 0.000000 -1.000000 0.000000 0.000000 -1.000000 0.000000 0.000000 -1.000000 0.000000 0.000000 -1.000000 0.000000 0.000000 -1.000000 0.000000 0.000000 -1.000000 0.000000 0.000000 -1.000000 0.000000 0.000000 -1.000000 0.000000 0.000000 -1.000000 0.000000 0.000000 -1.000000 0.000000 0.000000 -1.000000 0.000000 0.000000 -1.000000 0.000000 0.000000 -1.000000 0.000000 0.000000 -1.000000 0.000000 0.000000 -1.000000 0.000000 0.000000 -1.000000 0.000000 0.000000 -1.000000 0.000000 0.000000 -1.000000 0.000000 0.000000 -1.000000 0.000000 0.000000 -1.000000 0.000000 0.000000 -1.000000 0.000000 0.000000 -1.000000 0.000000 0.000000 -1.000000 0.000000 0.000000 -1.000000 0.000000 0.000000 -1.000000 0.000000 0.000000 -1.000000 0.000000 0.000000 -1.000000 0.000000 0.000000 -1.000000 0.000000 0.000000 -1.000000 0.000000 0.000000 -1.000000 0.000000 0.000000 -1.000000 0.000000 0.000000 -1.000000 0.000000 0.000000 -1.000000 0.000000 0.000000 -1.000000 0.000000 0.000000 -1.000000 0.000000 0.000000 -1.000000 0.000000 0.000000 -1.000000 0.000000 0.000000 -1.000000 0.000000 0.000000 -1.000000 0.000000 0.000000 1.000000 -0.000000 -0.000000 1.000000 -0.000000 -0.000000 1.000000 -0.000000 -0.000000 1.000000 -0.000000 -0.000000 1.000000 -0.000000 -0.000000 1.000000 -0.000000 -0.000000 1.000000 -0.000000 -0.000000 1.000000 -0.000000 -0.000000 1.000000 -0.000000 -0.000000 1.000000 -0.000000 -0.000000 1.000000 -0.000000 -0.000000 1.000000 -0.000000 -0.000000 1.000000 -0.000000 -0.000000 1.000000 -0.000000 -0.000000 1.000000 -0.000000 -0.000000 1.000000 -0.000000 -0.000000 1.000000 -0.000000 -0.000000 1.000000 -0.000000 -0.000000 1.000000 -0.000000 -0.000000 1.000000 -0.000000 -0.000000 1.000000 -0.000000 -0.000000 1.000000 -0.000000 -0.000000 1.000000 -0.000000 -0.000000 1.000000 -0.000000 -0.000000 1.000000 -0.000000 -0.000000 1.000000 -0.000000 -0.000000 1.000000 -0.000000 -0.000000 1.000000 -0.000000 -0.000000 1.000000 -0.000000 -0.000000 1.000000 -0.000000 -0.000000 1.000000 -0.000000 -0.000000 1.000000 -0.000000 -0.000000 1.000000 -0.000000 -0.000000 1.000000 -0.000000 -0.000000 1.000000 -0.000000 -0.000000 1.000000 -0.000000 -0.000000 1.000000 -0.000000 -0.000000 1.000000 -0.000000 -0.000000 1.000000 -0.000000 -0.000000 1.000000 -0.000000 -0.000000 1.000000 -0.000000 -0.000000 1.000000 -0.000000 -0.000000 1.000000 -0.000000 -0.000000 1.000000 -0.000000 -0.000000 1.000000 -0.000000 -0.000000 1.000000 -0.000000 -0.000000 1.000000 -0.000000 -0.000000 1.000000 -0.000000 -0.000000 1.000000 -0.000000 -0.000000 1.000000 -0.000000 -0.000000 1.000000 -0.000000 -0.000000 1.000000 -0.000000 -0.000000 1.000000 -0.000000 -0.000000 1.000000 -0.000000 -0.000000 1.000000 -0.000000 -0.000000 1.000000 -0.000000 -0.000000 1.000000 -0.000000 -0.000000 1.000000 -0.000000 -0.000000 1.000000 -0.000000 -0.000000 1.000000 -0.000000 -0.000000 1.000000 -0.000000 -0.000000 1.000000 -0.000000 -0.000000 1.000000 -0.000000 -0.000000 1.000000 -0.000000 -0.000000 1.000000 -0.000000 -0.000000 1.000000 -0.000000 -0.000000 1.000000 -0.000000 -0.000000 1.000000 -0.000000 -0.000000 1.000000 -0.000000 -0.000000 1.000000 -0.000000 -0.000000 1.000000 -0.000000 -0.000000 1.000000 -0.000000 -0.000000 1.000000 -0.000000 -0.000000 1.000000 -0.000000 -0.000000 1.000000 -0.000000 -0.000000 1.000000 -0.000000 -0.000000</float_array>
          <technique_common>
            <accessor source="#elbow_arm-mesh-normals-array" count="304" stride="3">
              <param name="X" type="float"/>
              <param name="Y" type="float"/>
              <param name="Z" type="float"/>
            </accessor>
          </technique_common>
        </source>
        <vertices id="elbow_arm-mesh-vertices">
          <input semantic="POSITION" source="#elbow_arm-mesh-positions"/>
        </vertices>
        <triangles material="Steel_-_Satin" count="300">
          <input semantic="VERTEX" source="#elbow_arm-mesh-vertices" offset="0"/>
          <input semantic="NORMAL" source="#elbow_arm-mesh-normals" offset="1"/>
          <p>75 0 0 1 74 2 74 2 0 1 1 3 74 2 1 3 73 4 73 4 1 3 2 5 73 4 2 5 72 6 72 6 2 5 3 7 72 6 3 7 71 8 71 8 3 7 4 9 71 8 4 9 70 10 70 10 4 9 5 11 70 10 5 11 69 12 69 12 5 11 6 13 69 12 6 13 68 14 68 14 6 13 7 15 68 14 7 15 67 16 67 16 7 15 8 17 67 16 8 17 66 18 66 18 8 17 9 19 66 18 9 19 65 20 65 20 9 19 10 21 65 20 10 21 64 22 64 22 10 21 11 23 64 22 11 23 63 24 63 24 11 23 12 25 63 24 12 25 62 26 62 26 12 25 13 27 62 26 13 27 61 28 61 28 13 27 14 29 61 28 14 29 60 30 60 30 14 29 15 31 60 30 15 31 59 32 59 32 15 31 16 33 59 32 16 33 58 34 58 34 16 33 17 35 58 34 17 35 57 36 57 36 17 35 18 37 57 36 18 37 56 38 56 38 18 37 19 39 56 38 19 39 55 40 55 40 19 39 20 41 55 40 20 41 54 42 54 42 20 41 21 43 54 42 21 43 53 44 53 44 21 43 22 45 53 44 22 45 52 46 52 46 22 45 23 47 52 46 23 47 51 48 51 48 23 47 24 49 51 48 24 49 50 50 50 50 24 49 25 51 50 50 25 51 49 52 49 52 25 51 26 53 49 52 26 53 48 54 48 54 26 53 27 55 48 54 27 55 47 56 47 56 27 55 28 57 47 56 28 57 46 58 46 58 28 57 29 59 46 58 29 59 45 60 45 60 29 59 30 61 45 60 30 61 44 62 44 62 30 61 31 63 44 62 31 63 43 64 43 64 31 63 32 65 43 64 32 65 42 66 42 66 32 65 33 67 42 66 33 67 41 68 41 68 33 67 34 69 41 68 34 69 40 70 40 70 34 69 35 71 40 70 35 71 39 72 39 72 35 71 36 73 39 72 36 73 38 74 38 74 36 73 37 75 76 76 0 1 77 77 77 77 0 1 75 0 151 78 78 79 150 80 150 80 78 79 79 81 150 80 79 81 149 82 149 82 79 81 80 83 149 82 80 83 148 84 148 84 80 83 81 85 148 84 81 85 147 86 147 86 81 85 82 87 147 86 82 87 146 88 146 88 82 87 83 89 146 88 83 89 145 90 145 90 83 89 84 91 145 90 84 91 144 92 144 92 84 91 85 93 144 92 85 93 143 94 143 94 85 93 86 95 143 94 86 95 142 96 142 96 86 95 87 97 142 96 87 97 141 98 141 98 87 97 88 99 141 98 88 99 140 100 140 100 88 99 89 101 140 100 89 101 139 102 139 102 89 101 90 103 139 102 90 103 138 104 138 104 90 103 91 105 138 104 91 105 137 106 137 106 91 105 92 107 137 106 92 107 136 108 136 108 92 107 93 109 136 108 93 109 135 110 135 110 93 109 94 111 135 110 94 111 134 112 134 112 94 111 95 113 134 112 95 113 133 114 133 114 95 113 96 115 133 114 96 115 132 116 132 116 96 115 97 117 132 116 97 117 131 118 131 118 97 117 98 119 131 118 98 119 130 120 130 120 98 119 99 121 130 120 99 121 129 122 129 122 99 121 100 123 129 122 100 123 128 124 128 124 100 123 101 125 128 124 101 125 127 126 127 126 101 125 102 127 127 126 102 127 126 128 126 128 102 127 103 129 126 128 103 129 125 130 125 130 103 129 104 131 125 130 104 131 124 132 124 132 104 131 105 133 124 132 105 133 123 134 123 134 105 133 106 135 123 134 106 135 122 136 122 136 106 135 107 137 122 136 107 137 121 138 121 138 107 137 108 139 121 138 108 139 120 140 120 140 108 139 109 141 120 140 109 141 119 142 119 142 109 141 110 143 119 142 110 143 118 144 118 144 110 143 111 145 118 144 111 145 117 146 117 146 111 145 112 147 117 146 112 147 116 148 116 148 112 147 113 149 116 148 113 149 115 150 115 150 113 149 114 151 115 150 114 151 77 77 77 77 114 151 76 76 37 75 78 79 38 74 38 74 78 79 151 78 151 152 77 153 38 154 38 154 77 153 75 155 38 154 75 155 39 156 39 156 75 155 74 157 39 156 74 157 56 158 56 158 74 157 57 159 57 159 74 157 58 160 58 160 74 157 59 161 59 161 74 157 60 162 60 162 74 157 61 163 61 163 74 157 62 164 62 164 74 157 63 165 63 165 74 157 64 166 64 166 74 157 65 167 65 167 74 157 66 168 66 168 74 157 67 169 67 169 74 157 68 170 68 170 74 157 69 171 69 171 74 157 70 172 70 172 74 157 71 173 71 173 74 157 72 174 72 174 74 157 73 175 77 153 151 152 115 176 115 176 151 152 150 177 115 176 150 177 116 178 116 178 150 177 149 179 116 178 149 179 117 180 117 180 149 179 148 181 117 180 148 181 118 182 118 182 148 181 147 183 118 182 147 183 119 184 119 184 147 183 146 185 119 184 146 185 120 186 120 186 146 185 145 187 120 186 145 187 121 188 121 188 145 187 144 189 121 188 144 189 122 190 122 190 144 189 143 191 122 190 143 191 123 192 123 192 143 191 142 193 123 192 142 193 124 194 124 194 142 193 141 195 124 194 141 195 125 196 125 196 141 195 140 197 125 196 140 197 126 198 126 198 140 197 139 199 126 198 139 199 127 200 127 200 139 199 138 201 127 200 138 201 128 202 128 202 138 201 137 203 128 202 137 203 129 204 129 204 137 203 136 205 129 204 136 205 130 206 130 206 136 205 135 207 130 206 135 207 131 208 131 208 135 207 134 209 131 208 134 209 132 210 132 210 134 209 133 211 56 158 55 212 39 156 39 156 55 212 54 213 39 156 54 213 53 214 53 214 52 215 39 156 39 156 52 215 51 216 39 156 51 216 50 217 50 217 49 218 39 156 39 156 49 218 48 219 39 156 48 219 47 220 47 220 46 221 39 156 39 156 46 221 45 222 39 156 45 222 44 223 44 223 43 224 39 156 39 156 43 224 42 225 39 156 42 225 41 226 41 226 40 227 39 156 37 228 0 229 78 230 78 230 0 229 76 231 78 230 76 231 79 232 79 232 76 231 114 233 79 232 114 233 80 234 80 234 114 233 113 235 80 234 113 235 81 236 81 236 113 235 112 237 81 236 112 237 82 238 82 238 112 237 111 239 82 238 111 239 83 240 83 240 111 239 110 241 83 240 110 241 84 242 84 242 110 241 109 243 84 242 109 243 85 244 85 244 109 243 108 245 85 244 108 245 86 246 86 246 108 245 107 247 86 246 107 247 87 248 87 248 107 247 106 249 87 248 106 249 88 250 88 250 106 249 105 251 88 250 105 251 89 252 89 252 105 251 104 253 89 252 104 253 90 254 90 254 104 253 103 255 90 254 103 255 91 256 91 256 103 255 102 257 91 256 102 257 92 258 92 258 102 257 101 259 92 258 101 259 93 260 93 260 101 259 100 261 93 260 100 261 94 262 94 262 100 261 99 263 94 262 99 263 95 264 95 264 99 263 98 265 95 264 98 265 96 266 96 266 98 265 97 267 0 229 37 228 1 268 1 268 37 228 36 269 1 268 36 269 18 270 18 270 36 269 19 271 19 271 36 269 20 272 20 272 36 269 21 273 21 273 36 269 22 274 22 274 36 269 23 275 23 275 36 269 24 276 24 276 36 269 25 277 25 277 36 269 26 278 26 278 36 269 27 279 27 279 36 269 28 280 28 280 36 269 29 281 29 281 36 269 30 282 30 282 36 269 31 283 31 283 36 269 32 284 32 284 36 269 33 285 33 285 36 269 34 286 34 286 36 269 35 287 18 270 17 288 1 268 1 268 17 288 16 289 1 268 16 289 15 290 15 290 14 291 1 268 1 268 14 291 13 292 1 268 13 292 12 293 12 293 11 294 1 268 1 268 11 294 10 295 1 268 10 295 9 296 9 296 8 297 1 268 1 268 8 297 7 298 1 268 7 298 6 299 6 299 5 300 1 268 1 268 5 300 4 301 1 268 4 301 3 302 3 302 2 303 1 268</p>
        </triangles>
      </mesh>
    </geometry>
  </library_geometries>
  <library_visual_scenes>
    <visual_scene id="Scene" name="Scene">
      <node id="elbow_arm-node" name="elbow_arm" type="NODE">
        <instance_geometry url="#elbow_arm-mesh">
          <bind_material>
            <technique_common>
              <instance_material symbol="Steel_-_Satin" target="#Steel_-_Satin"/>
            </technique_common>
          </bind_material>
        </instance_geometry>
      </node>
    </visual_scene>
  </library_visual_scenes>
  <scene>
    <instance_visual_scene url="#Scene"/>
  </scene>
</COLLADA>
