<?xml version="1.0" encoding="utf-8"?>
<COLLADA xmlns="http://www.collada.org/2005/11/COLLADASchema" version="1.4.1">
  <asset>
    <contributor>
      <authoring_tool>Fusion URDF/XACRO Exporter</authoring_tool>
    </contributor>
    <created>2026-09-24T02:12:54Z</created>
    <modified>2026-09-24T02:12:54Z</modified>
    <unit name="meter" meter="1.0"/>
    <up_axis>Z_UP</up_axis>
  </asset>
  <library_effects>
    <effect id="Steel_-_Satin-effect">
      <profile_COMMON>
        <technique sid="common">
          <lambert>
            <emission><color>0 0 0 1</color></emission>
            <ambient><color>0.0000 0.0000 0.0000 1</color></ambient>
            <diffuse><color>0.6275 0.6275 0.6275 1</color></diffuse>
            <reflective><color>0 0 0 1</color></reflective>
            <transparent opaque="A_ONE"><color>1 1 1 1</color></transparent>
            <transparency><float>1</float></transparency>
          </lambert>
        </technique>
      </profile_COMMON>
    </effect>
  </library_effects>
  <library_materials>
    <material id="Steel_-_Satin" name="Steel_-_Satin">
      <instance_effect url="#Steel_-_Satin-effect"/>
    </material>
  </library_materials>
  <library_geometries>
    <geometry id="shoulder_arm-mesh" name="shoulder_arm">
      <mesh>
        <source id="shoulder_arm-mesh-positions">
          <float_array id="shoulder_arm-mesh-positions-array" count="456">0.050000 0.040000 0.226000 0.050000 0.040000 0.366000 0.055000 0.040000 0.366000 0.055000 0.040000 0.226000 0.050000 -0.040000 0.226000 0.050000 -0.039856 0.222608 0.050000 -0.039425 0.219240 0.050000 -0.038709 0.215921 0.050000 -0.037715 0.212674 0.050000 -0.036449 0.209524 0.050000 -0.034921 0.206492 0.050000 -0.033140 0.203601 0.050000 -0.031121 0.200871 0.050000 -0.028878 0.198322 0.050000 -0.026427 0.195973 0.050000 -0.023785 0.193840 0.050000 -0.020972 0.191939 0.050000 -0.018008 0.190283 0.050000 -0.014914 0.188884 0.050000 -0.011713 0.187753 0.050000 -0.008427 0.186898 0.050000 -0.005081 0.186324 0.050000 -0.001698 0.186036 0.050000 0.001698 0.186036 0.050000 0.005081 0.186324 0.050000 0.008427 0.186898 0.050000 0.011713 0.187753 0.050000 0.014914 0.188884 0.050000 0.018008 0.190283 0.050000 0.020972 0.191939 0.050000 0.023785 0.193840 0.050000 0.026427 0.195973 0.050000 0.028878 0.198322 0.050000 0.031121 0.200871 0.050000 0.033140 0.203601 0.050000 0.034921 0.206492 0.050000 0.036449 0.209524 0.050000 0.037715 0.212674 0.050000 0.038709 0.215921 0.050000 0.039425 0.219240 0.050000 0.039856 0.222608 0.055000 0.039856 0.222608 0.055000 0.039425 0.219240 0.055000 0.038709 0.215921 0.055000 0.037715 0.212674 0.055000 0.036449 0.209524 0.055000 0.034921 0.206492 0.055000 0.033140 0.203601 0.055000 0.031121 0.200871 0.055000 0.028878 0.198322 0.055000 0.026427 0.195973 0.055000 0.023785 0.193840 0.055000 0.020972 0.191939 0.055000 0.018008 0.190283 0.055000 0.014914 0.188884 0.055000 0.011713 0.187753 0.055000 0.008427 0.186898 0.055000 0.005081 0.186324 0.055000 0.001698 0.186036 0.055000 -0.001698 0.186036 0.055000 -0.005081 0.186324 0.055000 -0.008427 0.186898 0.055000 -0.011713 0.187753 0.055000 -0.014914 0.188884 0.055000 -0.018008 0.190283 0.055000 -0.020972 0.191939 0.055000 -0.023785 0.193840 0.055000 -0.026427 0.195973 0.055000 -0.028878 0.198322 0.055000 -0.031121 0.200871 0.055000 -0.033140 0.203601 0.055000 -0.034921 0.206492 0.055000 -0.036449 0.209524 0.055000 -0.037715 0.212674 0.055000 -0.038709 0.215921 0.055000 -0.039425 0.219240 0.055000 -0.039856 0.222608 0.055000 -0.040000 0.226000 0.050000 -0.040000 0.366000 0.055000 -0.040000 0.366000 0.050000 0.039856 0.369392 0.050000 0.039425 0.372760 0.050000 0.038709 0.376079 0.050000 0.037715 0.379326 0.050000 0.036449 0.382476 0.050000 0.034921 0.385508 0.050000 0.033140 0.388399 0.050000 0.031121 0.391129 0.050000 0.028878 0.393678 0.050000 0.026427 0.396027 0.050000 0.023785 0.398160 0.050000 0.020972 0.400061 0.050000 0.018008 0.401717 0.050000 0.014914 0.403116 0.050000 0.011713 0.404247 0.050000 0.008427 0.405102 0.050000 0.005081 0.405676 0.050000 0.001698 0.405964 0.050000 -0.001698 0.405964 0.050000 -0.005081 0.405676 0.050000 -0.008427 0.405102 0.050000 -0.011713 0.404247 0.050000 -0.014914 0.403116 0.050000 -0.018008 0.401717 0.050000 -0.020972 0.400061 0.050000 -0.023785 0.398160 0.050000 -0.026427 0.396027 0.050000 -0.028878 0.393678 0.050000 -0.031121 0.391129 0.050000 -0.033140 0.388399 0.050000 -0.034921 0.385508 0.050000 -0.036449 0.382476 0.050000 -0.037715 0.379326 0.050000 -0.038709 0.376079 0.050000 -0.039425 0.372760 0.050000 -0.039856 0.369392 0.055000 -0.039856 0.369392 0.055000 -0.039425 0.372760 0.055000 -0.038709 0.376079 0.055000 -0.037715 0.379326 0.055000 -0.036449 0.382476 0.055000 -0.034921 0.385508 0.055000 -0.033140 0.388399 0.055000 -0.031121 0.391129 0.055000 -0.028878 0.393678 0.055000 -0.026427 0.396027 0.055000 -0.023785 0.398160 0.055000 -0.020972 0.400061 0.055000 -0.018008 0.401717 0.055000 -0.014914 0.403116 0.055000 -0.011713 0.404247 0.055000 -0.008427 0.405102 0.055000 -0.005081 0.405676 0.055000 -0.001698 0.405964 0.055000 0.001698 0.405964 0.055000 0.005081 0.405676 0.055000 0.008427 0.405102 0.055000 0.011713 0.404247 0.055000 0.014914 0.403116 0.055000 0.018008 0.401717 0.055000 0.020972 0.400061 0.055000 0.023785 0.398160 0.055000 0.026427 0.396027 0.055000 0.028878 0.393678 0.055000 0.031121 0.391129 0.055000 0.033140 0.388399 0.055000 0.034921 0.385508 0.055000 0.036449 0.382476 0.055000 0.037715 0.379326 0.055000 0.038709 0.376079 0.055000 0.039425 0.372760 0.055000 0.039856 0.369392</float_array>
          <technique_common>
            <accessor source="#shoulder_arm-mesh-positions-array" count="152" stride="3">
              <param name="X" type="float"/>
              <param name="Y" type="float"/>
              <param name="Z" type="float"/>
            </accessor>
          </technique_common>
        </source>
        <source id="shoulder_arm-mesh-normals">
          <float_array id="shoulder_arm-mesh-normals-array" count="912">0.000000 1.000000 0.000000 0.000000 1.000000 0.000000 0.000000 1.000000 0.000000 0.000000 1.000000 0.000000 0.000000 -1.000000 -0.000000 0.000000 -1.000000 -0.000000 0.000000 -0.996397 -0.084806 0.000000 -0.996397 -0.084806 0.000000 -0.985616 -0.169001 0.000000 -0.985616 -0.169001 0.000000 -0.967733 -0.251978 0.000000 -0.967733 -0.251978 0.000000 -0.942877 -0.333140 0.000000 -0.942877 -0.333140 0.000000 -0.911228 -0.411901 0.000000 -0.911228 -0.411901 0.000000 -0.873014 -0.487695 0.000000 -0.873014 -0.487695 0.000000 -0.828510 -0.559975 0.000000 -0.828510 -0.559975 0.000000 -0.778036 -0.628220 0.000000 -0.778036 -0.628220 0.000000 -0.721956 -0.691939 0.000000 -0.721956 -0.691939 0.000000 -0.660675 -0.750672 0.000000 -0.660675 -0.750672 0.000000 -0.594633 -0.803997 0.000000 -0.594633 -0.803997 0.000000 -0.524307 -0.851529 0.000000 -0.524307 -0.851529 0.000000 -0.450204 -0.892926 0.000000 -0.450204 -0.892926 0.000000 -0.372856 -0.927889 0.000000 -0.372856 -0.927889 0.000000 -0.292823 -0.956167 0.000000 -0.292823 -0.956167 0.000000 -0.210679 -0.977555 0.000000 -0.210679 -0.977555 0.000000 -0.127018 -0.991900 0.000000 -0.127018 -0.991900 0.000000 -0.042441 -0.999099 0.000000 -0.042441 -0.999099 -0.000000 0.042441 -0.999099 -0.000000 0.042441 -0.999099 -0.000000 0.127018 -0.991900 -0.000000 0.127018 -0.991900 -0.000000 0.210679 -0.977555 -0.000000 0.210679 -0.977555 -0.000000 0.292823 -0.956167 -0.000000 0.292823 -0.956167 -0.000000 0.372856 -0.927889 -0.000000 0.372856 -0.927889 -0.000000 0.450204 -0.892926 -0.000000 0.450204 -0.892926 -0.000000 0.524307 -0.851529 -0.000000 0.524307 -0.851529 -0.000000 0.594633 -0.803997 -0.000000 0.594633 -0.803997 -0.000000 0.660675 -0.750672 -0.000000 0.660675 -0.750672 -0.000000 0.721956 -0.691939 -0.000000 0.721956 -0.691939 -0.000000 0.778036 -0.628220 -0.000000 0.778036 -0.628220 -0.000000 0.828510 -0.559975 -0.000000 0.828510 -0.559975 -0.000000 0.873014 -0.487695 -0.000000 0.873014 -0.487695 -0.000000 0.911228 -0.411901 -0.000000 0.911228 -0.411901 -0.000000 0.942877 -0.333140 -0.000000 0.942877 -0.333140 -0.000000 0.967733 -0.251978 -0.000000 0.967733 -0.251978 -0.000000 0.985616 -0.169001 -0.000000 0.985616 -0.169001 -0.000000 0.996397 -0.084806 -0.000000 0.996397 -0.084806 0.000000 -1.000000 0.000000 0.000000 -1.000000 0.000000 -0.000000 0.996397 0.084806 -0.000000 0.996397 0.084806 -0.000000 0.985616 0.169001 -0.000000 0.985616 0.169001 -0.000000 0.967733 0.251978 -0.000000 0.967733 0.251978 -0.000000 0.942877 0.333140 -0.000000 0.942877 0.333140 -0.000000 0.911228 0.411901 -0.000000 0.911228 0.411901 -0.000000 0.873014 0.487695 -0.000000 0.873014 0.487695 -0.000000 0.828510 0.559975 -0.000000 0.828510 0.559975 -0.000000 0.778036 0.628220 -0.000000 0.778036 0.628220 -0.000000 0.721956 0.691939 -0.000000 0.721956 0.691939 -0.000000 0.660675 0.750672 -0.000000 0.660675 0.750672 -0.000000 0.594633 0.803997 -0.000000 0.594633 0.803997 -0.000000 0.524307 0.851529 -0.000000 0.524307 0.851529 -0.000000 0.450204 0.892926 -0.000000 0.450204 0.892926 -0.000000 0.372856 0.927889 -0.000000 0.372856 0.927889 -0.000000 0.292823 0.956167 -0.000000 0.292823 0.956167 -0.000000 0.210679 0.977555 -0.000000 0.210679 0.977555 -0.000000 0.127018 0.991900 -0.000000 0.127018 0.991900 -0.000000 0.042441 0.999099 -0.000000 0.042441 0.999099 -0.000000 -0.042441 0.999099 -0.000000 -0.042441 0.999099 -0.000000 -0.127018 0.991900 -0.000000 -0.127018 0.991900 -0.000000 -0.210679 0.977555 -0.000000 -0.210679 0.977555 -0.000000 -0.292823 0.956167 -0.000000 -0.292823 0.956167 -0.000000 -0.372856 0.927889 -0.000000 -0.372856 0.927889 -0.000000 -0.450204 0.892926 -0.000000 -0.450204 0.892926 -0.000000 -0.524307 0.851529 -0.000000 -0.524307 0.851529 -0.000000 -0.594633 0.803997 -0.000000 -0.594633 0.803997 -0.000000 -0.660675 0.750672 -0.000000 -0.660675 0.750672 -0.000000 -0.721956 0.691939 -0.000000 -0.721956 0.691939 -0.000000 -0.778036 0.628220 -0.000000 -0.778036 0.628220 -0.000000 -0.828510 0.559975 -0.000000 -0.828510 0.559975 -0.000000 -0.873014 0.487695 -0.000000 -0.873014 0.487695 -0.000000 -0.911228 0.411901 -0.000000 -0.911228 0.411901 -0.000000 -0.942877 0.333140 -0.000000 -0.942877 0.333140 -0.000000 -0.967733 0.251978 -0.000000 -0.967733 0.251978 -0.000000 -0.985616 0.169001 -0.000000 -0.985616 0.169001 -0.000000 -0.996397 0.084806 -0.000000 -0.996397 0.084806 1.000000 0.000000 0.000000 1.000000 0.000000 0.000000 1.000000 0.000000 0.000000 1.000000 0.000000 0.000000 1.000000 0.000000 0.000000 1.000000 0.000000 0.000000 1.000000 0.000000 0.000000 1.000000 0.000000 0.000000 1.000000 0.000000 0.000000 1.000000 0.000000 0.000000 1.000000 0.000000 0.000000 1.000000 0.000000 0.000000 1.000000 0.000000 0.000000 1.000000 0.000000 0.000000 1.000000 0.000000 0.000000 1.000000 0.000000 0.000000 1.000000 0.000000 0.000000 1.000000 0.000000 0.000000 1.000000 0.000000 0.000000 1.000000 0.000000 0.000000 1.000000 0.000000 0.000000 1.000000 0.000000 0.000000 1.000000 0.000000 0.000000 1.000000 0.000000 0.000000 1.000000 0.000000 0.000000 1.000000 0.000000 0.000000 1.000000 0.000000 0.000000 1.000000 0.000000 0.000000 1.000000 0.000000 0.000000 1.000000 0.000000 0.000000 1.000000 0.000000 0.000000 1.000000 0.000000 0.000000 1.000000 0.000000 0.000000 1.000000 0.000000 0.000000 1.000000 0.000000 0.000000 1.000000 0.000000 0.000000 1.000000 0.000000 0.000000 1.000000 0.000000 0.000000 1.000000 0.000000 0.000000 1.000000 0.000000 0.000000 1.000000 0.000000 0.000000 1.000000 0.000000 0.000000 1.000000 0.000000 0.000000 1.000000 0.000000 0.000000 1.000000 0.000000 0.000000 1.000000 0.000000 0.000000 1.000000 0.000000 0.000000 1.000000 0.000000 0.000000 1.000000 0.000000 0.000000 1.000000 0.000000 0.000000 1.000000 0.000000 0.000000 1.000000 0.000000 0.000000 1.000000 0.000000 0.000000 1.000000 0.000000 0.000000 1.000000 0.000000 0.000000 1.000000 0.000000 0.000000 1.000000 0.000000 0.000000 1.000000 0.000000 0.000000 1.000000 0.000000 0.000000 1.000000 0.000000 0.000000 1.000000 0.000000 0.000000 1.000000 0.000000 0.000000 1.000000 0.000000 0.000000 1.000000 0.000000 0.000000 1.000000 0.000000 0.000000 1.000000 0.000000 0.000000 1.000000 0.000000 0.000000 1.000000 0.000000 0.000000 1.000000 0.000000 0.000000 1.000000 0.000000 0.000000 1.000000 0.000000 0.000000 1.000000 0.000000 0.000000 1.000000 0.000000 0.000000 1.000000 0.000000 0.000000 1.000000 0.000000 0.000000 1.000000 0.000000 0.000000 -1.000000 -0.000000 -0.000000 -1.000000 -0.000000 -0.000000 -1.000000 -0.000000 -0.000000 -1.000000 -0.000000 -0.000000 -1.000000 -0.000000 -0.000000 -1.000000 -0.000000 -0.000000 -1.000000 -0.000000 -0.000000 -1.000000 -0.000000 -0.000000 -1.000000 -0.000000 -0.000000 -1.000000 -0.000000 -0.000000 -1.000000 -0.000000 -0.000000 -1.000000 -0.000000 -0.000000 -1.000000 -0.000000 -0.000000 -1.000000 -0.000000 -0.000000 -1.000000 -0.000000 -0.000000 -1.000000 -0.000000 -0.000000 -1.000000 -0.000000 -0.000000 -1.000000 -0.000000 -0.000000 -1.000000 -0.000000 -0.000000 -1.000000 -0.000000 -0.000000 -1.000000 -0.000000 -0.000000 -1.000000 -0.000000 -0.000000 -1.000000 -0.000000 -0.000000 -1.000000 -0.000000 -0.000000 -1.000000 -0.000000 -0.000000 -1.000000 -0.000000 -0.000000 -1.000000 -0.000000 -0.000000 -1.000000 -0.000000 -0.000000 -1.000000 -0.000000 -0.000000 -1.000000 -0.000000 -0.000000 -1.000000 -0.000000 -0.000000 -1.000000 -0.000000 -0.000000 -1.000000 -0.000000 -0.000000 -1.000000 -0.000000 -0.000000 -1.000000 -0.000000 -0.000000 -1.000000 -0.000000 -0.000000 -1.000000 -0.000000 -0.000000 -1.000000 -0.000000 -0.000000 -1.000000 -0.000000 -0.000000 -1.000000 -0.000000 -0.000000 -1.000000 -0.000000 -0.000000 -1.000000 -0.000000 -0.000000 -1.000000 -0.000000 -0.000000 -1.000000 -0.000000 -0.000000 -1.000000 -0.000000 -0.000000 -1.000000 -0.000000 -0.000000 -1.000000 -0.000000 -0.000000 -1.000000 -0.000000 -0.000000 -1.000000 -0.000000 -0.000000 -1.000000 -0.000000 -0.000000 -1.000000 -0.000000 -0.000000 -1.000000 -0.000000 -0.000000 -1.000000 -0.000000 -0.000000 -1.000000 -0.000000 -0.000000 -1.000000 -0.000000 -0.000000 -1.000000 -0.000000 -0.000000 -1.000000 -0.000000 -0.000000 -1.000000 -0.000000 -0.000000 -1.000000 -0.000000 -0.000000 -1.000000 -0.000000 -0.000000 -1.000000 -0.000000 -0.000000 -1.000000 -0.000000 -0.000000 -1.000000 -0.000000 -0.000000 -1.000000 -0.000000 -0.000000 -1.000000 -0.000000 -0.000000 -1.000000 -0.000000 -0.000000 -1.000000 -0.000000 -0.000000 -1.000000 -0.000000 -0.000000 -1.000000 -0.000000 -0.000000 -1.000000 -0.000000 -0.000000 -1.000000 -0.000000 -0.000000 -1.000000 -0.000000 -0.000000 -1.000000 -0.000000 -0.000000 -1.000000 -0.000000 -0.000000 -1.000000 -0.000000 -0.000000 -1.000000 -0.000000 -0.000000</float_array>
          <technique_common>
            <accessor source="#shoulder_arm-mesh-normals-array" count="304" stride="3">
              <param name="X" type="float"/>
              <param name="Y" type="float"/>
              <param name="Z" type="float"/>
            </accessor>
          </technique_common>
        </source>
        <vertices id="shoulder_arm-mesh-vertices">
          <input semantic="POSITION" source="#shoulder_arm-mesh-positions"/>
        </vertices>
        <triangles material="Steel_-_Satin" count="300">
          <input semantic="VERTEX" source="#shoulder_arm-mesh-vertices" offset="0"/>
          <input semantic="NORMAL" source="#shoulder_arm-mesh-normals" offset="1"/>
          <p>0 0 1 1 3 2 3 2 1 1 2 3 77 4 4 5 76 6 76 6 4 5 5 7 76 6 5 7 75 8 75 8 5 7 6 9 75 8 6 9 74 10 74 10 6 9 7 11 74 10 7 11 73 12 73 12 7 11 8 13 73 12 8 13 72 14 72 14 8 13 9 15 72 14 9 15 71 16 71 16 9 15 10 17 71 16 10 17 70 18 70 18 10 17 11 19 70 18 11 19 69 20 69 20 11 19 12 21 69 20 12 21 68 22 68 22 12 21 13 23 68 22 13 23 67 24 67 24 13 23 14 25 67 24 14 25 66 26 66 26 14 25 15 27 66 26 15 27 65 28 65 28 15 27 16 29 65 28 16 29 64 30 64 30 16 29 17 31 64 30 17 31 63 32 63 32 17 31 18 33 63 32 18 33 62 34 62 34 18 33 19 35 62 34 19 35 61 36 61 36 19 35 20 37 61 36 20 37 60 38 60 38 20 37 21 39 60 38 21 39 59 40 59 40 21 39 22 41 59 40 22 41 58 42 58 42 22 41 23 43 58 42 23 43 57 44 57 44 23 43 24 45 57 44 24 45 56 46 56 46 24 45 25 47 56 46 25 47 55 48 55 48 25 47 26 49 55 48 26 49 54 50 54 50 26 49 27 51 54 50 27 51 53 52 53 52 27 51 28 53 53 52 28 53 52 54 52 54 28 53 29 55 52 54 29 55 51 56 51 56 29 55 30 57 51 56 30 57 50 58 50 58 30 57 31 59 50 58 31 59 49 60 49 60 31 59 32 61 49 60 32 61 48 62 48 62 32 61 33 63 48 62 33 63 47 64 47 64 33 63 34 65 47 64 34 65 46 66 46 66 34 65 35 67 46 66 35 67 45 68 45 68 35 67 36 69 45 68 36 69 44 70 44 70 36 69 37 71 44 70 37 71 43 72 43 72 37 71 38 73 43 72 38 73 42 74 42 74 38 73 39 75 42 74 39 75 41 76 41 76 39 75 40 77 41 76 40 77 3 2 3 2 40 77 0 0 78 78 4 5 79 79 79 79 4 5 77 4 2 3 1 1 151 80 151 80 1 1 80 81 151 80 80 81 150 82 150 82 80 81 81 83 150 82 81 83 149 84 149 84 81 83 82 85 149 84 82 85 148 86 148 86 82 85 83 87 148 86 83 87 147 88 147 88 83 87 84 89 147 88 84 89 146 90 146 90 84 89 85 91 146 90 85 91 145 92 145 92 85 91 86 93 145 92 86 93 144 94 144 94 86 93 87 95 144 94 87 95 143 96 143 96 87 95 88 97 143 96 88 97 142 98 142 98 88 97 89 99 142 98 89 99 141 100 141 100 89 99 90 101 141 100 90 101 140 102 140 102 90 101 91 103 140 102 91 103 139 104 139 104 91 103 92 105 139 104 92 105 138 106 138 106 92 105 93 107 138 106 93 107 137 108 137 108 93 107 94 109 137 108 94 109 136 110 136 110 94 109 95 111 136 110 95 111 135 112 135 112 95 111 96 113 135 112 96 113 134 114 134 114 96 113 97 115 134 114 97 115 133 116 133 116 97 115 98 117 133 116 98 117 132 118 132 118 98 117 99 119 132 118 99 119 131 120 131 120 99 119 100 121 131 120 100 121 130 122 130 122 100 121 101 123 130 122 101 123 129 124 129 124 101 123 102 125 129 124 102 125 128 126 128 126 102 125 103 127 128 126 103 127 127 128 127 128 103 127 104 129 127 128 104 129 126 130 126 130 104 129 105 131 126 130 105 131 125 132 125 132 105 131 106 133 125 132 106 133 124 134 124 134 106 133 107 135 124 134 107 135 123 136 123 136 107 135 108 137 123 136 108 137 122 138 122 138 108 137 109 139 122 138 109 139 121 140 121 140 109 139 110 141 121 140 110 141 120 142 120 142 110 141 111 143 120 142 111 143 119 144 119 144 111 143 112 145 119 144 112 145 118 146 118 146 112 145 113 147 118 146 113 147 117 148 117 148 113 147 114 149 117 148 114 149 116 150 116 150 114 149 115 151 116 150 115 151 79 79 79 79 115 151 78 78 151 152 116 153 2 154 2 154 116 153 79 155 2 154 79 155 3 156 3 156 79 155 77 157 3 156 77 157 41 158 41 158 77 157 76 159 41 158 76 159 42 160 42 160 76 159 75 161 42 160 75 161 43 162 43 162 75 161 74 163 43 162 74 163 44 164 44 164 74 163 73 165 44 164 73 165 45 166 45 166 73 165 72 167 45 166 72 167 46 168 46 168 72 167 71 169 46 168 71 169 47 170 47 170 71 169 70 171 47 170 70 171 48 172 48 172 70 171 69 173 48 172 69 173 49 174 49 174 69 173 68 175 49 174 68 175 50 176 50 176 68 175 67 177 50 176 67 177 51 178 51 178 67 177 66 179 51 178 66 179 52 180 52 180 66 179 65 181 52 180 65 181 53 182 53 182 65 181 64 183 53 182 64 183 54 184 54 184 64 183 63 185 54 184 63 185 55 186 55 186 63 185 62 187 55 186 62 187 56 188 56 188 62 187 61 189 56 188 61 189 57 190 57 190 61 189 60 191 57 190 60 191 58 192 58 192 60 191 59 193 150 194 149 195 151 152 151 152 149 195 148 196 151 152 148 196 147 197 147 197 146 198 151 152 151 152 146 198 145 199 151 152 145 199 144 200 144 200 143 201 151 152 151 152 143 201 142 202 151 152 142 202 141 203 141 203 140 204 151 152 151 152 140 204 139 205 151 152 139 205 138 206 138 206 137 207 151 152 151 152 137 207 136 208 151 152 136 208 135 209 135 209 134 210 151 152 151 152 134 210 133 211 151 152 133 211 116 153 116 153 133 211 132 212 116 153 132 212 131 213 131 213 130 214 116 153 116 153 130 214 129 215 116 153 129 215 128 216 128 216 127 217 116 153 116 153 127 217 126 218 116 153 126 218 125 219 125 219 124 220 116 153 116 153 124 220 123 221 116 153 123 221 122 222 122 222 121 223 116 153 116 153 121 223 120 224 116 153 120 224 119 225 119 225 118 226 116 153 116 153 118 226 117 227 115 228 80 229 78 230 78 230 80 229 1 231 78 230 1 231 4 232 4 232 1 231 0 233 4 232 0 233 5 234 5 234 0 233 40 235 5 234 40 235 6 236 6 236 40 235 39 237 6 236 39 237 7 238 7 238 39 237 38 239 7 238 38 239 8 240 8 240 38 239 37 241 8 240 37 241 9 242 9 242 37 241 36 243 9 242 36 243 10 244 10 244 36 243 35 245 10 244 35 245 11 246 11 246 35 245 34 247 11 246 34 247 12 248 12 248 34 247 33 249 12 248 33 249 13 250 13 250 33 249 32 251 13 250 32 251 14 252 14 252 32 251 31 253 14 252 31 253 15 254 15 254 31 253 30 255 15 254 30 255 16 256 16 256 30 255 29 257 16 256 29 257 17 258 17 258 29 257 28 259 17 258 28 259 18 260 18 260 28 259 27 261 18 260 27 261 19 262 19 262 27 261 26 263 19 262 26 263 20 264 20 264 26 263 25 265 20 264 25 265 21 266 21 266 25 265 24 267 21 266 24 267 22 268 22 268 24 267 23 269 114 270 113 271 115 228 115 228 113 271 112 272 115 228 112 272 111 273 111 273 110 274 115 228 115 228 110 274 109 275 115 228 109 275 108 276 108 276 107 277 115 228 115 228 107 277 106 278 115 228 106 278 105 279 105 279 104 280 115 228 115 228 104 280 103 281 115 228 103 281 102 282 102 282 101 283 115 228 115 228 101 283 100 284 115 228 100 284 99 285 99 285 98 286 115 228 115 228 98 286 97 287 115 228 97 287 80 229 80 229 97 287 96 288 80 229 96 288 95 289 95 289 94 290 80 229 80 229 94 290 93 291 80 229 93 291 92 292 92 292 91 293 80 229 80 229 91 293 90 294 80 229 90 294 89 295 89 295 88 296 80 229 80 229 88 296 87 297 80 229 87 297 86 298 86 298 85 299 80 229 80 229 85 299 84 300 80 229 84 300 83 301 83 301 82 302 80 229 80 229 82 302 81 303</p>
        </triangles>
      </mesh>
    </geometry>
  </library_geometries>
  <library_visual_scenes>
    <visual_scene id="Scene" name="Scene">
      <node id="shoulder_arm-node" name="shoulder_arm" type="NODE">
        <instance_geometry url="#shoulder_arm-mesh">
          <bind_material>
            <technique_common>
              <instance_material symbol="Steel_-_Satin" target="#Steel_-_Satin"/>
            </technique_common>
          </bind_material>
        </instance_geometry>
      </node>
    </visual_scene>
  </library_visual_scenes>
  <scene>
    <instance_visual_scene url="#Scene"/>
  </scene>
</COLLADA>
