<?xml version="1.0" encoding="utf-8"?>
<COLLADA xmlns="http://www.collada.org/2005/11/COLLADASchema" version="1.4.1">
  <asset>
    <contributor>
      <authoring_tool>Fusion URDF/XACRO Exporter</authoring_tool>
    </contributor>
    <created>2026-09-24T02:12:55Z</created>
    <modified>2026-09-24T02:12:55Z</modified>
    <unit name="meter" meter="1.0"/>
    <up_axis>Z_UP</up_axis>
  </asset>
  <library_effects>
    <effect id="Steel_-_Satin-effect">
      <profile_COMMON>
        <technique sid="common">
          <lambert>
            <emission><color>0 0 0 1</color></emission>
            <ambient><color>0.0000 0.0000 0.0000 1</color></ambient>
            <diffuse><color>0.6275 0.6275 0.6275 1</color></diffuse>
            <reflective><color>0 0 0 1</color></reflective>
            <transparent opaque="A_ONE"><color>1 1 1 1</color></transparent>
            <transparency><float>1</float></transparency>
          </lambert>
        </technique>
      </profile_COMMON>
    </effect>
  </library_effects>
  <library_materials>
    <material id="Steel_-_Satin" name="Steel_-_Satin">
      <instance_effect url="#Steel_-_Satin-effect"/>
    </material>
  </library_materials>
  <library_geometries>
    <geometry id="wrist_arm-mesh" name="wrist_arm">
      <mesh>
        <source id="wrist_arm-mesh-positions">
          <float_array id="wrist_arm-mesh-positions-array" count="300">0.045000 0.040000 0.606000 -0.035000 0.040000 0.606000 -0.035000 0.065000 0.606000 0.045000 0.065000 0.606000 -0.035000 -0.040000 0.606000 0.045000 -0.040000 0.606000 0.045000 -0.065000 0.606000 -0.035000 -0.065000 0.606000 -0.035000 -0.065000 0.631000 -0.035000 -0.040000 0.631000 -0.035000 0.040000 0.631000 -0.035000 0.065000 0.631000 0.045000 0.065000 0.631000 0.045000 0.040000 0.631000 0.045000 -0.040000 0.631000 0.045000 -0.065000 0.631000 0.055000 -0.040000 0.631000 0.055000 0.040000 0.631000 -0.045000 0.040000 0.631000 -0.045000 -0.040000 0.631000 0.050000 0.040000 0.601000 0.050000 -0.040000 0.601000 -0.045000 -0.040000 0.601000 -0.045000 0.040000 0.601000 0.050000 0.040000 0.506000 0.050000 0.039856 0.502608 0.050000 0.039425 0.499240 0.050000 0.038709 0.495921 0.050000 0.037715 0.492674 0.050000 0.036449 0.489524 0.050000 0.034921 0.486492 0.050000 0.033140 0.483601 0.050000 0.031121 0.480871 0.050000 0.028878 0.478322 0.050000 0.026427 0.475973 0.050000 0.023785 0.473840 0.050000 0.020972 0.471939 0.050000 0.018008 0.470283 0.050000 0.014914 0.468884 0.050000 0.011713 0.467753 0.050000 0.008427 0.466898 0.050000 0.005081 0.466324 0.050000 0.001698 0.466036 0.050000 -0.001698 0.466036 0.050000 -0.005081 0.466324 0.050000 -0.008427 0.466898 0.050000 -0.011713 0.467753 0.050000 -0.014914 0.468884 0.050000 -0.018008 0.470283 0.050000 -0.020972 0.471939 0.050000 -0.023785 0.473840 0.050000 -0.026427 0.475973 0.050000 -0.028878 0.478322 0.050000 -0.031121 0.480871 0.050000 -0.033140 0.483601 0.050000 -0.034921 0.486492 0.050000 -0.036449 0.489524 0.050000 -0.037715 0.492674 0.050000 -0.038709 0.495921 0.050000 -0.039425 0.499240 0.050000 -0.039856 0.502608 0.050000 -0.040000 0.506000 0.055000 -0.040000 0.506000 0.055000 0.040000 0.506000 0.055000 0.039856 0.502608 0.055000 0.039425 0.499240 0.055000 0.038709 0.495921 0.055000 0.037715 0.492674 0.055000 0.036449 0.489524 0.055000 0.034921 0.486492 0.055000 0.033140 0.483601 0.055000 0.031121 0.480871 0.055000 0.028878 0.478322 0.055000 0.026427 0.475973 0.055000 0.023785 0.473840 0.055000 0.020972 0.471939 0.055000 0.018008 0.470283 0.055000 0.014914 0.468884 0.055000 0.011713 0.467753 0.055000 0.008427 0.466898 0.055000 0.005081 0.466324 0.055000 0.001698 0.466036 0.055000 -0.001698 0.466036 0.055000 -0.005081 0.466324 0.055000 -0.008427 0.466898 0.055000 -0.011713 0.467753 0.055000 -0.014914 0.468884 0.055000 -0.018008 0.470283 0.055000 -0.020972 0.471939 0.055000 -0.023785 0.473840 0.055000 -0.026427 0.475973 0.055000 -0.028878 0.478322 0.055000 -0.031121 0.480871 0.055000 -0.033140 0.483601 0.055000 -0.034921 0.486492 0.055000 -0.036449 0.489524 0.055000 -0.037715 0.492674 0.055000 -0.038709 0.495921 0.055000 -0.039425 0.499240 0.055000 -0.039856 0.502608</float_array>
          <technique_common>
            <accessor source="#wrist_arm-mesh-positions-array" count="100" stride="3">
              <param name="X" type="float"/>
              <param name="Y" type="float"/>
              <param name="Z" type="float"/>
            </accessor>
          </technique_common>
        </source>
        <source id="wrist_arm-mesh-normals">
          <float_array id="wrist_arm-mesh-normals-array" count="672">-0.000000 -0.000000 -1.000000 -0.000000 -0.000000 -1.000000 -0.000000 -0.000000 -1.000000 -0.000000 -0.000000 -1.000000 -0.000000 -0.000000 -1.000000 -0.000000 -0.000000 -1.000000 -0.000000 -0.000000 -1.000000 -0.000000 -0.000000 -1.000000 -1.000000 0.000000 0.000000 -1.000000 0.000000 0.000000 -1.000000 0.000000 0.000000 -1.000000 0.000000 0.000000 -1.000000 0.000000 0.000000 -1.000000 0.000000 0.000000 -1.000000 0.000000 0.000000 -1.000000 0.000000 0.000000 0.000000 1.000000 0.000000 0.000000 1.000000 0.000000 0.000000 1.000000 0.000000 0.000000 1.000000 0.000000 1.000000 0.000000 0.000000 1.000000 0.000000 0.000000 1.000000 0.000000 0.000000 1.000000 0.000000 0.000000 1.000000 0.000000 -0.000000 1.000000 0.000000 -0.000000 1.000000 0.000000 -0.000000 1.000000 0.000000 -0.000000 0.000000 -1.000000 0.000000 0.000000 -1.000000 0.000000 0.000000 -1.000000 0.000000 0.000000 -1.000000 0.000000 0.000000 0.000000 1.000000 0.000000 0.000000 1.000000 0.000000 0.000000 1.000000 0.000000 0.000000 1.000000 0.000000 0.000000 1.000000 0.000000 0.000000 1.000000 0.000000 0.000000 1.000000 0.000000 0.000000 1.000000 0.000000 0.000000 1.000000 0.000000 0.000000 1.000000 0.000000 0.000000 1.000000 0.000000 0.000000 1.000000 0.000000 0.000000 -1.000000 0.000000 0.000000 -1.000000 0.000000 0.000000 -1.000000 0.000000 0.000000 -1.000000 -1.000000 0.000000 0.000000 -1.000000 0.000000 0.000000 -1.000000 0.000000 0.000000 -1.000000 0.000000 0.000000 -1.000000 -0.000000 -0.000000 -1.000000 -0.000000 -0.000000 -1.000000 -0.000000 -0.000000 -1.000000 -0.000000 -0.000000 -1.000000 -0.000000 -0.000000 -1.000000 -0.000000 -0.000000 -1.000000 -0.000000 -0.000000 -1.000000 -0.000000 -0.000000 -1.000000 -0.000000 -0.000000 -1.000000 -0.000000 -0.000000 -1.000000 -0.000000 -0.000000 -1.000000 -0.000000 -0.000000 -1.000000 -0.000000 -0.000000 -1.000000 -0.000000 -0.000000 -1.000000 -0.000000 -0.000000 -1.000000 -0.000000 -0.000000 -1.000000 -0.000000 -0.000000 -1.000000 -0.000000 -0.000000 -1.000000 -0.000000 -0.000000 -1.000000 -0.000000 -0.000000 -1.000000 -0.000000 -0.000000 -1.000000 -0.000000 -0.000000 -1.000000 -0.000000 -0.000000 -1.000000 -0.000000 -0.000000 -1.000000 -0.000000 -0.000000 -1.000000 -0.000000 -0.000000 -1.000000 -0.000000 -0.000000 -1.000000 -0.000000 -0.000000 -1.000000 -0.000000 -0.000000 -1.000000 -0.000000 -0.000000 -1.000000 -0.000000 -0.000000 -1.000000 -0.000000 -0.000000 -1.000000 -0.000000 -0.000000 -1.000000 -0.000000 -0.000000 -1.000000 -0.000000 -0.000000 -1.000000 -0.000000 -0.000000 -1.000000 -0.000000 -0.000000 -1.000000 -0.000000 -0.000000 -1.000000 -0.000000 -0.000000 -1.000000 -0.000000 -0.000000 0.000000 -1.000000 0.000000 0.000000 -1.000000 0.000000 0.000000 -1.000000 0.000000 0.000000 -1.000000 0.000000 0.000000 -1.000000 0.000000 0.000000 -1.000000 0.000000 0.000000 -1.000000 0.000000 0.000000 -1.000000 0.000000 0.000000 -1.000000 0.000000 0.000000 -1.000000 0.000000 0.000000 1.000000 0.000000 0.000000 1.000000 0.000000 0.000000 1.000000 0.000000 0.000000 1.000000 0.000000 0.000000 1.000000 0.000000 0.000000 1.000000 0.000000 0.000000 1.000000 0.000000 0.000000 1.000000 0.000000 0.000000 1.000000 0.000000 0.000000 1.000000 0.000000 0.000000 -0.996397 -0.084806 0.000000 -0.996397 -0.084806 0.000000 -0.985616 -0.169001 0.000000 -0.985616 -0.169001 0.000000 -0.967733 -0.251978 0.000000 -0.967733 -0.251978 0.000000 -0.942877 -0.333140 0.000000 -0.942877 -0.333140 0.000000 -0.911228 -0.411901 0.000000 -0.911228 -0.411901 0.000000 -0.873014 -0.487695 0.000000 -0.873014 -0.487695 0.000000 -0.828510 -0.559975 0.000000 -0.828510 -0.559975 0.000000 -0.778036 -0.628220 0.000000 -0.778036 -0.628220 0.000000 -0.721956 -0.691939 0.000000 -0.721956 -0.691939 0.000000 -0.660675 -0.750672 0.000000 -0.660675 -0.750672 0.000000 -0.594633 -0.803997 0.000000 -0.594633 -0.803997 0.000000 -0.524307 -0.851529 0.000000 -0.524307 -0.851529 0.000000 -0.450204 -0.892926 0.000000 -0.450204 -0.892926 0.000000 -0.372856 -0.927889 0.000000 -0.372856 -0.927889 0.000000 -0.292823 -0.956167 0.000000 -0.292823 -0.956167 0.000000 -0.210679 -0.977555 0.000000 -0.210679 -0.977555 0.000000 -0.127018 -0.991900 0.000000 -0.127018 -0.991900 0.000000 -0.042441 -0.999099 0.000000 -0.042441 -0.999099 -0.000000 0.042441 -0.999099 -0.000000 0.042441 -0.999099 -0.000000 0.127018 -0.991900 -0.000000 0.127018 -0.991900 -0.000000 0.210679 -0.977555 -0.000000 0.210679 -0.977555 -0.000000 0.292823 -0.956167 -0.000000 0.292823 -0.956167 -0.000000 0.372856 -0.927889 -0.000000 0.372856 -0.927889 -0.000000 0.450204 -0.892926 -0.000000 0.450204 -0.892926 -0.000000 0.524307 -0.851529 -0.000000 0.524307 -0.851529 -0.000000 0.594633 -0.803997 -0.000000 0.594633 -0.803997 -0.000000 0.660675 -0.750672 -0.000000 0.660675 -0.750672 -0.000000 0.721956 -0.691939 -0.000000 0.721956 -0.691939 -0.000000 0.778036 -0.628220 -0.000000 0.778036 -0.628220 -0.000000 0.828510 -0.559975 -0.000000 0.828510 -0.559975 -0.000000 0.873014 -0.487695 -0.000000 0.873014 -0.487695 -0.000000 0.911228 -0.411901 -0.000000 0.911228 -0.411901 -0.000000 0.942877 -0.333140 -0.000000 0.942877 -0.333140 -0.000000 0.967733 -0.251978 -0.000000 0.967733 -0.251978 -0.000000 0.985616 -0.169001 -0.000000 0.985616 -0.169001 -0.000000 0.996397 -0.084806 -0.000000 0.996397 -0.084806 1.000000 0.000000 0.000000 1.000000 0.000000 0.000000 1.000000 0.000000 0.000000 1.000000 0.000000 0.000000 1.000000 0.000000 0.000000 1.000000 0.000000 0.000000 1.000000 0.000000 0.000000 1.000000 0.000000 0.000000 1.000000 0.000000 0.000000 1.000000 0.000000 0.000000 1.000000 0.000000 0.000000 1.000000 0.000000 0.000000 1.000000 0.000000 0.000000 1.000000 0.000000 0.000000 1.000000 0.000000 0.000000 1.000000 0.000000 0.000000 1.000000 0.000000 0.000000 1.000000 0.000000 0.000000 1.000000 0.000000 0.000000 1.000000 0.000000 0.000000 1.000000 0.000000 0.000000 1.000000 0.000000 0.000000 1.000000 0.000000 0.000000 1.000000 0.000000 0.000000 1.000000 0.000000 0.000000 1.000000 0.000000 0.000000 1.000000 0.000000 0.000000 1.000000 0.000000 0.000000 1.000000 0.000000 0.000000 1.000000 0.000000 0.000000 1.000000 0.000000 0.000000 1.000000 0.000000 0.000000 1.000000 0.000000 0.000000 1.000000 0.000000 0.000000 1.000000 0.000000 0.000000 1.000000 0.000000 0.000000 1.000000 0.000000 0.000000 1.000000 0.000000 0.000000 1.000000 0.000000 0.000000 1.000000 0.000000 0.000000</float_array>
          <technique_common>
            <accessor source="#wrist_arm-mesh-normals-array" count="224" stride="3">
              <param name="X" type="float"/>
              <param name="Y" type="float"/>
              <param name="Z" type="float"/>
            </accessor>
          </technique_common>
        </source>
        <vertices id="wrist_arm-mesh-vertices">
          <input semantic="POSITION" source="#wrist_arm-mesh-positions"/>
        </vertices>
        <triangles material="Steel_-_Satin" count="196">
          <input semantic="VERTEX" source="#wrist_arm-mesh-vertices" offset="0"/>
          <input semantic="NORMAL" source="#wrist_arm-mesh-normals" offset="1"/>
          <p>0 0 1 1 3 2 3 2 1 1 2 3 4 4 5 5 7 6 7 6 5 5 6 7 4 8 7 9 9 10 9 10 7 9 8 11 2 12 1 13 11 14 11 14 1 13 10 15 3 16 2 17 12 18 12 18 2 17 11 19 0 20 3 21 13 22 13 22 3 21 12 23 6 24 5 25 15 26 15 26 5 25 14 27 7 28 6 29 8 30 8 30 6 29 15 31 8 32 15 33 9 34 9 34 15 33 14 35 9 34 14 35 10 36 10 36 14 35 13 37 10 36 13 37 11 38 11 38 13 37 12 39 14 35 16 40 13 37 13 37 16 40 17 41 10 36 18 42 9 34 9 34 18 42 19 43 20 44 21 45 23 46 23 46 21 45 22 47 22 48 19 49 23 50 23 50 19 49 18 51 21 52 20 53 61 54 61 54 20 53 44 55 61 54 44 55 45 56 20 53 24 57 44 55 44 55 24 57 43 58 43 58 24 57 42 59 42 59 24 57 41 60 41 60 24 57 40 61 40 61 24 57 39 62 39 62 24 57 38 63 38 63 24 57 37 64 37 64 24 57 36 65 36 65 24 57 35 66 35 66 24 57 34 67 34 67 24 57 33 68 33 68 24 57 32 69 32 69 24 57 31 70 31 70 24 57 30 71 30 71 24 57 29 72 29 72 24 57 28 73 28 73 24 57 27 74 27 74 24 57 26 75 26 75 24 57 25 76 45 56 46 77 61 54 61 54 46 77 47 78 61 54 47 78 48 79 48 79 49 80 61 54 61 54 49 80 50 81 61 54 50 81 51 82 51 82 52 83 61 54 61 54 52 83 53 84 61 54 53 84 54 85 54 85 55 86 61 54 61 54 55 86 56 87 61 54 56 87 57 88 57 88 58 89 61 54 61 54 58 89 59 90 61 54 59 90 60 91 61 92 62 93 21 94 21 94 62 93 16 95 21 94 16 95 5 96 5 96 16 95 14 97 5 96 4 98 21 94 21 94 4 98 22 99 22 99 4 98 19 100 19 100 4 98 9 101 24 102 20 103 63 104 63 104 20 103 17 105 17 105 20 103 0 106 17 105 0 106 13 107 0 106 20 103 1 108 1 108 20 103 23 109 1 108 23 109 18 110 18 110 10 111 1 108 62 93 61 92 99 112 99 112 61 92 60 113 99 112 60 113 98 114 98 114 60 113 59 115 98 114 59 115 97 116 97 116 59 115 58 117 97 116 58 117 96 118 96 118 58 117 57 119 96 118 57 119 95 120 95 120 57 119 56 121 95 120 56 121 94 122 94 122 56 121 55 123 94 122 55 123 93 124 93 124 55 123 54 125 93 124 54 125 92 126 92 126 54 125 53 127 92 126 53 127 91 128 91 128 53 127 52 129 91 128 52 129 90 130 90 130 52 129 51 131 90 130 51 131 89 132 89 132 51 131 50 133 89 132 50 133 88 134 88 134 50 133 49 135 88 134 49 135 87 136 87 136 49 135 48 137 87 136 48 137 86 138 86 138 48 137 47 139 86 138 47 139 85 140 85 140 47 139 46 141 85 140 46 141 84 142 84 142 46 141 45 143 84 142 45 143 83 144 83 144 45 143 44 145 83 144 44 145 82 146 82 146 44 145 43 147 82 146 43 147 81 148 81 148 43 147 42 149 81 148 42 149 80 150 80 150 42 149 41 151 80 150 41 151 79 152 79 152 41 151 40 153 79 152 40 153 78 154 78 154 40 153 39 155 78 154 39 155 77 156 77 156 39 155 38 157 77 156 38 157 76 158 76 158 38 157 37 159 76 158 37 159 75 160 75 160 37 159 36 161 75 160 36 161 74 162 74 162 36 161 35 163 74 162 35 163 73 164 73 164 35 163 34 165 73 164 34 165 72 166 72 166 34 165 33 167 72 166 33 167 71 168 71 168 33 167 32 169 71 168 32 169 70 170 70 170 32 169 31 171 70 170 31 171 69 172 69 172 31 171 30 173 69 172 30 173 68 174 68 174 30 173 29 175 68 174 29 175 67 176 67 176 29 175 28 177 67 176 28 177 66 178 66 178 28 177 27 179 66 178 27 179 65 180 65 180 27 179 26 181 65 180 26 181 64 182 64 182 26 181 25 183 64 182 25 183 63 104 63 104 25 183 24 102 99 184 98 185 62 186 62 186 98 185 97 187 62 186 97 187 96 188 96 188 95 189 62 186 62 186 95 189 94 190 62 186 94 190 93 191 93 191 92 192 62 186 62 186 92 192 91 193 62 186 91 193 90 194 90 194 89 195 62 186 62 186 89 195 88 196 62 186 88 196 87 197 87 197 86 198 62 186 62 186 86 198 85 199 62 186 85 199 84 200 84 200 83 201 62 186 62 186 83 201 82 202 62 186 82 202 16 203 16 203 82 202 81 204 16 203 81 204 63 205 63 205 81 204 80 206 63 205 80 206 79 207 79 207 78 208 63 205 63 205 78 208 77 209 63 205 77 209 76 210 76 210 75 211 63 205 63 205 75 211 74 212 63 205 74 212 73 213 73 213 72 214 63 205 63 205 72 214 71 215 63 205 71 215 70 216 70 216 69 217 63 205 63 205 69 217 68 218 63 205 68 218 67 219 67 219 66 220 63 205 63 205 66 220 65 221 63 205 65 221 64 222 63 205 17 223 16 203</p>
        </triangles>
      </mesh>
    </geometry>
  </library_geometries>
  <library_visual_scenes>
    <visual_scene id="Scene" name="Scene">
      <node id="wrist_arm-node" name="wrist_arm" type="NODE">
        <instance_geometry url="#wrist_arm-mesh">
          <bind_material>
            <technique_common>
              <instance_material symbol="Steel_-_Satin" target="#Steel_-_Satin"/>
            </technique_common>
          </bind_material>
        </instance_geometry>
      </node>
    </visual_scene>
  </library_visual_scenes>
  <scene>
    <instance_visual_scene url="#Scene"/>
  </scene>
</COLLADA>
